<?xml version="1.0" encoding="UTF-8"?>
<svg width="16px" height="16px" viewBox="0 0 16 16" version="1.1" xmlns="http://www.w3.org/2000/svg" xmlns:xlink="http://www.w3.org/1999/xlink">
    <title></title>
    <g id="nexusAI" stroke="none" stroke-width="1" fill="none" fill-rule="evenodd">
        <g id="" transform="translate(-30.000000, -552.000000)" fill-rule="nonzero">
            <g id="-16" transform="translate(30.000000, 550.000000)">
                <g id="2" transform="translate(0.000000, 2.000000)">
                    <rect id="" fill="#000000" opacity="0" x="0" y="0" width="16" height="16"></rect>
                    <path d="M8.54700348,0.51 L8.54700348,1.54457532 C11.6893122,1.74226235 13.6383391,3.77362572 13.6383391,7.63786994 L13.6383391,12.220072 L15.1657398,12.220072 L15.1657398,13.2383392 L10.5835378,13.2383392 C10.5835378,14.644224 9.44395363,15.784007 8.03786992,15.784007 C6.63198509,15.784007 5.49220209,14.644224 5.49220209,13.2383392 L0.91,13.2383392 L0.91,12.220072 L2.4374007,12.220072 L2.4374007,7.63786994 C2.4374007,3.77760333 4.49839725,1.74623994 7.52873636,1.54457532 L7.52873636,0.51 L8.54700348,0.51 Z M9.56527062,13.2383392 L6.51046923,13.2383392 C6.51046923,14.0817905 7.19441858,14.7657399 8.03786992,14.7657399 C8.88132126,14.7657399 9.56527062,14.0817905 9.56527062,13.2383392 Z M8.03786992,2.54653427 C5.29252627,2.54653427 3.45566781,4.58306855 3.45566781,7.63786994 L3.45566781,12.220072 L12.620072,12.220072 L12.620072,7.63786994 C12.620072,4.58306855 10.910497,2.54653427 8.03786992,2.54653427 Z M8.03786992,3.48270763 C10.0733176,3.48270763 11.7206972,5.11050187 11.7206972,7.08736926 L11.7206972,11.4034433 L4.40684528,11.4034433 L4.40684528,7.08736926 C4.40684528,5.11050187 6.00242221,3.48270763 8.03786992,3.48270763 Z" id="" fill="#5F6A79"></path>
                </g>
            </g>
        </g>
    </g>
</svg>
