<?xml version="1.0" encoding="UTF-8"?>
<svg width="14px" height="14px" viewBox="0 0 14 14" version="1.1" xmlns="http://www.w3.org/2000/svg" xmlns:xlink="http://www.w3.org/1999/xlink">
    <title></title>
    <g id="-1" stroke="none" stroke-width="1" fill="none" fill-rule="evenodd">
        <g id="nexusaiicon" transform="translate(-872.000000, -374.000000)" fill-rule="nonzero">
            <g id="-4" transform="translate(853.000000, 357.000000)">
                <g id="-3" transform="translate(15.000000, 13.000000)">
                    <g id="" transform="translate(4.000000, 4.000000)">
                        <rect id="" fill="#000000" opacity="0" x="0" y="0" width="14" height="14"></rect>
                        <path d="M10.6604167,0.875 C10.69425,0.875 10.7269167,0.8855 10.75375,0.90475 L13.3793333,2.78016666 C13.4215968,2.81026566 13.4466923,2.85894742 13.4466923,2.91083333 C13.4466923,2.96271924 13.4215968,3.011401 13.3793333,3.0415 L10.7543333,4.91691666 C10.7054067,4.95224994 10.6407893,4.95713309 10.5871084,4.92955389 C10.5334275,4.9019747 10.4997679,4.84660066 10.5,4.78625 L10.4994167,3.5 L7.24558334,3.5 C7.15225,3.5 7.05075,3.60208334 7.02975,3.75841666 L7.02566666,3.81966666 L7.02566666,10.1803333 C7.02566666,10.3495 7.11608332,10.4708333 7.21,10.4953333 L7.245,10.5 L10.5,10.5 L10.5,9.21958334 C10.4999262,9.15943731 10.5335033,9.10430347 10.5869762,9.07676801 C10.6404491,9.04923255 10.7048321,9.05392253 10.75375,9.08891666 L13.3793333,10.9643333 C13.4215968,10.9944323 13.4466923,11.0431141 13.4466923,11.095 C13.4466923,11.1468859 13.4215968,11.1955677 13.3793333,11.2256667 L10.7543333,13.1010833 C10.7054067,13.1364166 10.6407893,13.1412998 10.5871084,13.1137206 C10.5334275,13.0861414 10.4997679,13.0307673 10.5,12.9704167 L10.4994167,11.6666667 L7.24558334,11.6666667 C6.49483334,11.6666667 5.90741668,11.0401667 5.86191666,10.276 L5.859,10.1803333 L5.85841666,7.58333334 L3.98358334,7.58333334 C3.69946584,8.3872403 2.87748922,8.86952288 2.03712333,8.72538985 C1.19675744,8.58125682 0.582465468,7.85263659 0.582465468,7 C0.582465468,6.14736341 1.19675744,5.41874318 2.03712333,5.27461015 C2.87748922,5.13047712 3.69946584,5.6127597 3.98358334,6.41666666 L5.85841666,6.41666666 L5.85841666,3.81966666 C5.85841666,3.04558332 6.41608332,2.38816666 7.15283334,2.33683334 L7.245,2.33333334 L10.4988333,2.33333334 L10.5,1.03541666 C10.5,0.94675 10.57175,0.875 10.6604167,0.875 Z" id="" fill="#FFFFFF"></path>
                    </g>
                </g>
            </g>
        </g>
    </g>
</svg>
