<?xml version="1.0" encoding="UTF-8"?>
<svg width="16px" height="16px" viewBox="0 0 16 16" version="1.1" xmlns="http://www.w3.org/2000/svg" xmlns:xlink="http://www.w3.org/1999/xlink">
    <title>delete</title>
    <g id="nexusAI" stroke="none" stroke-width="1" fill="none" fill-rule="evenodd">
        <g id="01" transform="translate(-1836.000000, -699.000000)" fill-rule="nonzero">
            <g id="-6" transform="translate(331.000000, 638.000000)">
                <g id="-3" transform="translate(0.000000, 61.000000)">
                    <g id="" transform="translate(1505.000000, 0.000000)">
                        <rect id="" fill="#000000" opacity="0" x="0" y="0" width="16" height="16"></rect>
                        <path d="M12.6675781,5.55957031 L3.73164063,5.55957031 C3.67832031,5.55957031 3.6359375,5.60605469 3.64140625,5.659375 L4.46308594,14.2726562 C4.46308594,14.6732422 4.78847656,14.9986328 5.1890625,14.9986328 L11.2128906,14.9986328 C11.6134766,14.9986328 11.9388672,14.6732422 11.9388672,14.2726562 L12.7605469,5.659375 C12.7632813,5.60605469 12.7222656,5.55957031 12.6675781,5.55957031 Z M6.315625,13.1802734 L6.04902344,13.1802734 C5.87128906,13.1802734 5.72636719,13.0353516 5.72636719,12.8576172 L5.39414063,7.71699219 C5.39414063,7.53925781 5.5390625,7.39433594 5.71679688,7.39433594 L5.98339844,7.39433594 C6.16113281,7.39433594 6.30605469,7.53925781 6.30605469,7.71699219 L6.63828125,12.8576172 C6.63828125,13.0353516 6.49335938,13.1802734 6.315625,13.1802734 Z M8.65761719,12.8576172 C8.65761719,13.0353516 8.51269531,13.1802734 8.33496094,13.1802734 L8.06835938,13.1802734 C7.890625,13.1802734 7.74570313,13.0353516 7.74570313,12.8576172 L7.74570313,7.71699219 C7.74570313,7.53925781 7.890625,7.39433594 8.06835938,7.39433594 L8.33496094,7.39433594 C8.51269531,7.39433594 8.65761719,7.53925781 8.65761719,7.71699219 L8.65761719,12.8576172 Z M10.6851563,12.8576172 C10.6851563,13.0353516 10.5402344,13.1802734 10.3625,13.1802734 L10.0958984,13.1802734 C9.91816406,13.1802734 9.77324219,13.0353516 9.77324219,12.8576172 L10.1054688,7.71699219 C10.1054688,7.53925781 10.2503906,7.39433594 10.428125,7.39433594 L10.6947266,7.39433594 C10.8724609,7.39433594 11.0173828,7.53925781 11.0173828,7.71699219 L10.6851563,12.8576172 Z M12.8849609,3.09453125 L3.24628906,5.309375 C3.19160156,5.32167969 3.13828125,5.2875 3.12597656,5.23417969 L3.00566406,4.7078125 C2.91269531,4.30449219 3.16699219,3.8984375 3.5703125,3.80546875 L11.9375,1.88183594 C12.3408203,1.78886719 12.746875,2.04316406 12.8398438,2.44648437 L12.9601563,2.97285156 C12.9724609,3.02753906 12.9396484,3.08222656 12.8849609,3.09453125 Z M6.28417969,2.74042969 C6.1953125,2.35898438 6.43457031,1.9734375 6.81738281,1.88457031 L8.15996094,1.57285156 C8.54140625,1.48398438 8.92695313,1.72324219 9.01582031,2.10605469 L9.06777344,2.32753906 L9.6734375,2.18671875 L9.63105469,2.00488281 C9.47109375,1.31582031 8.7765625,0.883789063 8.08886719,1.04375 L6.6546875,1.37734375 C5.965625,1.53730469 5.53359375,2.23183594 5.69355469,2.91953125 L5.73457031,3.09863281 L6.33476563,2.95917969 L6.28417969,2.74042969 Z" id="" fill="#213044"></path>
                    </g>
                </g>
            </g>
        </g>
    </g>
</svg>
