<?xml version="1.0" encoding="UTF-8"?>
<svg width="16px" height="16px" viewBox="0 0 16 16" version="1.1" xmlns="http://www.w3.org/2000/svg" xmlns:xlink="http://www.w3.org/1999/xlink">
    <title></title>
    <g id="nexusAI" stroke="none" stroke-width="1" fill="none" fill-rule="evenodd">
        <g id="AGENT03" transform="translate(-1063.000000, -879.000000)" fill-rule="nonzero">
            <g id=",," transform="translate(1063.000000, 879.000000)">
                <rect id="" fill="#000000" opacity="0" x="0" y="0" width="16" height="16"></rect>
                <path d="M15.9875049,0.682545875 L13.7040219,14.3850059 C13.674346,14.5568137 13.5775088,14.6911363 13.418196,14.7864116 C13.3354159,14.8317064 13.2417025,14.8582585 13.1417415,14.8582585 C13.0761421,14.8582585 13.0042952,14.8426396 12.9277626,14.8129637 L9.22920734,13.3010543 C9.02616166,13.2182741 8.79344006,13.2776259 8.65443186,13.44631 L6.72862162,15.7953924 C6.62085122,15.9328387 6.47403358,16 6.29129247,16 C6.21475986,16 6.14916048,15.9875049 6.09293245,15.9640765 C5.98047638,15.9219055 5.88988677,15.8547442 5.82116361,15.7547833 C5.75244045,15.6563842 5.71651698,15.5486138 5.71651698,15.4283483 L5.71651698,12.6731745 C5.71651698,12.4420148 5.79617337,12.2202265 5.94142912,12.0406091 L13.4244436,2.86762983 L4.00468567,11.020695 C3.93283873,11.0816087 3.83287778,11.0987895 3.74697384,11.0628661 L0.365482234,9.67746973 C0.145255766,9.59468958 0.0249902344,9.43225303 0.00937134375,9.18547442 C-0.00312378125,8.94806716 0.0921515,8.77157361 0.295197187,8.65755564 L15.1393987,0.0937133906 C15.2299883,0.03904725 15.3237017,0.0140570156 15.4252245,0.0140570156 C15.54549,0.0140570156 15.6532604,0.0484185937 15.7485357,0.114017969 C15.9468957,0.254588062 16.0234284,0.446700516 15.9875049,0.682545875 Z" id="" fill="#1B64F3"></path>
            </g>
        </g>
    </g>
</svg>
