<?xml version="1.0" encoding="UTF-8"?>
<svg width="42px" height="42px" viewBox="0 0 42 42" version="1.1" xmlns="http://www.w3.org/2000/svg" xmlns:xlink="http://www.w3.org/1999/xlink">
    <title>webm</title>
    <g id="nexusAI" stroke="none" stroke-width="1" fill="none" fill-rule="evenodd" opacity="0.500744048">
        <g id="02" transform="translate(-937.000000, -499.000000)" fill-rule="nonzero">
            <g id="-23" transform="translate(550.000000, 398.000000)">
                <g id="-17" transform="translate(255.000000, 101.000000)">
                    <g id="" transform="translate(132.000000, 0.000000)">
                        <rect id="" fill="#000000" opacity="0" x="3" y="1" width="36" height="36"></rect>
                        <path d="M28.7175,9.82949219 L32.8360547,9.8284375 C33.1345312,9.8284375 33.2885156,9.43644531 33.0842578,9.19703125 L28.9660547,4.37113281 C28.8957422,4.28886719 28.8071484,4.25195312 28.7203125,4.25195312 C28.5455859,4.25195312 28.3768359,4.40066406 28.3768359,4.62742188 L28.3764844,9.454375 C28.3768359,9.66144531 28.5294141,9.82949219 28.7175,9.82949219 Z M29.3292187,6.3521875 L31.6604297,9.08417969 L29.3288672,9.08488281 L29.3292188,6.3521875 L29.3292187,6.3521875 Z M13.4544141,12.5013672 C12.8760937,12.5013672 12.4071094,12.9703516 12.4071094,13.5486719 C12.4071094,14.1269922 12.8760937,14.5959766 13.4544141,14.5959766 L28.5455859,14.5959766 C29.1239063,14.5959766 29.5928906,14.1269922 29.5928906,13.5486719 C29.5928906,12.9703516 29.1239063,12.5013672 28.5455859,12.5013672 L13.4544141,12.5013672 Z M16.7513672,21.8188281 C16.7513672,21.2383984 16.3316016,21.0214844 15.8158594,21.0214844 L14.8620703,21.0214844 L14.8620703,22.6098437 L15.7905469,22.6098437 C16.3533984,22.6098437 16.7513672,22.3932813 16.7513672,21.8188281 Z M22.5760547,22.7986328 C22.5760547,21.8796484 22.1295703,21.0358984 21.0277734,21.0358984 L20.1084375,21.0358984 L20.1084375,24.6967187 L21.0207422,24.6967187 C22.0993359,24.6967187 22.5760547,23.8944531 22.5760547,22.7986328 L22.5760547,22.7986328 Z M33.504375,17.3153125 L33.504375,10.4904297 L32.0278125,10.4904297 L32.0278125,17.3156641 L9.9721875,17.3156641 L9.9721875,5.64027344 C9.9721875,5.46589844 10.0983984,5.32421875 10.2534375,5.32421875 L27.6677344,5.32421875 L27.6677344,3.84765625 L10.2534375,3.84765625 C9.28417969,3.84765625 8.495625,4.65203125 8.495625,5.64027344 L8.495625,17.3153125 L6.35109375,17.3153125 L6.35109375,28.5712891 L8.495625,28.5712891 L8.495625,32.359375 C8.495625,33.3479687 9.28417969,34.1519922 10.2534375,34.1519922 L31.7462109,34.1519922 C32.7154688,34.1519922 33.5040234,33.3479687 33.5040234,32.359375 L33.5040234,28.5716406 L35.6485547,28.5716406 L35.6485547,17.3153125 L33.504375,17.3153125 L33.504375,17.3153125 Z M24.898125,20.0529297 L28.8254297,20.0529297 L28.8254297,21.0499609 L26.0860547,21.0499609 L26.0860547,22.4284375 L28.6521094,22.4284375 L28.6521094,23.4254688 L26.0860547,23.4254688 L26.0860547,25.6789844 L24.898125,25.6789844 L24.898125,20.0529297 Z M18.8916797,20.0529297 L21.1226953,20.0529297 C22.7613281,20.0529297 23.8325391,21.1322266 23.8325391,22.7954687 C23.8325391,24.4365625 22.7933203,25.6793359 21.0713672,25.6793359 L18.8916797,25.6793359 L18.8916797,20.0529297 L18.8916797,20.0529297 Z M13.6446094,20.0529297 L15.9723047,20.0529297 C17.1676172,20.0529297 17.979375,20.7258203 17.979375,21.7952734 C17.979375,23.0176562 17.0537109,23.5783984 15.9438281,23.5783984 L14.8620703,23.5783984 L14.8620703,25.6796875 L13.6446094,25.6796875 L13.6446094,20.0529297 Z M32.0278125,32.3597266 C32.0278125,32.5341016 31.9016016,32.6757812 31.7465625,32.6757812 L10.2534375,32.6757812 C10.0983984,32.6757812 9.9721875,32.5341016 9.9721875,32.3597266 L9.9721875,28.5716406 L32.0278125,28.5716406 L32.0278125,32.3597266 L32.0278125,32.3597266 Z" id="" fill="#999999"></path>
                    </g>
                </g>
            </g>
        </g>
    </g>
</svg>
