<?xml version="1.0" encoding="UTF-8"?>
<svg width="16px" height="16px" viewBox="0 0 16 16" version="1.1" xmlns="http://www.w3.org/2000/svg" xmlns:xlink="http://www.w3.org/1999/xlink">
    <title></title>
    <g id="nexusAI" stroke="none" stroke-width="1" fill="none" fill-rule="evenodd">
        <g id="" transform="translate(-1174.000000, -156.000000)">
            <g id="-11" transform="translate(657.000000, 133.000000)">
                <g id="-23" transform="translate(517.000000, 22.000000)">
                    <g id="" transform="translate(0.000000, 1.000000)">
                        <rect id="" fill="#000000" fill-rule="nonzero" opacity="0" x="2" y="2.00029999" width="11.999621" height="11.999621"></rect>
                        <path d="M7.9998417,9.7856541 C7.93144386,9.7856541 7.86424598,9.7664547 7.80304791,9.72925588 L2.17882555,6.21696681 C2.06722907,6.14856897 2.00003119,6.02497287 2.00003119,5.89297704 C2.00003119,5.76098121 2.06722907,5.63738512 2.17882555,5.56898728 L7.80304791,2.05669821 C7.92304412,1.9811006 8.07543931,1.9811006 8.19543552,2.05669821 L13.8196579,5.56898728 C13.9312544,5.63858508 13.9984522,5.76098121 13.9984522,5.89297704 C13.9984522,6.02497287 13.9312544,6.14856897 13.8196579,6.21696681 L8.19663548,9.72925588 C8.13543741,9.7664547 8.06823954,9.7856541 7.9998417,9.7856541 Z M3.09079674,5.89297704 L7.9998417,8.95768025 L12.9088866,5.89297704 L7.9998417,2.82827384 L3.09079674,5.89297704 Z M7.9998417,11.8927875 C7.93144386,11.8927875 7.86424598,11.8735882 7.80304791,11.8363893 L2.17882555,8.32530022 C2.00243112,8.21490371 1.94723286,7.9809111 2.05522945,7.80091678 C2.16322604,7.62212243 2.39481873,7.56572421 2.57121315,7.67612072 L7.9998417,11.0648137 L13.4284702,7.67612072 C13.6048647,7.56572421 13.8352574,7.62212243 13.9444539,7.80091678 C14.0524505,7.97971114 13.9972523,8.21490371 13.8208578,8.32530022 L8.19663548,11.8363893 C8.13543741,11.8735882 8.06823954,11.8927875 7.9998417,11.8927875 Z M7.9998417,13.999921 C7.93144386,13.999921 7.86424598,13.9807216 7.80304791,13.9435228 L2.17882555,10.4312337 C2.00243112,10.3208372 1.94723286,10.0868446 2.05522945,9.90685027 C2.16322604,9.72805592 2.39481873,9.6716577 2.57121315,9.78205421 L7.9998417,13.1719471 L13.4284702,9.78325417 C13.6048647,9.67285766 13.8352574,9.72925588 13.9444539,9.90805023 C14.0524505,10.0868446 13.9972523,10.3220372 13.8208578,10.4324337 L8.19663548,13.9435228 C8.13543741,13.9807216 8.06823954,13.999921 7.9998417,13.999921 Z" id="" fill="#1B64F3"></path>
                    </g>
                </g>
            </g>
        </g>
    </g>
</svg>
