<?xml version="1.0" encoding="UTF-8"?>
<svg width="42px" height="42px" viewBox="0 0 42 42" version="1.1" xmlns="http://www.w3.org/2000/svg" xmlns:xlink="http://www.w3.org/1999/xlink">
    <title>webm</title>
    <g id="nexusAI" stroke="none" stroke-width="1" fill="none" fill-rule="evenodd" opacity="0.500744048">
        <g id="02" transform="translate(-871.000000, -499.000000)" fill-rule="nonzero">
            <g id="-23" transform="translate(550.000000, 398.000000)">
                <g id="-17" transform="translate(255.000000, 101.000000)">
                    <g id="-16-(3)" transform="translate(66.000000, 0.000000)">
                        <g id="-Clipped" transform="translate(3.000000, 36.000000)" fill="#000000" opacity="0.2">
                            <ellipse id="" cx="18.5" cy="1.5" rx="18.5" ry="1.5"></ellipse>
                        </g>
                        <g id="" transform="translate(4.000000, 5.000000)">
                            <rect id="" fill="#000000" opacity="0" x="0" y="0" width="32" height="32"></rect>
                            <path d="M23.23,0 L32,8.82666666 L32,29.3333333 C32,30.8060927 30.8060927,32 29.3333333,32 L6.66666666,32 C5.19390733,32 4,30.8060927 4,29.3333333 L4,26 L1.33333334,26 C0.596953672,26 0,25.4030463 0,24.6666667 L0,13.3333333 C0,12.9797114 0.140475788,12.6405728 0.390524295,12.3905243 C0.640572801,12.1404758 0.979711355,12 1.33333334,12 L4,12 L4,2.66666666 C4,1.19390733 5.19390733,0 6.66666666,0 L23.23,0 Z M22.3973333,2 L6.66666666,2 C6.48985567,2 6.32028639,2.07023789 6.19526214,2.19526214 C6.07023789,2.32028639 6,2.48985567 6,2.66666666 L6,12 L26,12 C26.353622,12 26.6927605,12.1404758 26.942809,12.3905243 C27.1928576,12.6405728 27.3333333,12.9797114 27.3333333,13.3333333 L27.3333333,24.6666667 C27.3333333,25.4030463 26.7363797,26 26,26 L6,26 L6,29.3333333 C6,29.5101443 6.07023789,29.6797136 6.19526214,29.8047379 C6.32028639,29.9297621 6.48985567,30 6.66666666,30 L29.3333333,30 C29.7015232,30 30,29.7015232 30,29.3333333 L30,9.65066666 L29.6846667,9.33333334 L25.7306667,9.33333334 C24.0384662,9.33333334 22.6666667,7.96153382 22.6666667,6.26933334 L22.6666667,2.27066666 L22.3973333,2 Z M9.6217439,15.2659034 L2.6017439,15.2659034 L2.6017439,16.4659034 L5.4097439,16.4659034 L5.4097439,23.8339034 L6.8137439,23.8339034 L6.8137439,16.4659034 L9.6217439,16.4659034 L9.6217439,15.2659034 Z M11.9411725,15.2659034 L10.2251725,15.2659034 L13.0931725,19.4059034 L10.0331725,23.8339034 L11.7491725,23.8339034 L13.9571725,20.5219034 L16.1651725,23.8339034 L17.8811725,23.8339034 L14.7971725,19.4059034 L17.6891725,15.2659034 L15.9731725,15.2659034 L13.9571725,18.2899034 L11.9411725,15.2659034 Z M25.312601,15.2659034 L18.292601,15.2659034 L18.292601,16.4659034 L21.100601,16.4659034 L21.100601,23.8339034 L22.504601,23.8339034 L22.504601,16.4659034 L25.312601,16.4659034 L25.312601,15.2659034 Z" id="" fill="#EF3450"></path>
                        </g>
                    </g>
                </g>
            </g>
        </g>
    </g>
</svg>
