<?xml version="1.0" encoding="UTF-8"?>
<svg width="16px" height="16px" viewBox="0 0 16 16" version="1.1" xmlns="http://www.w3.org/2000/svg" xmlns:xlink="http://www.w3.org/1999/xlink">
    <title></title>
    <g id="nexusAI" stroke="none" stroke-width="1" fill="none" fill-rule="evenodd">
        <g id="-" transform="translate(-507.000000, -366.000000)" fill-rule="nonzero">
            <g id="-16" transform="translate(331.000000, 347.000000)">
                <g id="-11" transform="translate(176.000000, 17.000000)">
                    <g id="2" transform="translate(0.000000, 2.000000)">
                        <rect id="" fill="#000000" opacity="0" x="0" y="0" width="16" height="16"></rect>
                        <path d="M8.50001,1 L8.50001,2.02543 C11.41362,2.26609 13.73391,4.58638 13.97464,7.5 L15,7.5 L15,8.50001 L13.97457,8.50001 C13.73384,11.41362 11.41355,13.73391 8.49994,13.97464 L8.49994,15 L7.49992,15 L7.49992,13.97457 C4.58687,13.73384 2.26658,11.41355 2.02536,8.49994 L1,8.49994 L1,7.49992 L2.02543,7.49992 C2.26658,4.58638 4.58694,2.26609 7.5,2.02536 L7.5,1 L8.50001,1 Z M8.50001,3.02538 L8.50001,3.99999 L7.49999,3.99999 L7.49999,3.02538 C5.14155,3.26072 3.26072,5.14162 3.02538,7.49999 L3.99999,7.49999 L3.99999,8.50001 L3.02538,8.50001 C3.26072,10.85845 5.14162,12.73928 7.49999,12.97462 L7.49999,12.00001 L8.49994,12.00001 L8.49994,12.97462 C10.85838,12.73928 12.73921,10.85838 12.97469,8.50001 L12.00001,8.50001 L12.00001,7.49999 L12.97469,7.49999 C12.73928,5.14155 10.85838,3.26072 8.50001,3.02538 Z M8,6.2 C8.97048,6.2 9.76,6.98952 9.76,7.96 C9.76,8.93048 8.97048,9.72 8,9.72 C7.02952,9.72 6.24,8.93048 6.24,7.96 C6.24,6.98952 7.02952,6.2 8,6.2 Z" id="" fill="#213044" opacity="0.5"></path>
                    </g>
                </g>
            </g>
        </g>
    </g>
</svg>
