<?xml version="1.0" encoding="UTF-8"?>
<svg width="16px" height="16px" viewBox="0 0 16 16" version="1.1" xmlns="http://www.w3.org/2000/svg" xmlns:xlink="http://www.w3.org/1999/xlink">
    <title></title>
    <g id="nexusAI" stroke="none" stroke-width="1" fill="none" fill-rule="evenodd">
        <g id="" transform="translate(-494.000000, -89.000000)" fill-rule="nonzero">
            <g id="-2" transform="translate(30.000000, 81.000000)">
                <g id="-14" transform="translate(449.000000, 0.000000)">
                    <g id="-13" transform="translate(15.000000, 6.000000)">
                        <g id="" transform="translate(0.000000, 2.000000)">
                            <rect id="" fill="#000000" opacity="0" x="0" y="0" width="16" height="16"></rect>
                            <path d="M14.7,2.6 L14.7,5.4 L15.2,5.4 C15.5,5.4 15.8,5.7 15.8,6 C15.8,6.3 15.5,6.6 15.2,6.6 L13.7,6.6 C14.2,7.4 14.2,8.5 13.7,9.4 L15.2,9.4 C15.5,9.4 15.8,9.7 15.8,10 C15.8,10.3 15.5,10.6 15.2,10.6 L14.7,10.6 L14.7,13.4 L15.2,13.4 C15.5,13.4 15.8,13.7 15.8,14 C15.8,14.3 15.5,14.6 15.2,14.6 L4.4,14.6 C2.4,14.6 1.3,12.2 2.3,10.6 L0.8,10.6 C0.5,10.6 0.2,10.3 0.2,10 C0.2,9.7 0.5,9.4 0.8,9.4 L1.3,9.4 L1.3,6.6 L0.8,6.6 C0.5,6.6 0.2,6.3 0.2,6 C0.2,5.7 0.5,5.4 0.8,5.4 L2.3,5.4 C1.3,3.8 2.4,1.4 4.4,1.4 L15.2,1.4 C15.5,1.4 15.8,1.7 15.8,2 C15.8,2.3 15.5,2.6 15.2,2.6 L14.7,2.6 Z M11.6,6.6 L2,6.6 L2,9.4 L11.6,9.4 C11.9,9.4 12.3,9.2 12.5,9 C13,8.4 13,7.5 12.5,7 C12.2,6.8 11.9,6.6 11.6,6.6 L11.6,6.6 Z M14,10.6 L4.4,10.6 C4.1,10.6 3.7,10.8 3.5,11 C2.7,11.8 3.2,13.4 4.4,13.4 L14,13.4 L14,10.6 L14,10.6 Z M14,5.4 L14,2.6 L4.4,2.6 C3.2,2.6 2.8,4.2 3.5,5 C3.7,5.2 4,5.4 4.4,5.4 L14,5.4 L14,5.4 Z" id="" fill="#9097A1"></path>
                        </g>
                    </g>
                </g>
            </g>
        </g>
    </g>
</svg>
