<?xml version="1.0" encoding="UTF-8"?>
<svg width="60px" height="60px" viewBox="0 0 60 60" version="1.1" xmlns="http://www.w3.org/2000/svg" xmlns:xlink="http://www.w3.org/1999/xlink">
    <title></title>
    <g id="nexusAI" stroke="none" stroke-width="1" fill="none" fill-rule="evenodd">
        <g id="" transform="translate(-930.000000, -313.000000)" fill-rule="nonzero">
            <g id="-10" transform="translate(872.000000, 313.000000)">
                <g id="_-" transform="translate(58.000000, 0.000000)">
                    <rect id="" fill="#000000" opacity="0" x="0" y="0" width="60" height="60"></rect>
                    <path d="M33.6,22.8 L33.6,14.4 L21,14.4 C19.35,14.4 18,15.75 18,17.4 L18,44.4 C18,46.05 19.35,47.4 21,47.4 L39,47.4 C40.65,47.4 42,46.05 42,44.4 L42,22.8 L33.6,22.8 L33.6,22.8 Z M36.15,28.74 L29.46,36.9 L28.2,35.7 L26.94,36.93 L26.94,34.47 L34.74,29.46 L26.1,33.66 L23.85,31.56 L23.85,31.29 L36.15,28.47 L36.15,28.74 L36.15,28.74 Z" id="" fill="#4A68CC" opacity="0.2"></path>
                    <path d="M6,52.5 C6,54.1568542 16.745166,55.5 30,55.5 C43.254834,55.5 54,54.1568542 54,52.5 C54,50.8431458 43.254834,49.5 30,49.5 C16.745166,49.5 6,50.8431458 6,52.5 Z" id="" fill="#4A68CC" opacity="0.1"></path>
                    <path d="M5.64,30.78 C5.64,31.29 6.03,31.68 6.54,31.68 C7.05,31.68 7.44,31.29 7.44,30.78 C7.44,30.27 7.05,29.88 6.54,29.88 C6.06,29.88 5.64,30.3 5.64,30.78 Z M8.64,48.18 C8.64,48.69 9.03,49.08 9.54,49.08 C10.05,49.08 10.44,48.69 10.44,48.18 C10.44,47.67 10.05,47.28 9.54,47.28 C9.06,47.28 8.64,47.7 8.64,48.18 L8.64,48.18 Z M54.3,49.68 C53.4,49.92 53.19,50.1 52.95,51.03 C52.71,50.13 52.53,49.92 51.6,49.68 C52.5,49.44 52.71,49.23 52.95,48.33 C53.19,49.23 53.37,49.44 54.3,49.68 Z M11.7,27.39 C9.87,27.87 9.48,28.26 9,30.09 C8.52,28.26 8.13,27.87 6.3,27.39 C8.13,26.91 8.52,26.52 9,24.69 C9.48,26.52 9.87,26.91 11.7,27.39 L11.7,27.39 Z M48.15,12.57 C47.25,12.81 47.07,12.99 46.83,13.89 C46.59,12.99 46.41,12.81 45.51,12.57 C46.41,12.33 46.59,12.15 46.83,11.25 C47.04,12.15 47.25,12.33 48.15,12.57 Z M51.72,7.95 C49.38,8.55 48.9,9.06 48.27,11.4 C47.67,9.06 47.16,8.58 44.82,7.95 C47.16,7.35 47.64,6.84 48.27,4.5 C48.87,6.81 49.38,7.32 51.72,7.95 Z M45.9,19.77 C45.9,19.71 45.9,19.65 45.87,19.62 L45.87,19.59 C45.87,19.56 45.84,19.5 45.84,19.47 C45.84,19.44 45.84,19.44 45.81,19.41 C45.78,19.38 45.78,19.35 45.75,19.32 L45.72,19.29 C45.69,19.26 45.66,19.2 45.63,19.17 L37.23,10.77 C37.2,10.74 37.17,10.71 37.11,10.68 L37.08,10.65 C37.05,10.62 37.02,10.62 36.99,10.59 C36.96,10.59 36.96,10.59 36.93,10.56 C36.9,10.53 36.84,10.53 36.81,10.53 L36.78,10.53 C36.72,10.53 36.66,10.5 36.63,10.5 L21,10.5 C17.19,10.5 14.1,13.59 14.1,17.4 L14.1,44.4 C14.1,48.21 17.19,51.3 21,51.3 L39,51.3 C42.81,51.3 45.9,48.21 45.9,44.4 L45.9,19.77 C45.9,19.8 45.9,19.8 45.9,19.77 L45.9,19.77 Z M37.5,13.56 L42.84,18.9 L37.5,18.9 L37.5,13.56 L37.5,13.56 Z M39,49.5 L21,49.5 C18.18,49.5 15.9,47.22 15.9,44.4 L15.9,17.4 C15.9,14.58 18.18,12.3 21,12.3 L35.7,12.3 L35.7,19.8 C35.7,20.31 36.09,20.7 36.6,20.7 L44.1,20.7 L44.1,44.4 C44.1,47.22 41.82,49.5 39,49.5 Z" id="" fill="#4A68CC" opacity="0.5"></path>
                </g>
            </g>
        </g>
    </g>
</svg>
