<?xml version="1.0" encoding="UTF-8"?>
<svg width="140px" height="32px" viewBox="0 0 140 32" version="1.1" xmlns="http://www.w3.org/2000/svg" xmlns:xlink="http://www.w3.org/1999/xlink">
    <title> 18</title>
    <defs>
        <linearGradient x1="19.1347018%" y1="0%" x2="50%" y2="100%" id="linearGradient-1">
            <stop stop-color="#887BFF" offset="0%"></stop>
            <stop stop-color="#5670FB" offset="100%"></stop>
        </linearGradient>
        <linearGradient x1="27.1827009%" y1="94.5406757%" x2="47.1697104%" y2="47.4950928%" id="linearGradient-2">
            <stop stop-color="#B1DAF7" offset="0%"></stop>
            <stop stop-color="#0598FF" offset="100%"></stop>
        </linearGradient>
        <linearGradient x1="50%" y1="0%" x2="50%" y2="100%" id="linearGradient-3">
            <stop stop-color="#0EEFFE" offset="0%"></stop>
            <stop stop-color="#BEF8FC" offset="100%"></stop>
        </linearGradient>
        <linearGradient x1="12.607974%" y1="0%" x2="50%" y2="100%" id="linearGradient-4">
            <stop stop-color="#887BFF" offset="0%"></stop>
            <stop stop-color="#5670FB" offset="100%"></stop>
        </linearGradient>
        <linearGradient x1="47.3782476%" y1="0%" x2="50%" y2="100%" id="linearGradient-5">
            <stop stop-color="#887BFF" offset="0%"></stop>
            <stop stop-color="#5670FB" offset="100%"></stop>
        </linearGradient>
    </defs>
    <g id="nexusAI" stroke="none" stroke-width="1" fill="none" fill-rule="evenodd">
        <g id="" transform="translate(-30.000000, -14.000000)">
            <g id="-18" transform="translate(30.000000, 14.000000)">
                <g id="-17" transform="translate(2.000000, 1.000000)">
                    <path d="M21.5052763,30 L4.35483871,30 C1.9497277,30 0,28.0502723 0,25.6451613 L0,4.35483871 C0,3.15083176 0.488609267,2.06094561 1.27835757,1.27265051 L23.1475422,26.3928543 C23.9371583,27.2998527 23.8420011,28.6752305 22.9350026,29.4648466 C22.5386259,29.8099249 22.0308174,30 21.5052763,30 Z" id="" fill="url(#linearGradient-1)"></path>
                    <path d="M23.0215178,13.5836273 L7.02629702,24.0947969 L0.564985905,2.20815678 C1.00900088,1.42595682 1.68818409,0.794731968 2.50640291,0.410614876 L22.8011261,10.2236551 C23.7634706,10.6889743 24.1663892,11.8463245 23.70107,12.808669 C23.5487622,13.1236624 23.3139172,13.3914786 23.0215178,13.5836273 Z" id="" fill="url(#linearGradient-2)" opacity="0.5"></path>
                    <path d="M4.35483871,0 L22.6464676,0 C23.5817885,0 24.340016,0.75822744 24.340016,1.69354839 C24.340016,2.13798942 24.1653061,2.56461875 23.8535754,2.88140228 L12.5967727,14.3206664 L1.27796599,1.27304142 C2.06584139,0.486417152 3.15353565,0 4.35483871,0 Z" id="" fill="url(#linearGradient-3)" opacity="0.598764329"></path>
                </g>
                <g id="NEXUS-AI" transform="translate(36.400000, 7.150000)">
                    <path d="M0,17.3759013 L3.89696995,17.3759013 L3.89696995,11.7138332 C3.89696995,9.65073146 3.55311966,7.31254949 3.36973284,5.40991122 L3.4843496,5.40991122 L5.15775435,9.14641771 L9.37565123,17.3759013 L13.5477014,17.3759013 L13.5477014,0.298003584 L9.65073146,0.298003584 L9.65073146,5.96007169 C9.65073146,8.00025007 9.99458175,10.4530488 10.2008919,12.2639937 L10.0862752,12.2639937 L8.41287042,8.48164048 L4.17205018,0.298003584 L0,0.298003584 L0,17.3759013 Z" id="" fill="#213044" fill-rule="nonzero"></path>
                    <polygon id="" fill="#213044" fill-rule="nonzero" points="16.4714708 17.3759013 27.5434502 17.3759013 27.5434502 13.9373984 20.574751 13.9373984 20.574751 10.3155087 26.2826658 10.3155087 26.2826658 6.87700579 20.574751 6.87700579 20.574751 3.71358313 27.2912933 3.71358313 27.2912933 0.298003584 16.4714708 0.298003584"></polygon>
                    <path d="M28.1978077,17.3759013 L32.5532447,17.3759013 L34.0203393,14.0520152 C34.4100363,13.1580044 34.7997333,12.2639937 35.1894303,11.2095194 L35.2811237,11.2095194 C35.7395907,12.2639937 36.1292877,13.1580044 36.5419081,14.0520152 L38.1236194,17.3759013 L42.6853666,17.3759013 L37.9860793,8.77964406 L42.387363,0.298003584 L38.0548493,0.298003584 L36.8169883,3.36973284 C36.473138,4.17205018 36.1063644,5.06606093 35.7166674,6.16638186 L35.624974,6.16638186 C35.1435835,5.06606093 34.7768099,4.17205018 34.3871129,3.36973284 L33.0117117,0.298003584 L28.4499646,0.298003584 L32.8741716,8.59625724 L28.1978077,17.3759013 Z" id="" fill="#213044" fill-rule="nonzero"></path>
                    <path d="M50.4459634,17.6968282 C54.9847872,17.6968282 57.2771225,15.1064894 57.2771225,9.35272788 L57.2771225,0.298003584 L53.3343058,0.298003584 L53.3343058,9.78827158 C53.3343058,13.0204643 52.302755,14.1666319 50.4459634,14.1666319 C48.5662485,14.1666319 47.6034677,13.0204643 47.6034677,9.78827158 L47.6034677,0.298003584 L43.5231109,0.298003584 L43.5231109,9.35272788 C43.5231109,15.1064894 45.8842162,17.6968282 50.4459634,17.6968282 Z" id="" fill="#213044" fill-rule="nonzero"></path>
                    <path d="M65.083566,17.6968282 C69.2097695,17.6968282 71.5937982,15.1981828 71.5937982,12.3556871 C71.5937982,9.94873505 70.3330138,8.52748718 68.2240654,7.67932314 L66.0921936,6.83115909 C64.5792523,6.23515192 63.5247781,5.86837828 63.5247781,4.90559747 C63.5247781,4.01158671 64.2812487,3.50727295 65.5420331,3.50727295 C66.8715875,3.50727295 67.9260618,3.96574001 69.049306,4.81390406 L71.0894844,2.24648856 C69.5994665,0.756470637 67.5134414,0 65.5420331,0 C61.9201434,0 59.3527279,2.29233526 59.3527279,5.15775435 C59.3527279,7.63347643 61.0261326,9.12349435 62.8141541,9.83411828 L64.9918726,10.7510524 C66.4589672,11.3699829 67.3988247,11.6909098 67.3988247,12.676614 C67.3988247,13.5935481 66.6882007,14.1666319 65.1752595,14.1666319 C63.8227816,14.1666319 62.2410703,13.456008 61.049056,12.4244571 L58.710874,15.2440295 C60.4759722,16.8715875 62.8600008,17.6968282 65.083566,17.6968282 Z" id="" fill="#213044" fill-rule="nonzero"></path>
                    <path d="M79.6544826,17.3759013 L83.8265327,17.3759013 L84.8122369,13.456008 L89.8553745,13.456008 L90.8410786,17.3759013 L95.1506689,17.3759013 L89.8553745,0.298003584 L84.949777,0.298003584 L79.6544826,17.3759013 Z M85.5916309,10.2925853 L85.9584045,8.84841412 C86.3939482,7.15208603 86.8524153,5.15775435 87.2650356,3.36973284 L87.356729,3.36973284 C87.8151961,5.11190764 88.2507398,7.15208603 88.7092069,8.84841412 L89.0759805,10.2925853 L85.5916309,10.2925853 Z" id="" fill="url(#linearGradient-4)"></path>
                    <polygon id="" fill="url(#linearGradient-5)" points="95.8967199 17.3759013 100 17.3759013 100 0.298003584 95.8967199 0.298003584"></polygon>
                </g>
            </g>
        </g>
    </g>
</svg>
