<?xml version="1.0" encoding="UTF-8"?>
<svg width="14px" height="14px" viewBox="0 0 14 14" version="1.1" xmlns="http://www.w3.org/2000/svg" xmlns:xlink="http://www.w3.org/1999/xlink">
    <title></title>
    <g id="nexusAI" stroke="none" stroke-width="1" fill="none" fill-rule="evenodd">
        <g id="" transform="translate(-927.000000, -23.000000)" fill-rule="nonzero">
            <g id="-4" transform="translate(810.000000, 14.000000)">
                <g id="-14" transform="translate(102.000000, 0.000000)">
                    <g id="-13" transform="translate(15.000000, 6.000000)">
                        <g id="" transform="translate(0.000000, 3.000000)">
                            <rect id="" fill="#000000" opacity="0" x="0" y="0" width="14" height="14"></rect>
                            <path d="M4.31567059,12.4652992 C4.0355167,12.4652992 3.80860473,12.2383872 3.80860473,11.9582333 C3.80860473,11.6780795 4.0355167,11.4511675 4.31567059,11.4511675 L5.878,11.451 L5.878,10.551 L1.26059879,10.5511256 C0.875968207,10.5511256 0.557379432,10.2645894 0.506952348,9.89363679 L0.5,9.7905268 L0.5,2.26059879 C0.5,1.84100179 0.84100179,1.5 1.26059879,1.5 L12.7202872,1.5 C13.1398842,1.5 13.480886,1.84100179 13.480886,2.26059879 L13.480886,9.7905268 C13.480886,10.2101238 13.1398842,10.5511256 12.7202872,10.5511256 L8.1,10.551 L8.1,11.451 L9.66521541,11.4511675 C9.91424109,11.4511675 10.1211991,11.630456 10.1641154,11.8670589 L10.1722813,11.9582333 C10.1722813,12.2383872 9.9453693,12.4652992 9.66521541,12.4652992 Z M7.08678551,10.5511256 L6.89283282,10.5511256 L6.89283282,11.4511675 L7.08678551,11.4511675 L7.08678551,10.5511256 Z M12.4667543,2.51413172 L1.51413172,2.51413172 L1.51413172,9.53699387 L12.4667543,9.53699387 L12.4667543,2.51413172 Z M10.2864478,4.35832388 L10.9843629,5.05750396 L9.12120246,6.92399949 C8.50799671,7.53832243 7.51381281,7.53832243 6.90062348,6.92399949 L6.03435781,6.05618947 C5.80659896,5.82800346 5.43731845,5.82800346 5.2095596,6.05618947 L3.5146677,7.75415364 L2.81676911,7.05498999 L4.511661,5.35702582 C5.12486676,4.74270288 6.11905066,4.74270288 6.73225641,5.35702582 L7.59850565,6.22483584 C7.8262645,6.45300542 8.19554501,6.45300542 8.42330386,6.22483584 L10.2864478,4.35832388 Z" id="" fill="#5F6A79"></path>
                        </g>
                    </g>
                </g>
            </g>
        </g>
    </g>
</svg>
