<?xml version="1.0" encoding="UTF-8"?>
<svg width="14px" height="14px" viewBox="0 0 14 14" version="1.1" xmlns="http://www.w3.org/2000/svg" xmlns:xlink="http://www.w3.org/1999/xlink">
    <title>http</title>
    <g id="-1" stroke="none" stroke-width="1" fill="none" fill-rule="evenodd">
        <g id="nexusaiicon" transform="translate(-1126.000000, -374.000000)" fill-rule="nonzero">
            <g id="-4" transform="translate(1107.000000, 357.000000)">
                <g id="-3" transform="translate(15.000000, 13.000000)">
                    <g id="" transform="translate(4.000000, 4.000000)">
                        <rect id="" fill="#000000" opacity="0" x="0" y="0" width="14" height="14"></rect>
                        <path d="M7,0.875 C3.61730469,0.875 0.875,3.61730469 0.875,7 C0.875,10.3826953 3.61730469,13.125 7,13.125 C10.3826953,13.125 13.125,10.3826953 13.125,7 C13.125,3.61730469 10.3826953,0.875 7,0.875 Z M6.5625,4.35148437 C5.97488281,4.30226562 5.41447266,4.15884766 4.89794922,3.93080078 C5.31630859,2.82980469 5.93441406,2.08222656 6.5625,1.83873047 L6.5625,4.35148437 Z M6.5625,5.22662109 L6.5625,6.5625 L4.38716797,6.5625 C4.41519531,5.91376953 4.50365234,5.31234375 4.63859375,4.76902344 C5.23728516,5.02126953 5.88410156,5.17822266 6.5625,5.22662109 Z M6.5625,7.4375 L6.5625,8.77337891 C5.88410156,8.82177734 5.23728516,8.97873047 4.63859375,9.23097656 C4.50351563,8.68765625 4.41519531,8.08623047 4.38716797,7.4375 L6.5625,7.4375 Z M6.5625,9.64851563 L6.5625,12.1612695 C5.93441406,11.9177734 5.31630859,11.1700586 4.89794922,10.0691992 C5.41447266,9.84101563 5.97488281,9.69759766 6.5625,9.64851563 Z M7.4375,9.64851563 C8.02511719,9.69773438 8.58552734,9.84115234 9.10205078,10.0691992 C8.68369141,11.1701953 8.06558594,11.9179102 7.4375,12.1612695 L7.4375,9.64851563 Z M7.4375,8.77337891 L7.4375,7.4375 L9.61283203,7.4375 C9.58480469,8.08623047 9.49648437,8.68765625 9.36140625,9.23097656 C8.76271484,8.97859375 8.11589844,8.82177734 7.4375,8.77337891 Z M7.4375,6.5625 L7.4375,5.22662109 C8.11589844,5.17822266 8.76271484,5.02126953 9.36140625,4.76902344 C9.49648437,5.31234375 9.58480469,5.91376953 9.61283203,6.5625 L7.4375,6.5625 L7.4375,6.5625 Z M7.4375,4.35148437 L7.4375,1.83873047 C8.06558594,2.08208984 8.68369141,2.82994141 9.10205078,3.93080078 C8.58552734,4.15898437 8.02511719,4.30240234 7.4375,4.35148437 Z M9.200625,2.23986328 C9.65769516,2.45203662 10.0818958,2.72880532 10.4602148,3.06167969 C10.2761914,3.22396484 10.0775391,3.36902344 9.8721875,3.50464844 C9.68296875,3.02982422 9.45710937,2.60367187 9.200625,2.23986328 L9.200625,2.23986328 Z M4.12794922,3.50478516 C3.92259766,3.36902344 3.72394531,3.22410156 3.53992188,3.06181641 C3.91820623,2.72889637 4.34241374,2.45212318 4.79951172,2.24 C4.54289063,2.60367187 4.31703125,3.02982422 4.12794922,3.50478516 L4.12794922,3.50478516 Z M3.84439453,4.3640625 C3.66009766,5.03849609 3.54443359,5.77923828 3.51271484,6.5625 L1.77228516,6.5625 C1.86224609,5.47927734 2.27978516,4.48820313 2.92919922,3.69085938 C3.21138672,3.94324219 3.51900391,4.16677734 3.84439453,4.3640625 L3.84439453,4.3640625 Z M3.51257812,7.4375 C3.54429687,8.22076172 3.65996094,8.96150391 3.84425781,9.6359375 C3.51886719,9.83322266 3.21138672,10.0567578 2.92892578,10.3091406 C2.27951172,9.51179687 1.86197266,8.52072266 1.77201172,7.4375 L3.51257812,7.4375 Z M4.12794922,10.4952148 C4.31703125,10.9701758 4.54289063,11.3964648 4.79951172,11.7601367 C4.34244156,11.5479634 3.91824093,11.2711947 3.53992187,10.9383203 C3.72394531,10.7758984 3.92259766,10.6308398 4.12794922,10.4952148 L4.12794922,10.4952148 Z M9.87205078,10.4952148 C10.0774023,10.6309766 10.2760547,10.7758984 10.4600781,10.9381836 C10.0817938,11.2711036 9.65758626,11.5478768 9.20048828,11.76 C9.45710937,11.3963281 9.68296875,10.9701758 9.87205078,10.4952148 L9.87205078,10.4952148 Z M10.1556055,9.6359375 C10.3399023,8.96150391 10.4555664,8.22076172 10.4872852,7.4375 L12.2277148,7.4375 C12.1377539,8.52072266 11.7202148,9.51179688 11.0708008,10.3091406 C10.7886133,10.0567578 10.4809961,9.83322266 10.1556055,9.6359375 Z M10.4874219,6.5625 C10.4557031,5.77923828 10.3400391,5.03849609 10.1557422,4.3640625 C10.4811328,4.16677734 10.7886133,3.94324219 11.0710742,3.69085937 C11.7204883,4.48820313 12.1380273,5.47927734 12.2279883,6.5625 L10.4874219,6.5625 Z" id="" fill="#FFFFFF"></path>
                    </g>
                </g>
            </g>
        </g>
    </g>
</svg>
