<?xml version="1.0" encoding="UTF-8"?>
<svg width="16px" height="16px" viewBox="0 0 16 16" version="1.1" xmlns="http://www.w3.org/2000/svg" xmlns:xlink="http://www.w3.org/1999/xlink">
    <title>2</title>
    <defs>
        <linearGradient x1="4.58512215%" y1="0%" x2="50%" y2="100%" id="linearGradient-1">
            <stop stop-color="#887BFF" offset="0%"></stop>
            <stop stop-color="#5670FB" offset="100%"></stop>
        </linearGradient>
        <linearGradient x1="4.58512215%" y1="0%" x2="50%" y2="100%" id="linearGradient-2">
            <stop stop-color="#887BFF" offset="0%"></stop>
            <stop stop-color="#5670FB" offset="100%"></stop>
        </linearGradient>
    </defs>
    <g id="nexusAI" stroke="none" stroke-width="1" fill="none" fill-rule="evenodd">
        <g id="" transform="translate(-1199.000000, -702.000000)">
            <g id="-19" transform="translate(970.000000, 553.000000)">
                <g id="-6" transform="translate(80.000000, 144.000000)">
                    <g id="" transform="translate(144.000000, 0.000000)">
                        <g id="2" transform="translate(5.000000, 5.000000)">
                            <rect id="" fill="#000000" fill-rule="nonzero" opacity="0" x="0" y="0" width="16" height="16"></rect>
                            <path d="M2.66666667,8 C2.66666667,8.47635412 2.92079856,8.91652349 3.33333333,9.15470056 C3.7458681,9.39287762 4.2541319,9.39287762 4.66666667,9.15470056 C5.07920144,8.91652349 5.33333333,8.47635412 5.33333333,8 C5.33333333,7.52364588 5.07920144,7.08347651 4.66666667,6.84529944 C4.2541319,6.60712238 3.7458681,6.60712238 3.33333333,6.84529944 C2.92079856,7.08347651 2.66666667,7.52364588 2.66666667,8 L2.66666667,8 Z" id="" fill="url(#linearGradient-1)"></path>
                            <path d="M6.66666667,8 C6.66666667,8.73637966 7.26362034,9.33333333 8,9.33333333 C8.73637966,9.33333333 9.33333333,8.73637966 9.33333333,8 C9.33333333,7.52364587 9.07920145,7.0834765 8.66666667,6.84529943 C8.2541319,6.60712237 7.7458681,6.60712237 7.33333332,6.84529943 C6.92079855,7.0834765 6.66666667,7.52364587 6.66666667,8 L6.66666667,8 Z" id="" fill="url(#linearGradient-1)"></path>
                            <path d="M10.6666667,8 C10.6666667,8.73637966 11.2636203,9.33333333 12,9.33333333 C12.7363797,9.33333333 13.3333333,8.73637966 13.3333333,8 C13.3333333,7.26362034 12.7363797,6.66666667 12,6.66666667 C11.2636203,6.66666667 10.6666667,7.26362034 10.6666667,8 L10.6666667,8 Z" id="" fill="url(#linearGradient-2)"></path>
                        </g>
                    </g>
                </g>
            </g>
        </g>
    </g>
</svg>
