<?xml version="1.0" encoding="UTF-8"?>
<svg width="12px" height="12px" viewBox="0 0 12 12" version="1.1" xmlns="http://www.w3.org/2000/svg" xmlns:xlink="http://www.w3.org/1999/xlink">
    <title></title>
    <g id="nexusAI" stroke="none" stroke-width="1" fill="none" fill-rule="evenodd">
        <g id="" transform="translate(-78.000000, -621.000000)" fill-rule="nonzero">
            <g id="-11" transform="translate(30.000000, 528.000000)">
                <g id="-10" transform="translate(20.000000, 65.000000)">
                    <g id="-22" transform="translate(26.000000, 26.000000)">
                        <g id="" transform="translate(2.000000, 2.000000)">
                            <rect id="" fill="#000000" opacity="0" x="0" y="0" width="12" height="12"></rect>
                            <path d="M6,10.875 C3.30761184,10.875 1.125,8.69238816 1.125,6 C1.125,3.30761184 3.30761184,1.125 6,1.125 C8.69238816,1.125 10.875,3.30761184 10.875,6 C10.875,7.29293039 10.3613854,8.53290571 9.44714556,9.44714556 C8.53290571,10.3613854 7.29293039,10.875 6,10.875 Z M6,1.875 C3.72182541,1.875 1.875,3.72182541 1.875,6 C1.875,8.27817459 3.72182541,10.125 6,10.125 C8.27817459,10.125 10.125,8.27817459 10.125,6 C10.125,4.90598198 9.69040303,3.85677209 8.91681547,3.08318453 C8.14322791,2.30959697 7.09401802,1.875 6,1.875 Z M5.38725,7.818 C5.33124148,7.85520531 5.26548978,7.87503519 5.19825,7.875 C5.11550593,7.87844562 5.03481401,7.84869353 4.9741121,7.79235765 C4.91341019,7.73602177 4.87772882,7.65777081 4.875,7.575 L4.875,4.425 C4.87535255,4.36150659 4.89700938,4.29996949 4.9365,4.25025 C5.04805208,4.11717728 5.24174567,4.08909171 5.3865,4.185 L7.7415,5.76 C7.77006472,5.77758382 7.79542712,5.79990273 7.8165,5.826 C7.86619963,5.88936875 7.886435,5.97096299 7.87210439,6.05021124 C7.85777379,6.12945949 7.81024465,6.19879974 7.7415,6.24075 L5.38725,7.818 Z" id="" fill="#CCCCCC"></path>
                        </g>
                    </g>
                </g>
            </g>
        </g>
    </g>
</svg>
