<?xml version="1.0" encoding="UTF-8"?>
<svg width="42px" height="42px" viewBox="0 0 42 42" version="1.1" xmlns="http://www.w3.org/2000/svg" xmlns:xlink="http://www.w3.org/1999/xlink">
    <title>webm</title>
    <g id="nexusAI" stroke="none" stroke-width="1" fill="none" fill-rule="evenodd" opacity="0.500744048">
        <g id="02" transform="translate(-1003.000000, -499.000000)" fill-rule="nonzero">
            <g id="-23" transform="translate(550.000000, 398.000000)">
                <g id="-17" transform="translate(255.000000, 101.000000)">
                    <g id="" transform="translate(198.000000, 0.000000)">
                        <rect id="" fill="#000000" opacity="0" x="3" y="1" width="36" height="36"></rect>
                        <polygon id="" fill="#D5D668" points="28.5 3.99999999 36 11.5 36 17.5 33 17.5 33 12.745 27.255 6.99999999 8.99999999 6.99999999 8.99999999 17.5 5.99999999 17.5 5.99999999 3.99999999"></polygon>
                        <path d="M7.502,32 L9.842,28.562 L12.164,32 L14.576,32 L10.958,27.05 L14.162,22.694 L11.768,22.694 L9.842,25.538 L7.898,22.694 L5.504,22.694 L8.708,27.05 L5.09,32 L7.502,32 Z M18.2351429,32 L18.2351429,18.896 L16.1831429,18.896 L16.1831429,32 L18.2351429,32 Z M24.4682857,32.252 C27.2582857,32.252 28.6622857,31.262 28.6622857,29.282 C28.6622857,28.454 28.2842857,27.788 27.5462857,27.32 C27.0422857,26.978 26.2502857,26.69 25.2062857,26.438 C24.2702857,26.204 23.6582857,26.024 23.3522857,25.898 C22.8482857,25.682 22.6142857,25.412 22.6142857,25.124 C22.6142857,24.764 22.7582857,24.512 23.0822857,24.35 C23.3522857,24.188 23.7662857,24.116 24.3062857,24.116 C24.9362857,24.116 25.4042857,24.206 25.7102857,24.404 C25.9982857,24.584 26.2142857,24.926 26.3582857,25.394 L28.3562857,25.394 C28.1402857,23.414 26.7902857,22.442 24.3422857,22.442 C23.1902857,22.442 22.2722857,22.676 21.5702857,23.18 C20.8502857,23.648 20.5082857,24.314 20.5082857,25.178 C20.5082857,25.988 20.8682857,26.618 21.5882857,27.068 C22.0382857,27.356 22.8122857,27.626 23.9102857,27.878 C24.8462857,28.094 25.4582857,28.256 25.7462857,28.4 C26.2862857,28.652 26.5562857,28.994 26.5562857,29.426 C26.5562857,30.182 25.8362857,30.578 24.3962857,30.578 C23.7122857,30.578 23.2262857,30.452 22.9202857,30.236 C22.6142857,29.984 22.3982857,29.57 22.2902857,28.976 L20.2922857,28.976 C20.4902857,31.154 21.8762857,32.252 24.4682857,32.252 Z M31.9614286,32 L34.3014286,28.562 L36.6234286,32 L39.0354286,32 L35.4174286,27.05 L38.6214286,22.694 L36.2274286,22.694 L34.3014286,25.538 L32.3574286,22.694 L29.9634286,22.694 L33.1674286,27.05 L29.5494286,32 L31.9614286,32 Z" id="xlsx" fill="#D5D668"></path>
                    </g>
                </g>
            </g>
        </g>
    </g>
</svg>
