<?xml version="1.0" encoding="UTF-8"?>
<svg width="20px" height="20px" viewBox="0 0 20 20" version="1.1" xmlns="http://www.w3.org/2000/svg" xmlns:xlink="http://www.w3.org/1999/xlink">
    <title></title>
    <defs>
        <linearGradient x1="4.58512215%" y1="6.05498065%" x2="50%" y2="93.9450193%" id="linearGradient-1">
            <stop stop-color="#887BFF" offset="0%"></stop>
            <stop stop-color="#5670FB" offset="100%"></stop>
        </linearGradient>
    </defs>
    <g id="nexusAI" stroke="none" stroke-width="1" fill="none" fill-rule="evenodd">
        <g id="" transform="translate(-1000.000000, -149.000000)">
            <g id="" transform="translate(970.000000, 120.000000)">
                <g id="-10" transform="translate(20.000000, 20.000000)">
                    <g id="" transform="translate(10.000000, 9.000000)">
                        <rect id="" fill="#000000" fill-rule="nonzero" opacity="0" x="0" y="0" width="20" height="20"></rect>
                        <path d="M17.3461707,13.6063264 C17.3461707,13.7107716 17.3132773,13.8043176 17.2671569,13.8902929 C17.2634803,13.8972762 17.2681359,13.905195 17.26422,13.9120478 C17.2511453,13.9348034 17.2297385,13.9483785 17.2142055,13.9687846 C17.1883824,14.0027874 17.1633208,14.0349412 17.1311671,14.0628309 C17.1013194,14.0887628 17.0692962,14.1079723 17.0355326,14.1273994 C17.001769,14.1469571 16.9692455,14.1650789 16.931827,14.1780448 C16.8916023,14.1918809 16.8511164,14.1974719 16.8088032,14.2028672 C16.7833717,14.2060434 16.7609859,14.2177693 16.7346843,14.2177693 C16.7218271,14.2177693 16.7112107,14.2112863 16.6986146,14.2104161 C16.6578895,14.2080883 16.6193616,14.1971021 16.5792673,14.1863334 C16.5391513,14.1755648 16.5002536,14.1659274 16.4638141,14.147588 C16.4525669,14.1419535 16.4401013,14.1422145 16.4289628,14.1358403 L12.334497,11.7719324 L8.78566558,11.7719324 C7.4348393,11.7719324 6.33980699,10.6769219 6.33980699,9.32607383 L6.33980699,3.21140559 C6.33980699,1.86057931 7.43481754,0.765547 8.78566558,0.765547 L17.3461924,0.765547 C18.6970187,0.765547 19.792051,1.86055755 19.792051,3.21140559 L19.792051,9.32605207 C19.792051,10.6769001 18.6970404,11.7719324 17.3461924,11.7719324 L17.3461707,13.6063264 Z M17.166668,2.16771682 L8.78564383,2.16771682 C8.11021981,2.16771682 7.74305752,2.53595982 7.74305752,3.21138384 L7.74305752,9.12385696 C7.74305752,9.79928098 8.11021981,10.2827582 8.78564383,10.2827582 L12.5062013,10.2827582 C12.77131,10.4325971 12.9317903,10.5236587 12.9876424,10.5559429 L15.9939873,12.3153832 L15.9939873,10.9495252 C15.9939873,10.6118893 16.2504109,10.2827582 16.5880686,10.2827582 L17.2983699,10.2827582 C17.9737939,10.2827582 18.4125702,9.79928098 18.4125702,9.12385696 L18.4125702,3.21138384 C18.4125702,2.53595982 17.842092,2.16771682 17.166668,2.16771682 Z M16.4247888,7.11685084 C15.9942602,7.11685084 15.6450936,6.76771206 15.6450936,6.33715564 C15.6450936,5.90662697 15.9942324,5.55746044 16.4247888,5.55746044 C16.8553453,5.55746044 17.204484,5.90659923 17.204484,6.33715564 C17.204484,6.76771206 16.8553453,7.11685084 16.4247888,7.11685084 L16.4247888,7.11685084 Z M12.3035428,6.33715564 C12.3035428,5.90662697 12.6526816,5.55746044 13.083238,5.55746044 C13.5137667,5.55746044 13.8629332,5.90659923 13.8629332,6.33715564 C13.8629332,6.76771206 13.5137667,7.11685084 13.083238,7.11685084 C12.6527093,7.11685084 12.3035428,6.76771206 12.3035428,6.33715564 Z M9.74168713,7.11685084 C9.31115845,7.11685084 8.96199193,6.76771206 8.96199193,6.33715564 C8.96199193,5.90662697 9.31113071,5.55746044 9.74168713,5.55746044 C10.1722435,5.55746044 10.5213823,5.90659923 10.5213823,6.33715564 C10.5213823,6.76771206 10.1722435,7.11685084 9.74168713,7.11685084 L9.74168713,7.11685084 Z M1.55742682,14.0090368 C1.55742682,14.6844608 1.99555157,15.3284245 2.67097559,15.3284245 L3.55333211,15.3284245 C3.89096798,15.3284245 3.98577746,15.6809217 3.98577746,16.0185793 L3.98577746,17.2726768 L7.16571164,15.4103752 C7.24946796,15.3619271 7.33962022,15.3413904 7.43012056,15.3354078 L7.44197697,15.3284245 L11.2315459,15.3354078 C11.9069699,15.3354078 12.3616465,14.8931715 12.3616465,14.2177475 L13.6774045,14.2177475 C13.6774045,15.5685738 12.582394,16.6636061 11.2315459,16.6636061 L7.68269274,16.6636061 L3.58818344,19.0275575 C3.57704494,19.0339317 3.56457939,19.0336707 3.55333211,19.0393052 C3.51689267,19.0576445 3.47799493,19.0673037 3.43787892,19.0780506 C3.3977629,19.0888193 3.359235,19.0998055 3.3185316,19.1021333 C3.30593552,19.1029817 3.29529738,19.1094864 3.28246199,19.1094864 C3.25618209,19.1094864 3.23377455,19.0977388 3.20834309,19.0945843 C3.16602983,19.0892109 3.12556574,19.0835764 3.0853192,19.069762 C3.04790079,19.0567961 3.01537723,19.038696 2.98161364,19.0191166 C2.94785006,18.9996895 2.91582686,18.9804582 2.88597915,18.9545481 C2.85382543,18.9266584 2.82874204,18.8945046 2.80294074,18.8605017 C2.78742951,18.8400957 2.76600094,18.8264989 2.75292626,18.8037432 C2.74901038,18.7968904 2.75366592,18.7889282 2.74998935,18.7819883 C2.70389074,18.696013 2.67097559,18.602467 2.67097559,18.4980218 L2.67097559,16.6636061 C1.32014931,16.6636061 0.225117,15.5685955 0.225117,14.2177475 L0.225117,8.10303576 C0.225117,6.75220947 1.32012755,5.65717716 2.67097559,5.65717716 L5.11683418,5.65717716 L5.11683418,7.08627066 L2.80294074,7.08627066 C2.12751673,7.08627066 1.55742682,7.62646615 1.55742682,8.30189017 L1.55742682,14.0090368 Z" id="" fill="url(#linearGradient-1)"></path>
                    </g>
                </g>
            </g>
        </g>
    </g>
</svg>
