<?xml version="1.0" encoding="UTF-8"?>
<svg width="16px" height="16px" viewBox="0 0 16 16" version="1.1" xmlns="http://www.w3.org/2000/svg" xmlns:xlink="http://www.w3.org/1999/xlink">
    <title></title>
    <g id="nexusAI" stroke="none" stroke-width="1" fill="none" fill-rule="evenodd">
        <g id="-" transform="translate(-775.000000, -304.000000)" fill-rule="nonzero">
            <g id="-15" transform="translate(720.000000, 216.000000)">
                <g id="" transform="translate(55.000000, 88.000000)">
                    <rect id="" fill="#fff" opacity="0" x="0" y="0" width="16" height="16"></rect>
                    <path d="M6.16666667,1.66666667 L13.1666667,1.66666667 C13.8109989,1.66666667 14.3333333,2.18900113 14.3333333,2.83333333 L14.3333333,9.83333333 C14.3333333,10.4776655 13.8109989,11 13.1666667,11 L6.16666667,11 C5.52233446,11 5,10.4776655 5,9.83333333 L5,2.83333333 C5,2.18900112 5.52233447,1.66666667 6.16666667,1.66666667 Z M6.16666667,2.66666667 C6.07461922,2.66666667 6,2.74128587 6,2.83333333 L6,9.83333333 C6,9.92538079 6.07461921,10 6.16666667,10 L13.1666667,10 C13.2587141,10 13.3333333,9.92538078 13.3333333,9.83333333 L13.3333333,2.83333333 C13.3333333,2.74128588 13.2587141,2.66666667 13.1666667,2.66666667 L6.16666667,2.66666667 Z M10,12 C10,11.7238576 10.2238576,11.5 10.5,11.5 C10.7761424,11.5 11,11.7238576 11,12 L11,13.1666667 C11,13.8109989 10.4776655,14.3333333 9.83333333,14.3333333 L2.83333333,14.3333333 C2.18900113,14.3333333 1.66666667,13.8109989 1.66666667,13.1666667 L1.66666667,6.16666667 C1.66666667,5.52233447 2.18900112,5 2.83333333,5 L4,5 C4.27614237,5 4.5,5.22385763 4.5,5.5 C4.5,5.77614237 4.27614237,6 4,6 L2.83333333,6 C2.74128587,6 2.66666667,6.07461922 2.66666667,6.16666667 L2.66666667,13.1666667 C2.66666667,13.2587141 2.74128588,13.3333333 2.83333333,13.3333333 L9.83333333,13.3333333 C9.92538078,13.3333333 9.99999999,13.2587141 10,13.1666667 L10,12 Z" id="" fill="#fff"></path>
                </g>
            </g>
        </g>
    </g>
</svg>
