<?xml version="1.0" encoding="UTF-8"?>
<svg width="14px" height="14px" viewBox="0 0 14 14" version="1.1" xmlns="http://www.w3.org/2000/svg" xmlns:xlink="http://www.w3.org/1999/xlink">
    <title></title>
    <g id="-1" stroke="none" stroke-width="1" fill="none" fill-rule="evenodd">
        <g id="nexusaiicon" transform="translate(-1380.000000, -374.000000)" fill-rule="nonzero">
            <g id="-4" transform="translate(1361.000000, 357.000000)">
                <g id="-3" transform="translate(15.000000, 13.000000)">
                    <g id="" transform="translate(4.000000, 4.000000)">
                        <rect id="" fill="#000000" opacity="0" x="1" y="1" width="12" height="12"></rect>
                        <path d="M12.8958861,6.32033535 L11.2277247,4.65217391 C11.1668941,4.59134335 11.0861766,4.55858842 11.0007799,4.55858842 C10.9153831,4.55858842 10.8346656,4.59134335 10.7738351,4.65217391 L6.41392084,9.01208813 C6.37531683,9.05069214 6.34724118,9.09865471 6.33203354,9.15129655 L5.68161435,11.4464808 C5.65002925,11.5576136 5.68044453,11.6769351 5.76233184,11.7588224 C5.82199259,11.819653 5.90504971,11.8535777 5.99044648,11.8535777 C6.01852213,11.8535777 6.04659777,11.8500682 6.0735036,11.8430493 L8.39208422,11.2160265 C8.44589588,11.2008189 8.49502826,11.1727432 8.5348021,11.1329694 L12.8958861,6.77305518 C12.9567167,6.71222461 12.9894716,6.63150712 12.9894716,6.54611036 C12.9894716,6.46071359 12.9555469,6.38116592 12.8958861,6.32033535 Z M6.93215051,9.780659 L7.76272177,10.6112303 L6.60811074,10.9235718 L6.93215051,9.780659 Z M8.41080133,10.1994541 L7.34860596,9.13725872 L11.0007799,5.483915 L12.0629752,6.54611036 L8.41080133,10.1994541 Z M11.1177617,11.0779879 C10.9107038,11.0779879 10.7434198,11.245272 10.7434198,11.4523299 C10.7434198,11.8933515 10.3854553,12.2513161 9.94443361,12.2513161 L1.75921232,12.2513161 L1.75921232,1.74985377 L7.49717294,1.74985377 L9.74556443,4.0122831 C9.89179177,4.15851044 10.1280951,4.15968025 10.2754923,4.01345293 C10.4217196,3.86722559 10.4228894,3.63092222 10.2766621,3.48352506 L7.80834471,1 L1.01052837,1 L1.01052837,13 L9.94443361,13 C10.7972314,13 11.4921037,12.3062975 11.4921037,11.4523299 C11.4921037,11.245272 11.3248197,11.0779879 11.1177617,11.0779879 Z M5.87697407,3.27061805 L2.88223825,3.27061805 C2.67518035,3.27061805 2.50789627,3.43790212 2.50789627,3.64496003 C2.50789627,3.85201795 2.67518034,4.01930201 2.88223825,4.01930201 L5.87697407,4.01930201 C6.08403197,4.01930201 6.25131605,3.85201795 6.25131605,3.64496003 C6.25131605,3.43790212 6.08403197,3.27061805 5.87697407,3.27061805 Z M5.87697407,5.51666992 L2.88223825,5.51666992 C2.67518035,5.51666992 2.50789627,5.68395399 2.50789627,5.8910119 C2.50789627,6.09806982 2.67518034,6.26535388 2.88223825,6.26535388 L5.87697407,6.26535388 C6.08403197,6.26535388 6.25131605,6.09806982 6.25131605,5.8910119 C6.25131605,5.68395399 6.08403197,5.51666992 5.87697407,5.51666992 Z M5.87697407,7.76272178 L2.88223825,7.76272178 C2.67518035,7.76272178 2.50789627,7.93000585 2.50789627,8.13706376 C2.50789627,8.34412168 2.67518034,8.51140574 2.88223825,8.51140574 L5.87697407,8.51140574 C6.08403197,8.51140574 6.25131605,8.34412168 6.25131605,8.13706376 C6.25131605,7.93000585 6.08403197,7.76272178 5.87697407,7.76272178 Z" id="" fill="#FFFFFF"></path>
                    </g>
                </g>
            </g>
        </g>
    </g>
</svg>
