<?xml version="1.0" encoding="UTF-8"?>
<svg width="16px" height="16px" viewBox="0 0 16 16" version="1.1" xmlns="http://www.w3.org/2000/svg" xmlns:xlink="http://www.w3.org/1999/xlink">
    <title>biaji</title>
    <g id="nexusAI" stroke="none" stroke-width="1" fill="none" fill-rule="evenodd">
        <g id="" transform="translate(-1334.000000, -267.000000)" fill-rule="nonzero">
            <g id="-11" transform="translate(970.000000, 133.000000)">
                <g id="-20" transform="translate(349.000000, 119.000000)">
                    <g id="232ã€" transform="translate(15.000000, 15.000000)">
                        <rect id="" fill="#000000" opacity="0" x="0" y="0" width="16" height="16"></rect>
                        <path d="M10.725,3.5 C10.625,3.4 10.625,3.25 10.725,3.15 L11.7875,2.0875 C11.8875,1.9875 12.0375,1.9875 12.1375,2.0875 L13.9,3.85 C14,3.95 14,4.1 13.9,4.2 L12.8375,5.2625 C12.7375,5.3625 12.5875,5.3625 12.4875,5.2625 L10.725,3.5 Z M6,12.125 L11.8125,6.3125 C11.9,6.225 11.8875,6.075 11.7875,5.9875 L10.025,4.2125 C9.925,4.1125 9.775,4.1 9.7,4.1875 L3.875,10 L3,13 L6,12.125 Z M1,14 L1,15 L15,15 L15,14 L1,14 Z" id="" fill="#213044"></path>
                    </g>
                </g>
            </g>
        </g>
    </g>
</svg>
