<?xml version="1.0" encoding="UTF-8"?>
<svg width="14px" height="14px" viewBox="0 0 14 14" version="1.1" xmlns="http://www.w3.org/2000/svg" xmlns:xlink="http://www.w3.org/1999/xlink">
    <title></title>
    <g id="-1" stroke="none" stroke-width="1" fill="none" fill-rule="evenodd">
        <g id="nexusaiicon" transform="translate(-1380.000000, -492.000000)" fill-rule="nonzero">
            <g id="-4" transform="translate(1361.000000, 475.000000)">
                <g id="-3" transform="translate(15.000000, 13.000000)">
                    <g id="" transform="translate(4.000000, 4.000000)">
                        <rect id="" fill="#000000" opacity="0" x="0" y="0" width="14" height="14"></rect>
                        <path d="M11.802,2.0545 L9.604,2.0545 L9.604,1.7045 C9.604,1.4875 9.429,1.3125 9.212,1.3125 L4.809,1.3125 C4.592,1.3125 4.417,1.4875 4.417,1.7045 L4.417,2.0545 L2.219,2.0545 C2.002,2.0545 1.827,2.2295 1.827,2.4465 L1.827,12.0295 C1.827,12.2465 2.002,12.4215 2.219,12.4215 L11.795,12.4215 C12.019,12.4215 12.187,12.2465 12.194,12.0295 L12.194,2.4395 C12.194,2.2295 12.019,2.0545 11.802,2.0545 Z M5.201,2.0895 L8.82,2.0895 L8.82,2.7475 L5.201,2.7475 L5.201,2.0895 Z M11.34,11.5605 L2.681,11.5605 L2.681,2.9015 L4.417,2.9015 L4.417,3.1395 C4.417,3.3565 4.592,3.5315 4.809,3.5315 L9.212,3.5315 C9.429,3.5315 9.604,3.3635 9.604,3.1395 L9.604,2.9015 L11.34,2.9015 L11.34,11.5605 Z" id="" fill="#FFFFFF"></path>
                        <path d="M9.996,5.628 C9.996,5.747 9.954,5.852 9.87,5.943 L6.545,9.261 C6.37,9.436 6.097,9.436 5.922,9.261 L4.144,7.483 C3.969,7.308 3.969,7.035 4.144,6.86 C4.319,6.685 4.592,6.685 4.767,6.86 L6.23,8.316 L9.233,5.313 C9.408,5.138 9.681,5.138 9.856,5.313 C9.947,5.404 9.989,5.509 9.996,5.628 Z" id="" fill="#FFFFFF"></path>
                    </g>
                </g>
            </g>
        </g>
    </g>
</svg>
