<?xml version="1.0" encoding="UTF-8"?>
<svg width="14px" height="14px" viewBox="0 0 14 14" version="1.1" xmlns="http://www.w3.org/2000/svg" xmlns:xlink="http://www.w3.org/1999/xlink">
    <title></title>
    <g id="-1" stroke="none" stroke-width="1" fill="none" fill-rule="evenodd">
        <g id="nexusaiicon" transform="translate(-618.000000, -256.000000)" fill-rule="nonzero">
            <g id="-4" transform="translate(599.000000, 239.000000)">
                <g id="-3" transform="translate(15.000000, 13.000000)">
                    <g id="icon_one_click_go" transform="translate(4.000000, 4.000000)">
                        <rect id="" fill="#000000" opacity="0" x="1" y="1" width="11.9184133" height="12"></rect>
                        <path d="M6.13981575,12.175 L2.71327192,12.175 C2.26633142,12.175 1.893881,11.8 1.893881,11.35 L1.893881,2.725 C1.893881,2.275 2.26633142,1.9 2.71327192,1.9 L10.3857505,1.9 C10.832691,1.9 11.2051414,2.275 11.2051414,2.725 L11.2051414,5.65 C11.5031017,5.8 11.8010621,5.95 12.0245323,6.175 L12.0245323,2.725 C12.0245323,1.75 11.2796315,1 10.3112604,1 L2.71327192,1 C1.81939092,1 1,1.75 1,2.725 L1,11.275 C1,12.25 1.74490083,13 2.71327192,13 L7.03369675,13 C6.66124633,12.775 6.363286,12.475 6.13981575,12.175 Z M6.363286,3.1 C6.21430583,2.95 5.9163455,2.95 5.69287525,3.1 L4.20307358,4.6 L3.60715292,4.075 C3.45817275,3.85 3.16021242,3.85 3.01123225,4 C2.86225208,4.15 2.86225208,4.45 3.01123225,4.6 L3.83062317,5.5 L3.90511325,5.575 C3.97960333,5.65 4.1285835,5.725 4.27756367,5.725 C4.42654383,5.725 4.50103392,5.65 4.575524,5.575 L6.363286,3.775 C6.58675625,3.625 6.58675625,3.325 6.363286,3.1 Z M7.85308766,3.925 C7.62961741,3.925 7.40614716,4.15 7.40614716,4.375 C7.40614716,4.6 7.62961741,4.825 7.85308766,4.825 L10.6092207,4.825 C10.832691,4.825 11.0561612,4.6 11.0561612,4.375 C11.0561612,4.15 10.832691,3.925 10.6092207,3.925 L7.85308766,3.925 Z M5.76736533,6.325 L4.27756367,7.825 L3.60715292,7.3 C3.45817275,7.15 3.16021242,7.15 3.01123225,7.3 C2.86225208,7.45 2.86225208,7.75 3.01123225,7.9 L3.83062317,8.725 L3.90511325,8.8 C3.97960333,8.875 4.1285835,8.95 4.27756367,8.95 C4.42654383,8.95 4.50103392,8.875 4.575524,8.8 L6.363286,7 C6.51226616,6.775 6.51226616,6.55 6.28879591,6.325 C6.13981575,6.175 5.9163455,6.175 5.76736533,6.325 Z M11.8755522,8.275 L9.86431991,7.825 L9.86431991,6.475 L9.86431991,6.4 C9.86431991,5.875 9.41737941,5.5 8.89594883,5.5 C8.37451825,5.5 8.00206783,5.95 8.00206783,6.475 L8.00206783,8.875 C7.62961741,8.5 7.03369675,8.5 6.66124633,8.875 C6.28879591,9.25 6.28879591,9.775 6.66124633,10.15 L8.74696866,12.25 C8.97043891,12.475 9.26839925,12.625 9.64084966,12.625 L12.0990224,12.625 C12.620453,12.625 12.9929034,12.175 12.9929034,11.725 L12.9929034,9.775 C13.0673935,9.1 12.5459629,8.425 11.8755522,8.275 L11.8755522,8.275 Z" id="" fill="#FFFFFF"></path>
                    </g>
                </g>
            </g>
        </g>
    </g>
</svg>
