<?xml version="1.0" encoding="UTF-8"?>
<svg width="16px" height="16px" viewBox="0 0 16 16" version="1.1" xmlns="http://www.w3.org/2000/svg" xmlns:xlink="http://www.w3.org/1999/xlink">
    <title></title>
    <g id="nexusAI" stroke="none" stroke-width="1" fill="none" fill-rule="evenodd">
        <g id="00" transform="translate(-45.000000, -158.000000)">
            <g id="-12" transform="translate(30.000000, 141.000000)">
                <g id="" transform="translate(15.000000, 17.000000)">
                    <rect id="" fill="#000000" fill-rule="nonzero" opacity="0" x="0" y="0" width="16" height="16"></rect>
                    <path d="M9.94825962,2.81467545 L5.2370649,2.81467545 L5.2370649,0.933207904 L6.18532454,0.933207904 C6.18532454,0.672311072 6.27563498,0.451552213 6.45625586,0.270931328 C6.63687675,0.0903104425 6.85763561,0 7.11853244,0 L8.06679208,0 C8.32768891,0 8.54844777,0.0903104425 8.72906866,0.270931328 C8.90968954,0.451552213 8.99999998,0.672311072 8.99999998,0.933207904 L9.94825962,0.933207904 L9.94825962,2.81467545 Z M7.60018813,1.97177798 C7.76074002,1.97177798 7.89871431,1.91407964 8.01411099,1.79868297 C8.12950766,1.68328629 8.187206,1.545312 8.187206,1.38476011 C8.187206,1.21417371 8.12950766,1.0736908 8.01411099,0.963311373 C7.89871431,0.852931946 7.76074002,0.797742233 7.60018813,0.797742233 C7.42960173,0.797742233 7.28911882,0.852931946 7.17873939,0.963311373 C7.06835997,1.0736908 7.01317025,1.21417371 7.01317025,1.38476011 C7.01317025,1.545312 7.06835997,1.68328629 7.17873939,1.79868297 C7.28911882,1.91407964 7.42960173,1.97177798 7.60018813,1.97177798 Z M11.3781749,9.37723423 C11.8297272,9.37723423 12.2561931,9.46503605 12.6575729,9.64063968 C13.0589526,9.81624332 13.4101599,10.0545625 13.7111947,10.3555974 C14.0122295,10.6566322 14.2505487,11.0078394 14.4261524,11.4092192 C14.601756,11.8105989 14.6895578,12.2370649 14.6895578,12.6886171 C14.6895578,13.1502038 14.601756,13.581687 14.4261524,13.9830668 C14.2505487,14.3844465 14.0122295,14.7356538 13.7111947,15.0366886 C13.4101599,15.3377234 13.0589526,15.573534 12.6575729,15.7441204 C12.2561931,15.9147068 11.8297272,16 11.3781749,16 C10.9165882,16 10.485105,15.9147068 10.0837253,15.7441204 C9.68234554,15.573534 9.33113826,15.3377234 9.03010345,15.0366886 C8.72906864,14.7356538 8.49074942,14.3844465 8.31514578,13.9830668 C8.13954215,13.581687 8.05174033,13.1502038 8.05174033,12.6886171 C8.05174033,12.2370649 8.13954215,11.8105989 8.31514578,11.4092192 C8.49074942,11.0078394 8.72906864,10.6566322 9.03010345,10.3555974 C9.33113826,10.0545626 9.68234554,9.81624333 10.0837253,9.64063968 C10.485105,9.46503604 10.9165882,9.37723423 11.3781749,9.37723423 Z M13.4252116,12.402634 C13.4854186,12.3323926 13.5406083,12.2470994 13.5907808,12.1467544 C13.6409533,12.0464095 13.6259015,11.956099 13.5456256,11.8758231 C13.5255566,11.8557541 13.4778927,11.8055816 13.402634,11.7253057 C13.3273753,11.6450297 13.2797115,11.5998745 13.2596425,11.58984 C13.1592976,11.5195986 13.0639699,11.5095641 12.9736594,11.5597366 C12.883349,11.609909 12.7930386,11.6801505 12.7027281,11.7704609 C12.4719348,12.0012543 12.24365,12.2270304 12.0178739,12.4477892 C11.7920978,12.6685481 11.5788648,12.8792724 11.378175,13.0799623 C11.3079335,13.1502038 11.2301662,13.1928504 11.144873,13.2079021 C11.0595798,13.2229539 10.991847,13.195359 10.9416745,13.1251175 C10.911571,13.0950141 10.8639072,13.0448416 10.798683,12.9746001 C10.7334588,12.9043587 10.6657259,12.8291 10.5954845,12.748824 C10.525243,12.6685481 10.4575102,12.5907808 10.392286,12.5155221 C10.3270618,12.4402634 10.2793979,12.3875823 10.2492944,12.3574788 C10.1890875,12.3073063 10.1213546,12.2746942 10.0460959,12.2596425 C9.97083723,12.2445907 9.8930699,12.2721856 9.81279397,12.342427 C9.80275948,12.3524615 9.77767324,12.3750391 9.73753526,12.4101599 C9.69739729,12.4452806 9.65725931,12.4854186 9.61712134,12.5305738 C9.57698337,12.575729 9.5368454,12.615867 9.49670742,12.6509877 C9.45656944,12.6861084 9.43148321,12.708686 9.42144872,12.7187205 C9.27093131,12.8792724 9.2910003,13.0649106 9.48165569,13.2756349 C9.54186264,13.3458764 9.62213859,13.4336782 9.72248353,13.5390404 C9.82282847,13.6444026 9.92819065,13.7572906 10.0385701,13.8777045 C10.1489495,13.9981185 10.2593289,14.1160238 10.3697084,14.2314204 C10.4800878,14.3468171 10.5754155,14.4396362 10.6556914,14.5098776 C10.7359674,14.5901536 10.8463468,14.6277829 10.9868297,14.6227657 C11.1273126,14.6177484 11.2326748,14.5751018 11.3029162,14.4948259 C11.4433992,14.3643775 11.603951,14.2063342 11.7845719,14.0206961 C11.9651928,13.8350579 12.1533396,13.6469112 12.3490122,13.4562558 C12.5446848,13.2656004 12.7353402,13.0774537 12.9209783,12.8918155 C13.1066165,12.7061774 13.2746942,12.5431169 13.4252116,12.402634 L13.4252116,12.402634 Z M7.07337722,12.2370649 C7.07337722,12.3073063 7.0708686,12.3775478 7.06585135,12.4477892 C7.0608341,12.5180307 7.05832547,12.5932894 7.05832547,12.6735654 C7.05832547,13.1251176 7.12354968,13.5540922 7.2539981,13.9604891 C7.38444651,14.3668861 7.57008464,14.740671 7.81091249,15.0818438 L3.41580431,15.0818438 C3.22514893,15.0818438 3.01693319,15.0266541 2.79115709,14.9162747 C2.56538099,14.8058952 2.35465662,14.6603951 2.158984,14.4797742 C1.96331137,14.2991533 1.80025085,14.0934462 1.66980244,13.8626528 C1.53935402,13.6318595 1.47412981,13.3910316 1.47412981,13.1401693 L1.47412981,3.82314204 C1.47412981,3.61241768 1.52430228,3.39416744 1.62464722,3.16839134 C1.72499215,2.94261523 1.85544057,2.73439949 2.01599247,2.54374412 C2.17654436,2.35308875 2.36218249,2.19504547 2.57290686,2.06961429 C2.78363122,1.94418312 3.00439008,1.88146754 3.23518343,1.88146754 L4.30385699,1.88146754 L4.30385699,3.76293509 L10.8814675,3.76293509 L10.8814675,1.88146754 L11.8146754,1.88146754 C12.0454688,1.88146754 12.2737535,1.93164001 12.4995296,2.03198495 C12.7253057,2.13232989 12.9285042,2.26779555 13.1091251,2.43838193 C13.289746,2.60896832 13.4377548,2.81467544 13.5531514,3.05550329 C13.6685481,3.29633114 13.7262464,3.55221073 13.7262464,3.82314206 L13.7262464,9.15145814 C13.3750392,8.92066478 12.9987457,8.7400439 12.5973659,8.60959548 C12.1959862,8.47914707 11.7695202,8.41392286 11.317968,8.41392286 L11.2126058,8.41392286 C11.3932267,8.3436814 11.5412355,8.22828472 11.6566321,8.06773283 C11.7720288,7.90718093 11.8297272,7.72656005 11.8297272,7.52587017 C11.8297272,7.26497334 11.7369081,7.04421448 11.5512699,6.8635936 C11.3656318,6.68297271 11.1423643,6.59266227 10.8814675,6.59266227 L4.30385698,6.59266227 C4.04296015,6.59266227 3.81969266,6.68297271 3.63405453,6.8635936 C3.44841639,7.04421448 3.35559732,7.26497334 3.35559732,7.52587017 C3.35559732,7.78676701 3.44841639,8.01003449 3.63405453,8.19567262 C3.81969266,8.38131076 4.04296015,8.47412983 4.30385698,8.47412983 L10.6105362,8.47412983 C10.0084666,8.57447476 9.46158666,8.78770775 8.96989647,9.11382879 C8.47820628,9.43994984 8.07180929,9.85387269 7.7507055,10.3555974 L4.30385696,10.3555974 C4.04296013,10.3555974 3.81969265,10.4459078 3.63405451,10.6265287 C3.44841638,10.8071496 3.35559731,11.0279084 3.35559731,11.2888053 C3.35559731,11.5497021 3.44841638,11.7729696 3.63405451,11.9586077 C3.81969265,12.1442459 4.04296013,12.2370649 4.30385696,12.2370649 L7.07337718,12.2370649 L7.07337722,12.2370649 Z" id="" fill="#1B64F3"></path>
                </g>
            </g>
        </g>
    </g>
</svg>
