<?xml version="1.0" encoding="UTF-8"?>
<svg width="14px" height="14px" viewBox="0 0 14 14" version="1.1" xmlns="http://www.w3.org/2000/svg" xmlns:xlink="http://www.w3.org/1999/xlink">
    <title></title>
    <g id="-1" stroke="none" stroke-width="1" fill="none" fill-rule="evenodd">
        <g id="nexusaiicon" transform="translate(-1126.000000, -256.000000)" fill-rule="nonzero">
            <g id="-4" transform="translate(1107.000000, 239.000000)">
                <g id="-3" transform="translate(15.000000, 13.000000)">
                    <g id="--2" transform="translate(4.000000, 4.000000)">
                        <rect id="" fill="#000000" opacity="0" x="0" y="0" width="14" height="14"></rect>
                        <path d="M11.375,2.61132812 L10.9375,2.61132812 L10.9375,1.3125 C10.9375,1.07050781 10.7419922,0.875 10.5,0.875 L3.05566406,0.875 C2.33515625,0.875 1.75,1.46015625 1.75,2.18066406 L1.75,12.25 C1.75,12.7326172 2.14238281,13.125 2.625,13.125 L11.375,13.125 C11.8576172,13.125 12.25,12.7326172 12.25,12.25 L12.25,3.48632813 C12.25,3.00371094 11.8576172,2.61132812 11.375,2.61132812 Z M3.05566406,1.75 L10.0625,1.75 L10.0625,2.61132813 L3.05566406,2.61132813 C2.81777344,2.61132813 2.625,2.41855469 2.625,2.18066406 C2.625,1.94277344 2.81777344,1.75 3.05566406,1.75 Z M11.375,12.25 L2.625,12.25 L2.625,3.41386719 C2.76035156,3.46035156 2.90527344,3.48632812 3.05566406,3.48632812 L11.375,3.48632812 L11.375,12.25 Z M9.625,5.25 L4.375,5.25 C4.13300781,5.25 3.9375,5.44550781 3.9375,5.6875 C3.9375,5.92949219 4.13300781,6.125 4.375,6.125 L9.625,6.125 C9.86699219,6.125 10.0625,5.92949219 10.0625,5.6875 C10.0625,5.44550781 9.86699219,5.25 9.625,5.25 Z M7.875,7 L4.375,7 C4.13300781,7 3.9375,7.19550781 3.9375,7.4375 C3.9375,7.67949219 4.13300781,7.875 4.375,7.875 L7.875,7.875 C8.11699219,7.875 8.3125,7.67949219 8.3125,7.4375 C8.3125,7.19550781 8.11699219,7 7.875,7 Z" id="" fill="#FFFFFF"></path>
                    </g>
                </g>
            </g>
        </g>
    </g>
</svg>
