<?xml version="1.0" encoding="UTF-8"?>
<svg width="18px" height="18px" viewBox="0 0 18 18" version="1.1" xmlns="http://www.w3.org/2000/svg" xmlns:xlink="http://www.w3.org/1999/xlink">
    <title>语言切换</title>
    <g id="nexusAI" stroke="none" stroke-width="1" fill="none" fill-rule="evenodd">
        <g id="画板" transform="translate(-1193.000000, -87.000000)" fill-rule="nonzero">
            <g id="语言" transform="translate(1193.000000, 87.000000)">
                <rect id="矩形" fill="#000000" opacity="0" x="0" y="0" width="18" height="18"></rect>
                <path d="M8.46738281,1.12148438 C10.2199219,1.00371094 11.8757813,1.46777344 13.2486328,2.35019531 C13.4279297,2.46621094 13.5175781,2.66484375 13.5052734,2.85996094 L13.5052734,9.77871094 C13.5052734,10.0283203 13.3435547,10.2392578 13.1185547,10.3130859 L13.1064697,10.3166016 C12.8566406,10.3939453 12.5841797,10.2919922 12.4505859,10.0617188 L10.125,6.03457031 L10.125,8.42695313 C10.125,8.73808594 9.87363281,8.98945313 9.5625,8.98945313 C9.25136719,8.98945313 9,8.73808594 9,8.42695313 L9,3.95859375 C8.99121094,3.75996094 9.08789063,3.56484375 9.2671875,3.45585938 L9.27597656,3.44970703 C9.28300781,3.4453125 9.28476563,3.44355469 9.28828125,3.44179688 L9.29882813,3.43652344 C9.30410156,3.43476563 9.30761719,3.43125 9.31289063,3.42949219 L9.32519531,3.42421875 C9.33046875,3.42246094 9.33398438,3.42070313 9.33925781,3.41894531 L9.3515625,3.41367188 L9.365625,3.40839844 C9.37089844,3.40839844 9.37441406,3.40664063 9.37792969,3.40488281 C9.38144531,3.403125 9.38671875,3.40136719 9.39199219,3.39960938 C9.39550781,3.39785156 9.39902344,3.39785156 9.40253906,3.39609375 L9.41835938,3.39082031 L9.42890625,3.3890625 C9.43417969,3.38730469 9.44121094,3.38730469 9.44648438,3.38554688 L9.47285156,3.38027344 C9.48867188,3.37851563 9.49394531,3.37675781 9.50097656,3.37675781 C9.51679688,3.37324219 9.52207031,3.37324219 9.52910156,3.37324219 L9.6046875,3.37324219 C9.80332031,3.38730469 9.97207031,3.50507813 10.0599609,3.67207031 L12.3785156,7.68339844 L12.3785156,3.1359375 C12.0041016,2.91972656 11.6103516,2.73867188 11.1990234,2.59628906 C10.3464844,2.30097656 9.45175781,2.18320313 8.54296875,2.24472656 C7.63417969,2.30625 6.7640625,2.5453125 5.95898438,2.953125 C5.18027344,3.346875 4.49296875,3.88300781 3.91640625,4.54570313 C3.33984375,5.20839844 2.90214844,5.9625 2.61738281,6.79042969 C2.32207031,7.64648438 2.20429688,8.54296875 2.26582031,9.45527344 C2.32910156,10.3693359 2.56640625,11.2412109 2.97421875,12.0498047 C3.36796875,12.8320313 3.90410156,13.5210938 4.56503906,14.0994141 C5.22597656,14.6777344 5.98007813,15.1171875 6.80449219,15.4019531 C7.65703125,15.6972656 8.55175781,15.8150391 9.46054688,15.7535156 C10.3693359,15.6919922 11.2394531,15.4529297 12.0445313,15.0451172 C12.8232422,14.6513672 13.5105469,14.1152344 14.0871094,13.4525391 C14.6636719,12.7898438 15.1013672,12.0357422 15.3861328,11.2078125 C15.6814453,10.3517578 15.7992188,9.45527344 15.7376953,8.54296875 C15.6744141,7.62890625 15.4371094,6.75703125 15.0292969,5.9484375 C14.7990234,5.49140625 14.5195313,5.06601563 14.1960938,4.67578125 C14.0185547,4.46308594 14.0220703,4.15546875 14.203125,3.94628906 C14.4316406,3.68613281 14.8376953,3.68964844 15.0591797,3.95507813 C16.0822266,5.1890625 16.7414063,6.74472656 16.8591797,8.46738281 C17.1544922,12.8179688 13.8744141,16.5832031 9.534375,16.8767578 C5.19433594,17.1703125 1.43613281,13.8832031 1.14082031,9.53261719 C0.845507813,5.18203125 4.12558594,1.41679688 8.46738281,1.12148438 Z M10.0775391,10.1337891 C10.1777344,10.1320313 10.2796875,10.1548828 10.3728516,10.209375 L12.2994141,11.3220703 C12.5683594,11.4767578 12.6597656,11.8212891 12.5050781,12.0902344 C12.3503906,12.3591797 12.0058594,12.4505859 11.7369141,12.2958984 L10.0775391,11.3378906 L7.3125,12.9357422 L8.41992187,13.5738281 L9.28828125,13.0763672 C9.55722656,12.9216797 9.90175781,13.0130859 10.0564453,13.2820313 C10.2111328,13.5509766 10.1197266,13.8955078 9.85078125,14.0501953 L8.84179687,14.6320313 C8.66601562,14.8095703 8.38652344,14.8535156 8.15976562,14.7234375 L5.90976562,13.4244141 C5.73398437,13.3224609 5.63554687,13.1431641 5.62851562,12.9550781 L5.62851562,12.9164063 C5.63554687,12.7283203 5.73574219,12.5472656 5.90976562,12.4470703 L9.78222656,10.209375 C9.87539062,10.1548828 9.97734375,10.1320313 10.0775391,10.1337891 Z M7.03476562,4.58261719 C7.30371094,4.42617188 7.64824219,4.51933594 7.80117187,4.78828125 C7.95585937,5.05722656 7.86445312,5.40175781 7.59550781,5.55644531 L5.62675781,6.69375 L5.62675781,7.63417969 L7.03300781,6.82207031 C7.30195312,6.66738281 7.64648437,6.75878906 7.80117187,7.02773438 C7.95585937,7.29667969 7.86445312,7.64121094 7.59550781,7.79589844 L5.62675781,8.93320313 L5.62675781,9.89121094 L7.03300781,9.07910156 C7.30195312,8.92441406 7.64648437,9.01582031 7.80117187,9.28476563 C7.95585937,9.55371094 7.86445312,9.89824219 7.59550781,10.0529297 L5.34902344,11.3501953 C5.26113281,11.4011719 5.16621094,11.4257813 5.07128906,11.4257813 L5.05371094,11.4257813 C4.74960937,11.41875 4.50351562,11.1708984 4.50351562,10.8632813 L4.50351562,6.37207031 C4.50351562,6.24375 4.54570312,6.12773438 4.61601562,6.0328125 C4.66171875,5.97304688 4.71796875,5.9203125 4.78828125,5.87988281 Z" id="形状结合" fill="#5F6A79"></path>
            </g>
        </g>
    </g>
</svg>