<?xml version="1.0" encoding="UTF-8"?>
<svg width="16px" height="16px" viewBox="0 0 16 16" version="1.1" xmlns="http://www.w3.org/2000/svg" xmlns:xlink="http://www.w3.org/1999/xlink">
    <title></title>
    <g id="nexusAI" stroke="none" stroke-width="1" fill="none" fill-rule="evenodd">
        <g id="00" transform="translate(-746.000000, -439.000000)" fill-rule="nonzero">
            <g id="-9" transform="translate(731.000000, 424.000000)">
                <g id="" transform="translate(15.000000, 15.000000)">
                    <rect id="" fill="#000000" opacity="0" x="0" y="0" width="16" height="16"></rect>
                    <path d="M12.7584032,3.62004185 L10.3050462,3.62004185 L9.09170494,1.99906163 C8.69711044,1.47489864 8.0796183,1.16602598 7.42353163,1.164633 L3.25138847,1.164633 C2.09759702,1.16727387 1.1638753,2.10374994 1.16463246,3.25754416 L1.16463246,12.7508798 C1.16387367,13.9041414 2.09676367,14.840397 3.25002055,14.8437909 L12.7570353,14.8437909 C13.9102922,14.840397 14.8431822,13.9041414 14.842424,12.7508798 L14.842424,5.71363696 C14.8435615,4.56064066 13.9113926,3.62418876 12.7584032,3.62004185 Z M2.25212574,3.25754416 C2.25174672,2.70571096 2.69818929,2.25773844 3.25002055,2.2562298 L7.42216371,2.2562298 C7.73586524,2.25719394 8.03101003,2.40501945 8.21965862,2.65566121 L8.94397003,3.62004185 L2.25212574,3.62004185 L2.25212574,3.25754416 Z M13.7562978,12.7508798 C13.7562978,13.3025576 13.3100779,13.75031 12.7584032,13.7521941 L3.25138847,13.7521941 C2.69902269,13.7514391 2.2517479,13.3032459 2.25212574,12.7508798 L2.25212574,4.71437447 L12.7584032,4.71437447 C13.309434,4.71588055 13.7555466,5.16260468 13.7562978,5.71363696 L13.7562978,12.7508798 Z" id="" fill="#213044"></path>
                </g>
            </g>
        </g>
    </g>
</svg>
