<?xml version="1.0" encoding="UTF-8"?>
<svg width="42px" height="42px" viewBox="0 0 42 42" version="1.1" xmlns="http://www.w3.org/2000/svg" xmlns:xlink="http://www.w3.org/1999/xlink">
    <title>md</title>
    <g id="nexusAI" stroke="none" stroke-width="1" fill="none" fill-rule="evenodd" opacity="0.500744048">
        <g id="02" transform="translate(-1073.000000, -499.000000)" fill-rule="nonzero">
            <g id="-23" transform="translate(550.000000, 398.000000)">
                <g id="-17" transform="translate(255.000000, 101.000000)">
                    <g id="" transform="translate(268.000000, 0.000000)">
                        <rect id="" fill="#000000" opacity="0" x="3" y="1" width="36" height="36"></rect>
                        <path d="M29.7928214,4.03125 C31.4336016,4.03125 32.7792581,5.34445749 32.870111,6.99327134 L32.875,7.17116964 L32.875,27.7359509 C32.875,27.7737813 32.8570804,27.8056384 32.8521027,27.8424732 C32.8819224,28.1227153 32.7892881,28.4000752 32.6017267,28.6053291 L32.5156116,28.6886786 L26.5423973,33.6663571 C26.3084464,33.8614821 26.0127723,33.9192232 25.7340223,33.8694464 L25.666077,33.8859972 L25.5966384,33.8973214 L12.0633259,33.8973214 C10.4235069,33.8973214 9.07788356,32.5841139 8.9870318,30.9353001 L8.98197434,30.7574018 L8.98197434,28.7301894 L10.9725631,28.7301894 L10.9732143,30.7574018 C10.9732143,31.3483518 11.3990204,31.8369696 11.9446766,31.8994922 L12.0633259,31.90625 L24.9107143,31.90625 L24.9107143,28.9196429 C24.9107143,27.3270631 26.1572366,26.0256243 27.727844,25.9377635 L27.8973214,25.9330357 L30.8839286,25.9330357 L30.8839286,7.17116964 C30.8839286,6.58021964 30.4581225,6.09160187 29.9116568,6.02907927 L29.7928214,6.02232143 L12.0633259,6.02232143 C11.5021092,6.02232143 11.0388887,6.47154254 10.9796202,7.0462218 L10.9732143,7.17116964 L10.9725631,16.0674578 L8.98197434,16.0674578 L8.98197434,7.17116964 C8.98197434,5.49963085 10.2712207,4.12878409 11.8888005,4.0362305 L12.0633259,4.03125 L29.7928214,4.03125 Z M30.3244375,27.9241071 L27.8973214,27.9241071 C27.3841568,27.9241071 26.9616773,28.3123758 26.9076274,28.8111683 L26.9017857,28.9196429 L26.9017857,30.776317 L30.3244375,27.9241071 Z M9.53056937,17.5162338 L11.3387488,22.8153874 L11.7149029,24.3266031 L12.1372514,22.8285858 L13.8794389,17.5162338 L16.0175781,17.5162338 L17.4760002,27.164257 L15.4632457,27.164257 L14.7703303,22.2280591 L14.5393584,20.0041303 L14.084014,21.8915001 L12.39462,27.164257 L11.1473722,27.164257 L9.29959754,21.9046985 L8.8112571,19.9909319 L8.58028527,22.261055 L8.03915128,27.164257 L6,27.164257 L7.48481889,17.5162338 L9.53056937,17.5162338 Z M22.339607,17.5162338 L22.6155101,17.5212992 C23.9763363,17.5719531 25.0568256,18.002512 25.856978,18.8129756 C26.7104739,19.6774702 27.1372218,20.8664251 27.1372218,22.3798405 C27.1372218,23.9460495 26.6785778,25.1350045 25.7612897,25.9467055 C24.901332,26.7076752 23.6672697,27.1119403 22.0591025,27.1595009 L21.7324811,27.164257 L18.7298473,27.164257 L18.7298473,17.5162338 L22.339607,17.5162338 Z M22.0294448,19.2320245 L20.7558002,19.2320245 L20.7558002,25.4484662 L22.0030481,25.4484662 C22.9797289,25.4484662 23.7320372,25.1822987 24.2599728,24.6499636 C24.7879084,24.1176286 25.0518762,23.3609209 25.0518762,22.3798405 C25.0518762,22.1114733 25.0342783,21.8585041 24.9990826,21.6209331 C24.7629781,20.0946859 23.8440325,19.2997655 22.242246,19.2361719 L22.0294448,19.2320245 Z M27.8973214,11 C28.4471406,11 28.8928571,11.4457165 28.8928571,11.9955357 C28.8928571,12.5087003 28.5045885,12.9311799 28.005796,12.9852298 L27.8973214,12.9910714 L13.9598214,12.9910714 C13.4100022,12.9910714 12.9642857,12.5453549 12.9642857,11.9955357 C12.9642857,11.4823711 13.3525543,11.0598915 13.8513468,11.0058417 L13.9598214,11 L27.8973214,11 Z" id="" fill="#91C47D"></path>
                        <ellipse id="" fill="#000000" opacity="0.2" cx="21.5" cy="35.5" rx="18.5" ry="1.5"></ellipse>
                    </g>
                </g>
            </g>
        </g>
    </g>
</svg>
