<?xml version="1.0" encoding="UTF-8"?>
<svg width="16px" height="16px" viewBox="0 0 16 16" version="1.1" xmlns="http://www.w3.org/2000/svg" xmlns:xlink="http://www.w3.org/1999/xlink">
    <title></title>
    <g id="nexusAI" stroke="none" stroke-width="1" fill="none" fill-rule="evenodd">
        <g id="00" transform="translate(-456.000000, -439.000000)" fill-rule="nonzero">
            <g id="-9" transform="translate(331.000000, 424.000000)">
                <g id="" transform="translate(125.000000, 15.000000)">
                    <rect id="" fill="#000000" opacity="0" x="0" y="0" width="16" height="16"></rect>
                    <path d="M11.9057813,1.68109375 L4.06625,1.68109375 C2.72015625,1.68109375 1.625,2.77609375 1.625,4.1221875 L1.625,9.178125 C1.625,10.5242188 2.72015625,11.619375 4.06625,11.619375 L11.9057813,11.619375 C13.251875,11.619375 14.3470313,10.5242188 14.3470313,9.178125 L14.3470313,4.1221875 C14.3470313,2.77609375 13.251875,1.68109375 11.9057813,1.68109375 Z M13.2829688,9.178125 C13.2829688,9.9375 12.6651563,10.5554688 11.9057813,10.5554688 L4.06625,10.5554688 C3.30671875,10.5554688 2.68890625,9.9375 2.68890625,9.178125 L2.68890625,4.1221875 C2.68890625,3.3628125 3.30671875,2.745 4.06625,2.745 L11.9057813,2.745 C12.6651563,2.745 13.2829688,3.36265625 13.2829688,4.1221875 L13.2829688,9.178125 Z M12.101875,13.3042188 L3.87015625,13.3042188 C3.57640625,13.3042188 3.338125,13.5423438 3.338125,13.83625 C3.338125,14.1301563 3.57640625,14.3682813 3.87015625,14.3682813 L12.101875,14.3682813 C12.395625,14.3682813 12.6339063,14.1301563 12.6339063,13.83625 C12.6339063,13.5423438 12.395625,13.3042188 12.101875,13.3042188 Z M9.8265625,5.86671875 L8.32109375,4.678125 C8.129375,4.5265625 7.859375,4.525625 7.66609375,4.6746875 L6.14984375,5.84640625 C5.91734375,6.02609375 5.87453125,6.36015625 6.05421875,6.59265625 C6.23390625,6.82546875 6.568125,6.86796875 6.80046875,6.6884375 L7.4540625,6.1834375 L7.4540625,8.59140625 C7.4540625,8.8853125 7.69234375,9.1234375 7.98609375,9.1234375 C8.27984375,9.1234375 8.518125,8.8853125 8.518125,8.59140625 L8.518125,6.18921875 L9.16734375,6.70171875 C9.26108216,6.77593989 9.37715427,6.81630083 9.49671875,6.81625 C9.65390625,6.81625 9.8096875,6.746875 9.91453125,6.61375 C10.0965625,6.38328125 10.0571875,6.04875 9.8265625,5.86671875 L9.8265625,5.86671875 Z" id="" fill="#213044"></path>
                </g>
            </g>
        </g>
    </g>
</svg>
