<?xml version="1.0" encoding="UTF-8"?>
<svg width="16px" height="16px" viewBox="0 0 16 16" version="1.1" xmlns="http://www.w3.org/2000/svg" xmlns:xlink="http://www.w3.org/1999/xlink">
    <title></title>
    <g id="nexusAI" stroke="none" stroke-width="1" fill="none" fill-rule="evenodd">
        <g id="" transform="translate(-297.000000, -667.000000)">
            <g id="-11" transform="translate(30.000000, 528.000000)">
                <g id="-10" transform="translate(20.000000, 127.000000)">
                    <g id="-3" transform="translate(60.000000, 0.000000)">
                        <g id="" transform="translate(187.000000, 12.000000)">
                            <rect id="" fill="#000000" fill-rule="nonzero" opacity="0" x="0" y="0" width="16" height="16"></rect>
                            <path d="M13.378125,0.746875 L2.621875,0.746875 C1.5875,0.746875 0.746875,1.5875 0.746875,2.621875 L0.746875,13.38125 C0.746875,14.415625 1.5875,15.25625 2.621875,15.25625 L13.38125,15.25625 C14.415625,15.25625 15.25625,14.415625 15.25625,13.38125 L15.25625,2.621875 C15.253125,1.5875 14.4125,0.746875 13.378125,0.746875 L13.378125,0.746875 Z" id="" fill="#FFFFFF"></path>
                            <path d="M13.378125,0.746875 L2.621875,0.746875 C1.5875,0.746875 0.746875,1.5875 0.746875,2.621875 L0.746875,13.38125 C0.746875,14.415625 1.5875,15.25625 2.621875,15.25625 L13.38125,15.25625 C14.415625,15.25625 15.25625,14.415625 15.25625,13.38125 L15.25625,2.621875 C15.253125,1.5875 14.4125,0.746875 13.378125,0.746875 L13.378125,0.746875 Z M14.315625,13.378125 C14.315625,13.89375 13.89375,14.315625 13.378125,14.315625 L2.621875,14.315625 C2.10625,14.315625 1.684375,13.89375 1.684375,13.378125 L1.684375,2.621875 C1.684375,2.10625 2.10625,1.684375 2.621875,1.684375 L13.38125,1.684375 C13.896875,1.684375 14.31875,2.10625 14.31875,2.621875 L14.31875,13.378125 L14.315625,13.378125 Z" id="" fill="#cccccc"></path>
                            <path d="M10.103125,7.284375 L7.55,5.809375 C7.2875,5.65625 6.971875,5.65625 6.70625,5.809375 C6.44375,5.9625 6.284375,6.234375 6.284375,6.540625 L6.284375,9.490625 C6.284375,9.796875 6.440625,10.06875 6.70625,10.221875 C6.8375,10.296875 6.984375,10.3375 7.128125,10.3375 C7.271875,10.3375 7.41875,10.3 7.55,10.221875 L10.103125,8.746875 C10.365625,8.59375 10.525,8.321875 10.525,8.015625 C10.521875,7.709375 10.365625,7.4375 10.103125,7.284375 Z" id="" fill="#cccccc"></path>
                        </g>
                    </g>
                </g>
            </g>
        </g>
    </g>
</svg>
