<?xml version="1.0" encoding="UTF-8"?>
<svg width="16px" height="16px" viewBox="0 0 16 16" version="1.1" xmlns="http://www.w3.org/2000/svg" xmlns:xlink="http://www.w3.org/1999/xlink">
    <title> 19</title>
    <g id="nexusAI" stroke="none" stroke-width="1" fill="none" fill-rule="evenodd">
        <g id="" transform="translate(-163.000000, -89.000000)">
            <g id="-16" transform="translate(30.000000, 81.000000)">
                <g id="-14" transform="translate(118.000000, 0.000000)">
                    <g id="-13" transform="translate(15.000000, 6.000000)">
                        <g id="-19" transform="translate(0.000000, 2.000000)">
                            <rect id="" fill="#000000" opacity="0" x="0" y="0" width="16" height="16"></rect>
                            <path d="M7.97844351,0.571071449 C8.64118521,0.571071449 9.17844351,1.10832975 9.17844351,1.77107145 C9.17844351,2.21331765 8.93920959,2.59968777 8.58309607,2.8078275 L8.58237469,3.48207145 L11.4833747,3.48255387 C12.5879442,3.48255387 13.4833747,4.37798437 13.4833747,5.48255387 L13.4833747,11.4825539 C13.4833747,12.5871234 12.5879442,13.4825539 11.4833747,13.4825539 L10.0870878,13.4825539 L6.0749554,15.2479442 C5.92330176,15.3146738 5.74626718,15.2458292 5.67953762,15.0941756 C5.66278295,15.0560979 5.65413081,15.0149518 5.65413081,14.973351 L5.65413081,13.4825539 L4.48337469,13.4825539 C3.37880519,13.4825539 2.48337469,12.5871234 2.48337469,11.4825539 L2.48337469,5.48255387 C2.48337469,4.37798437 3.37880519,3.48255387 4.48337469,3.48255387 L7.38237469,3.48207145 L7.38189681,2.81252279 C7.05483157,2.62477441 6.8246138,2.28738983 6.78463897,1.89376448 L6.77844351,1.77107145 C6.77844351,1.10832975 7.31570181,0.571071449 7.97844351,0.571071449 Z M11.2833747,4.68255387 L4.68337469,4.68255387 C4.13108994,4.68255387 3.68337469,5.13026912 3.68337469,5.68255387 L3.68337469,11.2825539 C3.68337469,11.8348386 4.13108994,12.2825539 4.68337469,12.2825539 L6.36793543,12.2825539 C6.58884933,12.2825539 6.76793544,12.46164 6.76793544,12.6825539 L6.76793544,13.7664327 L9.96478119,12.2825539 L11.2833747,12.2825539 C11.8356594,12.2825539 12.2833747,11.8348386 12.2833747,11.2825539 L12.2833747,5.68255387 C12.2833747,5.13026912 11.8356594,4.68255387 11.2833747,4.68255387 Z M9.51486496,9.62703225 C9.79100733,9.62703225 10.014865,9.85088987 10.014865,10.1270322 C10.014865,10.4031746 9.27354672,11.1887797 8.01486496,11.1887797 C6.75618319,11.1887797 6.01486496,10.4031746 6.01486496,10.1270322 C6.01486496,9.85088987 6.23872258,9.62703225 6.51486496,9.62703225 L9.51486496,9.62703225 Z M1.77555572,6.12973178 C1.78103249,6.14873893 1.78365927,6.16845342 1.78337469,6.18823186 L1.78337469,10.6804194 C1.78107537,10.7908524 1.68972093,10.8785466 1.57928705,10.8763728 C1.56193314,10.8759343 1.54469925,10.873322 1.52816419,10.8680165 C0.831637858,10.6663102 0.48337469,10.2534523 0.48337469,9.6294428 L0.48337469,7.2294428 C0.48337469,6.61390224 0.831637858,6.201921 1.52816419,5.99349909 C1.6341378,5.96234322 1.74497265,6.02359312 1.77555572,6.12973178 Z M14.3874623,5.98251282 L14.4385852,5.9908691 C15.1351115,6.19257541 15.4833747,6.60543331 15.4833747,7.2294428 L15.4833747,9.6294428 C15.4833747,10.2449834 15.1351115,10.6569646 14.4385852,10.8653865 C14.3326116,10.8965424 14.2217767,10.8352925 14.1911937,10.7291538 L14.1851237,10.700193 L14.1833747,6.17846623 C14.185674,6.06803321 14.2770285,5.98033896 14.3874623,5.98251282 Z M6.04886287,6.13053251 C6.38023372,6.13053251 6.64886287,6.39916166 6.64886287,6.73053251 L6.64886287,7.93053251 C6.64886287,8.26190336 6.38023372,8.53053251 6.04886287,8.53053251 C5.71749202,8.53053251 5.44886287,8.26190336 5.44886287,7.93053251 L5.44886287,6.73053251 C5.44886287,6.39916166 5.71749202,6.13053251 6.04886287,6.13053251 Z M9.84886287,6.13053251 C10.1802337,6.13053251 10.4488629,6.39916166 10.4488629,6.73053251 L10.4488629,7.93053251 C10.4488629,8.26190336 10.1802337,8.53053251 9.84886287,8.53053251 C9.51749202,8.53053251 9.24886287,8.26190336 9.24886287,7.93053251 L9.24886287,6.73053251 C9.24886287,6.39916166 9.51749202,6.13053251 9.84886287,6.13053251 Z" id="" fill="#1B64F3" fill-rule="nonzero"></path>
                        </g>
                    </g>
                </g>
            </g>
        </g>
    </g>
</svg>
