<?xml version="1.0" encoding="UTF-8"?>
<svg width="16px" height="16px" viewBox="0 0 16 16" version="1.1" xmlns="http://www.w3.org/2000/svg" xmlns:xlink="http://www.w3.org/1999/xlink">
    <title></title>
    <g id="nexusAI" stroke="none" stroke-width="1" fill="none" fill-rule="evenodd">
        <g id="" transform="translate(-30.000000, -82.000000)" fill-rule="nonzero">
            <g id="-16" transform="translate(30.000000, 80.000000)">
                <g id="1.1" transform="translate(0.000000, 2.000000)">
                    <rect id="" fill="#000000" opacity="0" x="0" y="0" width="16" height="16"></rect>
                    <path d="M11.1870885,1.45295405 C10.609408,1.45295405 10.0492329,1.38293217 9.50656336,1.26039387 C9.19146489,1.17286652 8.87636642,1.03282275 8.61378436,0.857768047 C7.82603819,0.315098469 6.89824825,0.0350109375 5.95295284,0.0175054687 C4.25492222,0.140043766 2.67942987,0.927789937 1.5415743,2.18818381 L1.62910164,2.73085339 L3.27461587,13.0415755 C2.014222,13.2166302 1.01641019,13.7943107 1.01641019,14.4945295 C1.01641019,15.1947484 2.34682594,16 4.00984563,16 C5.67286531,16 7.00328108,15.3347921 7.00328108,14.4945295 C7.00328108,13.6717724 5.81290909,13.0765864 4.27242769,12.9890591 L3.50218698,8.26258206 C4.09737298,8.03501095 4.78008633,7.92997813 5.32275591,7.73741794 C5.90043644,7.54485777 6.49562242,7.43982494 7.10831391,7.43982494 C8.10612572,7.45733041 9.08643206,7.68490153 9.99671653,8.10503283 C10.6269135,8.38512036 11.3096268,8.52516413 11.9923402,8.50765864 C12.6750535,8.50765864 13.3577669,8.36761488 13.9879638,8.10503283 L14.9857756,0.122538297 C13.9529528,1.05032823 12.5875262,1.54048141 11.1870885,1.45295405 Z M5.93544737,14.4945295 C5.35776684,14.8621444 4.6750535,15.0371991 3.99234016,15.0021882 C3.30962681,15.0371991 2.62691345,14.8621444 2.04923294,14.4945295 C2.45185877,14.214442 2.92450645,14.0393873 3.41465964,13.9868709 L3.50218698,14.5295405 L4.4999988,14.3719913 L4.41247145,13.9868709 C4.95514103,14.0218818 5.48030516,14.1794311 5.91794191,14.4945295 L5.93544737,14.4945295 Z M13.0601739,7.36980306 C12.7100645,7.45733042 12.3424496,7.50984683 11.9748347,7.5273523 C11.4496706,7.5273523 10.907001,7.42231947 10.4343533,7.19474836 C9.40153053,6.72210066 8.28118042,6.45951859 7.14332484,6.44201313 C6.40809508,6.44201313 5.6903708,6.56455142 4.99015197,6.79212253 C4.74507537,6.87964989 4.4999988,6.94967177 4.25492222,7.00218819 C3.95732922,7.07221006 3.65973622,7.14223195 3.37964869,7.24726477 L2.57439705,2.55579869 C3.46717605,1.64551422 4.65754803,1.10284464 5.93544738,1.01531728 C6.68818261,1.03282275 7.44091783,1.26039387 8.07111478,1.68052517 C8.43872966,1.92560177 8.82385002,2.10065647 9.2439813,2.22319475 C9.87417823,2.38074398 10.5218806,2.45076586 11.1870885,2.45076586 C12.062362,2.45076586 12.9201301,2.31072209 13.7253817,2.01312911 L13.0601739,7.36980306 L13.0601739,7.36980306 Z M10.8369791,3.22100656 C10.5218806,3.22100656 10.2067822,3.20350109 9.90918917,3.16849016 C9.61159617,3.13347922 9.2964977,3.0809628 8.98139923,2.99343545 L8.96389377,2.99343545 C8.74852228,2.93316461 8.53788603,2.85710152 8.33369683,2.76586433 C8.12363119,2.67833697 7.931071,2.55579869 7.75601631,2.43326039 C7.5284452,2.27571116 7.26586314,2.15317286 7.00328108,2.08315098 C6.74069902,1.99562362 6.47811697,1.96061269 6.21553491,1.94310722 C5.72538173,1.97811816 5.25273403,2.10065645 4.81509727,2.31072209 C4.46498786,2.46827133 4.13238392,2.69584244 3.83479092,2.94091903 L4.37746052,6.14442013 C4.41247145,6.12691466 4.53500975,6.10940919 4.57002069,6.09190372 C4.67505352,6.07439825 4.76258086,6.03938731 4.86761369,6.02188184 C4.97264652,5.98687091 5.06017386,5.96936544 5.16520667,5.93435448 C5.49781061,5.82932166 5.84792002,5.74179431 6.19802944,5.67177242 C6.54813884,5.61925602 6.89824825,5.58424506 7.24835766,5.58424508 C7.79102723,5.58424508 8.33369683,5.65426695 8.85886095,5.77680525 C9.38402506,5.89934355 9.90918919,6.07439825 10.3993423,6.30196936 C10.574397,6.38949672 10.7669572,6.44201313 10.9420119,6.47702406 C11.1345721,6.512035 11.3271323,6.52954048 11.502187,6.52954048 C11.6422308,6.52954048 11.7822745,6.51203502 11.9223183,6.49452955 L11.9573292,6.49452955 L12.394966,3.02844639 C12.2899332,3.04595186 12.1673949,3.0809628 12.062362,3.09846827 C11.6597362,3.16849014 11.2396049,3.20350109 10.8194736,3.20350109 L10.8369791,3.22100656 Z" id="" fill="#5F6A79"></path>
                </g>
            </g>
        </g>
    </g>
</svg>
