<?xml version="1.0" encoding="UTF-8"?>
<svg width="14px" height="14px" viewBox="0 0 14 14" version="1.1" xmlns="http://www.w3.org/2000/svg" xmlns:xlink="http://www.w3.org/1999/xlink">
    <title></title>
    <g id="nexusAI" stroke="none" stroke-width="1" fill="none" fill-rule="evenodd">
        <g id="" transform="translate(-652.000000, -239.000000)" fill-rule="nonzero">
            <g id="-3" transform="translate(648.000000, 235.000000)">
                <g id="" transform="translate(4.000000, 4.000000)">
                    <rect id="" fill="#000000" opacity="0" x="0" y="0" width="14" height="14"></rect>
                    <path d="M7.71931803,7.71931803 L13.404734,9.61449052 L9.61449052,13.4039219 L7.71931803,7.71931803 Z M6.93465368,0.5 C10.1426417,0.5 12.8840945,2.89378456 13.3118533,6.06898518 C13.3368892,6.24879334 13.2637833,6.42825023 13.1202278,6.53937888 C12.9766722,6.65050752 12.7846218,6.67631229 12.6168239,6.60701852 C12.449026,6.53772476 12.331143,6.38393 12.3078281,6.2038906 C11.9482833,3.52923072 9.63804061,1.5126535 6.93465368,1.5126535 C3.94156016,1.51640933 1.51620631,3.94166167 1.51255199,6.93465368 C1.51255199,9.63814211 3.53004279,11.9474712 6.20470267,12.3078281 C6.46918314,12.3427822 6.6611693,12.576956 6.64358877,12.8431564 C6.62600823,13.1093567 6.40489302,13.3161548 6.13811279,13.3161548 C6.11526963,13.3164094 6.09243595,13.3150183 6.06979725,13.3119548 C2.89459663,12.8850081 0.5,10.1435553 0.5,6.93465368 C0.5,3.38671212 3.38650911,0.5 6.93465368,0.5 Z M9.32072356,9.320013 L10.0573742,11.5299648 L11.5305739,10.0565621 L9.32072356,9.320013 Z M6.93556727,3.74774937 C8.33821823,3.741689 9.5780488,4.65861953 9.98317111,6.0013802 C10.0577923,6.26623938 9.90717829,6.5422001 9.64405367,6.62272424 C9.38092905,6.70324838 9.10166993,6.5588419 9.01528307,6.29758338 C8.73865682,5.38181691 7.89300476,4.7567859 6.93637934,4.76104208 C5.73634028,4.76297075 4.76418886,5.7354267 4.76276774,6.93546576 C4.76640628,7.89329869 5.39334951,8.73713729 6.30935842,9.01711023 C6.54907496,9.09022616 6.69923399,9.32771055 6.66250057,9.57562306 C6.62576714,9.82353557 6.41319517,10.0072738 6.16257645,10.0077363 C6.11354762,10.0077363 6.06451878,10.0005291 6.01752013,9.9865209 C4.67455513,9.57596496 3.75526732,8.33896062 3.74950519,6.93465368 C3.7508248,5.17550321 5.17631529,3.7497082 6.93556727,3.74774937 Z" id="" fill="#FFFFFF"></path>
                </g>
            </g>
        </g>
    </g>
</svg>
