<?xml version="1.0" encoding="UTF-8"?>
<svg width="14px" height="14px" viewBox="0 0 14 14" version="1.1" xmlns="http://www.w3.org/2000/svg" xmlns:xlink="http://www.w3.org/1999/xlink">
    <title></title>
    <g id="nexusAI" stroke="none" stroke-width="1" fill="none" fill-rule="evenodd">
        <g id="" transform="translate(-621.000000, -239.000000)" fill-rule="nonzero">
            <g id="-3" transform="translate(617.000000, 235.000000)">
                <g id="" transform="translate(4.000000, 4.000000)">
                    <rect id="" fill="#000000" opacity="0" x="0" y="0" width="14" height="14"></rect>
                    <path d="M7.035,8.73437503 C6.97117276,8.73437503 6.90866821,8.71618016 6.85484375,8.681875 L0.8309375,4.850625 C0.733003485,4.7882757 0.674182303,4.67979799 0.675341159,4.56370698 C0.67653464,4.44761596 0.737541592,4.34035228 0.83671875,4.28 L6.86046875,0.6171875 C6.96770906,0.551858391 7.10244719,0.551858391 7.2096875,0.6171875 L13.2271875,4.28015625 C13.3263554,4.3404564 13.3873521,4.44769295 13.3885132,4.56374924 C13.3896414,4.67980554 13.3307717,4.78822433 13.2328125,4.85046875 L7.21546875,8.681875 C7.16153296,8.7161894 7.09892611,8.73437503 7.035,8.73437503 Z M2.00462682,4.5734375 L7.035,7.64620172 L11.9382974,4.5734375 L7.035,1.60527015 L2.00462682,4.5734375 Z M6.8546875,13.5167187 L0.8309375,9.68515625 C0.732999072,9.62284604 0.674168212,9.51438952 0.675233148,9.39831577 C0.676520844,9.28224202 0.737537637,9.17500006 0.83671875,9.1146875 L3.32515625,7.6015625 C3.4277441,7.53816204 3.68972759,7.54815703 3.82867626,7.73292485 C3.96762493,7.91769267 3.85923166,8.20552392 3.75573711,8.26743323 L1.89993132,9.408125 L7.03160725,12.5782396 L12.1866611,9.39831577 L10.2471094,8.26743323 C10.0886296,8.17095598 10.0321415,7.91607307 10.1722345,7.73292485 C10.3123275,7.54977663 10.5502702,7.48586652 10.70875,7.58234375 L13.2265625,9.115 C13.3257304,9.17530015 13.3867271,9.2825367 13.3879775,9.39859299 C13.3890164,9.51464929 13.3301467,9.62306808 13.2321875,9.6853125 L7.21546875,13.5165625 C7.16154963,13.5509319 7.09894159,13.5692187 7.035,13.5692187 C6.97112704,13.5692187 6.90857846,13.5510046 6.8546875,13.5167187 Z M7.3025,6.7578125 C7.19400594,6.75814319 7.09671209,6.69106986 7.05843029,6.58955349 C7.02014849,6.48803712 7.04892757,6.37342172 7.130625,6.30203125 C7.82359375,5.69953125 8.5353125,4.85828125 8.524375,4.4915625 C8.5228125,4.44625 8.50875,4.430625 8.49171875,4.418125 C8.33546875,4.29640625 7.58328125,4.62578125 7.1353125,4.82234375 C6.214375,5.22859375 5.2603125,5.64796875 4.7675,5.08453125 C4.626875,4.92390625 4.57703125,4.7303125 4.62390625,4.52578125 C4.814375,3.68453125 6.80125,2.78703125 7.19765625,2.61546875 C7.28309297,2.57862573 7.38169527,2.59016133 7.45632061,2.64573019 C7.53094596,2.70129905 7.57025699,2.79245894 7.55944561,2.88487082 C7.54863424,2.97728269 7.48934297,3.05690699 7.40390625,3.09375 C6.51890625,3.47609375 5.228125,4.20984375 5.13140625,4.6421875 C5.12359375,4.67796875 5.12515625,4.7046875 5.159375,4.74515625 C5.39984375,5.02140625 6.28328125,4.6328125 6.92625,4.34859375 C7.72078125,3.9990625 8.4075,3.6978125 8.80875,4.0084375 C8.956875,4.12234375 9.0365625,4.2846875 9.043125,4.478125 C9.0665625,5.28359375 7.63359375,6.5525 7.47125,6.69453125 C7.42491826,6.73591448 7.36493483,6.75872821 7.3028125,6.75859434 L7.3025,6.7578125 Z" id="" fill="#FFFFFF"></path>
                </g>
            </g>
        </g>
    </g>
</svg>
