<?xml version="1.0" encoding="UTF-8"?>
<svg width="14px" height="14px" viewBox="0 0 14 14" version="1.1" xmlns="http://www.w3.org/2000/svg" xmlns:xlink="http://www.w3.org/1999/xlink">
    <title></title>
    <g id="-1" stroke="none" stroke-width="1" fill="none" fill-rule="evenodd">
        <g id="nexusaiicon" transform="translate(-618.000000, -374.000000)" fill="#FFFFFF" fill-rule="nonzero">
            <g id="-4" transform="translate(599.000000, 357.000000)">
                <g id="-3" transform="translate(15.000000, 13.000000)">
                    <g id="" transform="translate(4.000000, 4.000000)">
                        <path d="M12.8527556,9.83333206 C12.9673711,10.0778271 12.8671532,10.3691548 12.6263794,10.4913946 L12.5911294,10.5078946 L7.18862942,12.7883946 C7.07863533,12.8348832 6.95563507,12.8404701 6.84187942,12.8041446 L6.79987942,12.7883946 L1.39762942,10.5083946 C1.15021677,10.4039335 1.02951701,10.1226801 1.12425681,9.87138448 C1.21899662,9.62008881 1.49533255,9.48852001 1.75012942,9.57339461 L1.78662942,9.5871446 L6.99412942,11.7851446 L12.2021294,9.5863946 C12.4501045,9.47951648 12.73814,9.58883697 12.8527556,9.83333206 Z M12.0921426,7.0471446 L12.0921426,7.8568946 C12.0935493,8.05152887 11.9806044,8.22887384 11.8036294,8.3098946 L7.60687942,10.1738946 C7.44262942,10.2558946 7.26637942,10.2968946 7.08987942,10.2968946 C6.91040944,10.296626 6.73347458,10.2545108 6.57312942,10.1738946 L2.38087942,8.3138946 C2.20562943,8.2366446 2.09212942,8.0581446 2.09212942,7.8608946 L2.09212942,7.0521446 L7.08987942,9.2976446 L12.0921426,7.0471446 Z M6.57512942,1.1953946 C6.84506323,1.0682018 7.15769561,1.0682018 7.42762942,1.1953946 L12.6291294,3.64539461 C12.9838671,3.81247048 13.208225,4.17145365 13.2030396,4.56353183 C13.197672,4.95561 12.9637347,5.30842551 12.6046294,5.4658946 L7.40312942,7.7466446 C7.14721817,7.85883256 6.85604066,7.85883256 6.60012942,7.7466446 L1.39862942,5.4666446 C1.03950049,5.30922569 0.805513101,4.95644127 0.800089772,4.56436234 C0.794852345,4.17228342 1.0191627,3.81326837 1.37387942,3.64614461 Z M7.00162942,2.0998946 L1.80012942,4.55064461 L7.00137942,6.83064461 L12.2028794,4.54989461 L7.00162942,2.0998946 Z" id=""></path>
                    </g>
                </g>
            </g>
        </g>
    </g>
</svg>
