<?xml version="1.0" encoding="UTF-8"?>
<svg width="16px" height="16px" viewBox="0 0 16 16" version="1.1" xmlns="http://www.w3.org/2000/svg" xmlns:xlink="http://www.w3.org/1999/xlink">
    <title></title>
    <g id="nexusAI" stroke="none" stroke-width="1" fill="none" fill-rule="evenodd">
        <g id="-" transform="translate(-331.000000, -93.000000)">
            <g id="-3" transform="translate(331.000000, 90.000000)">
                <g id="" transform="translate(0.000000, 3.000000)">
                    <rect id="" fill="#000000" fill-rule="nonzero" opacity="0" x="0" y="0" width="16" height="16"></rect>
                    <path d="M7.87035989,12.7120212 C7.14836941,11.9859535 6.42380466,11.2623961 5.6986803,10.5394143 C4.86658845,9.70970483 4.03297764,8.88151434 3.16682889,8.01963469 C3.37396845,7.79752928 3.54067142,7.60807372 3.71856681,7.42977861 C5.07467138,6.07060413 6.43355805,4.71422775 7.78975855,3.3551652 C7.93398077,3.2106232 8.09003495,3.06955084 8.19904905,2.90011373 C8.36699917,2.63907472 8.36242628,2.35346036 8.13940948,2.12355225 C7.89197725,1.86847719 7.5924843,1.86046662 7.30504719,2.05895605 C7.15932198,2.15954384 7.03666914,2.29525983 6.91011495,2.42163814 C5.31612367,4.0135828 3.72181263,5.60514372 2.13095522,7.20022227 C1.43266066,7.90038755 1.43085389,8.08519025 2.1132712,8.76968617 C3.70387278,10.3649886 5.29746431,11.957317 6.89161548,13.5490538 C7.03598161,13.69318 7.18186669,13.8403443 7.3470347,13.9580085 C7.61306234,14.147528 7.88260758,14.1098895 8.11413061,13.8884077 C8.34843575,13.6642876 8.36823033,13.3860923 8.21938725,13.1158115 C8.13538022,12.9632589 7.99593875,12.8383516 7.87035989,12.7120212 Z M13.5881312,7.34794609 C13.4608895,7.3410068 13.3329762,7.34575558 13.2053828,7.34575558 C11.0105189,7.34569163 8.81567097,7.34478023 6.62082308,7.34620328 C5.77715508,7.34674691 5.44691498,7.53159758 5.47476811,8.00625177 C5.50313288,8.48969998 5.76377217,8.65373278 6.65409653,8.63270703 C7.75090489,8.60675662 8.84880052,8.62648725 9.94621647,8.62651923 C10.3290449,8.62653522 10.7118734,8.62683902 11.0946858,8.62648725 C11.9368828,8.62570378 12.7793996,8.6379195 13.6211968,8.61868455 C14.1390058,8.60688455 14.4079434,8.35844498 14.395248,7.97224283 C14.3826326,7.58899866 14.1097936,7.37623092 13.5881312,7.34794609 Z" id="" fill="#1B64F3"></path>
                </g>
            </g>
        </g>
    </g>
</svg>
