<?xml version="1.0" encoding="UTF-8"?>
<svg width="12px" height="12px" viewBox="0 0 12 12" version="1.1" xmlns="http://www.w3.org/2000/svg" xmlns:xlink="http://www.w3.org/1999/xlink">
    <title></title>
    <g id="nexusAI" stroke="none" stroke-width="1" fill="none" fill-rule="evenodd">
        <g id="" transform="translate(-705.000000, -226.000000)" fill-rule="nonzero">
            <g id="-11" transform="translate(657.000000, 133.000000)">
                <g id="-10" transform="translate(20.000000, 65.000000)">
                    <g id="-22" transform="translate(26.000000, 26.000000)">
                        <g id="" transform="translate(2.000000, 2.000000)">
                            <rect id="" fill="#000000" opacity="0" x="0" y="0" width="12" height="12"></rect>
                            <path d="M10.2611194,1.00229123 C10.5572253,1.17538061 10.7384923,1.49329607 10.7366497,1.83627591 C10.7347788,2.17925575 10.5500804,2.49519003 10.2521178,2.66506335 C10.1064406,2.74811634 9.94451051,2.79008643 9.78243872,2.79106156 L9.14919942,3.87423711 C10.2880474,4.79552151 11.016,6.20401207 11.016,7.776 L11.016,9.672 C11.016,10.74 10.164,11.604 9.096,11.604 L2.904,11.604 C1.848,11.604 0.984,10.74 0.984,9.684 L0.984,7.776 C0.984,6.1628616 1.75056317,4.72189246 2.94107564,3.80289416 L2.35121277,2.79397982 C2.02155838,2.79369103 1.70077412,2.6234739 1.52238407,2.31833041 C1.25479899,1.86061519 1.40892993,1.27264312 1.86664516,1.00505805 C2.32436038,0.737472974 2.91233245,0.891603915 3.17991752,1.34931914 C3.35925862,1.65608944 3.34916657,2.02137059 3.18520617,2.30949151 L3.75702408,3.28966707 C4.43182857,2.95093479 5.19357085,2.76 6,2.76 C6.84691093,2.76 7.64453593,2.97058533 8.34393649,3.3417908 L8.9456178,2.31177412 C8.86160811,2.16656311 8.81564534,1.99941111 8.81657784,1.82584 C8.81844872,1.48286016 9.00314718,1.16692588 9.30110972,0.997052561 C9.59907225,0.827179239 9.96502854,0.829176224 10.2611194,1.00229123 Z M6,3.72 C3.756,3.72 1.944,5.544 1.944,7.776 L1.944,9.672 C1.944,10.2 2.376,10.632 2.904,10.632 L9.108,10.632 C9.636,10.632 10.068,10.2 10.068,9.672 L10.068,7.776 C10.056,5.544 8.244,3.72 6,3.72 Z M6.96,8.94 C7.224,8.94 7.44,9.156 7.44,9.42 C7.44,9.684 7.224,9.9 6.96,9.9 L5.04,9.9 C4.776,9.9 4.56,9.684 4.56,9.42 C4.56,9.156 4.776,8.94 5.04,8.94 L6.96,8.94 Z M7.62,6.144 C7.884,6.144 8.1,6.36 8.1,6.624 L8.1,7.104 C8.1,7.368 7.884,7.584 7.62,7.584 C7.356,7.584 7.14,7.368 7.14,7.104 L7.14,6.624 C7.14,6.36 7.356,6.144 7.62,6.144 Z M4.38,6.144 C4.644,6.144 4.86,6.36 4.86,6.624 L4.86,7.104 C4.86,7.368 4.644,7.584 4.38,7.584 C4.116,7.584 3.9,7.368 3.9,7.104 L3.9,6.624 C3.9,6.36 4.116,6.144 4.38,6.144 Z M5.784,0.396 C5.928,0.384 6.072,0.444 6.168,0.552 L6.792,1.26 L7.752,1.248 C8.016,1.248 8.232,1.464 8.232,1.728 C8.232,1.992 8.016,2.208 7.752,2.208 L6.588,2.232 C6.456,2.232 6.324,2.172 6.228,2.076 L5.856,1.656 L5.592,2.028 C5.508,2.16 5.352,2.232 5.196,2.232 L4.356,2.232 C4.092,2.232 3.876,2.016 3.876,1.752 C3.876,1.488 4.092,1.272 4.356,1.272 L4.956,1.272 L5.424,0.6 C5.508,0.48 5.64,0.408 5.784,0.396 Z" id="" fill="#1B64F3"></path>
                        </g>
                    </g>
                </g>
            </g>
        </g>
    </g>
</svg>
