<?xml version="1.0" encoding="UTF-8"?>
<svg width="18px" height="18px" viewBox="0 0 18 18" version="1.1" xmlns="http://www.w3.org/2000/svg" xmlns:xlink="http://www.w3.org/1999/xlink">
    <title>-</title>
    <g id="nexusAI" stroke="none" stroke-width="1" fill="none" fill-rule="evenodd">
        <g id="-" transform="translate(-1456.000000, -864.000000)" fill-rule="nonzero">
            <g id="-20" transform="translate(1450.000000, 858.000000)">
                <g id="" transform="translate(6.000000, 6.000000)">
                    <rect id="" fill="#000000" opacity="0" x="0" y="0" width="18" height="18"></rect>
                    <path d="M16.0930419,2.510497 L1.7264012,8.05428144 C0.916778443,8.36669461 0.937059891,8.82071856 1.76768263,9.06718563 L5.23897007,10.0971737 L6.6503533,14.2967784 C6.83513174,14.8465868 7.31784431,14.9625269 7.73074851,14.553485 L9.55156887,12.7497665 L13.1458563,15.3836766 C13.6128323,15.7258743 14.0929401,15.5457844 14.218994,14.9777964 L16.8418383,3.15923353 C16.9675329,2.59286228 16.6327545,2.30223952 16.0930419,2.510497 Z M13.9067784,5.18263472 L7.77869462,10.6425808 C7.668503,10.7407545 7.56878444,10.9353054 7.55347906,11.0793413 L7.28294013,13.6228563 C7.25256288,13.9084671 7.15408385,13.9202515 7.0632575,13.646497 L5.87748505,10.0721856 C5.83110181,9.93235328 5.89464074,9.76095807 6.01850301,9.68667662 L13.7900479,5.02528741 C14.2852994,4.7282515 14.3380239,4.79840121 13.9067784,5.18263472 Z" id="" fill="#FFFFFF"></path>
                </g>
            </g>
        </g>
    </g>
</svg>
