<?xml version="1.0" encoding="UTF-8"?>
<svg width="14px" height="14px" viewBox="0 0 14 14" version="1.1" xmlns="http://www.w3.org/2000/svg" xmlns:xlink="http://www.w3.org/1999/xlink">
    <title></title>
    <g id="-1" stroke="none" stroke-width="1" fill="none" fill-rule="evenodd">
        <g id="nexusaiicon" transform="translate(-1126.000000, -492.000000)" fill="#FFFFFF" fill-rule="nonzero">
            <g id="-4" transform="translate(1107.000000, 475.000000)">
                <g id="-3" transform="translate(15.000000, 13.000000)">
                    <g id="" transform="translate(4.000000, 4.000000)">
                        <path d="M6.44625025,0.813124995 C5.49071565,0.869684164 4.74468733,1.66091802 4.74437524,2.618125 L4.74375025,2.9525 L3.07000024,2.9525 C2.66207572,2.95299533 2.27111093,3.11577557 1.98336891,3.40492465 C1.69562688,3.69407373 1.53475571,4.08582791 1.53625024,4.49375 L1.53312525,6.52875 C1.53295934,6.65317848 1.58227211,6.77256751 1.67019778,6.86061041 C1.75812344,6.94865331 1.87744665,6.99812512 2.00187525,6.998125 L2.80312525,6.998125 C3.34250025,6.998125 3.78062526,7.43625 3.78062524,7.975625 C3.78062524,8.51499999 3.34250025,8.95374999 2.80312525,8.95375 L2.00125024,8.95375 C1.74261065,8.95374977 1.5328451,9.16323564 1.53250024,9.421875 L1.53000013,11.4575 C1.52983445,11.8660417 1.69201078,12.2579073 1.98083477,12.5468485 C2.26965877,12.8357897 2.66145854,12.998125 3.07000024,12.998125 L5.10562525,12.998125 C5.36450873,12.998125 5.57437525,12.7882585 5.57437525,12.529375 L5.57437525,11.725625 C5.59729992,11.2022342 6.02829512,10.7897035 6.55218775,10.7897035 C7.07608039,10.7897035 7.50707559,11.2022342 7.53000013,11.725625 L7.53000013,12.52875 C7.53000013,12.7875 7.74000025,12.9975 7.99875025,12.9975 L10.0343752,12.9975 L10.1356252,12.994375 C10.9454037,12.9410194 11.5748137,12.2684093 11.5743753,11.456875 L11.5743753,9.783125 L11.9093752,9.783125 C12.9078322,9.78278005 13.7171553,8.97345695 13.7175003,7.975 L13.7143752,7.86875 C13.6578161,6.9132154 12.8665822,6.1671871 11.9093752,6.166875 L11.5743753,6.166875 L11.5743753,4.493125 L11.5712502,4.391875 C11.5179103,3.58233694 10.8456687,2.95301594 10.0343752,2.953125 L8.36000025,2.9525 L8.36000025,2.618125 C8.35965557,1.61991196 7.55071311,0.810689788 6.55250025,0.81 L6.44625025,0.813124995 L6.44625025,0.813124995 Z M6.55250025,1.7475 C7.03250025,1.7475 7.42312525,2.1375 7.42312525,2.618125 L7.42312525,3.421875 C7.42312525,3.680625 7.63250025,3.890625 7.89187525,3.890625 L10.0343752,3.890625 C10.3675002,3.890625 10.6368753,4.159375 10.6368753,4.493125 L10.6368753,6.635625 C10.6368753,6.895 10.8468753,7.104375 11.1056253,7.104375 L11.9093752,7.104375 C12.3773789,7.12211141 12.7476303,7.50666035 12.7476303,7.975 C12.7476303,8.44333964 12.3773789,8.82788858 11.9093752,8.845625 L11.1056253,8.845625 C10.8467418,8.845625 10.6368753,9.05549152 10.6368753,9.314375 L10.6368753,11.4575 L10.6331253,11.5275 C10.5975969,11.831227 10.3401731,12.0601676 10.0343752,12.0600001 L8.46750016,12.0600001 L8.46750016,11.725 C8.46681076,10.6676604 7.60983982,9.81068949 6.55250025,9.81 L6.44000025,9.813125 C5.42754905,9.87299902 4.63709117,10.711405 4.63687525,11.725625 L4.63687525,12.0600001 L3.07000024,12.0600001 L3.00000025,12.05625 C2.69627324,12.0207217 2.46733266,11.7632979 2.46750016,11.4575 L2.46937525,9.89 L2.80250025,9.89 C3.85983981,9.8893105 4.71681075,9.03233957 4.71750025,7.975 L4.71437524,7.8625 C4.65418391,6.8502953 3.81586801,6.06019625 2.80187524,6.06 L2.47062525,6.059375 L2.47312525,4.49375 C2.47312525,4.158125 2.73875025,3.890625 3.07000024,3.890625 L5.21312524,3.890625 C5.47200872,3.890625 5.68187524,3.68075848 5.68187524,3.421875 L5.68187524,2.618125 C5.68187524,2.1375 6.07187524,1.7475 6.55250025,1.7475 Z" id=""></path>
                    </g>
                </g>
            </g>
        </g>
    </g>
</svg>
