<?xml version="1.0" encoding="UTF-8"?>
<svg width="14px" height="14px" viewBox="0 0 14 14" version="1.1" xmlns="http://www.w3.org/2000/svg" xmlns:xlink="http://www.w3.org/1999/xlink">
    <title></title>
    <g id="-1" stroke="none" stroke-width="1" fill="none" fill-rule="evenodd">
        <g id="nexusaiicon" transform="translate(-364.000000, -256.000000)" fill-rule="nonzero">
            <g id="-9" transform="translate(345.000000, 239.000000)">
                <g id="-3" transform="translate(15.000000, 13.000000)">
                    <g id="" transform="translate(4.000000, 4.000000)">
                        <rect id="" fill="#000000" opacity="0" x="1.00000062" y="1" width="11.9999994" height="11.9999994"></rect>
                        <path d="M5.69262839,9.58132912 C5.81530738,9.64871592 5.95294345,9.68421922 6.09291125,9.68458513 C6.26397207,9.68501558 6.43149616,9.63588829 6.57523088,9.54313959 L9.15090261,7.84582709 C9.43590049,7.6581366 9.60589393,7.33839972 9.60210484,6.99717083 C9.60650363,6.66500527 9.44188382,6.3533464 9.16504688,6.16973099 L6.5653299,4.47241849 C6.30454676,4.29709756 5.96823271,4.28022744 5.69121396,4.42857126 C5.37868108,4.6115602 5.1909956,4.95058744 5.20182219,5.31258818 L5.20182219,8.70721317 C5.19492773,9.06599923 5.38270753,9.40043127 5.69262839,9.58132912 L5.69262839,9.58132912 Z M6.18484901,8.61668984 L6.18484901,5.38472396 L8.61766359,6.97454 L8.61766359,6.98585542 C8.61844583,6.99479638 8.61844583,7.00378857 8.61766359,7.01272953 L6.18484901,8.61668984 Z" id="" fill="#FFFFFF"></path>
                        <path d="M2.75769219,11.2432809 C4.93652783,13.4155539 8.4086228,13.5784995 10.7813237,11.6198302 C13.1540246,9.66116101 13.6518083,6.2210729 11.9316473,3.67016309 C10.2114863,1.11925328 6.8356195,0.291292954 4.1303886,1.75683739 C1.42515769,3.22238182 0.274774084,6.50241418 1.47197796,9.33663323 C1.77392033,10.0489659 2.21047086,10.6963478 2.75769219,11.2432809 L2.75769219,11.2432809 Z M1.99107271,6.99999969 C1.99107271,4.97018044 3.21418754,3.14036426 5.0897702,2.36424839 C6.96535286,1.58813252 9.12379611,2.01866122 10.5580824,3.45497216 C11.9923686,4.8912831 12.4198521,7.05033152 11.6410913,8.9248175 C10.8623304,10.7993035 9.03079067,12.0198339 7.00097344,12.0169776 C4.23423059,12.009962 1.99418041,9.76674967 1.99107271,6.99999969 Z" id="" fill="#FFFFFF"></path>
                    </g>
                </g>
            </g>
        </g>
    </g>
</svg>
