<?xml version="1.0" encoding="UTF-8"?>
<svg width="16px" height="16px" viewBox="0 0 16 16" version="1.1" xmlns="http://www.w3.org/2000/svg" xmlns:xlink="http://www.w3.org/1999/xlink">
    <title>标签</title>
    <g id="nexusAI" stroke="none" stroke-width="1" fill="none" fill-rule="evenodd">
        <g id="生成智能体" transform="translate(-995.000000, -366.000000)" fill-rule="nonzero">
            <g id="编组-9" transform="translate(960.000000, 229.000000)">
                <g id="编组-2" transform="translate(35.000000, 77.000000)">
                    <g id="编组-11" transform="translate(0.000000, 59.000000)">
                        <g id="标签" transform="translate(0.000000, 1.000000)">
                            <rect id="矩形" fill="#000000" opacity="0" x="0" y="0" width="16" height="16"></rect>
                            <path d="M7.6292572,2.00973256 C8.11216303,2.00940499 8.57541501,2.20095024 8.91707704,2.54222022 L13.4721991,7.09739065 C14.1837464,7.80893796 14.1837464,8.96269256 13.4721991,9.67428826 L9.67197423,13.4747067 C9.33032587,13.8163705 8.86694199,14.0083165 8.38376733,14.0083165 C7.90059267,14.0083165 7.43720878,13.8163705 7.09556042,13.4747067 L2.53884179,8.91784287 C2.1970246,8.57617542 2.00489777,8.11273905 2.00470958,7.62944245 L2.00470958,3.83018521 C2.00470958,2.82384917 2.82134159,2.01026518 3.82748411,2.01026518 Z M7.62896691,2.86608522 L3.82743574,2.86661845 C3.57147842,2.86608522 3.32582695,2.96741943 3.14457451,3.14814555 C2.96332207,3.32887166 2.86133201,3.57422759 2.86106285,3.83018521 L2.86106285,7.62939406 C2.86143777,7.88565214 2.96353423,8.13127878 3.14491734,8.31229952 L7.70139407,12.8691633 C7.88240292,13.0502088 8.12792559,13.1519221 8.38393665,13.1519221 C8.63994772,13.1519221 8.88547039,13.0502088 9.06647924,12.8691633 L12.8667041,9.06874489 C13.2437022,8.69151434 13.2435289,8.08009595 12.8663171,7.70307916 L8.31114663,3.14805387 C8.13024481,2.96716628 7.88479038,2.86571179 7.62896691,2.86608522 Z M5.73019793,3.72263645 C6.83470114,3.72263645 7.73019087,4.61806973 7.73019087,5.72263645 C7.73019087,6.82718904 6.83481403,7.72262234 5.73019793,7.72262234 C4.62558184,7.72262234 3.73014854,6.82730193 3.73014854,5.72268584 C3.73014854,4.61806975 4.62558184,3.72263645 5.73019793,3.72263645 Z M5.92540604,4.74097517 C5.45705609,4.64781794 4.98812265,4.89847857 4.80539412,5.33965906 C4.62266558,5.78083956 4.77703613,6.2896608 5.17409645,6.55493998 C5.57115678,6.82021916 6.10031627,6.7680698 6.43795373,6.4303852 C6.6262087,6.24310242 6.73177529,5.98827109 6.73107281,5.72268584 C6.73107281,5.24516103 6.39375599,4.83413241 5.92540604,4.74097517 Z" id="形状结合" fill="#1B64F3"></path>
                        </g>
                    </g>
                </g>
            </g>
        </g>
    </g>
</svg>