<?xml version="1.0" encoding="UTF-8"?>
<svg width="14px" height="14px" viewBox="0 0 14 14" version="1.1" xmlns="http://www.w3.org/2000/svg" xmlns:xlink="http://www.w3.org/1999/xlink">
    <title></title>
    <g id="-1" stroke="none" stroke-width="1" fill="none" fill-rule="evenodd">
        <g id="nexusaiicon" transform="translate(-364.000000, -492.000000)" fill-rule="nonzero">
            <g id="-4" transform="translate(345.000000, 475.000000)">
                <g id="-3" transform="translate(15.000000, 13.000000)">
                    <g id="" transform="translate(4.000000, 4.000000)">
                        <rect id="" fill="#000000" opacity="0" x="0" y="0" width="14" height="14"></rect>
                        <path d="M0.875,1.7460625 C0.875,1.2648125 1.269625,0.875 1.7539375,0.875 L5.2460625,0.875 C5.7316875,0.875 6.125,1.26875 6.125,1.7460625 L6.125,12.254375 C6.125,12.735625 5.730375,13.1254375 5.2460625,13.1254375 L1.754375,13.1254375 C1.2683125,13.125 0.875,12.73125 0.875,12.2539375 L0.875,1.745625 L0.875,1.7460625 Z M1.75,2.1879375 L1.75,11.8120625 C1.75,12.0544375 1.945125,12.25 2.1861875,12.25 L4.8138125,12.25 C5.0518125,12.25 5.25,12.054 5.25,11.8125 L5.25,2.1875 C5.25,1.9455625 5.054875,1.75 4.8138125,1.75 L2.1861875,1.75 C1.9481875,1.75 1.75,1.946 1.75,2.1875 L1.75,2.1879375 Z M7,1.7539375 C7,1.2683125 7.3924375,0.875 7.877625,0.875 L12.247375,0.875 C12.732125,0.875 13.125,1.269625 13.125,1.7539375 L13.125,5.2460625 C13.125,5.7316875 12.7325625,6.125 12.247375,6.125 L7.877625,6.125 C7.39271386,6.12427589 7,5.73097418 7,5.2460625 L7,1.754375 L7,1.7539375 Z M7.875,2.1861875 L7.875,4.8138125 C7.87571779,5.05407319 8.07005374,5.24879976 8.3103125,5.25 L11.8146875,5.25 C12.0509375,5.25 12.25,5.054875 12.25,4.8138125 L12.25,2.1861875 C12.2492822,1.94592681 12.0549463,1.75120024 11.8146875,1.75 L8.3103125,1.75 C8.0740625,1.75 7.875,1.945125 7.875,2.1861875 L7.875,2.1861875 Z M6.99999989,7.877625 C6.99999989,7.392875 7.3924375,7 7.877625,7 L12.247375,7 C12.732125,7 13.1250001,7.3924375 13.1250001,7.877625 L13.1250001,12.247375 C13.1251161,12.4801712 13.0326896,12.703466 12.8680778,12.8680778 C12.703466,13.0326896 12.4801712,13.1251161 12.247375,13.1250001 L7.877625,13.1250001 C7.64482879,13.1251161 7.42153396,13.0326896 7.25692216,12.8680778 C7.09231037,12.703466 6.99988386,12.4801712 6.99999989,12.247375 L6.99999989,7.877625 Z M7.875,8.31075 L7.875,11.8146875 C7.875,12.0509375 8.070125,12.25 8.3103125,12.25 L11.8146875,12.25 C12.0509375,12.25 12.25,12.054875 12.25,11.8146875 L12.25,8.3103125 C12.25,8.0740625 12.054875,7.875 11.8146875,7.875 L8.3103125,7.875 C8.0740625,7.875 7.875,8.070125 7.875,8.3103125 L7.875,8.31075 Z" id="" fill="#FFFFFF"></path>
                    </g>
                </g>
            </g>
        </g>
    </g>
</svg>
