<?xml version="1.0" encoding="UTF-8"?>
<svg width="16px" height="16px" viewBox="0 0 16 16" version="1.1" xmlns="http://www.w3.org/2000/svg" xmlns:xlink="http://www.w3.org/1999/xlink">
    <title></title>
    <g id="nexusAI" stroke="none" stroke-width="1" fill="none" fill-rule="evenodd">
        <g id="-" transform="translate(-368.000000, -93.000000)" fill-rule="nonzero">
            <g id="115、、-" transform="translate(368.000000, 93.000000)">
                <rect id="" fill="#000000" opacity="0" x="0" y="0" width="16" height="16"></rect>
                <path d="M9.1328125,1.015625 C9.1578125,1.015625 9.1828125,1.0171875 9.209375,1.021875 L9.2203125,1.021875 L9.2328125,1.025 C9.2734375,1.0328125 9.3109375,1.0453125 9.3515625,1.0640625 C9.3625,1.06875 9.371875,1.0734375 9.3796875,1.078125 C9.39375,1.0875 9.4078125,1.0953125 9.421875,1.1046875 L9.4328125,1.1046875 L9.4765625,1.1484375 L9.540625,1.1953125 L9.540625,1.209375 L13.35,4.8296875 L13.35,4.8421875 C13.3578125,4.853125 13.365625,4.865625 13.3734375,4.878125 C13.3796875,4.8875 13.3828125,4.8953125 13.3875,4.903125 C13.4,4.925 13.409375,4.946875 13.4171875,4.96875 L13.4265625,4.9921875 L13.4375,5.0078125 L13.4375,5.0484375 C13.4421875,5.0734375 13.44375,5.0984375 13.4453125,5.1234375 L13.4453125,13.921875 C13.4453125,14.5078125 12.9515625,14.9828125 12.34375,14.9828125 L3.65625,14.9828125 C3.0484375,14.9828125 2.5546875,14.50625 2.5546875,13.921875 L2.5546875,2.075 C2.5546875,1.490625 3.0484375,1.015625 3.65625,1.015625 Z M8.63125,1.9921875 L3.65625,1.9921875 C3.603125,1.9921875 3.559375,2.0296875 3.559375,2.0765625 L3.559375,13.9234375 C3.559375,13.9703125 3.603125,14.0078125 3.65625,14.0078125 L12.34375,14.0078125 C12.396875,14.0078125 12.440625,13.9703125 12.440625,13.9234375 L12.440625,5.6125 L9.1328125,5.6125 C8.85625,5.6125 8.63125,5.39375 8.63125,5.125 L8.63125,1.9921875 Z M10.725,10.8984375 C10.99375,10.8984375 11.2109375,11.1234375 11.2125,11.4 C11.2125,11.6765625 10.99375,11.9015625 10.7265625,11.9015625 L5.275,11.9015625 C5.00625,11.9015625 4.7890625,11.6765625 4.7890625,11.4 C4.7890625,11.1234375 5.0078125,10.8984375 5.275,10.8984375 Z M10.725,8.8 C10.99375,8.8 11.2109375,9.025 11.2125,9.3015625 C11.2125,9.578125 10.99375,9.803125 10.7265625,9.803125 L5.275,9.803125 C5.00625,9.803125 4.7890625,9.578125 4.7890625,9.3015625 C4.7890625,9.025 5.0078125,8.8 5.275,8.8 Z M10.7265625,6.7015625 C10.99375,6.7015625 11.2125,6.9265625 11.2125,7.203125 C11.2125,7.4796875 10.99375,7.7046875 10.7265625,7.7046875 L5.275,7.7046875 C5.00625,7.7046875 4.7890625,7.4796875 4.7890625,7.203125 C4.7890625,6.9265625 5.00625,6.7015625 5.275,6.7015625 Z M9.6359375,2.6640625 L9.6359375,4.6375 L11.7125,4.6375 L9.6359375,2.6640625 Z" id="" fill="#213044"></path>
            </g>
        </g>
    </g>
</svg>
