<?xml version="1.0" encoding="UTF-8"?>
<svg width="14px" height="14px" viewBox="0 0 14 14" version="1.1" xmlns="http://www.w3.org/2000/svg" xmlns:xlink="http://www.w3.org/1999/xlink">
    <title></title>
    <g id="-1" stroke="none" stroke-width="1" fill="none" fill-rule="evenodd">
        <g id="nexusaiicon" transform="translate(-872.000000, -492.000000)" fill-rule="nonzero">
            <g id="-4" transform="translate(853.000000, 475.000000)">
                <g id="-3" transform="translate(15.000000, 13.000000)">
                    <g id="-3" transform="translate(4.000000, 4.000000)">
                        <rect id="" fill="#000000" opacity="0" x="0" y="0" width="14" height="14"></rect>
                        <path d="M11.47,13.1830002 C11.3469374,13.1830584 11.2289146,13.1341221 11.142,13.047 L8.035,9.935 C7.85889769,9.75263918 7.86131726,9.46282591 8.04043977,9.28343076 C8.21956229,9.1040356 8.50937154,9.10117525 8.692,9.277 L11.47,12.06 L11.955,11.574 L9.184,8.8 C9.00789769,8.61763917 9.01031726,8.3278259 9.18943978,8.14843075 C9.36856229,7.9690356 9.65837155,7.96617525 9.841,8.142 L12.941,11.246 C13.028324,11.3332202 13.0773908,11.4515786 13.0773908,11.575 C13.0773908,11.6984214 13.028324,11.8167797 12.941,11.904 L11.8,13.047 C11.7127157,13.1341807 11.5943653,13.1831036 11.471,13.1830002 L11.47,13.1830002 Z M8.083,1.428 C8.10385181,1.36936099 8.11269389,1.30712638 8.10900001,1.245 L8.10900001,1.24299999 C8.1051995,1.18362625 8.08991721,1.12555356 8.064,1.072 C8.059,1.062 8.051,1.05400001 8.045,1.044 C8.02305031,1.00163317 7.99434042,0.963128132 7.96,0.929999998 C7.946,0.918000002 7.93,0.91 7.91399999,0.899999994 C7.887,0.879999996 7.862,0.857000006 7.82999999,0.843000006 L7.80199999,0.833 L7.80100001,0.833 C6.16266916,0.150920488 4.27410193,0.535525935 3.033,1.804 C3.02200001,1.81499999 3.017,1.82999999 3.00699999,1.843 C2.995,1.85300001 2.98,1.857 2.969,1.869 L0.634999996,4.22 C0.453893648,4.40311755 0.453893648,4.69788245 0.634999996,4.881 L2.051,6.315 C2.13706003,6.40221157 2.25447577,6.45130449 2.377,6.45130449 C2.49952423,6.45130449 2.61693997,6.40221157 2.703,6.315 L3.51000001,5.49800001 L4.492,6.49200001 C4.57792529,6.57946255 4.69539146,6.62872981 4.818,6.62872981 C4.94060854,6.62872981 5.0580747,6.57946255 5.144,6.49200001 C5.32444799,6.30900168 5.32444799,6.01499833 5.144,5.832 L3.835,4.51 C3.74924705,4.42259621 3.63194587,4.37335208 3.5095,4.37335208 C3.38705413,4.37335208 3.26975295,4.42259621 3.184,4.51 L2.37699999,5.327 L1.61399999,4.55399999 L3.619,2.53000001 C3.631,2.51800001 3.635,2.50200001 3.646,2.49 C3.65799999,2.47999999 3.673,2.47499999 3.68500001,2.463 C4.24334653,1.8979598 4.98003965,1.54356977 5.77,1.45999999 L5.676,1.535 C5.5454104,1.63369921 5.42178372,1.74128784 5.306,1.857 C5.298,1.86500001 5.29599999,1.875 5.28899999,1.883 C4.96221958,2.21555712 4.6874631,2.59549646 4.474,3.01 L4.48,3.01300001 C4.303,3.37300001 4.303,3.795 4.487,4.153 C4.509,4.195 4.537,4.23300001 4.57,4.265 C4.58,4.279 4.585,4.29600001 4.598,4.30899999 L5.613,5.336 C5.69888809,5.42315231 5.81613869,5.47222165 5.9385,5.47222165 C6.0608613,5.47222165 6.17811191,5.42315231 6.264,5.336 C6.44444799,5.15300168 6.44444799,4.85899832 6.264,4.676 L5.3,3.698 C5.2609157,3.60958758 5.26348415,3.50831749 5.307,3.422 L5.30999999,3.409 C5.47926565,3.08752389 5.69490805,2.7927003 5.95,2.534 C6.00999999,2.47400001 6.075,2.422 6.137,2.367 C6.56766607,1.99494377 7.10806498,1.77372784 7.67599999,1.737 C7.684,1.737 7.691,1.73200001 7.699,1.73200001 C7.75091532,1.72731883 7.80164713,1.71379034 7.849,1.692 C7.856,1.688 7.861,1.68199999 7.869,1.679 C7.91486541,1.65464369 7.95614682,1.62249833 7.99099999,1.584 C7.99499999,1.58000001 7.99699999,1.574 8,1.57100001 C8.0319665,1.53595316 8.05828164,1.49614307 8.078,1.45299999 C8.08199999,1.44499999 8.08100001,1.43599999 8.084,1.428 L8.083,1.428 Z M3.731,13.5000142 C3.31525251,13.4994806 2.90465261,13.4080087 2.528,13.232 C2.39112216,13.1670113 2.29428268,13.0396533 2.26824515,12.8903847 C2.24220761,12.741116 2.29020884,12.5884929 2.39700001,12.481 L3.67899999,11.198 L3.198,10.718 L1.923,11.991 C1.81516057,12.1000429 1.66040691,12.1487567 1.50955142,12.1211466 C1.35869593,12.0935364 1.23122765,11.9931693 1.169,11.853 C0.693116375,10.7922368 0.918834113,9.5480075 1.737,8.722 C2.48006929,7.99051442 3.56536726,7.72726049 4.56099999,8.037 L8.037,4.562 C7.72443775,3.56677267 7.98807082,2.48029654 8.722,1.73900001 C9.24420566,1.21428385 9.95471682,0.920428241 10.695,0.922983259 C11.092,0.922983259 11.493,1.009 11.855,1.17200001 C11.9950164,1.23443263 12.0951575,1.36199514 12.1225639,1.51283056 C12.1499704,1.66366598 12.1011043,1.81830274 11.992,1.926 L10.7,3.218 L11.181,3.69999999 L12.483,2.399 C12.5899553,2.29167433 12.7424946,2.24319008 12.8917883,2.26906765 C13.0410819,2.29494522 13.1684051,2.39193895 13.233,2.529 C13.7362482,3.59626305 13.5180419,4.86433744 12.687,5.70199999 C12.1654881,6.22579757 11.4561437,6.51925731 10.717,6.517 C10.415,6.517 10.112,6.467 9.826,6.372 L6.37,9.82400001 C6.7,10.821 6.45000001,11.935 5.7,12.685 C5.17855137,13.208892 4.4691657,13.5023689 3.73,13.5000142 L3.731,13.5000142 Z M3.647,12.546 C4.17129255,12.5769577 4.68365695,12.3814071 5.054,12.009 C5.60399999,11.459 5.749,10.611 5.41400001,9.899 C5.33076269,9.72212578 5.36757925,9.51203129 5.50599999,9.374 L9.37600001,5.504 C9.51367593,5.36588954 9.72290257,5.32835651 9.9,5.41 C10.6099109,5.73686853 11.4477194,5.59385712 12.009,5.05000001 C12.385,4.67400001 12.571,4.159 12.545,3.64300001 L11.493,4.696 C11.4061216,4.78320284 11.2880943,4.83222025 11.165,4.83222025 C11.0419057,4.83222025 10.9238784,4.78320284 10.837,4.696 L9.703,3.55999999 C9.52192676,3.37881906 9.52192676,3.08518093 9.703,2.904 L10.733,1.874 C10.2250212,1.85948598 9.73348288,2.05479921 9.374,2.414 C8.82474472,2.96114508 8.67539443,3.79295432 9,4.49700001 C9.07951443,4.67322789 9.04168927,4.88027086 8.905,5.017 L5.018,8.902 C4.88135791,9.03729016 4.67575839,9.07499663 4.5,8.997 C3.79414943,8.68563034 2.96994164,8.83401148 2.417,9.372 C2.05548049,9.73132946 1.85921623,10.2245249 1.875,10.734 L2.889,9.71999999 C2.97587842,9.63279715 3.09390574,9.58377973 3.217,9.58377973 C3.34009426,9.58377973 3.45812158,9.63279715 3.54500001,9.71999999 L4.681,10.856 C4.76820284,10.9428784 4.81722025,11.0609057 4.81722025,11.184 C4.81722025,11.3070943 4.76820284,11.4251216 4.681,11.512 L3.647,12.546 Z" id="" fill="#FFFFFF"></path>
                    </g>
                </g>
            </g>
        </g>
    </g>
</svg>
