<?xml version="1.0" encoding="UTF-8"?>
<svg width="12px" height="12px" viewBox="0 0 12 12" version="1.1" xmlns="http://www.w3.org/2000/svg" xmlns:xlink="http://www.w3.org/1999/xlink">
    <title></title>
    <g id="nexusAI" stroke="none" stroke-width="1" fill="none" fill-rule="evenodd">
        <g id="" transform="translate(-1347.000000, -598.000000)" fill-rule="nonzero">
            <g id="-19" transform="translate(970.000000, 553.000000)">
                <g id="-3" transform="translate(80.000000, 20.000000)">
                    <g id="-11" transform="translate(297.000000, 22.000000)">
                        <g id="" transform="translate(0.000000, 3.000000)">
                            <rect id="" fill="#000000" opacity="0" x="0" y="0" width="12" height="12"></rect>
                            <path d="M6,0.999999996 C8.7615,0.999999996 11,3.2385 11,6 C11,8.7615 8.7615,11 6,11 C3.2385,11 0.999999996,8.7615 0.999999996,6 C0.999999996,3.2385 3.2385,0.999999996 6,0.999999996 Z M1.99999516,6 C1.99999516,7.52699973 2.8693377,8.92078945 4.24071348,9.59239696 C5.61208926,10.2640045 7.24619173,10.0962417 8.4525,9.16 L2.8395,3.548 C2.29410299,4.24886978 1.99861516,5.11192657 1.99999516,6 L1.99999516,6 Z M6,1.99999996 C5.076,1.99999996 4.225,2.3135 3.5475,2.84 L9.1605,8.4525 C10.096797,7.2461205 10.2645199,5.61190372 9.59278704,4.24048893 C8.92105415,2.86907414 7.5270899,1.99978758 6,1.99999996 Z" id="" fill="#999999"></path>
                        </g>
                    </g>
                </g>
            </g>
        </g>
    </g>
</svg>
