<?xml version="1.0" encoding="UTF-8"?>
<svg width="16px" height="16px" viewBox="0 0 16 16" version="1.1" xmlns="http://www.w3.org/2000/svg" xmlns:xlink="http://www.w3.org/1999/xlink">
    <title></title>
    <g id="nexusAI" stroke="none" stroke-width="1" fill="none" fill-rule="evenodd">
        <g id="01" transform="translate(-45.000000, -218.000000)" fill-rule="nonzero">
            <g id="-12" transform="translate(30.000000, 201.000000)">
                <g id="" transform="translate(15.000000, 17.000000)">
                    <rect id="" fill="#000000" opacity="0" x="0" y="0" width="16" height="16"></rect>
                    <path d="M9.33333333,1.33333333 L4,1.33333333 C3.64637801,1.33333333 3.30723946,1.47380912 3.05719096,1.72385762 C2.80714245,1.97390613 2.66666667,2.31304468 2.66666667,2.66666667 L2.66666667,13.3333333 C2.66666667,13.6869553 2.80714245,14.0260939 3.05719096,14.2761424 C3.30723946,14.5261909 3.64637801,14.6666667 4,14.6666667 L12,14.6666667 C12.353622,14.6666667 12.6927605,14.5261909 12.942809,14.2761424 C13.1928575,14.0260939 13.3333333,13.6869553 13.3333333,13.3333333 L13.3333333,5.33333333 L9.33333333,1.33333333 L9.33333333,1.33333333 Z M9,10.6666667 L9,13.3333333 L7,13.3333333 L7,10.6666667 L5,10.6666667 L8,7.33333333 L11,10.6666667 L9,10.6666667 Z M8.66666667,6 L8.66666667,2.33333333 L12.3333333,6 L8.66666667,6 Z" id="" fill="#5F6A79"></path>
                </g>
            </g>
        </g>
    </g>
</svg>
