<?xml version="1.0" encoding="UTF-8"?>
<svg width="24px" height="24px" viewBox="0 0 24 24" version="1.1" xmlns="http://www.w3.org/2000/svg" xmlns:xlink="http://www.w3.org/1999/xlink">
    <title>touxiang</title>
    <defs>
        <linearGradient x1="19.1347018%" y1="0%" x2="50%" y2="100%" id="linearGradient-1">
            <stop stop-color="#887BFF" offset="0%"></stop>
            <stop stop-color="#5670FB" offset="100%"></stop>
        </linearGradient>
        <linearGradient x1="27.1827009%" y1="94.5406757%" x2="47.1697104%" y2="47.4950928%" id="linearGradient-2">
            <stop stop-color="#B1DAF7" offset="0%"></stop>
            <stop stop-color="#0598FF" offset="100%"></stop>
        </linearGradient>
        <linearGradient x1="50%" y1="0%" x2="50%" y2="100%" id="linearGradient-3">
            <stop stop-color="#0EEFFE" offset="0%"></stop>
            <stop stop-color="#BEF8FC" offset="100%"></stop>
        </linearGradient>
    </defs>
    <g id="nexusAI" stroke="none" stroke-width="1" fill="none" fill-rule="evenodd">
        <g id="-" transform="translate(-733.000000, -268.000000)">
            <g id="-9" transform="translate(725.000000, 260.000000)">
                <g id="-17" transform="translate(8.000000, 8.000000)">
                    <path d="M18.3368508,22 L6.90322581,22 C5.29981847,22 4,20.7001815 4,19.0967742 L4,4.90322581 C4,4.1005545 4.32573951,3.37396374 4.85223838,2.84843367 L19.4316948,19.5952362 C19.9581055,20.1999018 19.8946674,21.1168204 19.2900018,21.6432311 C19.0257506,21.8732833 18.6872116,22 18.3368508,22 Z" id="" fill="url(#linearGradient-1)"></path>
                    <path d="M19.3476785,11.0557515 L8.68419801,18.0631979 L4.37665727,3.47210452 C4.67266725,2.95063788 5.12545606,2.52982131 5.67093527,2.27374325 L19.2007508,8.81577006 C19.8423138,9.12598289 20.1109261,9.89754964 19.8007133,10.5391126 C19.6991748,10.7491083 19.5426115,10.9276524 19.3476785,11.0557515 Z" id="" fill="url(#linearGradient-2)" opacity="0.5"></path>
                    <path d="M6.90322581,2 L19.0976451,2 C19.7211924,2 20.2266773,2.50548496 20.2266773,3.12903226 C20.2266773,3.42532628 20.1102041,3.70974583 19.9023836,3.92093486 L12.3978484,11.547111 L4.85197733,2.84869428 C5.3772276,2.3242781 6.1023571,2 6.90322581,2 Z" id="" fill="url(#linearGradient-3)" opacity="0.598764329"></path>
                </g>
            </g>
        </g>
    </g>
</svg>
