<?xml version="1.0" encoding="UTF-8"?>
<svg width="14px" height="14px" viewBox="0 0 14 14" version="1.1" xmlns="http://www.w3.org/2000/svg" xmlns:xlink="http://www.w3.org/1999/xlink">
    <title></title>
    <g id="-1" stroke="none" stroke-width="1" fill="none" fill-rule="evenodd">
        <g id="nexusaiicon" transform="translate(-618.000000, -492.000000)" fill="#FFFFFF" fill-rule="nonzero">
            <g id="-4" transform="translate(599.000000, 475.000000)">
                <g id="-3" transform="translate(15.000000, 13.000000)">
                    <g id="" transform="translate(4.000000, 4.000000)">
                        <path d="M7,4.9375 C7.55078125,4.9375 8.06875,5.15195312 8.45898438,5.54101562 C8.84804688,5.93125 9.0625,6.44921875 9.0625,7 C9.0625,7.55078125 8.84804688,8.06875 8.45898438,8.45898437 C8.06875,8.84804687 7.55078125,9.0625 7,9.0625 C6.44921875,9.0625 5.93125,8.84804687 5.54101563,8.45898437 C5.15195313,8.06875 4.9375,7.55078125 4.9375,7 C4.9375,6.44921875 5.15195313,5.93125 5.54101563,5.54101562 C5.93125,5.15195312 6.44921875,4.9375 7,4.9375 Z M7,4.1875 C5.44726563,4.1875 4.1875,5.44726562 4.1875,7 C4.1875,8.55273437 5.44726563,9.8125 7,9.8125 C8.55273438,9.8125 9.8125,8.55273437 9.8125,7 C9.8125,5.44726562 8.55273438,4.1875 7,4.1875 Z M4.7078125,9.40703125 L4.065625,11.8023437 C4.046875,11.8714844 3.96015625,11.8949219 3.90859375,11.8445312 L3.42929688,11.3652344 C3.35664063,11.2925781 3.23710938,11.2925781 3.16445313,11.3652344 L1.59882813,12.9320312 C1.5625,12.9683594 1.50273438,12.9683594 1.46640625,12.9320312 L1.06796875,12.5347656 C1.03164063,12.4984375 1.03164063,12.4386719 1.06796875,12.4023438 L2.63476563,10.8355469 C2.70742188,10.7628906 2.70742188,10.6433594 2.63476563,10.5707031 L2.15546875,10.0914062 C2.10390625,10.0398437 2.12734375,9.953125 2.19765625,9.934375 L4.59296875,9.2921875 C4.66328125,9.2734375 4.7265625,9.33671875 4.7078125,9.40703125 L4.7078125,9.40703125 Z M12.9320313,12.5347656 L12.5347656,12.9320312 C12.4984375,12.9683594 12.4386719,12.9683594 12.4023438,12.9320312 L10.834375,11.3652344 C10.7617188,11.2925781 10.6421875,11.2925781 10.5695313,11.3652344 L10.0902344,11.8445312 C10.0386719,11.8960937 9.95195313,11.8726562 9.93320313,11.8023437 L9.29101563,9.40703125 C9.27226563,9.33789062 9.33554688,9.2734375 9.40585938,9.2921875 L11.8011719,9.934375 C11.8703125,9.953125 11.89375,10.0398438 11.8433594,10.0914063 L11.3640625,10.5707031 C11.2914063,10.6433594 11.2914063,10.7628906 11.3640625,10.8355469 L12.9308594,12.4023438 C12.9683594,12.4386719 12.9683594,12.4972656 12.9320313,12.5347656 Z M2.15546875,3.90742188 L2.63476563,3.428125 C2.70742188,3.35546875 2.70742188,3.2359375 2.63476563,3.16328125 L1.06796875,1.59648438 C1.03164063,1.56015625 1.03164063,1.50039063 1.06796875,1.4640625 L1.46523438,1.06679688 C1.5015625,1.03046875 1.56132813,1.03046875 1.59765625,1.06679688 L3.16445313,2.63359375 C3.23710938,2.70625 3.35664063,2.70625 3.42929688,2.63359375 L3.90859375,2.15429688 C3.96015625,2.10273437 4.046875,2.12617187 4.065625,2.19648437 L4.7078125,4.59179688 C4.7265625,4.6609375 4.66328125,4.72539063 4.59296875,4.70664063 L2.19765625,4.065625 C2.12851563,4.04570313 2.10507813,3.95898438 2.15546875,3.90742188 Z M11.3652344,3.42929688 L11.8445313,3.90859375 C11.8960938,3.96015625 11.8726563,4.046875 11.8023438,4.065625 L9.40703125,4.70664063 C9.33789063,4.72539062 9.2734375,4.66210938 9.2921875,4.59179688 L9.934375,2.19648437 C9.953125,2.12734375 10.0398438,2.10390625 10.0914063,2.15429688 L10.5707031,2.63359375 C10.6433594,2.70625 10.7628906,2.70625 10.8355469,2.63359375 L12.4011719,1.06679688 C12.4375,1.03046875 12.4972656,1.03046875 12.5335938,1.06679688 L12.9308594,1.4640625 C12.9671875,1.50039063 12.9671875,1.56015625 12.9308594,1.59648438 L11.3652344,3.16328125 C11.2914063,3.23710938 11.2914063,3.35546875 11.3652344,3.42929688 Z M7,6.625 C7.20625,6.625 7.375,6.79375 7.375,7 C7.375,7.20625 7.20625,7.375 7,7.375 C6.79375,7.375 6.625,7.20625 6.625,7 C6.625,6.79375 6.79375,6.625 7,6.625 Z M7,5.875 C6.37890625,5.875 5.875,6.37890625 5.875,7 C5.875,7.62109375 6.37890625,8.125 7,8.125 C7.62109375,8.125 8.125,7.62109375 8.125,7 C8.125,6.37890625 7.62109375,5.875 7,5.875 Z" id=""></path>
                    </g>
                </g>
            </g>
        </g>
    </g>
</svg>
