<?xml version="1.0" encoding="UTF-8"?>
<svg width="42px" height="42px" viewBox="0 0 42 42" version="1.1" xmlns="http://www.w3.org/2000/svg" xmlns:xlink="http://www.w3.org/1999/xlink">
    <title>webm</title>
    <defs>
        <path d="M10.6392351,19.8620114 L11.6195225,16.2990439 L12.590384,19.8620114 L13.589523,19.8620114 L15.2296191,14.9888522 L14.0419633,14.9888522 L13.0711018,18.589523 L12.1096661,14.9888522 L11.119953,14.9888522 L10.1585173,18.589523 L9.18765581,14.9888522 L8,14.9888522 L9.64009612,19.8620114 L10.6392351,19.8620114 Z M18.2391551,19.9939731 C18.9743706,19.9939731 19.5776244,19.7489013 20.0300647,19.2587576 C20.4636533,18.7874656 20.6898735,18.174786 20.6898735,17.4301447 C20.6898735,16.6760775 20.4636533,16.0633979 20.0206388,15.5826801 C19.5681985,15.0925364 18.9743706,14.8568904 18.2391551,14.8568904 C17.4945138,14.8568904 16.9006859,15.0925364 16.4576714,15.5826801 C16.0052311,16.0633979 15.7884368,16.6760775 15.7884368,17.4301447 C15.7884368,18.174786 16.0052311,18.7874656 16.4482455,19.2587576 C16.9006859,19.7489013 17.4945138,19.9939731 18.2391551,19.9939731 Z M18.2391551,19.11737 C17.7867148,19.11737 17.4473846,18.9382791 17.2023127,18.589523 C16.9949443,18.2878961 16.89126,17.9014367 16.89126,17.4301447 C16.89126,16.9588527 16.9949443,16.5629674 17.2023127,16.2613406 C17.4473846,15.9031587 17.7867148,15.7334935 18.2391551,15.7334935 C18.6821696,15.7334935 19.0309257,15.9031587 19.2759975,16.2613406 C19.483366,16.5629674 19.596476,16.9588527 19.596476,17.4301447 C19.596476,17.8920109 19.483366,18.2784703 19.2759975,18.589523 C19.0309257,18.9382791 18.6821696,19.11737 18.2391551,19.11737 Z M22.8322322,19.8620114 L22.8322322,17.2793313 C22.8322322,16.8645943 22.9547681,16.5346899 23.2186916,16.2801922 C23.4449118,16.0539721 23.6994094,15.9502879 23.9821846,15.9502879 C24.2084048,15.9502879 24.4346249,15.9785654 24.6796968,16.0539721 L24.6796968,14.9794264 C24.5100317,14.8945938 24.3026632,14.8568904 24.0670172,14.8568904 C23.7653903,14.8568904 23.5108926,14.941723 23.2940983,15.120814 C23.1150074,15.2527757 22.9641939,15.4412925 22.8322322,15.6863643 L22.8322322,14.9888522 L21.7671123,14.9888522 L21.7671123,19.8620114 L22.8322322,19.8620114 Z M27.500716,19.9939731 C28.1416731,19.9939731 28.6318167,19.7771788 28.971147,19.3435902 L28.971147,19.8620114 L29.970286,19.8620114 L29.970286,13 L28.8957403,13 L28.8957403,15.6580868 C28.4904292,15.120814 28.0097113,14.8568904 27.4441609,14.8568904 C26.7466488,14.8568904 26.1905242,15.1113881 25.794639,15.6203835 C25.4176054,16.0916755 25.2385144,16.6855034 25.2385144,17.4018672 C25.2385144,18.1465085 25.4270312,18.7591881 25.8040648,19.2304801 C26.2093759,19.7394754 26.7749263,19.9939731 27.500716,19.9939731 Z M27.6609553,19.1267959 C27.1802374,19.1267959 26.8314814,18.9571307 26.614687,18.6178005 C26.4261702,18.3350253 26.3413377,17.9297142 26.3413377,17.4018672 C26.3413377,16.8740202 26.4355961,16.4781349 26.6335387,16.2047855 C26.8597589,15.884307 27.2085149,15.7240677 27.6986586,15.7240677 C28.0379888,15.7240677 28.3301899,15.8654553 28.55641,16.1482305 C28.8014819,16.4498574 28.9334436,16.8645943 28.9334436,17.3830155 L28.9334436,17.4584222 C28.9334436,17.9297142 28.8297594,18.3255995 28.6318167,18.6272264 C28.4055966,18.9571307 28.0756922,19.1267959 27.6609553,19.1267959 Z" id="path-1"></path>
    </defs>
    <g id="nexusAI" stroke="none" stroke-width="1" fill="none" fill-rule="evenodd" opacity="0.500744048">
        <g id="02" transform="translate(-805.000000, -499.000000)" fill-rule="nonzero">
            <g id="-23" transform="translate(550.000000, 398.000000)">
                <g id="-17" transform="translate(255.000000, 101.000000)">
                    <g id="" transform="translate(2.000000, 4.000000)">
                        <rect id="" fill="#000000" opacity="0" x="0" y="0.0331707317" width="33.9668293" height="33.9668293"></rect>
                        <path d="M0,22.79098 C0,26.7350455 2.10379356,30.3796049 5.5194185,32.3517001 C8.93504345,34.3237953 13.1433293,34.3237953 16.5589543,32.3517001 C19.9745792,30.3796049 22.0783728,26.7350455 22.0783728,22.79098 C22.0783728,18.8469144 19.9745792,15.202355 16.5589543,13.2302598 C13.1433293,11.2581646 8.93504345,11.2581646 5.5194185,13.2302598 C2.10379356,15.202355 0,18.8469144 0,22.79098 Z" id="" fill="#DCF2FF"></path>
                        <path d="M29.2963023,34 L8.06709774,34 C5.48963157,33.9953264 3.40134631,31.9070411 3.39667274,29.329575 L3.39667274,4.70369766 C3.40134631,2.12623149 5.48963157,0.0379462138 8.06709774,0.0330762206 L25.19482,0.0330762206 C25.9789423,0.0268350018 26.7334733,0.33231314 27.2922655,0.88244081 L33.5846017,7.17477706 C33.8329983,7.4182016 33.9710566,7.75260948 33.9669206,8.10037037 L33.9669206,29.329575 C33.9620538,31.9070412 31.8737685,33.9953264 29.2963023,34 L29.2963023,34 Z M8.06709774,2.58073541 C6.89464114,2.58073541 5.94417728,3.53124106 5.94417728,4.70369766 L5.94417728,29.329575 C5.94417728,30.5020316 6.89464114,31.4524954 8.06709774,31.4524954 L29.2963023,31.4524954 C30.4687589,31.4524954 31.4192228,30.5020316 31.4192228,29.329575 L31.4192228,8.62685466 L25.4750455,2.68267735 C25.3970282,2.61594946 25.297476,2.5797487 25.19482,2.58073541 L8.06709774,2.58073541 Z" id="" fill="#7C9DDA"></path>
                        <g id="word">
                            <use fill="#AAAAAA" xlink:href="#path-1"></use>
                            <use fill="#7C9DDA" xlink:href="#path-1"></use>
                        </g>
                    </g>
                </g>
            </g>
        </g>
    </g>
</svg>
