<?xml version="1.0" encoding="UTF-8"?>
<svg width="16px" height="16px" viewBox="0 0 16 16" version="1.1" xmlns="http://www.w3.org/2000/svg" xmlns:xlink="http://www.w3.org/1999/xlink">
    <title></title>
    <g id="nexusAI" stroke="none" stroke-width="1" fill="none" fill-rule="evenodd">
        <g id="" transform="translate(-970.000000, -552.000000)" fill-rule="nonzero">
            <g id="-16" transform="translate(970.000000, 550.000000)">
                <g id="" transform="translate(0.000000, 2.000000)">
                    <rect id="" fill="#000000" opacity="0" x="0" y="0" width="16" height="16"></rect>
                    <path d="M13.015039,0.5 C13.5766615,0.5 14.0212793,0.944617783 14.0212793,1.50624025 L14.0212793,14.4937597 C14.0212793,15.0553822 13.5532605,15.5 13.015039,15.5 L3.04624025,15.5 C2.48461778,15.5 2.04,15.0319813 2.04,14.4937597 L2.04,1.50624025 C2.04,0.944617783 2.48461778,0.5 3.02283932,0.5 Z M5.71394695,1.76365055 L4.75450857,1.76365055 L4.75450857,14.1661467 L5.71394695,14.1661467 L5.71394695,1.76365055 Z M8.61819484,6.45739617 C7.96816441,6.45739617 7.38214015,6.84896505 7.13338427,7.44951487 C6.88462838,8.05006468 7.02212909,8.74132743 7.48177002,9.20096836 C7.68931511,9.40851345 7.94408465,9.55037863 8.21640381,9.62066123 L8.216408,12.8859857 C8.216408,13.3036812 8.53509894,13.6469425 8.94259217,13.6858808 L9.01998168,13.6895594 L11.1365744,13.6895594 C11.2059428,13.809709 11.3063895,13.9119155 11.4307028,13.9836878 C11.6793293,14.1272324 11.9856499,14.1272324 12.2342764,13.9836878 C12.482903,13.8401432 12.6360633,13.5748618 12.6360633,13.2877725 C12.6360633,12.843971 12.2762911,12.4841988 11.8324896,12.4841988 C11.5352263,12.4841988 11.2756626,12.6456096 11.1366616,12.885568 L9.01998168,12.8859857 L9.01998168,11.2788383 L11.1365744,11.2788383 C11.2059428,11.3989879 11.3063895,11.5011944 11.4307028,11.5729667 C11.6793293,11.7165113 11.9856499,11.7165113 12.2342764,11.5729667 C12.482903,11.4294221 12.6360633,11.1641407 12.6360633,10.8770515 C12.6360633,10.43325 12.2762911,10.0734778 11.8324896,10.0734778 C11.5352263,10.0734778 11.2756626,10.2348886 11.1366616,10.4748469 L9.01998168,10.4752646 L9.01984896,9.62074573 C9.09186721,9.60213755 9.16316265,9.57837428 9.23322351,9.54935412 C9.83377333,9.30059824 10.2253422,8.71457399 10.2253422,8.06454355 C10.2253422,7.17694056 9.50579783,6.45739617 8.61819484,6.45739617 Z M8.61819484,7.26096985 C9.06199633,7.26096985 9.42176852,7.62074205 9.42176852,8.06454354 C9.42176852,8.50834503 9.06199633,8.86811723 8.61819484,8.86811723 C8.17439335,8.86811723 7.81462115,8.50834504 7.81462115,8.06454355 C7.81462115,7.85142255 7.89928313,7.64703044 8.04998243,7.49633114 C8.20068173,7.34563183 8.40507385,7.26096985 8.61819484,7.26096985 Z M11.4237754,1.62324493 L9.43469578,1.62324493 L9.43469578,4.61856474 L10.440936,3.6123245 L11.423,4.594 L11.4237754,1.62324493 Z" id="" fill="#5F6A79"></path>
                </g>
            </g>
        </g>
    </g>
</svg>
