<?xml version="1.0" encoding="UTF-8"?>
<svg width="16px" height="16px" viewBox="0 0 16 16" version="1.1" xmlns="http://www.w3.org/2000/svg" xmlns:xlink="http://www.w3.org/1999/xlink">
    <title>zishu</title>
    <g id="nexusAI" stroke="none" stroke-width="1" fill="none" fill-rule="evenodd">
        <g id="-" transform="translate(-430.000000, -366.000000)" fill-rule="nonzero">
            <g id="-16" transform="translate(331.000000, 347.000000)">
                <g id="-2" transform="translate(99.000000, 17.000000)">
                    <g id="file-text-fill" transform="translate(0.000000, 2.000000)">
                        <rect id="" fill="#000000" opacity="0" x="0" y="0" width="16" height="16"></rect>
                        <path d="M14.0000215,6 L14.0000215,13.9946667 C14.0014198,14.171594 13.9324489,14.3418289 13.8082797,14.4678738 C13.6841105,14.5939187 13.5149287,14.6654338 13.338,14.6666667 L2.662,14.6666667 C2.29664768,14.6666667 2.00036792,14.3706855 2,14.0053333 L2,1.99466667 C2,1.63666667 2.298,1.33333333 2.66533333,1.33333333 L9.33333333,1.33333333 L9.33333333,5.33333333 C9.33333333,5.70152316 9.63181016,6 10,6 L14.0000215,6 Z M14,4.66666667 L10.6666667,4.66666667 L10.6666667,1.33533333 L14,4.66666667 Z M5.33333333,4.66666667 L5.33333333,6 L7.33333333,6 L7.33333333,4.66666667 L5.33333333,4.66666667 Z M5.33333333,7.33333333 L5.33333333,8.66666667 L10.6666667,8.66666667 L10.6666667,7.33333333 L5.33333333,7.33333333 L5.33333333,7.33333333 Z M5.33333333,10 L5.33333333,11.3333333 L10.6666667,11.3333333 L10.6666667,10 L5.33333333,10 Z" id="" fill="#213044" opacity="0.5"></path>
                    </g>
                </g>
            </g>
        </g>
    </g>
</svg>
