<?xml version="1.0" encoding="UTF-8"?>
<svg width="128px" height="128px" viewBox="0 0 128 128" version="1.1" xmlns="http://www.w3.org/2000/svg" xmlns:xlink="http://www.w3.org/1999/xlink">
    <title>logo</title>
    <defs>
        <linearGradient x1="19.1347018%" y1="0%" x2="50%" y2="100%" id="linearGradient-1">
            <stop stop-color="#887BFF" offset="0%"></stop>
            <stop stop-color="#5670FB" offset="100%"></stop>
        </linearGradient>
        <linearGradient x1="27.1827009%" y1="94.5406757%" x2="47.1697104%" y2="47.4950928%" id="linearGradient-2">
            <stop stop-color="#B1DAF7" offset="0%"></stop>
            <stop stop-color="#0598FF" offset="100%"></stop>
        </linearGradient>
        <linearGradient x1="50%" y1="0%" x2="50%" y2="100%" id="linearGradient-3">
            <stop stop-color="#0EEFFE" offset="0%"></stop>
            <stop stop-color="#BEF8FC" offset="100%"></stop>
        </linearGradient>
    </defs>
    <g id="-1" stroke="none" stroke-width="1" fill="none" fill-rule="evenodd">
        <g id="-17" transform="translate(19.000000, 9.000000)">
            <path d="M83.0370478,0 C86.466558,0 89.2467253,2.78016728 89.2467253,6.20967742 C89.2467253,7.83929456 88.6061224,9.40360207 87.4631098,10.5651417 L68.268,30.071 L83.6041292,37.4867353 C87.1327257,39.1929059 88.6100938,43.436523 86.9039232,46.9651195 C86.3454615,48.1200955 85.4843631,49.1020884 84.4122319,49.8066334 L58.697,66.705 L84.8743215,96.773799 C87.7695805,100.09946 87.4206707,105.142512 84.0950097,108.037771 C82.6416283,109.303058 80.779664,110 78.8526796,110 L15.9677419,110 C7.14900158,110 0,102.850998 0,94.0322581 L0,15.9677419 C0,13.1062158 0.752710065,10.4204945 2.0709346,8.0977736 L2.10443529,8.03903561 C2.12382918,8.00519851 2.14334338,7.97143918 2.16297731,7.93775822 L2.07161498,8.09657488 C2.21162455,7.84992671 2.35801128,7.60737261 2.51055098,7.36913675 C2.53951332,7.32390331 2.56871355,7.27880098 2.5981343,7.23385602 C2.71405528,7.05677217 2.83329942,6.88227198 2.95586751,6.71030477 L3.17944248,6.40434362 C3.25880818,6.29838527 3.33945994,6.19344585 3.4213746,6.08954851 C3.46124805,6.03897539 3.50134408,5.98874403 3.54173554,5.93876131 C3.75616312,5.67340673 3.97910886,5.41485133 4.20999691,5.16371317 C4.24640531,5.12411164 4.28299948,5.08470705 4.31978944,5.04548833 C4.37273324,4.98904761 4.42625624,4.93281197 4.4801827,4.87696846 C4.52313345,4.83249247 4.56613235,4.78847549 4.6093824,4.74470722 C4.63456326,4.71922431 4.6599039,4.69375116 4.6853297,4.6683633 L4.77629815,4.57825156 C4.81858239,4.53669804 4.86109698,4.49537817 4.90383983,4.45429403 L4.68587529,4.66781855 C4.80346079,4.55041977 4.92286758,4.43484465 5.04404962,4.32113922 C5.09145853,4.27665316 5.13942695,4.23218973 5.18766756,4.18801873 C5.24151485,4.13871601 5.29546005,4.08999253 5.34973753,4.04163403 C5.38686257,4.00855666 5.42429286,3.97551905 5.4618786,3.94265482 C5.51413909,3.89696128 5.56643215,3.85183115 5.61901939,3.8070361 C5.68292115,3.75260205 5.7473733,3.69856707 5.81225545,3.6450346 C5.83320162,3.62775274 5.85410625,3.61059377 5.87505513,3.59348694 C5.94920071,3.53293916 6.02395969,3.47299806 6.09926506,3.41371997 C6.1225969,3.39535529 6.14549412,3.37743333 6.16844139,3.35957264 C6.37467725,3.19904036 6.58540737,3.04313975 6.80001745,2.8923887 C6.98680874,2.76117913 7.17652046,2.63388269 7.36905256,2.51060489 L7.38462632,2.50064574 C7.57173221,2.38114723 7.76149454,2.26544106 7.95380493,2.15363557 C7.9820289,2.13722631 8.01045588,2.12081616 8.03893798,2.10449125 C8.10821325,2.06478729 8.17749241,2.02576591 8.24708965,1.98724912 C8.29817992,1.95897341 8.3496792,1.93084151 8.40134951,1.90298603 C8.46453533,1.8689238 8.52775745,1.83538943 8.59122997,1.80226916 C8.64469232,1.77437023 8.6987498,1.74655325 8.75298551,1.71903684 C8.81176343,1.68921825 8.87030073,1.65997398 8.92904145,1.63108009 C8.99609484,1.59809662 9.06352681,1.56551587 9.13122067,1.53339729 C9.15062011,1.52419232 9.17037098,1.51487042 9.19014399,1.50558788 C11.2481999,0.53958756 13.5449572,0 15.9677419,0 L83.0370478,0 Z" id="" fill="#FFFFFF"></path>
            <path d="M78.8526796,110 L15.9677419,110 C7.14900158,110 2.84217094e-14,102.850998 2.84217094e-14,94.0322581 L2.84217094e-14,15.9677419 C2.84217094e-14,11.5530498 1.79156731,7.55680059 4.68731111,4.66638519 L84.8743215,96.773799 C87.7695805,100.09946 87.4206707,105.142512 84.0950097,108.037771 C82.6416283,109.303058 80.779664,110 78.8526796,110 Z" id="" fill="url(#linearGradient-1)"></path>
            <path d="M84.4122319,49.8066334 L25.7630891,88.3475886 L2.07161498,8.09657488 C3.69966988,5.22850833 6.19000833,2.91401722 9.19014399,1.50558788 L83.6041292,37.4867353 C87.1327257,39.1929059 88.6100938,43.436523 86.9039232,46.9651195 C86.3454615,48.1200955 85.4843631,49.1020884 84.4122319,49.8066334 Z" id="" fill="url(#linearGradient-2)" opacity="0.5"></path>
            <path d="M15.9677419,0 L83.0370478,0 C86.466558,0 89.2467253,2.78016728 89.2467253,6.20967742 C89.2467253,7.83929456 88.6061224,9.40360207 87.4631098,10.5651417 L46.1881664,52.5091103 L4.68587529,4.66781855 C7.57475178,1.78352956 11.562964,0 15.9677419,0 Z" id="" fill="url(#linearGradient-3)" opacity="0.598764329"></path>
        </g>
    </g>
</svg>
