<?xml version="1.0" encoding="UTF-8"?>
<svg width="14px" height="14px" viewBox="0 0 14 14" version="1.1" xmlns="http://www.w3.org/2000/svg" xmlns:xlink="http://www.w3.org/1999/xlink">
    <title></title>
    <g id="nexusAI" stroke="none" stroke-width="1" fill="none" fill-rule="evenodd">
        <g id="" transform="translate(-1043.000000, -23.000000)" fill-rule="nonzero">
            <g id="-4" transform="translate(810.000000, 14.000000)">
                <g id="-14" transform="translate(218.000000, 0.000000)">
                    <g id="-13" transform="translate(15.000000, 6.000000)">
                        <g id="" transform="translate(0.000000, 3.000000)">
                            <rect id="" fill="#000000" opacity="0" x="0" y="0" width="14" height="14"></rect>
                            <path d="M7.00219234,0.1 C3.91154414,0.1 1.4,2.5167371 1.4,5.48102697 C1.4,7.32907499 2.3739547,9.02978155 4.00099052,10.0196651 C4.56431893,10.3619813 4.64855782,10.4672033 4.64855782,10.8199345 L4.64855782,11.0937875 C4.64855782,11.8203861 5.24879818,12.4100584 5.98596503,12.4100584 L8.11843417,12.4100584 C8.25520749,12.4100584 8.3501677,12.4995047 8.3501677,12.5785361 C8.3501677,12.6575675 8.25536066,12.7470139 8.11843417,12.7470139 L5.76495282,12.7470139 C5.47547737,12.7470139 5.23853636,12.9839549 5.23853636,13.2734304 C5.23853636,13.563059 5.47547737,13.8 5.76495282,13.8 L8.11858734,13.8 C8.82941038,13.8 9.40330695,13.2524472 9.40330695,12.5785361 C9.40330695,11.904625 8.82404973,11.3570723 8.11858734,11.3570723 L5.99132569,11.3570723 C5.83862356,11.3570723 5.70705773,11.2359214 5.70705773,11.0937875 L5.70705773,10.8199345 C5.70705773,9.82484348 5.09624922,9.45097599 4.55405711,9.11922793 C3.2377862,8.32431916 2.45329242,6.96577565 2.45329242,5.48623446 C2.45329242,3.10104865 4.49095452,1.15819359 7.0023455,1.15819359 C9.51373647,1.15819359 11.5513986,3.10104865 11.5513986,5.48623446 C11.5513986,6.96577565 10.7669048,8.324166 9.45584138,9.12964292 C8.91349611,9.46139098 8.30284076,9.83510531 8.30284076,10.8303495 C8.30284076,11.1198249 8.53978177,11.3567659 8.82925722,11.3567659 C9.11888583,11.3567659 9.35582685,11.1198249 9.35582685,10.8303495 C9.35582685,10.4776183 9.44006574,10.3722431 10.0033942,10.03008 C11.63043,9.03498904 12.6043847,7.33948998 12.6043847,5.49159512 C12.6043847,2.51658394 10.0928405,0.1 7.00219234,0.1 L7.00219234,0.1 Z M9.39963107,5.93989916 L4.60123088,5.93989916 C4.43290627,5.93989916 4.29919618,5.76728602 4.29919618,5.55163447 C4.29919618,5.33582976 4.43290627,5.16321662 4.60123088,5.16321662 L9.39518938,5.16321662 C9.563514,5.16321662 9.69722409,5.33582976 9.69722409,5.55163447 C9.70151261,5.76743918 9.563514,5.93989916 9.39963107,5.93989916 L9.39963107,5.93989916 Z M6.61208971,7.95075798 L6.61208971,3.15251096 C6.61208971,2.98418634 6.78470284,2.85047625 7.00050756,2.85047625 C7.21631227,2.85047625 7.38877225,2.98418634 7.38877225,3.15251096 L7.38877225,7.94646946 C7.38877225,8.11479407 7.21615911,8.24850416 7.00050756,8.24850416 C6.78470284,8.25279268 6.61208971,8.11479407 6.61208971,7.95075798 Z" id="" fill="#1B64F3"></path>
                        </g>
                    </g>
                </g>
            </g>
        </g>
    </g>
</svg>
