<?xml version="1.0" encoding="UTF-8"?>
<svg width="36px" height="36px" viewBox="0 0 36 36" version="1.1" xmlns="http://www.w3.org/2000/svg" xmlns:xlink="http://www.w3.org/1999/xlink">
    <title>ATYUN默认头像</title>
    <g id="智能体" stroke="none" stroke-width="1" fill="none" fill-rule="evenodd">
        <g id="ATYUN智能体详情-产生会话介入下载广告" transform="translate(-747.000000, -217.000000)" fill="#1493F4">
            <g id="编组-4" transform="translate(747.000000, 217.000000)">
                <path d="M18.0852326,22.1915124 C18.0829571,21.5978035 18.5693555,21.1147535 19.1731942,21.1109045 L20.1218506,21.1109045 C20.7289516,21.1211685 21.2120878,21.6131995 21.2016487,22.2101159 C21.1915358,22.7922778 20.7139453,23.2618563 20.1218506,23.2717995 L19.1731942,23.2717995 C18.5696817,23.2682713 18.0829571,22.7852213 18.0852326,22.1915124 M16.732394,24.3232192 L17.6807242,24.3232192 C18.2874989,24.3331624 18.7712875,24.8251935 18.7605222,25.4217891 C18.7504093,26.0042718 18.2728188,26.4738503 17.6807242,26.4837935 L16.732394,26.4837935 C16.1256193,26.4738503 15.6418306,25.9814985 15.6522697,25.3849028 C15.6627089,24.802741 16.1402993,24.3331624 16.732394,24.3232192 M10.2490387,17.6583477 C8.37749749,17.6407064 6.8452282,19.1180825 6.82728593,20.9582273 C6.80934367,22.7990135 8.31225289,24.3049364 10.1837941,24.3228984 C12.0553353,24.340219 13.5872783,22.8628429 13.6055724,21.0223774 C13.6055724,21.0117926 13.6055724,21.0012078 13.6055724,20.9906231 C13.6127237,19.1601008 12.1111194,17.6689325 10.2490387,17.6583477 M25.6043539,26.4837935 L21.3288756,26.4837935 C20.7221009,26.4738503 20.2386385,25.9814985 20.2487514,25.3849028 C20.2591905,24.802741 20.7367809,24.3331624 21.3288756,24.3232192 L25.6043539,24.3232192 C27.5731095,24.2965969 29.1477878,22.7063167 29.1213637,20.7705883 C29.0952659,18.8714255 27.5359201,17.3382389 25.6043539,17.3125788 C25.3818698,17.3112958 25.159712,17.3315031 24.9411426,17.3725592 L24.9313559,17.3622951 C24.8814438,17.3732007 24.8308792,17.3799364 24.7799884,17.3834647 C24.1856102,17.3792949 23.7008428,16.9135654 23.6829006,16.329479 L23.6789859,16.3249885 C23.6789859,13.1601448 21.086492,10.4459554 17.8992935,10.4459554 C14.8324714,10.4639174 12.3088105,12.8239985 12.1365648,15.8345612 C15.0040647,16.8632076 16.4808761,19.982184 15.4350052,22.8015795 C14.3888082,25.6212958 11.2162898,27.0733327 8.34878987,26.045007 C5.48128996,25.0166814 4.00447857,21.8970636 5.05034941,19.077668 C5.8127325,17.0226205 7.75408539,15.6174133 9.97631626,15.5118864 C10.3035179,11.2115865 14.1141284,7.98612098 18.4874736,8.30783358 C22.27166,8.58624488 25.3267381,11.457602 25.7798618,15.161627 C28.9582522,15.3001912 31.4205832,17.9460608 31.2799811,21.0711314 C31.1449248,24.0685434 28.6558435,26.4424167 25.6043539,26.4837935" id="Fill-24"></path>
            </g>
        </g>
    </g>
</svg>