<svg width="1000" height="1000" viewBox="0 0 1000 1000" fill="none" xmlns="http://www.w3.org/2000/svg">
<path d="M527.113 397.308C527.669 397.308 528.225 397.03 528.781 396.474C529.336 396.752 529.892 397.03 531.004 397.586C529.059 397.863 527.947 397.863 527.113 397.308Z" fill="#33E509"/>
<path d="M284 591.52C355.982 472.013 427.408 352.507 499.39 233C571.372 352.507 643.076 472.013 714.78 591.52H284Z" fill="black"/>
<path d="M540.244 396.974C526.348 396.418 515.231 401.699 508.839 414.205C502.725 425.878 504.114 437.551 512.174 447.834C520.79 458.395 531.907 462.286 545.247 458.673C558.031 455.06 565.535 446.166 568.036 433.104C568.87 428.101 568.314 423.655 566.925 418.652C568.592 418.93 569.148 420.042 569.704 421.153C607.224 473.681 576.096 547.886 512.452 558.169C463.816 565.951 417.958 532.045 411.566 483.408C405.452 435.327 439.358 390.86 487.439 385.024C506.894 382.522 525.236 386.135 542.19 396.14C541.634 397.53 540.8 397.252 540.244 396.974Z" fill="#33E509"/>
<path d="M534.408 330.829C529.406 333.886 525.237 336.665 520.234 339.722C519.956 334.164 519.678 328.883 519.4 323.047C524.681 325.548 529.406 328.049 534.408 330.829Z" fill="#FDFDFD"/>
<path d="M486.605 309.429C488.829 311.652 490.774 313.597 492.997 316.099C490.218 316.932 487.439 317.488 484.382 318.6C484.382 314.987 485.771 312.208 486.605 309.429Z" fill="#FAFAFA"/>
<path d="M376.826 498.694C377.938 497.304 379.605 496.47 380.995 495.359C381.829 497.026 381.551 498.694 381.829 500.917C379.883 500.083 378.494 499.528 376.826 498.694Z" fill="#E8E8E8"/>
<path d="M476.322 352.785C474.377 351.951 472.987 351.117 471.042 350.283C472.709 349.172 474.099 348.06 475.766 347.226C476.322 348.894 476.322 350.561 476.322 352.785Z" fill="#E0E0E0"/>
<path d="M625.567 559.837C627.234 558.725 628.624 557.613 630.014 556.78C630.57 558.725 630.847 560.393 630.57 562.06C628.902 561.782 627.512 560.948 625.567 559.837Z" fill="#EAEAEA"/>
<path d="M760.531 667.115C755.251 654.33 747.191 644.603 736.908 637.655C736.63 637.377 736.63 637.377 736.352 637.377C736.074 637.099 735.518 636.821 735.24 636.543C734.962 636.266 734.407 635.988 734.129 635.988C721.622 628.484 708.282 625.427 694.108 625.427C679.934 625.149 666.594 628.484 654.087 635.988C653.809 636.266 653.253 636.543 652.975 636.543C652.697 636.821 652.142 637.099 651.864 637.377C651.586 637.655 651.586 637.655 651.308 637.655C641.303 644.325 633.243 654.053 627.684 667.115C617.123 691.85 619.069 716.585 635.188 738.819C645.471 752.993 659.645 761.331 676.321 764.666C681.879 765.777 687.438 766.333 693.274 766.333C693.552 766.333 693.552 766.333 693.83 766.333C694.108 766.333 694.108 766.333 694.386 766.333C700.222 766.333 705.781 765.777 711.339 764.666C728.014 761.331 742.188 752.993 752.472 738.819C769.147 716.585 771.092 691.85 760.531 667.115ZM731.627 701.299C729.404 719.642 717.175 732.427 700.222 734.928C676.877 738.263 657.7 722.699 656.866 698.798C656.588 689.349 658.256 680.733 663.536 672.673C670.207 662.112 681.879 656.276 694.942 656.554C719.121 656.832 734.685 677.12 731.627 701.299Z" fill="#33E509"/>
<path d="M621.014 758.829C620.181 757.162 619.069 755.494 617.957 753.827C608.786 739.931 599.614 726.034 590.443 711.86C594.612 709.359 598.781 706.858 602.116 703.245C612.677 692.128 615.178 678.788 613.233 664.058C611.009 648.494 602.116 638.211 587.664 632.93C579.048 629.595 570.155 628.484 560.983 628.206C544.03 627.928 527.077 628.206 510.123 628.206C505.955 628.206 504.565 629.595 504.565 633.764C504.565 675.175 504.565 716.585 504.565 757.718C504.565 761.886 505.955 763.276 510.401 763.276C517.349 763.276 524.297 763.276 530.968 763.276C537.36 763.276 537.916 762.442 537.916 756.05C537.916 745.489 537.916 735.206 537.916 724.645C537.916 719.364 537.916 719.086 543.196 719.086C545.975 719.086 548.755 719.364 551.534 719.086C555.425 718.808 557.926 720.476 559.872 723.811C566.542 734.928 573.212 745.767 580.16 756.606C582.105 759.663 584.329 762.72 588.22 762.72C598.225 762.998 608.508 762.998 618.513 762.72C621.292 763.554 622.126 761.608 621.014 758.829ZM578.214 679.621C576.269 685.736 571.266 688.237 565.708 689.627C557.37 691.294 549.033 690.46 540.417 690.46C538.194 690.46 538.194 688.793 537.916 687.125C537.916 682.956 537.916 678.788 537.916 674.897C537.916 671.006 537.916 666.559 537.916 662.668C537.916 661.001 538.471 659.611 540.417 659.611C549.033 659.889 557.926 658.777 566.542 660.723C576.547 662.39 580.994 669.894 578.214 679.621Z" fill="#33E509"/>
<path d="M374.775 758.273C374.497 757.44 373.941 756.606 373.663 755.772C353.931 716.029 334.198 676.564 314.466 636.821C313.076 634.042 311.686 630.985 309.463 628.484C305.85 624.315 301.403 624.315 297.79 628.484C295.567 630.985 294.177 634.042 292.788 637.099C278.892 664.892 265.273 692.406 251.377 720.198C245.263 732.427 239.149 744.655 233.034 757.162C230.811 761.609 232.201 763.554 236.925 763.554C244.707 763.554 252.489 763.554 260.271 763.554C263.884 763.554 266.663 762.164 268.053 758.551C270.276 753.271 272.777 748.268 275.001 742.988C276.112 740.486 277.502 739.653 280.003 739.653C295.289 739.653 310.853 739.653 326.138 739.653C328.64 739.653 330.029 740.764 330.863 742.988C333.087 748.268 335.866 753.271 338.089 758.551C339.479 761.887 341.98 763.276 345.593 763.276C349.762 763.276 353.931 763.276 357.822 763.276C362.268 763.276 366.437 763.276 370.884 763.276C374.775 763.554 375.887 761.886 374.775 758.273ZM313.076 712.416C306.128 712.416 299.18 712.416 292.232 712.416C290.009 712.416 289.175 711.582 290.286 709.359C294.455 700.744 298.346 692.128 302.793 682.956C306.962 692.128 311.131 700.744 315.299 709.359C316.411 711.582 315.577 712.416 313.076 712.416Z" fill="#33E509"/>
<path d="M492.654 670.714C491.25 651.419 480.859 637.997 462.324 631.845C453.337 628.769 444.069 627.93 434.521 627.65C419.075 627.65 403.909 627.65 388.463 627.65C382.847 627.65 381.723 628.489 381.723 634.641C381.723 655.054 381.723 675.188 381.723 695.601C381.723 716.294 381.723 736.987 381.723 757.68C381.723 762.434 383.127 763.832 387.902 763.832C395.203 763.832 402.505 763.832 409.807 763.832C414.581 763.832 415.705 762.714 415.705 757.96C415.705 752.087 415.705 746.215 415.705 740.622C415.705 736.428 414.967 730.872 415.964 728.886C418.957 727.893 424.691 727.48 428.904 727.48C437.61 727.48 446.316 727.2 454.741 724.963C471.03 721.048 483.948 712.939 490.127 696.44C492.935 688.051 493.216 679.382 492.654 670.714ZM456.988 682.738C454.741 691.127 448.001 693.923 440.418 695.601C433.117 696.999 425.815 696.161 418.232 696.44C415.985 696.44 415.424 694.762 415.424 693.085C415.424 688.051 415.424 682.738 415.424 677.705C415.424 672.671 415.424 667.638 415.424 662.604C415.424 660.647 415.985 659.249 418.232 659.249C426.377 659.249 434.521 658.689 442.665 660.367C454.741 662.325 460.077 671.273 456.988 682.738Z" fill="#33E509"/>
</svg>
