<?xml version="1.0" encoding="UTF-8"?>
<svg width="100px" height="100px" viewBox="0 0 100 100" version="1.1" xmlns="http://www.w3.org/2000/svg" xmlns:xlink="http://www.w3.org/1999/xlink">
    <title>logo</title>
    <defs>
        <rect id="path-1" x="0" y="0" width="100" height="100"></rect>
    </defs>
    <g id="页面-1" stroke="none" stroke-width="1" fill="none" fill-rule="evenodd">
        <g id="logo">
            <mask id="mask-2" fill="white">
                <use xlink:href="#path-1"></use>
            </mask>
            <g id="蒙版"></g>
            <g mask="url(#mask-2)" fill-rule="nonzero">
                <g transform="translate(0, 26)">
                    <rect id="矩形" fill="#ABD0FF" x="12.6795977" y="9.78640777" width="4.20258621" height="16.776699" rx="1.94863506"></rect>
                    <path d="M58.7897896,0 C59.5137856,5.33188398 68.0756685,5.59800856 66.6961139,12.5986501 C66.566443,13.2530035 66.1990421,14.1985284 65.8172332,14.9655933 C65.4642401,15.6731716 64.8555072,17.3638453 63.6236335,16.5686025 C63.443535,16.2461221 63.8325477,15.9768667 63.9730245,15.6543863 C64.4376787,14.5836263 65.0247998,12.4859386 64.5853594,11.224195 C63.9910344,9.53091225 62.5137264,8.51381195 61.0205764,7.56411251 L60.5730233,7.28061593 C60.4242585,7.18638521 60.2762026,7.09221973 60.1297224,6.9975107 L60.2538735,7.07613873 C60.2898432,7.22386737 60.3089081,7.37819566 60.3089081,7.53696789 L60.3089081,26.0164301 C60.3089081,27.0904776 59.4364745,27.961165 58.360273,27.961165 L58.0549569,27.961165 C56.9787555,27.961165 56.1063219,27.0904776 56.1063219,26.0164301 L56.1063219,7.53696789 C56.1063219,7.34983112 56.1328071,7.16886794 56.1822407,6.99760808 L56.1063219,6.9975107 L56.1063219,2.67809677 C56.1063219,1.19902476 57.3077513,0 58.7897896,0 Z" id="形状结合" fill="#ABD0FF"></path>
                    <rect id="矩形备份-4" fill="#ABD0FF" x="41.1637932" y="26.5631068" width="4.20258621" height="21.4368932" rx="1.94863506"></rect>
                    <rect id="矩形备份-8" fill="#ABD0FF" x="83.6566093" y="9.32038835" width="4.20258621" height="16.776699" rx="1.94863506"></rect>
                    <path d="M91.648707,17.6728903 C96.2609992,17.6728903 100,21.4044079 100,26.0074683 C100,30.6105286 96.2609992,34.3420463 91.648707,34.3420463 C87.0364151,34.3420463 83.2974139,30.6105286 83.2974139,26.0074683 C83.2974139,21.4044079 87.0364151,17.6728903 91.648707,17.6728903 Z M91.648707,22.3330844 C89.615331,22.3330844 87.9669541,23.9781621 87.9669541,26.0074683 C87.9669541,28.0367745 89.615331,29.6818521 91.648707,29.6818521 C93.6820831,29.6818521 95.3304598,28.0367745 95.3304598,26.0074683 C95.3304598,23.9781621 93.6820831,22.3330844 91.648707,22.3330844 Z" id="椭圆形备份-4" fill="#3583FB"></path>
                    <path d="M8.35129311,17.6728903 C12.963585,17.6728903 16.7025862,21.4044079 16.7025862,26.0074683 C16.7025862,30.6105286 12.963585,34.3420463 8.35129311,34.3420463 C3.73900129,34.3420463 0,30.6105286 0,26.0074683 C0,21.4044079 3.73900129,17.6728903 8.35129311,17.6728903 Z M8.35129311,22.3330844 C6.31791714,22.3330844 4.66954023,23.9781621 4.66954023,26.0074683 C4.66954023,28.0367745 6.31791714,29.6818521 8.35129311,29.6818521 C10.3846691,29.6818521 12.033046,28.0367745 12.033046,26.0074683 C12.033046,23.9781621 10.3846691,22.3330844 8.35129311,22.3330844 Z" id="椭圆形备份-2" fill="#3583FB"></path>
                    <path d="M49.3354886,18.2285287 C53.9477803,18.2285287 57.6867817,21.9600464 57.6867817,26.5631068 C57.6867817,31.1661672 53.9477803,34.8976848 49.3354886,34.8976848 C44.7231967,34.8976848 40.9841954,31.1661672 40.9841954,26.5631068 C40.9841954,21.9600464 44.7231967,18.2285287 49.3354886,18.2285287 Z M49.3354886,22.8887229 C47.3021126,22.8887229 45.6537357,24.5338006 45.6537357,26.5631068 C45.6537357,28.592413 47.3021126,30.2374907 49.3354886,30.2374907 C51.3688645,30.2374907 53.0172414,28.592413 53.0172414,26.5631068 C53.0172414,24.5338006 51.3688645,22.8887229 49.3354886,22.8887229 Z" id="椭圆形备份-3" fill="#3583FB"></path>
                    <path d="M52.1372127,18.2285287 C56.7495045,18.2285287 60.4885058,21.9600464 60.4885058,26.5631068 C60.4885058,31.1661672 56.7495045,34.8976848 52.1372127,34.8976848 C47.5249208,34.8976848 43.7859196,31.1661672 43.7859196,26.5631068 C43.7859196,21.9600464 47.5249208,18.2285287 52.1372127,18.2285287 Z M52.1372127,22.8887229 C50.1038368,22.8887229 48.4554598,24.5338006 48.4554598,26.5631068 C48.4554598,28.592413 50.1038368,30.2374907 52.1372127,30.2374907 C54.1705887,30.2374907 55.8189656,28.592413 55.8189656,26.5631068 C55.8189656,24.5338006 54.1705887,22.8887229 52.1372127,22.8887229 Z" id="椭圆形备份-5" fill="#ABD0FF"></path>
                    <path d="M34.2313219,18.1209858 C35.4692015,18.1209858 36.4820763,19.0824173 36.5611258,20.2978784 L36.566092,20.4510829 L36.566092,25.729649 C36.566092,30.2386683 32.9034789,33.8939507 28.3854167,33.8939507 C23.9480342,33.8939507 20.3358218,30.3680485 20.2082292,25.9703709 L20.2047414,25.729649 L20.2047414,20.4510829 C20.2047414,19.1642058 21.2500536,18.1209858 22.5395115,18.1209858 C23.7773911,18.1209858 24.7902661,19.0824173 24.8693154,20.2978784 L24.8742816,20.4510829 L24.8742816,25.729649 C24.8742816,27.6649142 26.4462703,29.2337565 28.3854167,29.2337565 C30.26201,29.2337565 31.7947511,27.7644973 31.8916848,25.9157485 L31.8965518,25.729649 L31.8965518,20.4510829 C31.8965518,19.1642058 32.941864,18.1209858 34.2313219,18.1209858 Z" id="路径" fill="#3583FB"></path>
                    <path d="M77.9274426,18.1209858 C79.1653222,18.1209858 80.1781971,19.0824173 80.2572465,20.2978784 L80.2622127,20.4510829 L80.2622127,25.729649 C80.2622127,30.2386683 76.5995996,33.8939507 72.0815374,33.8939507 C67.6441548,33.8939507 64.0319425,30.3680485 63.9043499,25.9703709 L63.9008621,25.729649 L63.9008621,20.4510829 C63.9008621,19.1642058 64.9461743,18.1209858 66.2356322,18.1209858 C67.4735118,18.1209858 68.4863867,19.0824173 68.5654361,20.2978784 L68.5704023,20.4510829 L68.5704023,25.729649 C68.5704023,27.6649142 70.1423911,29.2337565 72.0815374,29.2337565 C73.9581306,29.2337565 75.4908718,27.7644973 75.5878056,25.9157485 L75.5926725,25.729649 L75.5926725,20.4510829 C75.5926725,19.1642058 76.6379846,18.1209858 77.9274426,18.1209858 Z" id="路径备份" fill="#3583FB"></path>
                </g>
            </g>
        </g>
    </g>
</svg>