<svg class="img-fluid" id="outputsvg" xmlns="http://www.w3.org/2000/svg" style="transform: none; transform-origin: 50% 50%; cursor: move; max-height: none; transition: none;" width="460" height="460" viewBox="0 0 4600 4600"><g id="lUHi1CUiCBzbJ9uC9PmiuT" fill="rgb(9,13,31)" style="transform: none;"><g style="transform: none;"><path id="ptYHB6rP1" d="M1567 3454 c-6 -6 2 -36 13 -44 4 -3 33 -45 66 -95 80 -123 77 -120 109 -90 15 13 36 27 47 31 15 5 18 13 16 46 -3 38 -7 44 -53 69 -146 83 -183 98 -198 83z"></path><path id="pqsNZjBEN" d="M1050 2903 c-41 -16 -120 -77 -120 -93 0 -10 20 -46 45 -81 25 -35 48 -72 52 -81 3 -10 9 -18 13 -18 4 0 23 -25 41 -55 18 -30 37 -55 41 -55 4 0 19 11 33 26 14 14 39 30 55 36 26 8 30 15 30 45 0 37 -18 63 -44 63 -9 0 -16 4 -16 9 0 5 -12 14 -27 20 -32 12 -133 68 -147 82 -10 9 37 59 55 59 5 0 9 11 9 25 0 14 -1 25 -2 24 -2 0 -10 -3 -18 -6z"></path></g></g><g id="l1BEmnUypc2vXu9ubV33Jy6" fill="rgb(13,21,46)" style="transform: none;"><g style="transform: none;"><path id="p4xMuR0jA" d="M1565 3450 c-5 -9 50 -50 68 -50 14 0 7 48 -9 54 -24 9 -52 7 -59 -4z"></path><path id="phiWR8jbb" d="M1660 3391 c0 -5 6 -12 13 -15 46 -23 111 -64 114 -72 2 -6 -20 -22 -49 -37 -29 -15 -46 -27 -39 -27 7 0 9 -4 6 -10 -3 -5 -1 -10 4 -10 6 0 11 -6 11 -14 0 -8 4 -16 8 -18 5 -2 34 -42 66 -90 31 -49 64 -88 73 -88 8 0 27 8 41 19 15 10 54 33 87 50 84 44 95 54 95 87 0 20 -7 32 -23 40 -22 10 -93 49 -194 105 -29 16 -59 29 -67 29 -9 0 -16 7 -16 15 0 9 -9 15 -24 15 -13 0 -26 7 -30 15 -6 16 -76 22 -76 6z"></path><path id="p12afXqhEn" d="M980 2772 c0 -7 17 -18 63 -40 4 -2 7 8 7 22 0 23 -4 26 -35 26 -19 0 -35 -4 -35 -8z"></path><path id="pr4QK3JOs" d="M1138 2680 c12 -11 26 -20 32 -20 6 0 19 -7 27 -16 14 -13 14 -17 2 -25 -8 -5 -17 -9 -22 -9 -4 0 -25 -12 -47 -26 l-40 -27 35 -48 c19 -27 35 -51 35 -54 0 -3 9 -15 19 -26 l19 -21 43 28 c24 15 46 30 49 34 3 4 17 10 33 14 15 3 27 11 27 16 0 6 7 10 16 10 12 0 14 9 12 42 -3 39 -6 43 -63 74 -33 19 -75 34 -92 34 -26 0 -33 4 -33 20 0 16 -7 20 -37 20 l-37 0 22 -20z"></path></g></g><g id="l3JCqF7g2bhnibbAzc4JJcl" fill="rgb(17,31,63)" style="transform: none;"><g style="transform: none;"><path id="pYgi1i2Ju" d="M1700 3370 c0 -6 12 -16 28 -23 15 -6 30 -16 34 -22 4 -5 8 5 8 23 0 30 -2 32 -35 32 -19 0 -35 -5 -35 -10z"></path><path id="pShxcmN3W" d="M1800 3312 c0 -5 12 -15 28 -23 15 -7 44 -24 65 -36 l37 -23 0 30 c0 26 -5 31 -30 37 -16 3 -30 9 -30 14 0 5 -16 9 -35 9 -19 0 -35 -4 -35 -8z"></path><path id="pxeolOs2Q" d="M1972 3219 c2 -6 22 -21 45 -33 47 -26 49 -23 -57 -80 -30 -16 -67 -37 -82 -48 -16 -11 -33 -16 -40 -12 -7 5 -5 -3 5 -16 10 -14 20 -33 24 -42 3 -10 8 -18 12 -18 4 0 20 -22 36 -50 17 -27 36 -52 43 -54 17 -7 60 10 99 40 17 13 39 24 47 24 9 0 16 4 16 8 0 4 36 25 80 47 73 37 79 42 80 71 0 23 -6 34 -27 45 -16 8 -30 17 -33 20 -13 16 -132 69 -155 69 -18 0 -25 5 -25 20 0 16 -7 20 -36 20 -22 0 -34 -4 -32 -11z"></path><path id="p1EWBc4MQ" d="M956 2835 c-31 -26 -30 -49 3 -58 17 -4 22 1 27 28 9 50 2 58 -30 30z"></path><path id="pQjlHOxkk" d="M1060 2731 c0 -10 45 -41 60 -41 5 0 10 11 10 25 0 22 -4 25 -35 25 -19 0 -35 -4 -35 -9z"></path><path id="pW4ZguJfF" d="M1320 2581 c0 -5 7 -11 15 -15 17 -6 20 -26 4 -26 -6 0 -17 -7 -25 -15 -9 -8 -24 -15 -35 -15 -10 0 -19 -4 -19 -8 0 -5 -18 -18 -40 -31 -22 -12 -40 -26 -40 -31 0 -8 72 -126 85 -138 6 -6 105 40 105 49 0 4 11 10 25 13 14 4 25 11 25 16 0 6 5 10 10 10 6 0 28 12 50 26 35 23 40 31 40 65 0 28 -4 39 -15 39 -8 0 -15 3 -15 8 0 4 -20 16 -45 27 -25 11 -45 23 -45 27 0 5 -18 8 -40 8 -22 0 -40 -4 -40 -9z"></path></g></g><g id="l25icAWbCLUlRxonrFXSRzF" fill="rgb(20,42,80)" style="transform: none;"><g style="transform: none;"><path id="prWnS0HbT" d="M1746 3341 c20 -18 58 -41 68 -41 3 0 6 11 6 24 0 27 -16 36 -63 36 -31 0 -31 0 -11 -19z"></path><path id="p1GMRfRXmz" d="M2009 3196 c11 -13 85 -56 96 -56 3 0 5 11 5 25 0 18 -5 25 -20 25 -11 0 -20 5 -20 10 0 6 -16 10 -36 10 -31 0 -35 -2 -25 -14z"></path><path id="psQyosfkd" d="M2176 3103 c10 -10 31 -24 46 -32 l27 -14 -77 -40 c-42 -22 -78 -44 -80 -48 -2 -5 -10 -9 -18 -9 -8 0 -33 -13 -56 -30 -22 -16 -47 -30 -54 -30 -23 0 -25 -19 -5 -42 21 -22 29 -54 11 -43 -5 3 -10 -3 -10 -13 0 -34 127 -71 145 -43 3 5 34 24 70 41 36 17 65 36 65 41 0 5 6 9 12 9 16 0 119 51 136 67 7 7 20 13 28 13 10 0 14 12 14 38 0 37 -2 39 -72 75 -40 21 -85 37 -100 37 -21 0 -28 5 -28 20 0 16 -7 20 -37 20 -36 0 -36 0 -17 -17z"></path><path id="pgDukTAq0" d="M975 2846 l-40 -35 38 -1 c40 0 51 12 45 50 -3 20 -5 20 -43 -14z"></path><path id="p9KkP67Oz" d="M1020 2752 c0 -8 52 -42 64 -42 3 0 6 11 6 25 0 22 -4 25 -35 25 -19 0 -35 -4 -35 -8z"></path><path id="p2HrsWr47" d="M1160 2670 c0 -5 7 -10 15 -10 8 0 15 -4 15 -8 0 -8 43 -32 55 -32 13 0 3 49 -11 54 -25 10 -74 7 -74 -4z"></path><path id="p1CwdTwHog" d="M1310 2590 c0 -6 12 -16 28 -23 15 -6 30 -16 34 -22 4 -5 8 5 8 23 0 30 -2 32 -35 32 -19 0 -35 -5 -35 -10z"></path><path id="pr1u1ALQe" d="M1430 2520 c0 -5 7 -10 15 -10 8 0 15 -4 15 -10 0 -5 7 -10 15 -10 8 0 15 -4 15 -9 0 -10 -75 -61 -90 -61 -5 0 -10 -4 -10 -10 0 -5 -11 -12 -25 -16 -14 -3 -25 -10 -25 -14 0 -4 -18 -15 -39 -23 -22 -9 -42 -21 -46 -27 -6 -10 19 -48 65 -102 8 -10 23 -18 33 -18 10 0 71 31 136 70 65 38 130 75 145 81 20 10 26 19 26 45 0 27 -6 35 -42 55 -24 12 -54 28 -68 35 -14 8 -31 14 -37 14 -7 0 -13 5 -13 10 0 6 -16 10 -35 10 -19 0 -35 -4 -35 -10z"></path></g></g><g id="lq32aB6nB9UwSwWEnQCUW1" fill="rgb(22,53,94)" style="transform: none;"><g style="transform: none;"><path id="pqWWdBBZc" d="M1590 3431 c0 -4 28 -23 63 -42 95 -52 97 -52 97 -24 0 20 -5 25 -25 25 -14 0 -25 6 -25 13 0 8 -11 19 -25 25 -30 14 -85 16 -85 3z"></path><path id="p1AbfX7lZv" d="M1770 3332 c0 -8 52 -42 64 -42 3 0 6 11 6 25 0 22 -4 25 -35 25 -19 0 -35 -4 -35 -8z"></path><path id="p2ubd7cVZ" d="M1920 3248 c1 -7 16 -20 35 -29 l35 -16 0 28 c0 26 -3 29 -35 29 -22 0 -35 -5 -35 -12z"></path><path id="pwEQcIMgk" d="M2060 3172 c0 -8 52 -42 64 -42 3 0 6 11 6 25 0 22 -4 25 -35 25 -19 0 -35 -4 -35 -8z"></path><path id="pEz8c5W1U" d="M2200 3092 c0 -7 75 -52 163 -97 38 -20 48 -35 23 -35 -8 0 -21 -6 -28 -13 -17 -16 -120 -67 -136 -67 -6 0 -12 -4 -12 -9 0 -5 -29 -24 -65 -41 -36 -17 -67 -36 -70 -40 -3 -5 -16 -5 -30 0 -22 8 -25 7 -25 -13 0 -30 153 -117 205 -117 19 0 35 4 35 9 0 5 8 11 18 14 24 8 96 50 100 60 2 4 14 7 27 7 12 0 28 7 35 15 7 8 19 15 26 15 8 0 14 4 14 9 0 5 25 19 55 31 53 22 55 24 55 60 0 30 -5 40 -20 45 -11 3 -26 12 -32 19 -18 17 -101 56 -121 56 -9 0 -17 7 -17 15 0 8 -7 15 -16 15 -8 0 -22 7 -30 15 -9 8 -26 15 -40 15 -14 0 -24 6 -24 14 0 8 -7 17 -16 20 -23 9 -74 7 -74 -2z"></path><path id="piFkczJyF" d="M1013 2875 l-28 -24 38 -1 c33 0 37 3 37 25 0 31 -11 32 -47 0z"></path><path id="pZsvPnU7u" d="M1012 2759 c2 -6 21 -20 43 -32 22 -12 42 -25 45 -28 3 -3 13 -8 23 -12 13 -5 17 -1 17 18 0 16 -6 25 -15 25 -8 0 -15 5 -15 10 0 6 -7 10 -15 10 -8 0 -15 5 -15 10 0 6 -16 10 -36 10 -21 0 -34 -4 -32 -11z"></path><path id="pkX2tmTHp" d="M1200 2652 c0 -8 52 -42 64 -42 3 0 6 11 6 25 0 22 -4 25 -35 25 -19 0 -35 -4 -35 -8z"></path><path id="p1AQ535FTN" d="M1290 2602 c0 -7 17 -18 63 -40 4 -2 7 8 7 22 0 23 -4 26 -35 26 -19 0 -35 -4 -35 -8z"></path><path id="pbI13ObO3" d="M1470 2502 c0 -7 17 -18 63 -40 4 -2 7 8 7 22 0 23 -4 26 -35 26 -19 0 -35 -4 -35 -8z"></path><path id="p1GgELtGTK" d="M1560 2451 c0 -5 16 -16 36 -26 l35 -17 -108 -62 c-87 -50 -179 -102 -201 -113 -2 -1 2 -11 8 -24 11 -19 10 -21 -5 -16 -12 5 -16 2 -13 -14 6 -43 163 -102 183 -68 4 5 39 26 78 45 39 19 74 38 77 42 3 4 22 15 42 24 21 10 56 29 78 43 34 21 40 31 40 58 0 30 -5 36 -50 57 -27 13 -50 27 -50 31 0 4 -18 10 -40 14 -25 4 -40 12 -40 21 0 9 -12 14 -35 14 -19 0 -35 -4 -35 -9z"></path></g></g><g id="l4DAZTzDcXXynOmwAfYaMSR" fill="rgb(25,68,114)" style="transform: none;"><g style="transform: none;"><path id="pDes7lowC" d="M1565 3450 c-3 -5 8 -16 24 -25 39 -20 41 -19 41 10 0 21 -5 25 -29 25 -17 0 -32 -4 -36 -10z"></path><path id="pIAh0OoPM" d="M1650 3402 c0 -7 143 -92 155 -92 3 0 5 11 5 25 0 16 -6 25 -15 25 -8 0 -15 5 -15 10 0 6 -13 10 -30 10 -20 0 -30 5 -30 15 0 10 -11 15 -35 15 -19 0 -35 -4 -35 -8z"></path><path id="pUA3GB8zp" d="M1830 3300 c0 -5 17 -19 38 -30 20 -11 44 -24 52 -29 8 -5 22 -12 30 -16 8 -3 26 -12 40 -20 22 -13 25 -13 28 1 6 26 -7 44 -32 44 -13 0 -26 7 -30 15 -3 8 -17 15 -31 15 -16 0 -25 6 -25 15 0 10 -11 15 -35 15 -19 0 -35 -4 -35 -10z"></path><path id="p6y5Fa6ja" d="M2190 3101 c0 -8 120 -81 134 -81 3 0 6 11 6 24 0 24 -16 36 -51 36 -10 0 -19 7 -19 15 0 10 -11 15 -35 15 -19 0 -35 -4 -35 -9z"></path><path id="p1F1X1Eg4V" d="M2350 3012 c0 -8 43 -36 105 -66 22 -11 46 -26 53 -32 6 -7 21 -16 32 -19 32 -10 24 -21 -35 -45 -30 -12 -55 -26 -55 -31 0 -5 -6 -9 -14 -9 -7 0 -19 -7 -26 -15 -7 -8 -23 -15 -36 -15 -13 0 -24 -4 -24 -9 0 -5 -8 -11 -17 -14 -24 -8 -96 -50 -104 -60 -4 -5 -43 12 -87 37 -45 25 -84 46 -87 46 -4 0 -5 -12 -3 -27 2 -20 11 -30 33 -38 17 -5 36 -16 43 -22 7 -7 27 -13 43 -13 17 0 29 -5 29 -13 0 -7 26 -28 57 -46 76 -46 132 -51 193 -18 121 66 188 104 209 119 l23 16 -41 61 c-45 65 -49 76 -26 67 10 -4 15 1 15 14 0 13 -9 22 -25 26 -14 3 -25 9 -25 13 0 12 -48 31 -75 31 -18 0 -25 5 -25 20 0 16 -7 20 -30 20 -20 0 -30 5 -30 15 0 10 -11 15 -35 15 -19 0 -35 -4 -35 -8z"></path><path id="p0AA1zZVr" d="M1038 2892 c-37 -22 -35 -32 7 -32 31 0 35 3 35 25 0 29 -6 30 -42 7z"></path><path id="pbunkkYRe" d="M940 2801 c0 -9 61 -51 74 -51 4 0 6 12 4 28 -3 23 -8 27 -40 30 -21 2 -38 -1 -38 -7z"></path><path id="puKd07Akz" d="M1100 2711 c0 -5 16 -18 35 -30 l35 -20 0 29 c0 28 -3 30 -35 30 -19 0 -35 -4 -35 -9z"></path><path id="p6nYvEG9V" d="M1220 2642 c0 -8 71 -52 84 -52 14 0 5 48 -10 54 -23 9 -74 7 -74 -2z"></path><path id="ptYgKbTIG" d="M1356 2563 c21 -19 78 -53 88 -53 3 0 6 11 6 25 0 18 -5 25 -20 25 -11 0 -20 5 -20 10 0 6 -17 10 -37 10 -36 0 -36 0 -17 -17z"></path><path id="pS3svmvJi" d="M1510 2482 c0 -8 52 -42 64 -42 3 0 6 11 6 25 0 22 -4 25 -35 25 -19 0 -35 -4 -35 -8z"></path><path id="pZv4fQbNu" d="M1625 2410 c10 -11 26 -20 37 -20 10 0 18 -4 18 -8 0 -5 22 -19 50 -32 59 -28 57 -32 -37 -80 -37 -19 -70 -38 -74 -42 -3 -4 -34 -22 -70 -39 -35 -17 -71 -37 -80 -45 -13 -12 -20 -11 -52 6 -47 25 -47 25 -47 -5 0 -20 5 -25 26 -25 14 0 33 -9 42 -19 26 -31 111 -71 150 -71 32 0 159 58 190 87 6 6 46 31 88 55 72 41 75 44 72 77 -2 22 -10 38 -23 45 -11 6 -22 13 -25 16 -13 13 -74 40 -91 40 -10 0 -19 7 -19 15 0 10 -10 15 -30 15 -20 0 -30 5 -30 15 0 8 -9 15 -20 15 -11 0 -20 5 -20 10 0 6 -16 10 -37 10 -35 0 -36 0 -18 -20z"></path></g></g><g id="l6JEZyojLJUxEBoNQDDn6mc" fill="rgb(27,81,130)" style="transform: none;"><g style="transform: none;"><path id="pWVRQO9Wg" d="M1577 3466 c-9 -10 -17 -19 -17 -21 0 -2 18 -12 40 -24 l40 -21 0 30 c0 23 -5 30 -19 30 -11 0 -21 5 -23 11 -3 8 -10 6 -21 -5z"></path><path id="p4rVhjefs" d="M1900 3262 c0 -7 17 -18 63 -40 4 -2 7 8 7 22 0 23 -4 26 -35 26 -19 0 -35 -4 -35 -8z"></path><path id="p38IV3tWQ" d="M1990 3212 c0 -8 71 -52 84 -52 14 0 5 48 -10 54 -23 9 -74 7 -74 -2z"></path><path id="p6ppsTrLC" d="M2102 3149 c3 -9 160 -99 173 -99 3 0 5 11 5 25 0 18 -5 25 -20 25 -11 0 -20 5 -20 10 0 6 -16 10 -35 10 -28 0 -35 4 -35 20 0 16 -7 20 -36 20 -21 0 -34 -4 -32 -11z"></path><path id="pLxmNbMq8" d="M2370 3004 c0 -11 45 -43 61 -44 9 0 22 -6 28 -14 6 -8 21 -16 32 -19 17 -5 20 -1 17 21 -2 20 -9 28 -28 30 -14 2 -29 10 -33 18 -8 13 -77 21 -77 8z"></path><path id="pUICmNpb0" d="M2530 2912 c0 -11 55 -42 74 -42 21 0 21 36 0 44 -23 9 -74 7 -74 -2z"></path><path id="pyW3G4JTb" d="M944 2819 c-16 -17 -16 -22 -4 -29 27 -17 40 -11 40 20 0 35 -10 38 -36 9z"></path><path id="p7vXglDe4" d="M2630 2752 c-24 -18 -105 -64 -213 -120 l-47 -25 -51 27 c-28 14 -53 26 -55 26 -2 0 -4 -11 -4 -25 0 -21 5 -25 30 -25 19 0 30 -5 30 -14 0 -19 171 -106 209 -106 17 0 31 5 31 10 0 6 7 10 15 10 14 0 61 25 75 40 7 7 50 28 83 40 15 5 27 14 27 20 0 10 -41 79 -61 104 -5 6 -17 21 -27 34 -17 23 -18 23 -42 4z"></path><path id="p6RwtQsU3" d="M2170 2685 c0 -22 4 -25 35 -25 43 0 45 14 5 35 -38 20 -40 19 -40 -10z"></path><path id="pGLomFOFs" d="M1144 2681 c10 -10 26 -21 37 -24 15 -4 19 0 19 19 0 21 -5 24 -37 24 -35 0 -36 -1 -19 -19z"></path><path id="pY21MAEDe" d="M1370 2561 c0 -5 16 -18 35 -30 l35 -20 0 29 c0 28 -3 30 -35 30 -19 0 -35 -4 -35 -9z"></path><path id="pFTEoz9CI" d="M1500 2491 c0 -8 81 -61 94 -61 3 0 6 11 6 25 0 16 -6 25 -15 25 -8 0 -15 5 -15 10 0 6 -16 10 -35 10 -19 0 -35 -4 -35 -9z"></path><path id="p15sfeiKeW" d="M1693 2375 c36 -32 47 -31 47 0 0 22 -4 25 -37 25 l-38 -1 28 -24z"></path><path id="pj7aenbaX" d="M1780 2332 c0 -5 17 -17 38 -28 20 -10 39 -22 40 -26 2 -5 9 -8 17 -8 7 0 17 -6 23 -13 9 -11 -5 -23 -63 -56 -41 -23 -81 -48 -87 -54 -27 -25 -159 -89 -173 -83 -11 4 -15 -2 -15 -19 0 -21 11 -30 62 -55 96 -47 120 -41 298 64 25 15 57 31 72 37 39 15 40 32 8 76 -30 39 -38 63 -20 63 6 0 10 6 10 14 0 15 -52 46 -77 46 -7 0 -13 5 -13 10 0 6 -5 10 -11 10 -6 0 -17 7 -25 15 -16 16 -84 21 -84 7z"></path><path id="phMgNgAU8" d="M1410 2126 c0 -13 7 -27 16 -30 22 -9 74 -7 74 2 0 9 -32 29 -66 42 -21 8 -24 7 -24 -14z"></path></g></g><g id="laXbcyo67PAo4frEAxoDWr" fill="rgb(28,98,148)" style="transform: none;"><g style="transform: none;"><path id="pS86sdMgo" d="M1782 3328 c4 -11 134 -87 151 -88 4 0 7 11 7 25 0 21 -5 25 -30 25 -20 0 -30 5 -30 15 0 8 -7 15 -15 15 -8 0 -15 5 -15 10 0 6 -16 10 -36 10 -23 0 -34 -4 -32 -12z"></path><path id="puACp1AxI" d="M1960 3232 c0 -8 52 -42 64 -42 3 0 6 11 6 25 0 22 -4 25 -35 25 -19 0 -35 -4 -35 -8z"></path><path id="ph7eYZrtD" d="M2052 3179 c3 -10 135 -88 151 -89 4 0 7 11 7 25 0 20 -6 27 -30 32 -16 3 -30 9 -30 14 0 5 -7 9 -15 9 -8 0 -15 5 -15 10 0 6 -16 10 -36 10 -21 0 -34 -4 -32 -11z"></path><path id="pN2vLBa33" d="M2320 3030 c0 -8 51 -40 65 -40 3 0 5 11 5 25 0 22 -4 25 -35 25 -19 0 -35 -4 -35 -10z"></path><path id="pi4GQBNP5" d="M2480 2942 c0 -8 52 -42 64 -42 3 0 6 11 6 25 0 22 -4 25 -35 25 -19 0 -35 -4 -35 -8z"></path><path id="pNZzQBiK7" d="M1950 2806 c0 -19 5 -26 20 -26 11 0 20 -3 20 -7 0 -13 60 -43 85 -43 14 0 25 -7 28 -20 3 -12 14 -20 26 -20 12 0 21 -4 21 -9 0 -11 80 -51 103 -51 9 0 17 -7 17 -15 0 -9 12 -18 30 -21 17 -4 30 -10 30 -15 0 -5 16 -9 35 -9 19 0 35 4 35 8 0 8 -54 40 -190 115 -30 17 -73 40 -95 53 -90 52 -135 74 -135 68 0 -4 -7 -1 -15 6 -13 11 -15 8 -15 -14z"></path><path id="pLe0BxJtf" d="M1080 2722 c0 -7 17 -18 63 -40 4 -2 7 8 7 22 0 23 -4 26 -35 26 -19 0 -35 -4 -35 -8z"></path><path id="p18PdXW6bf" d="M1170 2672 c0 -5 48 -35 107 -68 60 -32 116 -63 125 -69 41 -24 99 -55 103 -55 3 0 5 11 5 25 0 18 -5 25 -20 25 -11 0 -20 5 -20 10 0 6 -11 10 -25 10 -16 0 -25 6 -25 15 0 10 -11 15 -35 15 -28 0 -35 4 -35 20 0 13 -9 22 -25 26 -14 3 -25 10 -25 15 0 5 -13 9 -30 9 -20 0 -30 5 -30 15 0 10 -11 15 -35 15 -19 0 -35 -4 -35 -8z"></path><path id="pqRztKNgF" d="M2720 2630 c-8 -5 -33 -17 -55 -27 -22 -9 -42 -20 -45 -23 -12 -14 -61 -40 -75 -40 -8 0 -15 -5 -15 -10 0 -6 -18 -1 -40 10 -49 25 -50 25 -50 -5 0 -18 5 -25 20 -25 11 0 20 -4 20 -9 0 -5 12 -14 28 -20 15 -7 56 -27 92 -46 36 -19 79 -34 95 -35 35 0 164 60 165 77 0 6 -3 13 -7 15 -5 2 -30 36 -57 76 -50 75 -52 76 -76 62z"></path><path id="pN063f7Qf" d="M1550 2462 c0 -8 19 -21 93 -61 29 -16 77 -43 109 -60 31 -17 59 -31 62 -31 3 0 6 11 6 25 0 20 -6 27 -30 32 -16 3 -30 9 -30 14 0 5 -16 9 -35 9 -28 0 -35 4 -35 19 0 11 -9 23 -22 27 -12 3 -28 13 -36 20 -14 15 -82 20 -82 6z"></path><path id="pQRm40PrR" d="M1862 2289 c5 -15 105 -69 113 -61 3 4 11 0 16 -8 7 -11 9 -7 7 15 -2 24 -9 31 -35 39 -18 5 -33 13 -33 17 0 5 -16 9 -36 9 -21 0 -34 -4 -32 -11z"></path><path id="puANBLQsN" d="M1350 2155 c0 -20 5 -25 25 -25 16 0 25 -6 25 -15 0 -10 10 -15 30 -15 20 0 30 -5 30 -15 0 -8 7 -15 16 -15 8 0 22 -7 30 -15 16 -16 84 -21 84 -6 0 4 -42 30 -92 56 -51 26 -102 54 -113 61 -28 20 -35 17 -35 -11z"></path><path id="pfAYVPMqx" d="M1990 2141 c0 -5 -12 -14 -27 -20 -16 -6 -48 -22 -73 -37 -142 -84 -171 -97 -199 -83 -14 7 -29 15 -33 17 -5 2 -8 -8 -8 -22 0 -20 9 -30 43 -46 23 -11 65 -34 92 -50 69 -41 111 -39 181 5 30 19 58 35 62 35 4 0 26 13 49 29 l42 28 -50 69 c-27 38 -49 72 -49 76 0 5 -7 8 -15 8 -8 0 -15 -4 -15 -9z"></path></g></g><g id="l5VRH02RA2LgtApNJbKP3f5" fill="rgb(31,119,172)" style="transform: none;"><g style="transform: none;"><path id="p12Mug9I6A" d="M1980 3222 c0 -8 86 -62 100 -62 6 0 10 11 10 25 0 18 -5 25 -20 25 -11 0 -20 5 -20 10 0 6 -16 10 -35 10 -19 0 -35 -3 -35 -8z"></path><path id="pGerz18Td" d="M2390 2992 c0 -5 12 -15 28 -22 15 -8 52 -29 83 -47 31 -18 59 -33 63 -33 3 0 6 11 6 25 0 20 -5 25 -25 25 -16 0 -25 6 -25 15 0 10 -10 15 -30 15 -20 0 -30 5 -30 15 0 10 -11 15 -35 15 -19 0 -35 -4 -35 -8z"></path><path id="pY31dZGlK" d="M1970 2790 c0 -16 7 -20 35 -20 39 0 43 6 18 26 -27 20 -53 17 -53 -6z"></path><path id="pLWRwiQxC" d="M1120 2702 c0 -8 71 -52 84 -52 14 0 5 48 -10 54 -23 9 -74 7 -74 -2z"></path><path id="p1xgkvOLf" d="M2765 2465 c-36 -19 -72 -32 -80 -28 -11 3 -15 -2 -15 -18 0 -19 15 -32 66 -63 78 -45 125 -54 177 -33 32 14 51 37 30 37 -5 0 -26 29 -47 65 -22 35 -45 67 -52 69 -7 3 -42 -11 -79 -29z"></path><path id="p3v7vXUu4" d="M1720 2371 c0 -5 30 -26 68 -47 37 -21 83 -46 102 -57 19 -11 45 -23 57 -28 20 -7 23 -5 23 16 0 20 -6 27 -30 32 -16 3 -30 9 -30 14 0 5 -16 9 -35 9 -28 0 -35 4 -35 20 0 15 -7 20 -25 20 -16 0 -25 6 -25 15 0 10 -11 15 -35 15 -19 0 -35 -4 -35 -9z"></path><path id="perbySlmU" d="M1310 2175 c0 -22 4 -25 36 -25 44 0 42 18 -4 37 -31 13 -32 12 -32 -12z"></path><path id="p10e0wGbeM" d="M1550 2045 c0 -22 4 -25 35 -25 43 0 44 10 6 33 -38 22 -41 22 -41 -8z"></path><path id="pnnxyKE3N" d="M2049 2000 c-24 -16 -47 -30 -51 -30 -4 0 -33 -16 -64 -36 -62 -40 -75 -39 -153 14 -20 14 -51 31 -68 39 -32 13 -33 12 -33 -10 0 -26 34 -47 75 -47 18 0 25 -5 25 -20 0 -16 7 -20 30 -20 17 0 30 -5 30 -12 0 -7 19 -22 43 -33 23 -10 54 -27 69 -37 14 -10 38 -18 52 -18 26 0 186 86 186 99 0 4 -8 16 -18 27 -10 11 -31 41 -46 67 -15 26 -29 47 -30 47 -2 0 -23 -13 -47 -30z"></path></g></g><g id="l3l0AV8z7cKY8rMTyrBYQ7K" fill="rgb(44,106,178)" style="transform: none;"><g style="transform: none;"><path id="p1H6R8JLVp" d="M1898 3643 c-16 -2 -28 -9 -28 -14 0 -5 -12 -9 -27 -9 -16 0 -48 -11 -72 -25 -23 -14 -49 -25 -57 -25 -8 0 -14 -4 -14 -9 0 -5 -8 -12 -17 -15 -10 -3 -30 -16 -45 -28 -14 -13 -36 -30 -47 -38 -27 -18 -28 -50 -2 -50 11 0 21 -4 23 -8 2 -5 37 -27 79 -49 95 -51 123 -67 129 -73 4 -4 29 -17 93 -48 4 -2 7 8 7 22 0 22 -4 26 -30 26 -20 0 -30 5 -30 15 0 8 -9 15 -20 15 -11 0 -20 6 -20 14 0 8 -5 16 -11 18 -12 4 9 39 95 158 14 19 31 47 37 63 6 15 15 27 20 27 5 0 9 9 9 20 0 21 -10 22 -72 13z"></path><path id="pmSjZ12DX" d="M2242 2642 c2 -22 8 -28 36 -30 20 -2 32 -9 32 -18 0 -9 11 -14 35 -14 28 0 35 -4 35 -20 0 -16 7 -20 36 -20 52 0 39 17 -42 59 -39 20 -77 41 -85 47 -8 6 -22 14 -32 17 -15 6 -18 2 -15 -21z"></path><path id="p04CvrYXH" d="M2570 2465 c0 -21 5 -25 30 -25 19 0 30 -5 30 -14 0 -8 10 -18 22 -22 12 -3 28 -13 36 -20 14 -15 82 -20 82 -6 0 8 -19 21 -98 63 -92 51 -102 53 -102 24z"></path><path id="pZPNITctQ" d="M675 2372 c-100 -17 -285 -89 -285 -112 0 -5 -8 -11 -17 -15 -10 -3 -35 -20 -56 -39 l-39 -32 64 -33 c34 -17 91 -48 126 -67 47 -26 62 -31 62 -19 0 8 4 15 8 15 5 0 15 12 23 28 7 15 42 74 77 130 65 107 76 151 37 144z"></path></g></g><g id="l3U5E785PLFQwFeOPZxwlOJ" fill="rgb(64,108,179)" style="transform: none;"><g style="transform: none;"><path id="p5A8o9P5K" d="M2160 3122 c0 -10 228 -142 245 -142 3 0 5 11 5 25 0 16 -6 25 -15 25 -9 0 -25 9 -37 20 -12 11 -30 20 -40 20 -10 0 -18 5 -18 10 0 6 -16 10 -35 10 -28 0 -35 4 -35 20 0 16 -7 20 -35 20 -19 0 -35 -4 -35 -8z"></path><path id="pi4hBN7mr" d="M3487 2890 c-15 -32 -45 -96 -66 -142 -71 -154 -111 -245 -111 -254 0 -10 107 -74 162 -97 l36 -15 13 31 c12 32 34 79 144 310 31 65 54 121 51 125 -2 4 -32 21 -65 37 -34 17 -61 33 -61 38 0 4 -9 7 -20 7 -11 0 -20 5 -20 10 0 6 -8 10 -18 10 -12 0 -27 -19 -45 -60z"></path><path id="pJIbFnQSa" d="M998 2863 c-40 -32 -68 -59 -68 -66 0 -3 12 -10 28 -16 15 -7 50 -25 77 -41 62 -36 65 -36 65 -5 0 18 -5 25 -20 25 -11 0 -20 5 -20 10 0 6 -7 10 -15 10 -8 0 -15 5 -15 10 0 6 -7 10 -15 10 -8 0 -15 9 -15 20 0 15 7 20 25 20 20 0 25 5 25 25 0 32 -9 31 -52 -2z"></path><path id="phRa7z0Yd" d="M2223 2568 c-81 -162 -173 -359 -173 -372 0 -7 33 -30 73 -51 39 -21 74 -41 77 -45 3 -4 15 -10 27 -14 20 -6 27 4 79 111 31 65 78 162 104 217 26 55 50 93 54 87 4 -6 18 -11 31 -11 12 0 25 -7 29 -15 3 -9 18 -15 36 -15 20 0 30 -5 30 -15 0 -10 11 -15 35 -15 28 0 35 -4 35 -20 0 -16 7 -20 35 -20 61 0 53 8 -98 90 -60 32 -326 170 -329 170 -2 0 -23 -37 -45 -82z"></path><path id="pzfUQYXbb" d="M2244 1678 c-10 -14 -32 -62 -54 -113 -22 -55 -38 -89 -68 -155 -42 -92 -82 -188 -82 -198 0 -5 15 -15 33 -23 17 -7 34 -15 37 -18 3 -3 33 -21 68 -39 l62 -32 26 57 c14 32 34 76 44 98 10 22 33 74 50 115 18 41 43 98 56 127 30 64 30 81 2 92 -26 10 -60 45 -77 79 -9 17 -20 22 -50 22 -21 0 -43 -6 -47 -12z"></path></g></g><g id="l6vW08Q5yvYmYStzLzrkcRr" fill="rgb(56,124,184)" style="transform: none;"><g style="transform: none;"><path id="p16q9jtNjY" d="M1985 3655 c-5 -2 -22 -6 -37 -9 -16 -4 -30 -16 -37 -33 -6 -16 -23 -44 -37 -63 -14 -19 -32 -44 -40 -55 -37 -52 -84 -131 -84 -142 0 -8 8 -17 18 -20 9 -4 19 -9 22 -13 3 -3 34 -21 69 -39 61 -32 65 -33 78 -16 7 11 13 22 13 27 0 7 50 78 81 116 6 7 16 23 23 35 20 38 71 112 79 115 4 2 7 10 7 17 0 7 4 15 9 17 5 2 12 15 16 29 5 22 2 27 -17 33 -24 6 -145 7 -163 1z"></path><path id="pA22DQWuw" d="M2360 3012 c0 -8 52 -42 64 -42 3 0 6 11 6 25 0 22 -4 25 -35 25 -19 0 -35 -4 -35 -8z"></path><path id="p5ikWBJoE" d="M3405 2922 c-20 -42 -49 -104 -65 -137 -108 -227 -122 -265 -99 -265 6 0 23 -9 38 -19 53 -38 58 -34 107 74 58 128 63 141 118 258 25 53 46 100 45 105 0 4 -25 19 -54 34 l-55 28 -35 -78z"></path><path id="p15cg7Hj9R" d="M1064 2904 c-17 -8 -46 -28 -65 -44 l-34 -29 38 -1 c30 0 37 3 37 20 0 16 7 20 30 20 25 0 30 4 30 25 0 14 -1 25 -2 25 -2 0 -17 -7 -34 -16z"></path><path id="p124aRXFNd" d="M1020 2761 c0 -8 81 -61 94 -61 3 0 6 11 6 25 0 16 -6 25 -15 25 -8 0 -15 5 -15 10 0 6 -16 10 -35 10 -19 0 -35 -4 -35 -9z"></path><path id="pzPl8VHvA" d="M2160 2653 c-11 -25 -20 -49 -20 -53 0 -5 -4 -10 -8 -12 -8 -3 -31 -50 -73 -148 -13 -30 -38 -83 -56 -118 -18 -35 -33 -68 -33 -73 0 -15 20 -32 66 -56 l40 -21 54 112 c29 61 80 165 112 230 32 65 57 120 56 121 -2 1 -17 11 -34 23 -17 12 -43 26 -57 31 -25 10 -28 8 -47 -36z"></path><path id="p1isBYs3W" d="M700 2379 c-23 -8 -123 -158 -169 -251 -7 -15 -17 -28 -21 -28 -4 0 -10 -9 -13 -20 -4 -17 9 -28 79 -66 47 -25 87 -45 88 -43 7 8 54 86 78 129 14 25 53 90 87 146 33 55 61 108 61 116 0 9 -10 18 -22 22 -34 9 -139 6 -168 -5z"></path><path id="pUiw9roaq" d="M2810 2335 c0 -22 4 -25 35 -25 29 0 35 4 35 21 0 12 -5 19 -12 16 -7 -2 -23 0 -35 4 -20 7 -23 5 -23 -16z"></path><path id="pfKbYl5QC" d="M2900 2299 c0 -38 23 -58 68 -59 25 0 32 4 32 20 0 31 -40 70 -72 70 -25 0 -28 -4 -28 -31z"></path><path id="p3jVCAaNZ" d="M2151 1693 c-8 -21 -17 -40 -20 -43 -4 -3 -17 -30 -30 -60 -34 -81 -50 -118 -82 -187 -16 -34 -29 -68 -29 -77 0 -8 -4 -16 -9 -18 -5 -1 -12 -14 -16 -28 -5 -21 1 -29 37 -52 24 -14 49 -28 56 -30 8 -2 25 25 43 67 17 39 42 95 56 125 27 59 45 100 61 140 34 86 59 125 80 123 17 -2 22 3 22 20 0 27 -61 57 -118 57 -35 0 -39 -3 -51 -37z"></path></g></g><g id="l3LBxTlsC8kt2Zz8e4AcInR" fill="rgb(61,131,172)" style="transform: none;"><g style="transform: none;"><path id="pPKvdqqlV" d="M2130 3635 c0 -8 -4 -15 -10 -15 -5 0 -10 -6 -10 -14 0 -8 -3 -16 -7 -18 -8 -3 -59 -77 -79 -115 -7 -12 -17 -28 -23 -35 -25 -29 -76 -105 -93 -137 -17 -32 -17 -35 0 -47 9 -7 20 -12 23 -11 10 3 68 82 122 165 26 39 67 103 92 141 54 82 57 101 15 101 -20 0 -30 -5 -30 -15z"></path><path id="pPfhRnYGI" d="M2000 3212 c0 -5 12 -15 28 -23 15 -8 29 -16 32 -19 8 -8 67 -40 74 -40 3 0 6 11 6 25 0 22 -4 25 -35 25 -28 0 -35 4 -35 20 0 16 -7 20 -35 20 -19 0 -35 -4 -35 -8z"></path><path id="p1CxNOpQ1K" d="M3353 3024 c-7 -7 -13 -17 -13 -22 0 -5 -19 -47 -41 -93 -23 -46 -55 -113 -71 -149 -16 -36 -40 -87 -54 -114 -13 -28 -24 -55 -24 -62 0 -12 83 -64 102 -64 5 0 27 39 49 88 22 48 53 114 69 147 61 127 100 215 100 223 0 7 -62 43 -100 58 -3 1 -11 -4 -17 -12z"></path><path id="pEx9uJ410" d="M2540 2910 c0 -8 51 -40 65 -40 3 0 5 11 5 25 0 22 -4 25 -35 25 -19 0 -35 -4 -35 -10z"></path><path id="pBUz5gAFM" d="M2071 2723 c1 -29 -20 -82 -85 -216 -47 -98 -86 -183 -86 -188 0 -5 -4 -9 -10 -9 -5 0 -10 5 -10 10 0 6 -16 10 -35 10 -19 0 -35 -5 -35 -10 0 -6 39 -29 88 -53 48 -23 89 -46 90 -50 4 -8 64 106 102 195 41 97 64 143 72 146 4 2 8 8 8 13 0 5 11 31 24 59 l24 49 -27 18 c-32 21 -108 63 -115 63 -3 0 -5 -17 -5 -37z"></path><path id="puXAhvdgj" d="M1110 2712 c0 -5 27 -25 60 -45 l60 -35 0 29 c0 24 -4 29 -25 29 -16 0 -25 6 -25 15 0 10 -11 15 -35 15 -19 0 -35 -4 -35 -8z"></path><path id="p1GmKG7gok" d="M1300 2602 c0 -8 71 -52 84 -52 14 0 5 48 -10 54 -23 9 -74 7 -74 -2z"></path><path id="p15y3tMtCN" d="M800 2278 c-35 -57 -71 -119 -82 -138 -11 -19 -36 -61 -55 -93 -19 -32 -34 -60 -32 -61 2 -2 14 -8 26 -15 25 -13 18 -21 97 111 25 42 46 81 46 87 0 6 5 11 10 11 6 0 10 4 10 10 0 5 20 41 45 80 49 76 54 94 29 104 -28 11 -31 7 -94 -96z"></path><path id="piX7GwHXD" d="M2890 2358 c-19 -10 -41 -16 -47 -13 -27 10 -13 -41 16 -58 32 -19 91 -23 91 -6 0 5 4 8 9 4 19 -11 21 15 4 42 -30 48 -35 50 -73 31z"></path><path id="p56DK9Aon" d="M1330 2166 c0 -23 4 -26 35 -26 53 0 46 13 -27 48 -5 2 -8 -8 -8 -22z"></path><path id="pEQBPFto6" d="M1420 2116 c0 -13 7 -27 16 -30 22 -9 74 -7 74 2 0 9 -32 29 -66 42 -21 8 -24 7 -24 -14z"></path><path id="plI7skJV1" d="M1530 2055 c0 -22 4 -25 35 -25 43 0 44 10 6 33 -38 22 -41 22 -41 -8z"></path><path id="pyhK4z1lI" d="M1640 1995 c0 -22 4 -25 35 -25 43 0 44 10 6 33 -38 22 -41 22 -41 -8z"></path><path id="p1C7z0FBeX" d="M2080 1866 c-42 -24 -79 -40 -85 -36 -13 10 -95 54 -118 63 -13 5 -17 1 -17 -18 0 -21 5 -25 30 -25 20 0 30 -5 30 -15 0 -8 7 -15 15 -15 8 0 15 -4 15 -9 0 -11 80 -51 103 -51 19 0 21 -12 8 -38 -9 -15 -37 -76 -83 -182 -42 -93 -62 -138 -79 -174 -24 -50 -24 -75 -1 -83 9 -4 19 -10 22 -13 3 -4 20 -12 38 -18 31 -10 34 -10 39 8 3 11 9 20 14 20 5 0 9 7 9 16 0 8 13 43 29 77 32 69 48 106 82 187 13 30 26 57 30 60 3 3 12 22 20 43 14 41 16 41 53 27 23 -8 26 -7 26 13 0 16 -13 30 -50 50 -28 16 -50 30 -50 32 0 2 16 12 35 21 l35 16 -25 42 c-13 22 -30 42 -37 44 -7 1 -47 -17 -88 -42z"></path></g></g><g id="l1nj2h4v179TXxBfEyr6RV6" fill="rgb(60,143,169)" style="transform: none;"><g style="transform: none;"><path id="pFF7GG0H1" d="M3251 3036 c-13 -28 -41 -89 -63 -136 -87 -185 -118 -257 -118 -274 0 -9 88 -66 103 -66 5 0 35 60 85 170 16 36 48 103 71 149 22 46 41 90 41 98 0 7 4 13 9 13 5 0 11 9 14 20 3 11 1 20 -4 20 -5 0 -26 10 -47 23 -64 40 -66 40 -91 -17z"></path><path id="pOp4y4aRG" d="M2492 2939 c2 -6 24 -22 48 -35 l45 -24 3 22 c2 13 -4 27 -14 35 -22 16 -87 18 -82 2z"></path><path id="p12rGnBmEs" d="M1984 2771 c4 -29 2 -44 -9 -55 -8 -8 -15 -21 -15 -28 0 -8 -7 -23 -15 -34 -8 -10 -15 -27 -15 -36 0 -10 -4 -18 -10 -18 -5 0 -10 -4 -10 -10 0 -10 -69 -161 -102 -223 -11 -21 -18 -40 -16 -42 2 -2 28 -17 59 -33 44 -23 57 -26 67 -16 7 7 12 15 12 18 0 2 34 75 75 160 105 218 127 268 118 277 -14 14 -127 79 -136 79 -5 0 -7 -17 -3 -39z"></path><path id="pUAKShPXY" d="M1180 2673 c1 -11 44 -41 74 -53 24 -9 26 -7 26 15 0 16 -6 25 -15 25 -8 0 -15 5 -15 10 0 6 -16 10 -35 10 -19 0 -35 -3 -35 -7z"></path><path id="pfAeHPvXg" d="M1390 2552 c0 -4 25 -22 55 -39 l55 -32 0 28 c0 20 -7 31 -25 39 -29 14 -85 16 -85 4z"></path><path id="pN2rZXLUL" d="M1650 2411 c0 -9 61 -51 74 -51 4 0 6 12 4 28 -3 23 -8 27 -40 30 -21 2 -38 -1 -38 -7z"></path><path id="p12Ii0RKxe" d="M1340 2155 c0 -20 5 -25 25 -25 16 0 25 -6 25 -15 0 -10 11 -15 35 -15 19 0 35 4 35 10 0 9 -97 70 -112 70 -5 0 -8 -11 -8 -25z"></path><path id="pta2PZvqM" d="M1470 2087 c0 -25 33 -47 70 -47 11 0 20 -6 20 -14 0 -8 7 -17 16 -20 24 -9 74 -7 74 3 0 8 -160 101 -174 101 -3 0 -6 -11 -6 -23z"></path><path id="pqZzkFamm" d="M1670 1975 c0 -20 6 -27 30 -31 17 -4 30 -10 30 -15 0 -5 16 -9 35 -9 28 0 35 -4 35 -19 0 -21 19 -31 61 -31 21 0 29 -5 29 -18 0 -10 16 -26 38 -37 57 -30 57 -28 19 -103 -9 -19 -17 -40 -17 -48 0 -8 -3 -14 -7 -14 -5 0 -17 -21 -27 -48 -20 -49 -54 -128 -87 -199 -10 -24 -19 -47 -19 -52 0 -5 20 -18 44 -30 25 -11 47 -25 51 -31 11 -17 20 -11 34 23 8 17 30 66 48 107 19 41 38 84 43 95 5 11 22 49 38 85 16 36 38 84 48 108 14 32 23 42 36 39 13 -4 18 1 18 15 0 31 -29 48 -57 35 -23 -10 -68 6 -113 39 -8 6 -53 32 -100 57 -47 24 -110 59 -140 76 -67 37 -70 38 -70 6z"></path></g></g><g id="l6JlwTG8mU3uTKim0KYIN7X" fill="rgb(89,108,177)" style="transform: none;"><g style="transform: none;"><path id="p14ot3MqPu" d="M3634 2752 c-28 -59 -66 -138 -84 -177 -19 -38 -43 -94 -56 -122 l-22 -52 34 -20 c26 -16 137 -45 140 -38 0 1 30 69 67 150 37 81 67 152 67 157 0 6 5 10 10 10 6 0 10 7 10 15 0 8 10 33 22 56 l21 41 -24 19 c-13 10 -27 19 -32 19 -4 0 -25 11 -47 25 -22 14 -43 25 -47 25 -5 0 -31 -48 -59 -108z"></path><path id="p12bXRdhAL" d="M986 2772 c10 -10 27 -21 37 -25 13 -5 17 -1 17 18 0 22 -4 25 -37 25 -36 0 -36 0 -17 -18z"></path><path id="pmOffWJbI" d="M2365 2413 c-38 -81 -89 -186 -112 -233 l-42 -85 25 -9 c13 -6 24 -13 24 -18 0 -4 5 -8 10 -8 6 0 28 -11 50 -25 22 -14 44 -25 50 -25 6 0 24 30 41 68 16 37 34 74 38 83 5 8 21 40 36 70 15 30 38 75 51 101 13 27 24 54 24 60 0 7 7 21 15 32 13 17 15 17 30 2 9 -9 32 -16 51 -16 27 0 34 -4 34 -20 0 -15 9 -22 30 -26 17 -4 30 -10 30 -15 0 -5 7 -9 15 -9 8 0 15 -4 15 -10 0 -5 14 -10 30 -10 20 0 30 -5 30 -15 0 -10 11 -15 35 -15 19 0 35 4 35 8 0 8 -166 101 -375 212 -33 18 -64 36 -69 41 -6 5 -15 9 -20 9 -6 0 -42 -66 -81 -147z"></path><path id="pKuG2EHOx" d="M2961 2283 c10 -11 10 -14 2 -9 -9 5 -13 -1 -13 -18 0 -23 4 -26 35 -26 39 0 40 2 24 33 -14 25 -28 37 -48 37 -11 0 -11 -3 0 -17z"></path><path id="p8kv9iFhD" d="M2395 1548 c-10 -24 -38 -88 -62 -143 -24 -55 -50 -113 -57 -130 -33 -69 -66 -146 -66 -155 0 -7 146 -60 166 -60 3 0 14 21 26 47 11 27 37 84 58 128 20 44 41 91 45 104 4 14 18 44 30 68 13 24 26 56 30 72 5 25 2 30 -32 46 -21 10 -54 29 -73 42 -19 12 -37 23 -40 23 -4 0 -15 -19 -25 -42z"></path></g></g><g id="l2W0lPuk2dT32NoPhL9EJ5F" fill="rgb(59,155,166)" style="transform: none;"><g style="transform: none;"><path id="p13EC3TJl9" d="M3168 3082 c-65 -136 -98 -209 -98 -220 0 -5 -3 -12 -8 -14 -9 -4 -86 -177 -81 -182 2 -2 29 -18 60 -35 l56 -31 18 42 c27 63 63 143 100 223 70 148 96 207 93 209 -5 2 -49 27 -83 47 l-30 18 -27 -57z"></path><path id="p1Hsxhmq0y" d="M1904 2798 c-22 -43 -103 -215 -160 -335 -28 -61 -44 -78 -44 -48 0 10 -11 15 -35 15 -44 0 -45 -16 -2 -36 17 -8 59 -30 92 -49 33 -19 62 -34 65 -35 9 0 120 231 120 250 0 6 5 10 10 10 6 0 10 8 10 18 0 9 7 26 15 36 8 11 15 28 15 38 0 10 4 18 9 18 13 0 45 91 35 100 -9 8 -100 60 -106 60 -2 0 -13 -19 -24 -42z"></path><path id="p9v6YmAe7" d="M1340 2581 c0 -5 32 -26 71 -47 38 -22 84 -47 102 -57 31 -17 32 -17 35 4 5 27 -24 48 -65 49 -25 0 -33 4 -33 18 0 11 -11 24 -25 30 -30 14 -85 16 -85 3z"></path><path id="pT80HxKWm" d="M1850 1875 c0 -16 6 -25 15 -25 26 0 23 -35 -10 -105 -46 -98 -85 -186 -85 -192 0 -6 -43 -101 -61 -135 -13 -25 -14 -24 51 -57 l60 -31 26 58 c49 110 61 137 80 184 10 27 22 48 27 48 4 0 7 6 7 14 0 8 7 27 15 43 22 44 55 119 55 126 0 4 -4 7 -9 7 -5 0 -42 20 -82 45 -40 25 -77 45 -81 45 -4 0 -8 -11 -8 -25z"></path></g></g><g id="ljQWiwjya66GSz6ewopAOr" fill="rgb(58,167,162)" style="transform: none;"><g style="transform: none;"><path id="pAaVcAa8P" d="M2897 3228 c-14 -29 -41 -87 -60 -128 -19 -41 -56 -119 -81 -173 -25 -54 -46 -102 -46 -106 0 -8 91 -56 94 -49 0 2 13 28 27 58 71 149 90 191 124 265 19 44 40 88 45 97 17 30 11 45 -26 67 -19 12 -39 21 -43 21 -5 0 -20 -24 -34 -52z"></path><path id="pflvFcNah" d="M3063 3071 c-29 -58 -72 -151 -98 -206 -25 -55 -51 -110 -57 -122 -14 -28 -8 -36 52 -67 l51 -27 34 76 c19 42 35 80 35 86 0 5 5 9 10 9 6 0 10 5 10 12 0 6 12 36 26 67 31 67 96 203 101 213 3 6 -53 40 -97 59 -12 5 -28 -17 -67 -100z"></path><path id="pUbH422GZ" d="M1630 2965 c0 -8 -4 -15 -10 -15 -5 0 -10 -11 -10 -24 0 -14 -7 -31 -15 -40 -8 -8 -15 -18 -15 -22 0 -4 -22 -53 -50 -110 -27 -57 -50 -108 -50 -114 0 -5 -4 -10 -10 -10 -5 0 -10 -9 -10 -19 0 -11 -4 -21 -10 -23 -5 -1 -12 -17 -16 -33 -5 -27 -2 -32 28 -47 18 -9 52 -29 76 -43 l42 -26 0 30 c0 24 -4 31 -20 31 -25 0 -25 6 -1 56 39 82 61 133 61 143 0 6 5 11 10 11 6 0 10 6 10 13 0 6 21 53 45 102 25 50 45 97 45 106 0 10 -17 23 -43 33 -52 20 -57 20 -57 1z"></path><path id="pp2zf5c5o" d="M1815 2832 c-72 -154 -97 -208 -105 -222 -5 -8 -21 -40 -35 -70 -39 -82 -40 -85 -64 -88 -35 -5 -25 -17 50 -55 76 -40 89 -43 89 -26 0 6 16 45 36 87 20 43 57 120 81 172 25 52 56 117 70 144 21 39 23 50 12 57 -8 5 -17 9 -22 9 -4 0 -25 11 -47 25 l-39 24 -26 -57z"></path><path id="pAKLvcWia" d="M1619 1993 c-6 -16 -24 -56 -40 -90 -16 -35 -29 -65 -29 -68 0 -7 -33 -81 -81 -181 -22 -45 -39 -88 -39 -95 0 -14 61 -59 79 -59 10 0 66 114 96 193 10 26 22 50 26 53 5 3 9 14 9 25 0 10 4 19 9 19 5 0 13 15 16 33 4 17 11 34 14 37 9 6 41 87 41 103 0 13 -62 57 -80 57 -6 0 -15 -12 -21 -27z"></path><path id="p1EWrlxG27" d="M1740 1940 c0 -21 6 -31 22 -36 52 -16 52 -22 2 -129 -15 -33 -33 -73 -40 -90 -6 -16 -33 -77 -58 -134 -25 -57 -46 -107 -46 -112 0 -4 10 -11 23 -15 12 -3 35 -15 50 -26 29 -21 57 -18 57 5 0 7 11 36 25 63 14 27 25 52 25 56 0 6 37 91 80 183 10 22 28 62 39 89 21 49 21 49 2 68 -11 10 -22 18 -25 18 -3 0 -39 20 -81 45 l-75 44 0 -29z"></path></g></g><g id="l5OQDB8ym5Ofdl7ew3CRQqI" fill="rgb(116,108,174)" style="transform: none;"><g style="transform: none;"><path id="pEBpHAx7E" d="M3788 2755 c-10 -20 -18 -42 -18 -50 0 -7 -3 -15 -7 -17 -5 -1 -28 -48 -52 -103 -25 -55 -59 -130 -76 -166 l-32 -66 26 -10 c33 -14 173 -25 187 -15 5 4 17 23 26 42 9 19 35 76 58 125 75 159 90 196 86 203 -2 4 -30 20 -63 37 -32 16 -60 33 -63 37 -3 3 -16 9 -30 12 -21 5 -28 1 -42 -29z"></path><path id="prKkEoYLx" d="M2548 2456 c-8 -17 -30 -62 -47 -101 -37 -81 -40 -86 -69 -140 -11 -22 -31 -62 -43 -90 -12 -27 -28 -62 -35 -77 -13 -26 -13 -27 34 -49 26 -13 67 -35 91 -51 34 -21 48 -25 58 -17 7 6 13 15 13 20 0 8 51 118 149 319 36 75 36 76 66 65 17 -5 36 -16 43 -22 15 -15 82 -18 82 -4 0 4 -21 19 -47 33 -27 14 -68 36 -93 50 -188 104 -183 102 -202 64z"></path><path id="p116HDt6dK" d="M2962 2256 c-2 -27 2 -36 18 -41 11 -3 26 -1 33 6 12 11 11 18 -2 41 -23 39 -46 36 -49 -6z"></path><path id="pagZS88fx" d="M2534 1503 c-4 -10 -19 -45 -35 -79 -16 -33 -29 -64 -29 -68 0 -5 -11 -31 -25 -58 -58 -116 -98 -219 -88 -229 6 -6 55 -11 109 -12 l99 -2 17 35 c27 53 78 168 78 175 0 4 14 35 31 70 18 35 29 69 27 77 -3 8 -28 25 -54 39 -27 13 -51 27 -54 30 -3 3 -20 14 -38 23 -31 16 -33 16 -38 -1z"></path></g></g><g id="l4ZszwW0BRSxXE2u1KErmyH" fill="rgb(60,178,162)" style="transform: none;"><g style="transform: none;"><path id="p17WgYRpi" d="M2941 3257 c-6 -6 -11 -16 -11 -21 0 -6 -7 -24 -16 -41 -25 -47 -84 -185 -79 -185 3 0 19 30 36 68 74 161 85 181 98 173 9 -6 10 -13 2 -27 -6 -11 -27 -55 -46 -99 -35 -77 -55 -120 -125 -267 l-33 -68 24 -20 c13 -10 33 -22 44 -26 11 -4 36 -17 56 -30 l36 -23 11 22 c6 12 26 56 45 97 19 41 60 127 91 192 80 167 80 165 50 172 -13 4 -24 11 -24 16 0 6 -9 10 -19 10 -11 0 -21 4 -23 8 -1 4 -26 20 -54 34 -38 20 -54 24 -63 15z"></path><path id="p9oASaML7" d="M2812 2983 c-18 -32 -15 -51 4 -25 8 12 14 28 11 35 -2 7 -8 3 -15 -10z"></path><path id="p16HdfWTG" d="M1655 2949 c-10 -30 -2 -32 12 -3 6 13 7 24 3 24 -5 0 -12 -9 -15 -21z"></path><path id="pvDmQ7c7S" d="M1657 2859 c-26 -53 -47 -102 -47 -108 0 -6 -4 -11 -10 -11 -5 0 -10 -5 -10 -11 0 -11 -22 -62 -73 -168 -29 -61 -30 -64 -12 -77 10 -8 24 -14 31 -14 7 0 14 -4 16 -9 2 -5 26 -20 53 -34 l51 -25 13 31 c17 40 59 127 71 147 8 14 33 67 105 223 30 64 27 76 -25 97 -17 7 -30 16 -30 21 0 5 -9 9 -20 9 -11 0 -20 4 -20 9 0 5 -10 11 -23 13 -20 4 -28 -6 -70 -93z"></path><path id="p1Eng3phrZ" d="M2771 2893 c-10 -21 -21 -49 -25 -63 -6 -23 -5 -22 10 4 22 40 45 96 39 96 -2 0 -13 -17 -24 -37z"></path><path id="pa659u5Qo" d="M1622 2879 c-7 -12 -11 -24 -7 -27 7 -8 25 17 25 36 0 17 -3 15 -18 -9z"></path><path id="pa8mztE72" d="M1592 2820 c-18 -29 -15 -48 4 -22 8 12 14 27 12 32 -2 6 -9 1 -16 -10z"></path><path id="p13ymUVOZ6" d="M1560 2759 c0 -6 -14 -40 -30 -76 -17 -36 -29 -71 -26 -77 3 -7 5 -6 5 2 1 7 17 45 36 85 40 82 38 77 25 77 -5 0 -10 -5 -10 -11z"></path><path id="p1fo8wJ2e" d="M1656 2003 c-10 -10 -7 -25 4 -18 23 14 29 -7 13 -48 -9 -23 -20 -44 -24 -47 -3 -3 -10 -20 -14 -37 -3 -18 -11 -33 -16 -33 -5 0 -9 -8 -9 -18 0 -10 -4 -22 -9 -27 -5 -6 -24 -46 -42 -90 -18 -44 -41 -95 -51 -113 -25 -45 -23 -66 10 -79 15 -6 51 -25 80 -43 l53 -31 20 48 c39 90 91 208 101 226 5 10 27 59 48 109 38 86 41 108 19 108 -5 0 -28 12 -52 27 -69 44 -125 72 -131 66z"></path><path id="pWprb1p4F" d="M1631 1938 c-1 -9 -6 -18 -12 -20 -7 -2 -10 -11 -7 -18 3 -11 8 -9 17 8 7 13 10 28 7 35 -2 7 -5 5 -5 -5z"></path><path id="p74YKJQvw" d="M1567 1803 c-3 -4 -20 -44 -38 -88 -18 -44 -41 -95 -51 -113 -10 -18 -18 -38 -18 -45 0 -13 54 92 95 187 14 32 24 60 21 63 -2 2 -6 1 -9 -4z"></path></g></g><g id="l5CtCuMb9m0stSZVuJIvcIZ" fill="rgb(69,143,190)" style="transform: none;"><g style="transform: none;"><path id="pMlLvqDp9" d="M2118 3583 c-25 -37 -67 -102 -94 -143 -26 -41 -63 -94 -81 -118 -18 -24 -33 -50 -33 -58 0 -7 33 -30 73 -50 39 -20 74 -40 77 -44 3 -3 13 -9 23 -13 13 -5 17 -1 17 16 0 18 61 131 79 147 12 11 81 120 81 129 0 5 7 11 15 15 8 3 15 10 15 16 0 5 14 29 30 52 17 22 30 47 30 54 0 17 -32 34 -62 34 -13 0 -28 4 -33 9 -6 5 -29 12 -51 16 l-42 6 -44 -68z"></path><path id="pr0WyhSuA" d="M837 2303 c-26 -41 -47 -78 -47 -83 0 -6 -4 -10 -10 -10 -5 0 -10 -5 -10 -10 0 -6 -27 -56 -60 -111 -33 -55 -60 -103 -60 -107 0 -8 39 -32 109 -69 42 -23 45 -23 60 -6 9 10 29 44 46 76 16 31 33 57 37 57 4 0 8 6 8 14 0 8 6 21 13 28 6 8 17 23 23 33 6 11 26 47 44 80 18 33 42 73 52 88 27 38 18 52 -39 67 -125 33 -114 36 -166 -47z"></path><path id="pVtUo2Dat" d="M2931 2311 c-8 -5 -20 -7 -28 -4 -8 3 -13 -2 -13 -13 0 -25 70 -64 112 -63 18 0 27 3 21 6 -7 2 -13 10 -13 17 0 16 -42 66 -55 66 -6 0 -16 -4 -24 -9z"></path><path id="pEwTBku2N" d="M2165 1836 c-22 -12 -53 -29 -68 -37 l-28 -15 88 -49 c48 -27 116 -64 151 -82 l62 -34 -20 35 c-12 19 -32 42 -46 51 -13 9 -22 20 -19 25 5 7 -72 132 -79 130 -1 -1 -19 -11 -41 -24z"></path></g></g><g id="l1Q1A5QdeGtntnmVCkBvrUz" fill="rgb(71,171,171)" style="transform: none;"><g style="transform: none;"><path id="pU6aKfW7I" d="M2806 3248 c-103 -218 -137 -292 -142 -314 -3 -13 -10 -27 -15 -30 -5 -3 -9 -16 -9 -29 0 -17 12 -29 50 -49 l50 -26 46 97 c26 54 64 136 86 183 22 47 49 106 61 131 15 32 26 45 37 41 29 -10 5 7 -54 37 -32 17 -62 31 -67 31 -4 0 -24 -33 -43 -72z"></path><path id="pvvV2kJQL" d="M3187 3093 c-26 -65 -67 -156 -97 -214 -53 -101 -99 -218 -89 -224 9 -6 79 133 79 156 0 5 5 9 10 9 6 0 10 5 10 11 0 12 41 104 97 218 17 36 30 69 27 73 -10 16 -22 7 -37 -29z"></path><path id="pOurS6OLg" d="M1525 2963 c-10 -21 -37 -78 -61 -127 -24 -50 -44 -96 -44 -103 0 -7 -4 -13 -10 -13 -5 0 -10 -6 -10 -13 0 -6 -12 -34 -26 -60 -14 -27 -24 -55 -22 -63 2 -8 27 -28 55 -44 l53 -30 6 25 c3 14 10 25 15 25 5 0 9 9 9 20 0 11 5 20 10 20 6 0 10 5 10 10 0 6 23 57 50 114 28 57 50 106 50 110 0 4 7 14 15 22 8 9 15 26 15 40 0 13 3 24 8 24 4 0 12 11 18 25 11 23 10 25 -41 40 -74 21 -81 20 -100 -22z"></path><path id="pzUKgwl3V" d="M1896 2747 c-22 -45 -64 -134 -93 -197 -30 -63 -61 -127 -69 -142 -18 -34 -18 -48 1 -48 8 0 15 5 15 11 0 6 16 45 36 87 20 43 57 120 81 172 25 52 56 116 69 141 28 54 29 59 12 59 -7 0 -31 -37 -52 -83z"></path><path id="paPZyiCBH" d="M1525 2008 c-18 -43 -58 -131 -109 -239 -14 -31 -26 -61 -26 -66 0 -6 -12 -32 -27 -58 -29 -53 -33 -47 51 -92 l41 -22 40 83 c22 46 45 96 52 112 26 64 55 131 72 169 11 22 24 53 30 68 9 23 16 27 34 22 22 -6 22 -6 2 10 -26 22 -102 55 -124 55 -12 0 -24 -15 -36 -42z"></path><path id="p175nOES0V" d="M1910 1834 c-6 -16 -22 -51 -35 -79 -13 -27 -47 -104 -75 -170 -28 -66 -60 -136 -71 -156 -23 -44 -23 -49 -3 -49 9 0 18 10 21 21 3 12 17 42 29 68 13 25 24 49 24 53 0 6 37 91 80 183 48 102 60 139 51 148 -7 7 -14 0 -21 -19z"></path></g></g><g id="lBzKkgsEU5orEtbZ6GLa3R" fill="rgb(79,166,178)" style="transform: none;"><g style="transform: none;"><path id="pZBqqjjY5" d="M2720 3312 c0 -30 -18 -72 -120 -287 -28 -59 -49 -113 -47 -119 4 -11 107 -70 111 -64 6 8 36 77 36 81 0 5 46 105 136 294 25 53 38 71 49 67 26 -11 16 11 -14 29 -16 9 -57 20 -90 23 l-61 7 0 -31z"></path><path id="p18uU647ex" d="M1433 2995 c-7 -8 -13 -18 -13 -22 0 -4 -15 -39 -34 -78 -19 -38 -48 -101 -66 -140 -17 -38 -38 -82 -46 -98 -8 -15 -12 -32 -9 -37 7 -11 105 -63 110 -58 11 13 55 105 55 115 0 7 5 13 10 13 6 0 10 6 10 13 0 11 58 136 119 258 l19 36 -52 7 c-73 8 -89 7 -103 -9z"></path><path id="ph2NSZrt3" d="M1380 2135 c0 -16 6 -25 15 -25 8 0 15 -4 15 -10 0 -5 16 -10 35 -10 42 0 46 16 8 33 -16 6 -34 17 -41 24 -21 20 -32 15 -32 -12z"></path><path id="pp3T2p7uZ" d="M1430 2055 c0 -15 -19 -65 -55 -150 -8 -16 -30 -68 -50 -115 -20 -47 -40 -93 -45 -102 -21 -38 -11 -57 41 -84 28 -14 52 -24 53 -22 16 23 46 82 46 90 0 6 12 36 26 67 51 108 91 196 109 239 10 23 24 42 32 42 7 0 13 4 13 9 0 19 -28 29 -97 36 -64 6 -73 5 -73 -10z"></path></g></g><g id="l1pE0A5ccAr0mxY9yP0qvrH" fill="rgb(35,167,224)" style="transform: none;"><g style="transform: none;"><path id="pW7JnB0RK" d="M2227 1745 c-42 -24 -41 -26 28 -60 22 -11 42 -22 45 -25 3 -3 20 -13 37 -22 l32 -17 -25 41 c-15 23 -30 46 -35 52 -5 6 -17 21 -27 32 l-17 21 -38 -22z"></path></g></g><g id="l6sz3HpgsqEh9QY8Riqg0A6" fill="rgb(79,157,194)" style="transform: none;"><g style="transform: none;"><path id="pbaKwJe5S" d="M2294 3568 c-16 -24 -32 -51 -36 -60 -4 -10 -12 -18 -18 -18 -5 0 -10 -5 -10 -10 0 -9 -67 -118 -80 -130 -3 -3 -29 -42 -57 -86 l-51 -82 76 -43 c107 -61 169 -51 160 26 -2 19 0 35 4 35 4 0 8 9 8 19 0 11 4 21 8 23 16 7 183 270 179 281 -4 10 -93 61 -148 85 -3 1 -19 -17 -35 -40z"></path><path id="po3PdFWPQ" d="M2561 3247 c-19 -45 -41 -89 -48 -98 -7 -8 -13 -20 -13 -26 0 -6 -14 -39 -31 -73 -16 -34 -29 -68 -27 -77 2 -8 23 -26 48 -39 l44 -24 54 113 c29 61 69 144 88 182 19 39 34 83 34 98 0 26 -2 27 -57 27 l-58 0 -34 -83z"></path><path id="p17RHrg2nu" d="M2440 3275 c0 -33 2 -35 35 -35 33 0 35 2 35 35 0 33 -2 35 -35 35 -33 0 -35 -2 -35 -35z"></path><path id="pulyBturS" d="M1345 3003 c-11 -2 -30 -6 -43 -9 -18 -4 -34 -28 -72 -108 -62 -132 -80 -175 -80 -192 0 -8 16 -22 35 -31 19 -9 35 -20 35 -25 0 -4 6 -8 13 -8 6 0 34 46 61 103 27 56 62 128 78 161 15 32 28 71 28 87 0 30 -7 33 -55 22z"></path><path id="pRLwvDSzF" d="M1012 2313 c-10 -16 -34 -55 -52 -88 -18 -33 -38 -69 -44 -80 -6 -10 -17 -25 -23 -33 -7 -7 -13 -20 -13 -28 0 -8 -4 -14 -8 -14 -4 0 -21 -26 -37 -57 -17 -32 -38 -67 -48 -77 -9 -11 -17 -22 -17 -25 0 -4 30 -22 67 -41 38 -19 70 -38 73 -42 3 -4 23 -5 43 -1 31 5 37 10 37 29 0 21 5 24 35 24 24 0 35 5 35 15 0 9 9 15 25 15 14 0 25 5 25 10 0 6 7 10 15 10 8 0 15 5 15 10 0 6 14 10 30 10 17 0 30 5 30 10 0 6 11 10 25 10 22 0 25 4 25 35 0 33 -2 35 -35 35 -19 0 -35 -4 -35 -10 0 -5 -13 -10 -30 -10 -16 0 -30 -4 -30 -10 0 -5 -11 -10 -25 -10 -14 0 -25 -4 -25 -10 0 -5 -7 -10 -15 -10 -8 0 -15 -7 -15 -15 0 -8 -7 -15 -15 -15 -21 0 -19 7 18 64 37 58 42 67 81 138 15 29 35 61 43 70 26 29 11 51 -57 85 -36 18 -68 33 -72 33 -4 0 -15 -12 -26 -27z"></path><path id="p1E5XgbOm4" d="M1270 2026 c0 -19 -18 -73 -40 -121 -75 -159 -93 -215 -69 -215 5 0 27 -11 47 -25 36 -24 37 -24 44 -5 4 11 21 50 39 87 40 88 72 159 93 205 9 20 16 52 16 72 l0 36 -65 0 -65 0 0 -34z"></path></g></g><g id="l4SFXkpaX7pTIH2dxm48cie" fill="rgb(151,109,171)" style="transform: none;"><g style="transform: none;"><path id="pR5jwUxDV" d="M3945 2690 c-8 -24 -115 -254 -150 -322 l-24 -46 77 5 c42 3 82 9 87 13 6 4 27 10 48 14 21 4 37 13 37 21 0 11 44 107 91 197 12 23 12 58 0 58 -5 0 -16 6 -23 13 -15 14 -116 67 -128 67 -5 0 -12 -9 -15 -20z"></path><path id="p1EYqmPvgx" d="M2717 2394 c-7 -8 -50 -95 -141 -289 -31 -66 -61 -128 -66 -137 -16 -29 -13 -33 65 -74 l75 -39 31 33 c17 18 44 59 59 90 79 161 90 185 90 198 0 8 4 14 8 14 5 0 16 18 24 39 13 33 20 39 37 34 12 -3 21 -9 21 -14 0 -5 16 -9 36 -9 58 0 37 20 -92 88 -144 77 -138 74 -147 66z"></path><path id="pYXNAe2Rx" d="M2662 1366 c-18 -35 -32 -67 -32 -71 0 -6 -27 -68 -76 -171 -13 -28 -24 -56 -24 -62 0 -16 30 -15 115 3 94 20 123 33 131 59 3 11 24 58 45 103 22 45 39 90 39 101 0 13 -23 31 -79 60 -44 23 -81 42 -83 42 -2 0 -19 -29 -36 -64z"></path></g></g><g id="l7M7DQGY8eFm3FYHo4y7eIk" fill="rgb(86,161,184)" style="transform: none;"><g style="transform: none;"><path id="pSwPhDJxe" d="M2364 3408 c-49 -73 -92 -134 -96 -136 -4 -2 -8 -12 -8 -22 0 -10 -4 -20 -10 -22 -5 -1 -25 -28 -44 -58 l-35 -55 22 -17 c21 -16 22 -16 30 4 4 11 4 25 0 30 -3 7 -1 8 5 4 7 -4 12 -1 12 9 0 9 4 14 9 10 5 -3 15 11 22 30 7 19 16 35 20 35 13 0 190 281 187 297 -7 39 -32 16 -114 -109z"></path><path id="pWN585jkQ" d="M2611 3303 c1 -21 3 -30 6 -20 3 11 14 17 32 17 l28 0 -33 -67 c-62 -127 -132 -278 -136 -290 -2 -7 15 -24 38 -37 25 -16 41 -20 41 -13 0 7 21 57 48 112 26 55 61 129 77 165 16 36 36 78 44 94 11 24 12 31 2 38 -8 5 -2 6 15 2 20 -5 27 -2 27 9 0 22 -22 27 -111 27 l-79 0 1 -37z"></path><path id="pZB9RUFPr" d="M1370 2996 c0 -8 -13 -40 -28 -72 -16 -33 -52 -106 -79 -163 -28 -57 -49 -109 -47 -116 3 -6 18 -16 35 -22 16 -6 32 -13 35 -15 7 -4 24 27 64 117 18 39 47 102 66 140 19 39 34 76 34 82 0 6 4 13 9 15 4 2 12 13 15 26 7 21 5 22 -48 22 -41 0 -56 -4 -56 -14z"></path><path id="p2yCdIX6z" d="M1150 2278 c0 -6 -6 -19 -14 -27 -8 -9 -27 -40 -42 -69 -38 -70 -44 -79 -81 -137 -44 -70 -93 -157 -100 -177 -3 -10 -10 -18 -15 -18 -5 0 -3 -7 6 -15 14 -15 46 -11 46 6 0 16 4 24 19 41 9 9 25 34 36 55 11 21 39 68 62 105 24 36 43 69 43 73 0 3 15 30 34 59 46 72 50 89 26 104 -15 9 -20 9 -20 0z"></path><path id="p199Od6Loh" d="M1360 2144 c0 -21 5 -24 37 -24 35 0 36 1 19 19 -10 10 -26 21 -37 24 -15 4 -19 0 -19 -19z"></path><path id="p13qyPc0BV" d="M1450 2095 c0 -22 4 -25 35 -25 43 0 44 10 6 33 -38 22 -41 22 -41 -8z"></path><path id="pAowWbGPT" d="M1540 2050 c0 -13 9 -22 28 -26 15 -3 47 -12 71 -20 25 -8 46 -12 48 -11 3 4 -134 77 -143 77 -2 0 -4 -9 -4 -20z"></path><path id="plIhReGnQ" d="M1336 2045 c-4 -10 1 -15 14 -15 11 0 20 -3 20 -6 0 -8 -28 -70 -109 -246 -56 -122 -56 -115 -10 -139 23 -11 42 -19 43 -17 5 9 28 61 57 128 17 41 40 93 50 114 11 22 19 43 19 48 0 4 11 31 25 59 13 29 22 55 20 59 -3 5 4 6 15 3 14 -4 20 0 20 11 0 23 -155 24 -164 1z"></path></g></g><g id="l3KnbdLUqhRTT5AuuzQXI8h" fill="rgb(96,155,192)" style="transform: none;"><g style="transform: none;"><path id="p1EFMXDAz8" d="M2471 3309 c-41 -10 -77 -23 -80 -27 -3 -5 -19 -12 -36 -16 -16 -4 -32 -11 -35 -14 -3 -4 -22 -16 -43 -27 -32 -16 -38 -23 -35 -45 3 -22 1 -26 -16 -23 -14 3 -26 -4 -34 -18 -12 -19 -11 -24 6 -42 25 -25 52 -16 52 18 0 20 5 25 26 25 26 0 84 28 84 41 0 4 12 10 27 14 15 3 31 11 34 17 4 6 12 9 18 7 6 -2 -8 -40 -34 -94 -25 -49 -45 -97 -45 -105 0 -13 97 -77 104 -68 9 10 66 132 66 141 0 6 6 18 13 26 7 9 28 52 47 96 19 44 40 84 47 88 52 32 -55 36 -166 6z"></path><path id="pT02JcMIo" d="M1255 2983 c-27 -8 -59 -17 -71 -20 -15 -3 -36 -36 -73 -115 -29 -61 -49 -114 -44 -119 8 -8 101 -59 107 -59 2 0 9 15 17 33 7 17 38 84 68 147 74 155 72 150 58 149 -7 0 -34 -7 -62 -16z"></path><path id="pHgMVd36T" d="M1188 2036 c-20 -6 -40 -14 -44 -18 -4 -5 -16 -8 -26 -8 -10 0 -18 -4 -18 -10 0 -5 -9 -10 -20 -10 -11 0 -20 -7 -20 -15 0 -9 -9 -15 -25 -15 -16 0 -25 -6 -25 -15 0 -9 -9 -15 -25 -15 -16 0 -25 -6 -25 -15 0 -8 -6 -15 -12 -15 -16 0 -48 -54 -39 -67 19 -30 91 -18 91 14 0 7 7 13 15 13 8 0 15 7 15 15 0 9 9 15 25 15 16 0 25 6 25 15 0 9 9 15 25 15 14 0 25 5 25 12 0 6 3 9 6 6 5 -5 -29 -89 -57 -140 -19 -35 -10 -56 37 -83 25 -15 51 -25 57 -22 7 2 18 22 26 43 8 22 30 73 49 114 69 150 74 163 60 172 -9 5 -4 8 15 8 15 0 27 5 27 10 0 13 -115 11 -162 -4z"></path></g></g><g id="l3dcMALbndKcstqH945VEZq" fill="rgb(174,109,169)" style="transform: none;"><g style="transform: none;"><path id="pD4ulB0nS" d="M4079 2602 c-8 -20 -31 -70 -51 -110 -21 -40 -38 -80 -38 -88 0 -7 -4 -14 -10 -14 -5 0 -10 -9 -10 -20 0 -17 4 -19 28 -13 15 3 48 17 73 30 26 13 50 23 53 23 9 0 70 43 74 53 2 4 9 7 16 7 7 0 26 15 44 33 l31 32 -98 52 -98 52 -14 -37z"></path><path id="p14iiSAOVR" d="M2838 2273 c-11 -27 -25 -49 -29 -51 -5 -2 -9 -10 -9 -17 0 -13 -14 -44 -111 -239 -27 -55 -47 -102 -44 -104 3 -3 90 80 193 184 154 155 187 192 176 202 -8 7 -15 12 -16 12 -5 -2 -43 14 -48 19 -6 7 -78 41 -86 41 -3 0 -15 -21 -26 -47z"></path><path id="p8bHb6Vta" d="M2830 1350 c0 -6 -17 -48 -38 -93 -60 -128 -72 -157 -72 -166 0 -22 134 42 225 108 65 46 69 53 42 73 -40 31 -157 89 -157 78z"></path></g></g><g id="l5UXuLAL0orxAtbCgTtuOaM" fill="rgb(106,148,201)" style="transform: none;"><g style="transform: none;"><path id="pEpOOeZJ7" d="M2425 3294 c-76 -27 -169 -78 -200 -109 -20 -20 -47 -67 -41 -72 3 -4 16 2 28 13 l23 19 -19 -23 c-11 -12 -16 -25 -12 -30 4 -4 47 -28 94 -54 l86 -46 68 139 c38 77 68 144 68 149 0 6 7 10 15 10 8 0 15 5 15 10 0 15 -79 11 -125 -6z"></path><path id="p1Ar2dvEG4" d="M1185 2963 c-30 -8 -145 -72 -190 -107 -70 -54 -70 -51 -12 -83 82 -45 107 -57 110 -52 12 14 121 251 114 248 -1 -1 -11 -4 -22 -6z"></path><path id="pbzItmGII" d="M1155 2021 c-3 -5 -19 -13 -37 -16 -49 -11 -171 -91 -195 -128 -24 -38 -22 -45 27 -71 19 -10 59 -32 89 -48 29 -16 54 -28 55 -26 1 2 7 14 13 28 6 14 27 59 46 100 19 41 41 92 48 113 7 20 19 37 26 37 7 0 13 5 13 10 0 13 -77 13 -85 1z m30 -30 c-6 -5 -21 -11 -35 -15 -21 -5 -20 -3 5 9 35 17 42 18 30 6z"></path></g></g><g id="l5scZ5pqHhZBUdVcY6pl4mu" fill="rgb(91,174,200)" style="transform: none;"><g style="transform: none;"><path id="pXq1Rk163" d="M2345 3369 c-60 -94 -115 -176 -120 -182 -15 -17 -45 -65 -45 -72 0 -11 17 -4 42 20 79 73 220 138 352 160 49 8 90 15 92 15 2 0 4 7 4 15 0 10 -11 15 -35 15 -19 0 -35 2 -35 4 0 3 9 21 21 41 25 41 22 55 -17 75 -16 8 -31 17 -34 20 -7 7 -107 60 -111 60 -2 -1 -53 -78 -114 -171z"></path><path id="pSAsvkTBw" d="M1150 2270 c0 -5 -16 -34 -35 -64 -19 -30 -35 -58 -35 -61 0 -4 -20 -38 -45 -76 -25 -38 -45 -71 -45 -73 0 -3 -20 -37 -43 -78 -24 -40 -42 -79 -39 -86 3 -10 8 -8 18 7 42 60 254 168 367 186 43 7 53 35 12 35 -14 0 -25 2 -25 5 0 12 35 75 42 75 4 0 8 11 8 24 0 17 -9 29 -27 39 -16 7 -54 28 -86 45 -63 35 -67 36 -67 22z"></path><path id="p1Ek54jd1e" d="M1350 2050 c0 -19 6 -21 70 -19 61 2 70 4 70 20 0 17 -8 19 -70 19 -64 0 -70 -2 -70 -20z"></path></g></g><g id="l1efyuSJofN9mpS21Ly5IAf" fill="rgb(106,195,206)" style="transform: none;"><g style="transform: none;"><path id="psVw0Gabj" d="M2586 3406 c-14 -25 -32 -51 -39 -58 -6 -8 -18 -24 -25 -37 -14 -24 -14 -24 20 -15 55 15 266 9 334 -9 82 -22 87 -21 34 7 -51 27 -107 58 -197 109 -95 54 -97 54 -127 3z"></path><path id="pnABB50ws" d="M1300 2190 c0 -6 -5 -16 -10 -23 -24 -28 -91 -149 -86 -155 4 -3 30 0 59 8 103 27 293 15 412 -25 11 -4 -34 23 -100 59 -66 36 -121 66 -123 66 -2 0 -34 18 -71 40 -71 43 -81 46 -81 30z"></path></g></g></svg>