<?xml version="1.0" encoding="UTF-8"?>
<!DOCTYPE svg PUBLIC "-//W3C//DTD SVG 1.1//EN" "http://www.w3.org/Graphics/SVG/1.1/DTD/svg11.dtd">
<svg xmlns="http://www.w3.org/2000/svg" version="1.1" width="950px" height="950px" style="shape-rendering:geometricPrecision; text-rendering:geometricPrecision; image-rendering:optimizeQuality; fill-rule:evenodd; clip-rule:evenodd" xmlns:xlink="http://www.w3.org/1999/xlink">
<g><path style="opacity:1" fill="#3a868f" d="M -0.5,-0.5 C 316.167,-0.5 632.833,-0.5 949.5,-0.5C 949.5,316.167 949.5,632.833 949.5,949.5C 632.833,949.5 316.167,949.5 -0.5,949.5C -0.5,632.833 -0.5,316.167 -0.5,-0.5 Z"/></g>
<g><path style="opacity:1" fill="#fefefe" d="M 902.5,434.5 C 902.45,440.389 903.116,446.056 904.5,451.5C 905.981,471.053 905.648,490.72 903.5,510.5C 902.778,510.918 902.278,511.584 902,512.5C 901.502,515.482 901.335,518.482 901.5,521.5C 884.393,610.586 837.06,678.419 759.5,725C 749.6,730.117 739.6,734.95 729.5,739.5C 726.053,740.083 723.053,741.416 720.5,743.5C 625.084,777.666 535.418,766.999 451.5,711.5C 450.702,711.043 450.369,710.376 450.5,709.5C 527.593,660.539 571.76,590.539 583,499.5C 589.175,404.393 556.675,325.56 485.5,263C 473.61,254.58 461.943,246.08 450.5,237.5C 471.282,223.104 493.616,211.271 517.5,202C 525.276,198.906 533.276,196.74 541.5,195.5C 543.403,195.204 545.07,194.537 546.5,193.5C 660.762,169.872 757.262,200.539 836,285.5C 872.106,328.884 894.272,378.551 902.5,434.5 Z"/></g>
<g><path style="opacity:1" fill="#9fc3c8" d="M 546.5,193.5 C 545.07,194.537 543.403,195.204 541.5,195.5C 542.635,193.787 544.302,193.12 546.5,193.5 Z"/></g>
<g><path style="opacity:1" fill="#b4cbc1" d="M 289.5,201.5 C 303.661,200.339 317.994,200.173 332.5,201C 337.747,201.182 342.747,202.016 347.5,203.5C 328.207,201.879 308.873,201.213 289.5,201.5 Z"/></g>
<g><path style="opacity:1" fill="#ebebd8" d="M 289.5,201.5 C 308.873,201.213 328.207,201.879 347.5,203.5C 371.789,206.452 395.123,212.618 417.5,222C 428.324,227.657 439.324,232.824 450.5,237.5C 461.943,246.08 473.61,254.58 485.5,263C 556.675,325.56 589.175,404.393 583,499.5C 571.76,590.539 527.593,660.539 450.5,709.5C 438.748,715.541 426.748,721.374 414.5,727C 374.58,742.487 333.247,748.987 290.5,746.5C 282.659,745.353 274.659,744.353 266.5,743.5C 183.192,728.266 119.359,684.599 75,612.5C 56.0515,578.821 44.2182,542.821 39.5,504.5C 38.7003,487.179 38.367,469.846 38.5,452.5C 49.4695,348.724 101.469,273.224 194.5,226C 224.597,212.058 256.264,203.892 289.5,201.5 Z"/></g>
<g><path style="opacity:1" fill="#3a868f" d="M 294.5,315.5 C 305.833,315.5 317.167,315.5 328.5,315.5C 333.205,317.322 338.205,318.322 343.5,318.5C 350.833,320.224 358.166,322.058 365.5,324C 366.973,324.71 367.64,325.876 367.5,327.5C 333.618,385.463 321.451,447.797 331,514.5C 335.706,552.452 347.872,587.785 367.5,620.5C 364.752,623.048 361.419,624.882 357.5,626C 295.531,642.546 241.697,628.712 196,584.5C 170.91,557.319 156.41,525.319 152.5,488.5C 152.418,473.463 153.085,458.463 154.5,443.5C 168.713,382.616 205.38,341.782 264.5,321C 270.084,319.353 275.751,318.187 281.5,317.5C 286.122,317.844 290.455,317.177 294.5,315.5 Z"/></g>
<g><path style="opacity:1" fill="#7dabaa" d="M 294.5,315.5 C 290.455,317.177 286.122,317.844 281.5,317.5C 285.591,316.105 289.924,315.438 294.5,315.5 Z"/></g>
<g><path style="opacity:1" fill="#87b1ae" d="M 328.5,315.5 C 333.848,315.369 338.848,316.369 343.5,318.5C 338.205,318.322 333.205,317.322 328.5,315.5 Z"/></g>
<g><path style="opacity:1" fill="#fefefe" d="M 367.5,620.5 C 347.872,587.785 335.706,552.452 331,514.5C 321.451,447.797 333.618,385.463 367.5,327.5C 368.738,326.588 370.072,326.421 371.5,327C 434.93,355.836 467.597,405.169 469.5,475C 466.409,542.21 434.743,590.543 374.5,620C 372.079,621.048 369.746,621.214 367.5,620.5 Z"/></g>
<g><path style="opacity:1" fill="#b2d0d3" d="M 902.5,434.5 C 904.012,439.929 904.679,445.596 904.5,451.5C 903.116,446.056 902.45,440.389 902.5,434.5 Z"/></g>
<g><path style="opacity:1" fill="#c1d3c6" d="M 38.5,452.5 C 38.367,469.846 38.7003,487.179 39.5,504.5C 37.9712,494.546 37.3045,484.38 37.5,474C 37.5003,466.659 37.8337,459.492 38.5,452.5 Z"/></g>
<g><path style="opacity:1" fill="#82aeac" d="M 154.5,443.5 C 153.085,458.463 152.418,473.463 152.5,488.5C 151.341,477.674 151.174,466.674 152,455.5C 152.705,451.335 153.539,447.335 154.5,443.5 Z"/></g>
<g><path style="opacity:1" fill="#a6c8cc" d="M 903.5,510.5 C 903.192,514.36 902.525,518.026 901.5,521.5C 901.335,518.482 901.502,515.482 902,512.5C 902.278,511.584 902.778,510.918 903.5,510.5 Z"/></g>
<g><path style="opacity:1" fill="#81b0b6" d="M 729.5,739.5 C 728.097,740.931 726.431,742.098 724.5,743C 723.207,743.49 721.873,743.657 720.5,743.5C 723.053,741.416 726.053,740.083 729.5,739.5 Z"/></g>
<g><path style="opacity:1" fill="#83afad" d="M 266.5,743.5 C 274.659,744.353 282.659,745.353 290.5,746.5C 286.154,746.666 281.821,746.499 277.5,746C 273.535,745.892 269.868,745.059 266.5,743.5 Z"/></g>
</svg>
