<?xml version="1.0" encoding="UTF-8"?>
<!-- Generator: https://ezgif.com/png-to-svg -->
<svg version="1.1" xmlns="http://www.w3.org/2000/svg" width="225" height="225">
<path d="M0,0 L225,0 L225,225 L0,225 Z " fill="#FDFDFD" transform="translate(0,0)"/>
<path d="M0,0 L16,0 L16,1 L18,1 L18,2 L22,2 L22,3 L24,3 L24,4 L26,4 L26,5 L28,5 L28,6 L30,6 L30,5 L32,5 L32,4 L34,4 L34,3 L37,3 L37,2 L40,2 L40,1 L61,1 L61,2 L65,2 L65,3 L67,3 L67,4 L69,4 L69,5 L71,5 L71,6 L73,6 L73,7 L74,7 L74,8 L76,8 L76,9 L77,9 L77,10 L78,10 L78,11 L79,11 L79,12 L81,12 L81,13 L82,13 L82,14 L83,14 L83,15 L84,15 L84,16 L85,16 L85,17 L86,17 L86,19 L87,19 L87,20 L88,20 L88,21 L89,21 L89,23 L90,23 L90,25 L91,25 L91,29 L92,29 L92,32 L93,32 L93,35 L94,35 L94,53 L93,53 L93,56 L92,56 L92,59 L91,59 L91,62 L90,62 L90,64 L89,64 L89,66 L88,66 L88,68 L87,68 L87,71 L86,71 L86,72 L85,72 L85,73 L84,73 L84,75 L83,75 L83,77 L82,77 L82,78 L81,78 L81,79 L80,79 L80,81 L79,81 L79,82 L78,82 L78,83 L77,83 L77,84 L76,84 L76,85 L75,85 L75,86 L74,86 L74,88 L73,88 L73,89 L72,89 L72,90 L71,90 L71,91 L70,91 L70,92 L69,92 L69,93 L68,93 L68,94 L67,94 L67,95 L66,95 L66,96 L65,96 L65,97 L64,97 L64,98 L63,98 L63,99 L62,99 L62,100 L61,100 L61,101 L60,101 L60,102 L59,102 L59,103 L58,103 L58,104 L57,104 L57,105 L56,105 L56,106 L55,106 L55,107 L54,107 L54,108 L53,108 L53,109 L52,109 L52,111 L51,111 L51,112 L50,112 L50,113 L49,113 L49,114 L48,114 L48,115 L47,115 L47,116 L46,116 L46,117 L44,117 L44,118 L43,118 L43,120 L41,120 L41,87 L39,87 L39,86 L35,86 L35,85 L32,85 L32,86 L31,86 L31,87 L30,87 L30,88 L29,88 L29,90 L28,90 L28,91 L27,91 L27,92 L26,92 L26,93 L25,93 L25,94 L24,94 L24,95 L23,95 L23,96 L22,96 L22,97 L21,97 L21,98 L20,98 L20,99 L19,99 L19,100 L18,100 L18,101 L17,101 L17,102 L16,102 L16,103 L15,103 L15,104 L14,104 L14,105 L13,105 L13,107 L12,107 L12,108 L11,108 L11,109 L10,109 L10,110 L9,110 L9,111 L8,111 L8,112 L7,112 L7,113 L6,113 L6,114 L5,114 L5,115 L4,115 L4,116 L3,116 L3,117 L2,117 L2,118 L1,118 L1,119 L-1,119 L-1,87 L-5,87 L-5,86 L-7,86 L-7,85 L-9,85 L-9,84 L-11,84 L-11,83 L-13,83 L-13,82 L-15,82 L-15,81 L-16,81 L-16,80 L-18,80 L-18,79 L-19,79 L-19,78 L-20,78 L-20,77 L-21,77 L-21,76 L-22,76 L-22,75 L-23,75 L-23,74 L-24,74 L-24,73 L-25,73 L-25,72 L-26,72 L-26,70 L-27,70 L-27,69 L-29,69 L-29,67 L-30,67 L-30,65 L-31,65 L-31,63 L-32,63 L-32,59 L-33,59 L-33,56 L-34,56 L-34,52 L-35,52 L-35,36 L-34,36 L-34,32 L-33,32 L-33,29 L-32,29 L-32,27 L-31,27 L-31,23 L-30,23 L-30,22 L-29,22 L-29,20 L-28,20 L-28,19 L-27,19 L-27,17 L-26,17 L-26,16 L-25,16 L-25,15 L-24,15 L-24,14 L-23,14 L-23,13 L-22,13 L-22,12 L-21,12 L-21,11 L-20,11 L-20,10 L-18,10 L-18,9 L-17,9 L-17,8 L-16,8 L-16,7 L-14,7 L-14,6 L-12,6 L-12,5 L-11,5 L-11,4 L-8,4 L-8,3 L-6,3 L-6,2 L-2,2 L-2,1 L0,1 Z " fill="#7618C1" transform="translate(83,39)"/>
<path d="M0,0 L17,0 L17,1 L22,1 L22,2 L24,2 L24,3 L25,3 L25,5 L24,5 L24,6 L23,6 L23,7 L22,7 L22,8 L21,8 L21,9 L20,9 L20,10 L19,10 L19,11 L18,11 L18,12 L17,12 L17,13 L16,13 L16,15 L15,15 L15,16 L14,16 L14,18 L13,18 L13,20 L12,20 L12,22 L11,22 L11,25 L10,25 L10,28 L9,28 L9,32 L8,32 L8,45 L9,45 L9,50 L10,50 L10,53 L11,53 L11,56 L12,56 L12,58 L13,58 L13,60 L14,60 L14,62 L15,62 L15,63 L16,63 L16,65 L17,65 L17,66 L18,66 L18,67 L19,67 L19,68 L20,68 L20,70 L21,70 L21,71 L22,71 L22,72 L23,72 L23,73 L25,73 L25,74 L26,74 L26,75 L27,75 L27,76 L29,76 L29,77 L30,77 L30,79 L29,79 L29,80 L28,80 L28,81 L27,81 L27,82 L26,82 L26,83 L25,83 L25,84 L24,84 L24,85 L23,85 L23,86 L22,86 L22,87 L21,87 L21,88 L20,88 L20,89 L19,89 L19,91 L18,91 L18,92 L17,92 L17,93 L16,93 L16,94 L15,94 L15,95 L14,95 L14,96 L13,96 L13,97 L12,97 L12,98 L11,98 L11,99 L10,99 L10,100 L9,100 L9,101 L8,101 L8,102 L7,102 L7,103 L6,103 L6,104 L5,104 L5,105 L3,105 L3,78 L-2,78 L-2,77 L-4,77 L-4,76 L-7,76 L-7,75 L-9,75 L-9,74 L-11,74 L-11,73 L-13,73 L-13,72 L-14,72 L-14,71 L-15,71 L-15,70 L-17,70 L-17,69 L-18,69 L-18,68 L-19,68 L-19,67 L-20,67 L-20,65 L-21,65 L-21,64 L-22,64 L-22,63 L-23,63 L-23,62 L-24,62 L-24,60 L-25,60 L-25,58 L-26,58 L-26,57 L-27,57 L-27,54 L-28,54 L-28,52 L-29,52 L-29,50 L-30,50 L-30,29 L-29,29 L-29,26 L-28,26 L-28,24 L-27,24 L-27,22 L-26,22 L-26,20 L-25,20 L-25,18 L-24,18 L-24,17 L-23,17 L-23,15 L-22,15 L-22,14 L-21,14 L-21,13 L-20,13 L-20,12 L-19,12 L-19,11 L-18,11 L-18,10 L-17,10 L-17,9 L-16,9 L-16,8 L-15,8 L-15,7 L-13,7 L-13,6 L-12,6 L-12,5 L-10,5 L-10,4 L-8,4 L-8,3 L-6,3 L-6,2 L-4,2 L-4,1 L0,1 Z " fill="#FBFBFB" transform="translate(82,44)"/>
<path d="M0,0 L16,0 L16,1 L18,1 L18,2 L22,2 L22,3 L24,3 L24,4 L26,4 L26,5 L28,5 L28,6 L30,6 L30,5 L32,5 L32,4 L34,4 L34,3 L37,3 L37,2 L40,2 L40,1 L61,1 L61,2 L65,2 L65,3 L67,3 L67,4 L69,4 L69,5 L71,5 L71,6 L73,6 L73,7 L74,7 L74,8 L76,8 L76,9 L77,9 L77,10 L78,10 L78,11 L79,11 L79,12 L81,12 L81,13 L82,13 L82,14 L83,14 L83,15 L84,15 L84,16 L85,16 L85,17 L86,17 L86,19 L87,19 L87,20 L88,20 L88,21 L89,21 L89,23 L90,23 L90,25 L91,25 L91,29 L92,29 L92,32 L93,32 L93,35 L94,35 L94,53 L93,53 L93,56 L92,56 L92,59 L91,59 L91,62 L90,62 L90,64 L89,64 L89,66 L88,66 L88,68 L87,68 L87,71 L86,71 L86,72 L85,72 L85,73 L84,73 L84,75 L83,75 L83,77 L82,77 L82,78 L81,78 L81,79 L80,79 L80,81 L79,81 L79,82 L78,82 L78,83 L77,83 L77,84 L76,84 L76,85 L75,85 L75,86 L74,86 L74,88 L73,88 L73,89 L72,89 L72,90 L71,90 L71,91 L70,91 L70,92 L69,92 L69,93 L68,93 L68,94 L67,94 L67,95 L66,95 L66,96 L65,96 L65,97 L64,97 L64,98 L63,98 L63,99 L62,99 L62,100 L61,100 L61,101 L60,101 L60,102 L59,102 L59,103 L58,103 L58,104 L57,104 L57,105 L56,105 L56,106 L55,106 L55,107 L54,107 L54,108 L53,108 L53,109 L52,109 L52,111 L51,111 L51,112 L50,112 L50,113 L49,113 L49,114 L48,114 L48,115 L47,115 L47,116 L46,116 L46,117 L44,117 L44,118 L43,118 L43,120 L41,120 L41,87 L39,87 L39,86 L35,86 L35,85 L32,85 L32,86 L31,86 L31,87 L30,87 L30,88 L29,88 L29,90 L28,90 L28,91 L27,91 L27,92 L26,92 L26,93 L25,93 L25,94 L24,94 L24,95 L23,95 L23,96 L22,96 L22,97 L21,97 L21,98 L20,98 L20,99 L19,99 L19,100 L18,100 L18,101 L17,101 L17,102 L16,102 L16,103 L15,103 L15,104 L14,104 L14,105 L13,105 L13,107 L12,107 L12,108 L11,108 L11,109 L10,109 L10,110 L9,110 L9,111 L8,111 L8,112 L7,112 L7,113 L6,113 L6,114 L5,114 L5,115 L4,115 L4,116 L3,116 L3,117 L2,117 L2,118 L1,118 L1,119 L-1,119 L-1,87 L-5,87 L-5,86 L-7,86 L-7,85 L-9,85 L-9,84 L-11,84 L-11,83 L-13,83 L-13,82 L-15,82 L-15,81 L-16,81 L-16,80 L-18,80 L-18,79 L-19,79 L-19,78 L-20,78 L-20,77 L-21,77 L-21,76 L-22,76 L-22,75 L-23,75 L-23,74 L-24,74 L-24,73 L-25,73 L-25,72 L-26,72 L-26,70 L-27,70 L-27,69 L-29,69 L-29,67 L-30,67 L-30,65 L-31,65 L-31,63 L-32,63 L-32,59 L-33,59 L-33,56 L-34,56 L-34,52 L-35,52 L-35,36 L-34,36 L-34,32 L-33,32 L-33,29 L-32,29 L-32,27 L-31,27 L-31,23 L-30,23 L-30,22 L-29,22 L-29,20 L-28,20 L-28,19 L-27,19 L-27,17 L-26,17 L-26,16 L-25,16 L-25,15 L-24,15 L-24,14 L-23,14 L-23,13 L-22,13 L-22,12 L-21,12 L-21,11 L-20,11 L-20,10 L-18,10 L-18,9 L-17,9 L-17,8 L-16,8 L-16,7 L-14,7 L-14,6 L-12,6 L-12,5 L-11,5 L-11,4 L-8,4 L-8,3 L-6,3 L-6,2 L-2,2 L-2,1 L0,1 Z M-1,5 L-1,6 L-5,6 L-5,7 L-7,7 L-7,8 L-9,8 L-9,9 L-11,9 L-11,10 L-13,10 L-13,11 L-14,11 L-14,12 L-16,12 L-16,13 L-17,13 L-17,14 L-18,14 L-18,15 L-19,15 L-19,16 L-20,16 L-20,17 L-21,17 L-21,18 L-22,18 L-22,19 L-23,19 L-23,20 L-24,20 L-24,22 L-25,22 L-25,23 L-26,23 L-26,25 L-27,25 L-27,27 L-28,27 L-28,29 L-29,29 L-29,31 L-30,31 L-30,34 L-31,34 L-31,55 L-30,55 L-30,57 L-29,57 L-29,59 L-28,59 L-28,62 L-27,62 L-27,63 L-26,63 L-26,65 L-25,65 L-25,67 L-24,67 L-24,68 L-23,68 L-23,69 L-22,69 L-22,70 L-21,70 L-21,72 L-20,72 L-20,73 L-19,73 L-19,74 L-18,74 L-18,75 L-16,75 L-16,76 L-15,76 L-15,77 L-14,77 L-14,78 L-12,78 L-12,79 L-10,79 L-10,80 L-8,80 L-8,81 L-5,81 L-5,82 L-3,82 L-3,83 L2,83 L2,110 L4,110 L4,109 L5,109 L5,108 L6,108 L6,107 L7,107 L7,106 L8,106 L8,105 L9,105 L9,104 L10,104 L10,103 L11,103 L11,102 L12,102 L12,101 L13,101 L13,100 L14,100 L14,99 L15,99 L15,98 L16,98 L16,97 L17,97 L17,96 L18,96 L18,94 L19,94 L19,93 L20,93 L20,92 L21,92 L21,91 L22,91 L22,90 L23,90 L23,89 L24,89 L24,88 L25,88 L25,87 L26,87 L26,86 L27,86 L27,85 L28,85 L28,84 L29,84 L29,82 L28,82 L28,81 L26,81 L26,80 L25,80 L25,79 L24,79 L24,78 L22,78 L22,77 L21,77 L21,76 L20,76 L20,75 L19,75 L19,73 L18,73 L18,72 L17,72 L17,71 L16,71 L16,70 L15,70 L15,68 L14,68 L14,67 L13,67 L13,65 L12,65 L12,63 L11,63 L11,61 L10,61 L10,58 L9,58 L9,55 L8,55 L8,50 L7,50 L7,37 L8,37 L8,33 L9,33 L9,30 L10,30 L10,27 L11,27 L11,25 L12,25 L12,23 L13,23 L13,21 L14,21 L14,20 L15,20 L15,18 L16,18 L16,17 L17,17 L17,16 L18,16 L18,15 L19,15 L19,14 L20,14 L20,13 L21,13 L21,12 L22,12 L22,11 L23,11 L23,10 L24,10 L24,8 L23,8 L23,7 L21,7 L21,6 L16,6 L16,5 Z M41,5 L41,6 L38,6 L38,7 L37,7 L37,8 L34,8 L34,9 L31,9 L31,10 L30,10 L30,11 L29,11 L29,12 L28,12 L28,13 L25,13 L25,14 L24,14 L24,15 L23,15 L23,16 L22,16 L22,17 L21,17 L21,18 L20,18 L20,19 L19,19 L19,21 L18,21 L18,22 L17,22 L17,24 L16,24 L16,27 L15,27 L15,30 L14,30 L14,32 L13,32 L13,36 L12,36 L12,39 L11,39 L11,50 L12,50 L12,53 L13,53 L13,56 L14,56 L14,59 L15,59 L15,61 L16,61 L16,65 L18,65 L18,67 L19,67 L19,69 L20,69 L20,70 L21,70 L21,71 L22,71 L22,72 L23,72 L23,73 L24,73 L24,74 L25,74 L25,75 L27,75 L27,76 L28,76 L28,77 L29,77 L29,78 L31,78 L31,79 L32,79 L32,80 L35,80 L35,81 L37,81 L37,82 L40,82 L40,83 L44,83 L44,84 L45,84 L45,110 L47,110 L47,109 L48,109 L48,108 L49,108 L49,107 L50,107 L50,106 L51,106 L51,105 L52,105 L52,104 L53,104 L53,103 L54,103 L54,102 L55,102 L55,101 L56,101 L56,100 L57,100 L57,99 L58,99 L58,98 L59,98 L59,97 L60,97 L60,96 L61,96 L61,95 L62,95 L62,94 L63,94 L63,93 L64,93 L64,92 L65,92 L65,91 L66,91 L66,90 L67,90 L67,89 L68,89 L68,88 L69,88 L69,86 L70,86 L70,84 L71,84 L71,83 L73,83 L73,82 L74,82 L74,79 L75,79 L75,78 L76,78 L76,77 L77,77 L77,76 L79,76 L79,73 L80,73 L80,72 L81,72 L81,71 L82,71 L82,70 L83,70 L83,68 L84,68 L84,66 L85,66 L85,64 L86,64 L86,62 L87,62 L87,60 L88,60 L88,55 L89,55 L89,50 L90,50 L90,49 L91,49 L91,37 L90,37 L90,33 L89,33 L89,31 L88,31 L88,28 L87,28 L87,26 L86,26 L86,25 L85,25 L85,23 L84,23 L84,22 L83,22 L83,20 L82,20 L82,19 L81,19 L81,18 L80,18 L80,17 L79,17 L79,16 L77,16 L77,15 L76,15 L76,14 L75,14 L75,13 L74,13 L74,11 L73,11 L73,10 L69,10 L69,9 L67,9 L67,8 L65,8 L65,7 L62,7 L62,6 L60,6 L60,5 Z " fill="#171D2B" transform="translate(83,39)"/>
<path d="M0,0 L7,0 L7,1 L9,1 L9,2 L10,2 L10,3 L11,3 L11,5 L12,5 L12,10 L11,10 L11,12 L10,12 L10,13 L9,13 L9,14 L7,14 L7,15 L0,15 L0,14 L-2,14 L-2,12 L-3,12 L-3,11 L-4,11 L-4,4 L-3,4 L-3,3 L-2,3 L-2,2 L-1,2 L-1,1 L0,1 Z " fill="#42444B" transform="translate(158,178)"/>
<path d="M0,0 L7,0 L7,1 L8,1 L8,2 L10,2 L10,4 L11,4 L11,11 L10,11 L10,12 L9,12 L9,14 L7,14 L7,15 L0,15 L0,14 L-2,14 L-2,12 L-3,12 L-3,11 L-4,11 L-4,4 L-3,4 L-3,2 L-2,2 L-2,1 L0,1 Z " fill="#22252E" transform="translate(61,178)"/>
<path d="M0,0 L3,0 L3,16 L0,16 L0,13 L-1,13 L-1,12 L-2,12 L-2,11 L-3,11 L-3,9 L-4,9 L-4,8 L-6,8 L-6,7 L-7,7 L-7,6 L-8,6 L-8,16 L-11,16 L-11,1 L-7,1 L-7,2 L-6,2 L-6,3 L-5,3 L-5,4 L-4,4 L-4,5 L-3,5 L-3,6 L-2,6 L-2,7 L-1,7 L-1,8 L0,8 Z " fill="#272A33" transform="translate(183,177)"/>
<path d="M0,0 L4,0 L4,2 L5,2 L5,4 L6,4 L6,9 L7,9 L7,10 L8,10 L8,13 L9,13 L9,15 L7,15 L7,14 L6,14 L6,13 L-2,13 L-2,14 L-3,14 L-3,15 L-5,15 L-5,11 L-4,11 L-4,9 L-3,9 L-3,6 L-2,6 L-2,4 L-1,4 L-1,2 L0,2 Z " fill="#151927" transform="translate(120,178)"/>
<path d="M0,0 L2,0 L2,2 L3,2 L3,3 L4,3 L4,4 L5,4 L5,5 L6,5 L6,6 L7,6 L7,7 L9,7 L9,6 L10,6 L10,5 L11,5 L11,4 L12,4 L12,3 L13,3 L13,2 L14,2 L14,0 L16,0 L16,15 L13,15 L13,7 L11,7 L11,8 L10,8 L10,9 L9,9 L9,10 L7,10 L7,9 L6,9 L6,8 L4,8 L4,7 L3,7 L3,16 L0,16 Z " fill="#242730" transform="translate(38,178)"/>
<path d="M0,0 L1,0 L1,2 L2,2 L2,4 L1,4 L1,5 L0,5 L0,6 L-1,6 L-1,7 L-2,7 L-2,8 L-3,8 L-3,9 L-4,9 L-4,10 L-5,10 L-5,11 L-6,11 L-6,12 L-7,12 L-7,13 L-8,13 L-8,14 L-9,14 L-9,15 L-10,15 L-10,16 L-11,16 L-11,17 L-12,17 L-12,18 L-13,18 L-13,19 L-14,19 L-14,20 L-15,20 L-15,18 L-16,18 L-16,19 L-18,19 L-18,18 L-17,18 L-17,17 L-16,17 L-16,16 L-15,16 L-15,15 L-14,15 L-14,14 L-13,14 L-13,13 L-12,13 L-12,12 L-11,12 L-11,11 L-10,11 L-10,10 L-9,10 L-9,9 L-8,9 L-8,8 L-7,8 L-7,7 L-6,7 L-6,6 L-5,6 L-5,5 L-4,5 L-4,4 L-3,4 L-3,3 L-2,3 L-2,2 L-1,2 L-1,1 L0,1 Z " fill="#071127" transform="translate(151,127)"/>
<path d="M0,0 L3,0 L3,3 L4,3 L4,5 L5,5 L5,8 L6,8 L6,10 L8,10 L8,8 L9,8 L9,5 L10,5 L10,3 L11,3 L11,1 L12,1 L12,0 L14,0 L14,1 L13,1 L13,7 L12,7 L12,8 L11,8 L11,10 L10,10 L10,13 L9,13 L9,15 L5,15 L5,13 L4,13 L4,11 L3,11 L3,8 L2,8 L2,4 L1,4 L1,2 L0,2 Z " fill="#1E222D" transform="translate(97,178)"/>
<path d="M0,0 L4,0 L4,1 L5,1 L5,2 L6,2 L6,9 L5,9 L5,10 L-2,10 L-2,9 L-3,9 L-3,2 L-2,2 L-2,1 L0,1 Z " fill="#EDEDEE" transform="translate(63,180)"/>
<path d="M0,0 L3,0 L3,1 L5,1 L5,2 L6,2 L6,9 L5,9 L5,10 L-2,10 L-2,9 L-3,9 L-3,2 L-2,2 L-2,1 L0,1 Z " fill="#F7F7F7" transform="translate(160,180)"/>
<path d="M0,0 L16,0 L16,1 L18,1 L18,2 L22,2 L22,3 L24,3 L24,4 L22,4 L22,5 L18,5 L18,6 L16,6 L16,5 L3,5 L3,4 L13,4 L13,3 L11,3 L11,1 L2,1 L2,2 L-2,2 L-2,1 L0,1 Z " fill="#4A505A" transform="translate(83,39)"/>
<path d="M0,0 L4,0 L4,17 L0,17 Z " fill="#595C62" transform="translate(90,177)"/>
<path d="M0,0 L13,0 L13,2 L8,2 L8,15 L5,15 L5,2 L0,2 Z " fill="#131421" transform="translate(132,178)"/>
<path d="M0,0 L2,0 L2,25 L3,25 L3,26 L2,26 L2,27 L0,27 Z " fill="#CCCCCD" transform="translate(85,122)"/>
<path d="M0,0 L14,0 L14,2 L8,2 L8,15 L6,15 L6,2 L0,2 Z " fill="#07070F" transform="translate(74,178)"/>
<path d="M0,0 L1,0 L1,3 L2,3 L2,6 L3,6 L3,9 L4,9 L4,11 L5,11 L5,15 L6,15 L6,17 L5,17 L5,20 L4,20 L4,18 L3,18 L3,17 L2,17 L2,15 L1,15 L1,13 L0,13 L0,11 L-1,11 L-1,10 L0,10 L0,8 L1,8 L1,10 L2,10 L2,7 L1,7 L1,4 L0,4 Z " fill="#322F31" transform="translate(94,89)"/>
<path d="M0,0 L1,0 L1,5 L2,5 L2,3 L3,3 L3,0 L5,0 L5,2 L6,2 L6,4 L7,4 L7,7 L1,7 L1,8 L-2,8 L-2,9 L-3,9 L-3,7 L-2,7 L-2,5 L-1,5 L-1,2 L0,2 Z " fill="#363B47" transform="translate(118,182)"/>
<path d="M0,0 L7,0 L7,1 L9,1 L9,2 L10,2 L10,5 L8,5 L8,4 L7,4 L7,3 L5,3 L5,2 L2,2 L2,3 L0,3 L0,4 L-1,4 L-1,5 L-2,5 L-2,10 L-4,10 L-4,4 L-3,4 L-3,3 L-2,3 L-2,2 L-1,2 L-1,1 L0,1 Z " fill="#0C0E19" transform="translate(158,178)"/>
<path d="M0,0 L3,0 L3,15 L0,15 Z " fill="#0C1218" transform="translate(148,178)"/>
<path d="M0,0 L1,0 L1,13 L2,13 L2,17 L3,17 L3,19 L4,19 L4,22 L3,22 L3,20 L2,20 L2,21 L0,21 L0,18 L-1,18 L-1,13 L0,13 Z " fill="#050A1A" transform="translate(50,77)"/>
<path d="M0,0 L1,0 L1,2 L2,2 L2,1 L3,1 L3,4 L4,4 L4,5 L5,5 L5,6 L4,6 L4,11 L2,11 L2,9 L1,9 L1,7 L0,7 L0,5 L-1,5 L-1,1 L0,1 Z " fill="#272C37" transform="translate(52,97)"/>
<path d="M0,0 L7,0 L7,3 L-1,3 L-1,4 L-6,4 L-6,3 L-2,3 L-2,2 L-6,2 L-6,1 L-1,1 L-1,2 L0,2 Z " fill="#030927" transform="translate(130,40)"/>
<path d="M0,0 L6,0 L6,1 L8,1 L8,3 L9,3 L9,10 L8,10 L8,11 L7,11 L7,4 L6,4 L6,3 L5,3 L5,2 L4,2 L4,1 L0,1 Z " fill="#060914" transform="translate(63,179)"/>
<path d="M0,0 L1,0 L1,2 L0,2 L0,4 L-1,4 L-1,8 L-2,8 L-2,11 L-3,11 L-3,20 L-4,20 L-4,6 L-2,6 L-2,3 L-1,3 L-1,1 L0,1 Z " fill="#4D3F39" transform="translate(97,67)"/>
<path d="M0,0 L1,0 L1,2 L2,2 L2,6 L1,6 L1,9 L-2,9 L-2,4 L-1,4 L-1,1 L0,1 Z " fill="#0A0F1C" transform="translate(51,67)"/>
<path d="M0,0 L1,0 L1,2 L2,2 L2,7 L1,7 L1,9 L0,9 L0,7 L-2,7 L-2,2 L0,2 Z " fill="#444650" transform="translate(168,181)"/>
<path d="M0,0 L2,0 L2,3 L1,3 L1,4 L-1,4 L-1,5 L-7,5 L-7,3 L-2,3 L-2,2 L-1,2 L-1,1 L0,1 Z " fill="#0C0F1B" transform="translate(166,188)"/>
<path d="M0,0 L2,0 L2,2 L5,2 L5,1 L9,1 L9,0 L10,0 L10,3 L8,3 L8,4 L5,4 L5,3 L1,3 L1,2 L-1,2 L-1,1 L0,1 Z " fill="#303744" transform="translate(117,122)"/>
<path d="M0,0 L2,0 L2,2 L3,2 L3,6 L-1,6 L-1,3 L0,3 Z " fill="#CDCED0" transform="translate(121,182)"/>
<path d="M0,0 L2,0 L2,1 L1,1 L1,7 L0,7 L0,8 L-1,8 L-1,6 L-3,6 L-3,5 L-2,5 L-2,3 L-1,3 L-1,1 L0,1 Z " fill="#272933" transform="translate(109,178)"/>
<path d="M0,0 L1,0 L1,1 L3,1 L3,2 L4,2 L4,1 L5,1 L5,6 L6,6 L6,8 L5,8 L5,7 L4,7 L4,6 L3,6 L3,4 L2,4 L2,3 L1,3 L1,2 L0,2 Z " fill="#080F2A" transform="translate(163,55)"/>
<path d="M0,0 L3,0 L3,1 L1,1 L1,2 L0,2 L0,3 L-1,3 L-1,4 L-2,4 L-2,9 L-3,9 L-3,2 L-2,2 L-2,1 L0,1 Z " fill="#CFD1D3" transform="translate(160,180)"/>
<path d="M0,0 L1,0 L1,3 L2,3 L2,4 L1,4 L1,7 L0,7 L0,9 L-1,9 L-1,2 L0,2 Z " fill="#030614" transform="translate(120,178)"/>
<path d="M0,0 L1,0 L1,4 L2,4 L2,6 L1,6 L1,5 L0,5 L0,4 L-2,4 L-2,5 L-3,5 L-3,3 L-2,3 L-2,2 L-1,2 L-1,1 L0,1 Z " fill="#493D3B" transform="translate(160,115)"/>
<path d="M0,0 L3,0 L3,6 L2,6 L2,4 L1,4 L1,2 L0,2 Z " fill="#0F111C" transform="translate(97,178)"/>
<path d="M0,0 L1,0 L1,1 L2,1 L2,2 L3,2 L3,3 L2,3 L2,4 L0,4 L0,5 L-1,5 L-1,1 L0,1 Z " fill="#121A2A" transform="translate(175,178)"/>
<path d="M0,0 L2,0 L2,1 L3,1 L3,3 L2,3 L2,4 L1,4 L1,5 L0,5 L0,3 L-1,3 L-1,2 L0,2 Z " fill="#08111E" transform="translate(105,130)"/>
<path d="M0,0 L2,0 L2,3 L-1,3 L-1,2 L-4,2 L-4,1 L0,1 Z " fill="#030B18" transform="translate(105,43)"/>
<path d="M0,0 L2,0 L2,1 L3,1 L3,3 L2,3 L2,4 L0,4 L0,3 L1,3 L1,2 L-1,2 L-1,1 L0,1 Z " fill="#060D21" transform="translate(158,119)"/>
<path d="M0,0 L3,0 L3,4 L2,4 L2,3 L0,3 Z " fill="#04091E" transform="translate(173,91)"/>
<path d="M0,0 L4,0 L4,3 L2,3 L2,2 L1,2 L1,1 L0,1 Z " fill="#070B15" transform="translate(164,180)"/>
<path d="M0,0 L3,0 L3,1 L5,1 L5,2 L3,2 L3,3 L2,3 L2,2 L0,2 Z " fill="#333842" transform="translate(102,41)"/>
<path d="M0,0 L2,0 L2,2 L1,2 L1,3 L-1,3 L-1,1 L0,1 Z " fill="#080D18" transform="translate(116,190)"/>
</svg>
