<?xml version="1.0" encoding="UTF-8"?>
<svg width="18px" height="18px" viewBox="0 0 18 18" version="1.1" xmlns="http://www.w3.org/2000/svg" xmlns:xlink="http://www.w3.org/1999/xlink">
    <title></title>
    <defs>
        <linearGradient x1="16.1910495%" y1="0%" x2="50%" y2="100%" id="linearGradient-1">
            <stop stop-color="#887BFF" offset="0%"></stop>
            <stop stop-color="#5670FB" offset="100%"></stop>
        </linearGradient>
    </defs>
    <g id="nexusAI" stroke="none" stroke-width="1" fill="none" fill-rule="evenodd">
        <g id="-" transform="translate(-631.000000, -627.000000)">
            <g id="-26" transform="translate(570.000000, 559.386333)">
                <g id="" transform="translate(59.000000, 65.613667)">
                    <rect id="" fill="#000000" fill-rule="nonzero" opacity="0" x="0" y="0" width="22" height="22"></rect>
                    <path d="M15.1487666,7.83104883 C15.5231512,7.83104883 15.9807324,7.97664285 15.9807324,8.67341425 L15.9807324,14.7675641 C15.9807324,14.8819594 15.9807324,14.9859551 15.9703329,15.1003504 C15.9599333,15.2459444 15.9599333,15.3915385 15.9703329,15.5163333 C15.9807324,15.817921 15.8663371,16.109109 15.6375465,16.3586988 C15.3879568,16.6290877 15.0447709,16.7850813 14.7119845,16.7954808 C14.667222,16.8066715 14.3424859,16.8118412 13.7458751,16.8142294 L13.7448242,19.0729873 C13.7448242,19.4057737 13.4744353,19.6761626 13.141649,19.6761626 C12.8088626,19.6761626 12.5384737,19.4057737 12.5384737,19.0729873 L12.5376464,16.8158586 L9.33464644,16.8158586 L9.33540524,19.0729873 C9.34580481,19.4057737 9.07541591,19.6761626 8.73223,19.6761626 C8.39944366,19.6761626 8.12905476,19.4057737 8.12905476,19.0729873 L8.12864644,16.8158586 L7.26589019,16.81628 C6.5275205,16.8058804 5.96594356,16.2755022 5.92434526,15.5371325 L5.92434526,8.67341425 C5.92434526,8.10143773 6.19473416,7.83104883 6.76671068,7.83104883 L15.1487666,7.83104883 Z M14.701585,9.11019632 L13.0584524,9.11019632 L7.20349275,9.12059589 L7.20349275,15.3915385 C7.21389233,15.4955342 7.25549062,15.5267329 7.34908678,15.5371325 L14.5975892,15.5371325 C14.6183884,15.5371325 14.6599867,15.4955342 14.6807858,15.4643355 L14.6814659,15.0815362 C14.6815541,15.0375979 14.6816505,14.9903879 14.6817547,14.9401532 L14.6824712,14.6044268 C14.685828,13.0708102 14.6937065,9.95571312 14.701585,9.12059589 L14.701585,9.11019632 Z M4.10441997,7.88304669 C4.43720631,7.88304669 4.73879393,8.15343559 4.73879393,8.48622193 L4.73879393,13.7796046 C4.73879393,14.1227905 4.43720631,14.3931794 4.10441997,14.3931794 C3.77163363,14.3931794 3.45964644,14.1227905 3.45964644,13.7900042 L3.45964644,8.48622193 C3.45964644,8.15343559 3.77163363,7.88304669 4.10441997,7.88304669 Z M17.7590594,7.88304669 C18.0918458,7.88304669 18.403833,8.15343559 18.403833,8.48622193 L18.403833,13.7796046 C18.403833,14.1227905 18.0918458,14.3931794 17.7590594,14.3931794 C17.4262731,14.3931794 17.1246855,14.1227905 17.1246855,13.7900042 L17.1246855,8.48622193 C17.1246855,8.15343559 17.4262731,7.88304669 17.7590594,7.88304669 Z M14.1296084,2.40247167 C14.285602,2.49606783 14.3375999,2.70405929 14.2440037,2.86005289 L14.2336042,2.87045246 L13.5686464,3.93785857 L13.6710237,3.99579798 C14.562083,4.52201543 15.211164,5.26635411 15.5855487,6.18791628 C15.627147,6.29191201 15.7415423,6.57270048 15.5647495,6.83268981 C15.3775572,7.10307871 15.0759696,7.10307871 14.9407751,7.10307871 L13.1520486,7.11347828 L6.94350343,7.11347828 C6.78750983,7.11347828 6.48592221,7.11347828 6.30912947,6.85348896 C6.13233672,6.59349963 6.23633246,6.31271116 6.27793075,6.19831585 C6.50672136,5.61593976 6.86030684,5.07516196 7.34908678,4.60718117 C7.6259447,4.33955184 7.94374999,4.11286987 8.31703734,3.91260056 L7.67147354,2.87045246 C7.57787738,2.71445887 7.62987525,2.50646741 7.78586885,2.41287125 C7.94186244,2.31927509 8.13945433,2.37127296 8.23305049,2.51686698 L8.92517234,3.63024531 C8.99286673,3.60263192 9.0506454,3.58001298 9.08581548,3.56722386 C10.0841745,3.2032388 11.1761297,3.15124094 12.3200827,3.42162984 C12.4968755,3.46322813 12.6632686,3.52562557 12.8088626,3.58802301 C12.8302871,3.59516449 12.8897184,3.61947037 12.9661085,3.65210046 L13.6720272,2.51686698 C13.7656234,2.36087338 13.9736148,2.30887552 14.1296084,2.40247167 Z M9.44980054,4.57598245 C9.3874031,4.5967816 9.07541591,4.73197605 8.95062103,4.80477306 C8.60743512,4.97116623 8.33704622,5.16875812 8.09785604,5.39754872 C7.879465,5.58474104 7.69227269,5.80313207 7.54667867,6.04232226 L14.3064012,6.04232226 C13.9840144,5.53274317 13.5264332,5.12715982 12.9336575,4.80477306 C12.8192622,4.74237562 12.5176746,4.61758074 12.4136789,4.57598245 C12.2784844,4.52398458 12.1744887,4.48238629 12.070493,4.46158715 C11.1345314,4.24319611 10.2609672,4.27439483 9.44980054,4.57598245 Z M9.29380694,4.99196537 C9.51219798,5.00236495 9.68899072,5.17915769 9.68899072,5.39754872 L9.68899072,5.4079483 C9.67859115,5.62633933 9.50179841,5.80313207 9.28340737,5.80313207 C9.06501634,5.7927325 8.88822359,5.61593976 8.88822359,5.39754872 L8.89626701,5.31443339 C8.93323425,5.12732232 9.09361516,4.99196537 9.29380694,4.99196537 Z M12.580072,5.00236495 C12.7984631,5.00236495 12.9752558,5.17915769 12.9752558,5.39754872 C12.9752558,5.61593976 12.7984631,5.7927325 12.580072,5.7927325 C12.361681,5.7927325 12.1848883,5.61593976 12.1848883,5.39754872 C12.1848883,5.16875812 12.361681,5.00236495 12.580072,5.00236495 Z" id="" fill="url(#linearGradient-1)"></path>
                </g>
            </g>
        </g>
    </g>
</svg>
