<?xml version="1.0" encoding="UTF-8"?>
<svg width="18px" height="18px" viewBox="0 0 18 18" version="1.1" xmlns="http://www.w3.org/2000/svg" xmlns:xlink="http://www.w3.org/1999/xlink">
    <title></title>
    <defs>
        <linearGradient x1="4.58512215%" y1="8.5084001%" x2="50%" y2="91.4915999%" id="linearGradient-1">
            <stop stop-color="#887BFF" offset="0%"></stop>
            <stop stop-color="#5670FB" offset="100%"></stop>
        </linearGradient>
    </defs>
    <g id="nexusAI" stroke="none" stroke-width="1" fill="none" fill-rule="evenodd">
        <g id="-" transform="translate(-671.000000, -587.000000)">
            <g id="-26" transform="translate(570.000000, 559.386333)">
                <g id="" transform="translate(101.000000, 27.613667)">
                    <rect id="" fill="#000000" fill-rule="nonzero" opacity="0" x="0" y="0" width="18" height="18"></rect>
                    <path d="M15.8973047,5.46099609 C15.8973047,5.46099609 9.16171875,7.29492187 8.40041016,15.5390625 C12.7139062,15.9463477 15.9380859,12.0698437 15.8973047,9.93164062 C15.8565234,7.7934375 15.8973047,5.46099609 15.8973047,5.46099609 Z" id="" fill-opacity="0.172561325" fill="#6473FC" fill-rule="nonzero"></path>
                    <path d="M4.01783203,2.37568359 C4.78662295,2.58991008 5.52940588,2.88837913 6.23267578,3.26566406 C7.09592987,3.7294164 7.88704431,4.31641621 8.58111328,5.00818359 C9.14457192,5.57089851 9.64357421,6.20470715 10.0747139,6.90414907 C10.5494454,6.25120737 11.1325554,5.66863132 11.8103906,5.16955078 C12.4305469,4.71251953 13.1305078,4.32580078 13.8909375,4.01730469 C15.1841602,3.49365234 16.2093164,3.38009766 16.252207,3.37552734 L16.2870333,3.37380841 C16.2954752,3.37343226 16.3039654,3.37324219 16.3125,3.37324219 L16.327,3.37344531 L16.3430872,3.37400234 C16.3526852,3.37461578 16.3622274,3.37547347 16.3717067,3.37656977 L16.3125,3.37324219 C16.3510647,3.37324219 16.388723,3.3771231 16.4251056,3.38451567 C16.4298933,3.38641286 16.4349505,3.3875732 16.4399834,3.38880185 C16.6893364,3.44562778 16.8750006,3.66900294 16.8750006,3.93574219 L16.8750006,9.13886719 C16.875409,10.1135283 16.6603355,11.0762266 16.2451758,11.9580469 C15.8438672,12.8167383 15.2711719,13.5878906 14.5429102,14.2498828 C13.8117099,14.9125483 12.9637703,15.4336145 12.0422461,15.7865625 C11.0716547,16.1604915 10.0401276,16.3511574 9,16.3489068 C7.96027491,16.3509492 6.92917849,16.1602261 5.95898437,15.7863867 C5.03746012,15.4334387 4.18952052,14.9123725 3.45832031,14.249707 C2.73005859,13.5877148 2.15753906,12.8165625 1.75605469,11.9578711 C1.34049579,11.0762018 1.125,10.113562 1.125,9.13886719 L1.125,2.56464844 C1.125,2.5025164 1.13507359,2.44273718 1.15367662,2.38685493 C1.22808875,2.1626228 1.43897186,2.00144531 1.6875,2.00144531 L1.73756004,2.00213228 C1.95675564,2.0071072 2.84548828,2.04771484 4.01783203,2.37568359 Z M2.2492684,3.16798812 L2.25,9.13886719 C2.24990962,9.94893156 2.4288443,10.7490055 2.77400391,11.4818555 C3.11203125,12.2048438 3.59630859,12.8561133 4.21382812,13.4173828 C4.84237577,13.9866517 5.57123138,14.4341695 6.36328125,14.7371484 C7.83604669,15.3001668 9.44406107,15.3748188 10.9526925,14.9611044 L10.9550391,15.1751953 C10.9550391,12.4024219 10.4651367,10.0453711 9.49886719,8.16960938 C8.73632812,6.68988281 7.67460938,5.50195313 6.34253906,4.63693359 C5.14898437,3.86244141 3.95085937,3.493125 3.15597656,3.31980469 C2.80036894,3.24227375 2.49108108,3.19581846 2.2492684,3.16798812 Z M14.2806445,5.07304687 C13.6126758,5.34638672 12.9999023,5.68828125 12.4600781,6.08783203 C11.7935156,6.58142578 11.2352344,7.16695312 10.8008789,7.82806641 C10.7620242,7.8873559 10.7129779,7.93783798 10.6568813,7.97781214 C10.8040977,8.28237583 10.9392687,8.59918193 11.0629687,8.92582031 C11.6778086,10.5493242 12.0164216,12.4392783 12.0717615,14.5510115 C12.6959279,14.2636659 13.2741195,13.880872 13.7858203,13.4173828 C14.4033398,12.8561133 14.8876172,12.2044922 15.2256445,11.4818555 C15.5709254,10.7490333 15.7499804,9.9489581 15.75,9.13886719 L15.7498933,4.60831904 C15.3727904,4.69412928 14.8545352,4.83834894 14.2806445,5.07304687 Z M4.15449998,8.97802648 C4.3235481,9.02272521 4.46049569,9.14287194 4.52795612,9.30076076 L4.55572266,9.38267578 C4.56837891,9.42609375 4.7165625,9.91125 5.06548828,10.4503711 C5.52832031,11.1670312 6.114375,11.6456836 6.80730469,11.8719141 C6.94915446,11.9181729 7.0668146,12.0188929 7.13439551,12.1519119 C7.20197642,12.2849309 7.21394088,12.43935 7.16765625,12.5811914 C7.07110581,12.8764615 6.7534756,13.0375589 6.45820313,12.9410156 C4.19835938,12.2020312 3.50121094,9.78714844 3.47255859,9.68554687 C3.4131864,9.49037708 3.46413664,9.27835918 3.60570742,9.13147821 C3.7472782,8.98459723 3.95727716,8.92587795 4.15449998,8.97802648 Z" id="" fill="url(#linearGradient-1)"></path>
                </g>
            </g>
        </g>
    </g>
</svg>
