<?xml version="1.0" encoding="UTF-8"?>
<svg width="18px" height="18px" viewBox="0 0 18 18" version="1.1" xmlns="http://www.w3.org/2000/svg" xmlns:xlink="http://www.w3.org/1999/xlink">
    <title></title>
    <defs>
        <linearGradient x1="4.58512215%" y1="17.1865229%" x2="50%" y2="82.8134771%" id="linearGradient-1">
            <stop stop-color="#887BFF" offset="0%"></stop>
            <stop stop-color="#5670FB" offset="100%"></stop>
        </linearGradient>
    </defs>
    <g id="nexusAI" stroke="none" stroke-width="1" fill="none" fill-rule="evenodd">
        <g id="-" transform="translate(-671.000000, -667.000000)">
            <g id="-26" transform="translate(570.000000, 559.386333)">
                <g id=",," transform="translate(101.000000, 107.613667)">
                    <rect id="" fill="#000000" fill-rule="nonzero" opacity="0" x="0" y="0" width="18" height="18"></rect>
                    <path d="M16.7766939,13.8225927 L13.101108,15.9442724 C13.053647,15.9706396 12.9956392,15.9372412 12.9956392,15.882749 L12.9956392,14.6048193 C12.9956392,14.4501318 12.8690767,14.3235693 12.7143892,14.3235693 L4.22591267,14.3235693 C3.47884236,14.3235693 2.77395954,14.0300146 2.23958454,13.4973974 C1.70696736,12.9647802 1.41341267,12.2598974 1.41341267,11.5110693 C1.41341267,10.7622412 1.70696736,10.0591162 2.23958454,9.52474116 C2.77220173,8.99212397 3.47884236,8.69856929 4.22591267,8.69856929 L14.3509127,8.69856929 C15.2878267,8.69856929 16.0472017,7.93216304 16.0384127,6.99349116 C16.0296236,6.06536616 15.2579439,5.32356929 14.3298189,5.32356929 L5.20677204,5.32356929 C5.08724079,5.32356929 4.98177204,5.39915522 4.94134236,5.51165522 C4.63196736,6.38528804 3.79876423,7.01106929 2.81966267,7.01106929 C1.57161579,7.01106929 0.560873606,5.99505366 0.56960578,4.74524897 C0.578451731,3.4972021 1.61380329,2.48997554 2.86185017,2.51106929 C3.82337361,2.52864741 4.63899861,3.15091304 4.94310017,4.01224116 C4.98177204,4.12474116 5.08899861,4.19856929 5.20677204,4.19856929 L14.3509127,4.19856929 C15.097983,4.19856929 15.8028658,4.49212397 16.3372408,5.02474116 C16.869858,5.55735835 17.1634127,6.26399897 17.1634127,7.01106929 C17.1634127,7.7581396 16.869858,8.46302241 16.3372408,8.99739741 C15.8046236,9.5300146 15.097983,9.82356929 14.3509127,9.82356929 L4.22591267,9.82356929 C3.28899861,9.82356929 2.52962361,10.5899755 2.53841267,11.5286474 C2.54720173,12.4567724 3.31888142,13.1985693 4.24700642,13.1985693 L12.7143892,13.1985693 C12.8690767,13.1985693 12.9956392,13.0720068 12.9956392,12.9173193 L12.9956392,11.6393896 C12.9956392,11.5848974 13.053647,11.551499 13.101108,11.5778662 L16.7766939,13.6995458 C16.8241549,13.7276708 16.8241549,13.7944677 16.7766939,13.8225927 Z" id="" fill="url(#linearGradient-1)"></path>
                </g>
            </g>
        </g>
    </g>
</svg>
