<?xml version="1.0" encoding="UTF-8"?>
<svg width="18px" height="18px" viewBox="0 0 18 18" version="1.1" xmlns="http://www.w3.org/2000/svg" xmlns:xlink="http://www.w3.org/1999/xlink">
    <title>outline-python</title>
    <defs>
        <rect id="path-1" x="0" y="0" width="450" height="190" rx="8"></rect>
        <filter x="-1.6%" y="-2.6%" width="103.1%" height="107.4%" filterUnits="objectBoundingBox" id="filter-2">
            <feOffset dx="0" dy="2" in="SourceAlpha" result="shadowOffsetOuter1"></feOffset>
            <feGaussianBlur stdDeviation="2" in="shadowOffsetOuter1" result="shadowBlurOuter1"></feGaussianBlur>
            <feColorMatrix values="0 0 0 0 0   0 0 0 0 0   0 0 0 0 0  0 0 0 0.05 0" type="matrix" in="shadowBlurOuter1"></feColorMatrix>
        </filter>
        <path d="M17.3113884,0.948186375 C18.4445792,-0.260550441 20.3430866,-0.321792616 21.5518234,0.81139815 C21.5988781,0.855511911 21.6444979,0.901131697 21.6886116,0.948186375 L27,6.61366732 L174,6.61366732 C177.313708,6.61366732 180,9.29995882 180,12.6136673 L180,140.613667 C180,143.927376 177.313708,146.613667 174,146.613667 L6,146.613667 C2.6862915,146.613667 4.05812251e-16,143.927376 0,140.613667 L0,12.6136673 C-4.05812251e-16,9.29995882 2.6862915,6.61366732 6,6.61366732 L12,6.61366732 L17.3113884,0.948186375 Z" id="path-3"></path>
        <filter x="-3.3%" y="-4.1%" width="106.7%" height="108.2%" filterUnits="objectBoundingBox" id="filter-4">
            <feOffset dx="0" dy="0" in="SourceAlpha" result="shadowOffsetOuter1"></feOffset>
            <feGaussianBlur stdDeviation="2" in="shadowOffsetOuter1" result="shadowBlurOuter1"></feGaussianBlur>
            <feColorMatrix values="0 0 0 0 0   0 0 0 0 0   0 0 0 0 0  0 0 0 0.2 0" type="matrix" in="shadowBlurOuter1"></feColorMatrix>
        </filter>
        <linearGradient x1="4.58512215%" y1="0.0462595129%" x2="50%" y2="99.9537405%" id="linearGradient-5">
            <stop stop-color="#887BFF" offset="0%"></stop>
            <stop stop-color="#5670FB" offset="100%"></stop>
        </linearGradient>
    </defs>
    <g id="nexusAI" stroke="none" stroke-width="1" fill="none" fill-rule="evenodd">
        <g id="-" transform="translate(-631.000000, -667.000000)">
            <rect fill="#F7F7F7" x="0" y="0" width="1920" height="1011"></rect>
            <g id="" transform="translate(500.000000, 553.000000)">
                <use fill="black" fill-opacity="1" filter="url(#filter-2)" xlink:href="#path-1"></use>
                <use fill="#FFFFFF" fill-rule="evenodd" xlink:href="#path-1"></use>
            </g>
            <rect id="" fill-opacity="0.5" fill="#000000" x="0" y="0" width="1920" height="1011"></rect>
            <g id="-23" transform="translate(550.000000, 249.000000)">
                <rect id="" fill="#FFFFFF" x="0" y="0" width="820" height="514" rx="6"></rect>
                <rect id="" fill="#EBEBEB" x="0" y="433" width="820" height="1"></rect>
            </g>
            <g id="-26" transform="translate(570.000000, 559.386333)">
                <g id="">
                    <use fill="black" fill-opacity="1" filter="url(#filter-4)" xlink:href="#path-3"></use>
                    <use fill="#FFFFFF" fill-rule="evenodd" xlink:href="#path-3"></use>
                </g>
                <rect id="" fill="#F4F8F1" x="55" y="101.613667" width="30" height="30" rx="4"></rect>
                <g id="outline-python" transform="translate(61.000000, 107.613667)" fill="url(#linearGradient-5)">
                    <path d="M6.38333334,17.7583333 C5.39747856,17.6100279 4.66793287,16.7636133 4.66666666,15.7666667 L4.66666666,10.85 C4.66666666,9.48309524 5.7747619,8.375 7.14166666,8.375 L10.8416667,8.375 C11.5178348,8.37408192 12.0657486,7.82616817 12.0666667,7.15 L12.0666667,2.24166666 C12.0677951,1.85980403 11.7865679,1.53585887 11.4083333,1.48333334 C9.80412591,1.23333483 8.17087409,1.23333483 6.56666666,1.48333334 C6.18878477,1.54264995 5.90984268,1.86749391 5.90833334,2.25 L5.90833334,5.30833334 C5.90606111,5.65256573 5.62756573,5.93106111 5.28333334,5.93333334 C4.93910095,5.93106111 4.66060557,5.65256573 4.65833334,5.30833334 L4.65833334,2.25 C4.65959956,1.25305341 5.38914524,0.40663876 6.375,0.25833334 C8.10646387,-0.00827397861 9.86853613,-0.00827397861 11.6,0.25833334 C12.5858548,0.40663876 13.3154004,1.25305341 13.3166667,2.25 L13.3166667,7.16666666 C13.3166667,7.82307747 13.0559085,8.45260341 12.5917559,8.91675594 C12.1276034,9.38090848 11.4980775,9.64166666 10.8416667,9.64166666 L7.14166666,9.64166666 C6.46549849,9.64258474 5.91758474,10.1904985 5.91666666,10.8666667 L5.91666666,15.775 C5.91553826,16.1568626 6.19676539,16.4808078 6.575,16.5333333 C8.17920742,16.7833318 9.81245924,16.7833318 11.4166667,16.5333333 C11.7945486,16.4740167 12.0734907,16.1491728 12.075,15.7666667 L12.075,12.7083333 C12.075,12.3631554 12.354822,12.0833333 12.7,12.0833333 C13.045178,12.0833333 13.325,12.3631554 13.325,12.7083333 L13.325,15.7666667 C13.3237338,16.7636133 12.5941881,17.6100279 11.6083333,17.7583333 C10.745307,17.8918142 9.87328773,17.9586783 9,17.9583347 C8.12395887,17.9583347 7.24919436,17.8914978 6.38333334,17.7583333 L6.38333334,17.7583333 Z M8.375,12.7 C8.37727223,12.3557676 8.65576761,12.0772722 9,12.075 L15.7666667,12.075 C16.1485293,12.0761284 16.4724745,11.7949013 16.525,11.4166667 C16.7749985,9.81245924 16.7749985,8.17920742 16.525,6.575 C16.4724745,6.19676539 16.1485293,5.91553826 15.7666667,5.91666666 L12.7083333,5.91666666 C12.364101,5.91439443 12.0856056,5.63589905 12.0833333,5.29166666 C12.0856056,4.94743427 12.364101,4.66893889 12.7083333,4.66666666 L15.7666667,4.66666666 C16.7636133,4.66793287 17.6100279,5.39747856 17.7583333,6.38333334 C18.0249407,8.11479721 18.0249407,9.87686947 17.7583333,11.6083333 C17.6100279,12.5941881 16.7636133,13.3237338 15.7666667,13.325 L9,13.325 C8.65576761,13.3227278 8.37727223,13.0442324 8.375,12.7 L8.375,12.7 Z M2.24166666,13.325 C1.24472007,13.3237338 0.39830542,12.5941881 0.25,11.6083333 C-0.0166073185,9.87686947 -0.0166073185,8.11479721 0.25,6.38333334 C0.398305412,5.39747857 1.24472006,4.66793288 2.24166666,4.66666666 L9,4.66666666 C9.34423239,4.66893889 9.62272777,4.94743427 9.625,5.29166666 C9.62272777,5.63589905 9.34423239,5.91439443 9,5.91666666 L2.23333334,5.91666666 C1.8514707,5.91553826 1.52752552,6.19676539 1.475,6.575 C1.22500149,8.17920742 1.22500149,9.81245924 1.475,11.4166667 C1.52752552,11.7949013 1.8514707,12.0761284 2.23333334,12.075 L5.29166666,12.075 C5.63589905,12.0772722 5.91439443,12.3557676 5.91666666,12.7 C5.91805721,13.042506 5.64249383,13.3217932 5.3,13.325 L2.24166666,13.325 Z M6.93333334,2.975 C6.95007748,2.61076578 7.24391923,2.32055171 7.60833334,2.30833334 C7.78041256,2.31362375 7.94533434,2.37841444 8.075,2.49166666 C8.20365762,2.62023539 8.27820521,2.7931858 8.28333334,2.975 C8.26727193,3.34093297 7.97426631,3.63393859 7.60833334,3.65 C7.24358593,3.63125861 6.95207473,3.33974741 6.93333334,2.975 L6.93333334,2.975 Z M9.71666666,15.0166667 C9.73272807,14.6507337 10.0257337,14.3577281 10.3916667,14.3416667 C10.56376,14.3468884 10.7287041,14.4116879 10.8583333,14.525 C10.9869909,14.6535687 11.0615385,14.8265191 11.0666667,15.0083333 C11.0482977,15.3746743 10.7577546,15.6688043 10.3916667,15.6916667 C10.0269193,15.6729253 9.73540805,15.3814141 9.71666666,15.0166667 L9.71666666,15.0166667 Z" id=""></path>
                </g>
            </g>
        </g>
    </g>
</svg>
