<?xml version="1.0" encoding="UTF-8"?>
<svg width="18px" height="18px" viewBox="0 0 18 18" version="1.1" xmlns="http://www.w3.org/2000/svg" xmlns:xlink="http://www.w3.org/1999/xlink">
    <title></title>
    <defs>
        <linearGradient x1="12.8157181%" y1="0%" x2="50%" y2="100%" id="linearGradient-1">
            <stop stop-color="#887BFF" offset="0%"></stop>
            <stop stop-color="#5670FB" offset="100%"></stop>
        </linearGradient>
    </defs>
    <g id="nexusAI" stroke="none" stroke-width="1" fill="none" fill-rule="evenodd">
        <g id="-" transform="translate(-631.000000, -587.000000)">
            <g id="-26" transform="translate(570.000000, 559.386333)">
                <g id="" transform="translate(61.000000, 27.613667)">
                    <rect id="" fill="#000000" fill-rule="nonzero" opacity="0" x="0" y="0" width="18" height="18"></rect>
                    <path d="M1.11972656,9.04042969 L1.11972656,5.15566406 C1.11972656,4.91835938 1.22695312,4.74609375 1.42734375,4.6265625 C2.13398437,4.20996094 2.84238281,3.79511719 3.55078125,3.37851563 C5.12402344,2.45214844 6.69726562,1.52578125 8.27226562,0.59765625 C8.38828125,0.529101563 8.50605469,0.462304688 8.6203125,0.391992188 C8.85058594,0.249609375 9.07734375,0.254882813 9.309375,0.391992188 C9.65390625,0.599414063 10.0019531,0.8015625 10.3482422,1.00546875 C11.7175781,1.81230469 13.0869141,2.61738281 14.45625,3.42421875 C15.1382812,3.82675781 15.8203125,4.22753906 16.5041016,4.62832031 C16.7097656,4.74960938 16.8099609,4.92890625 16.8152344,5.16445313 C16.8222656,5.61445313 16.8240234,6.06445313 16.8345703,6.51445313 C16.8486328,7.12089844 16.8556641,7.72734375 16.8662109,8.33378906 L16.8978516,10.1759766 C16.9083984,10.7771484 16.9207031,11.3783203 16.9294922,11.9794922 C16.9347656,12.2554688 16.9365234,12.5296875 16.9435547,12.8056641 C16.9488281,13.0605469 16.8416016,13.246875 16.6236328,13.3769531 C15.8572266,13.8392578 15.0908203,14.3015625 14.3244141,14.765625 C12.7283203,15.7289063 11.1322266,16.6921875 9.53789062,17.6589844 C9.29179687,17.8083984 9.06152344,17.8189453 8.80664062,17.6730469 C7.59199219,16.9751953 6.37382812,16.284375 5.15566406,15.5917969 C3.92519531,14.8886719 2.69296875,14.1855469 1.45898437,13.4841797 C1.23046875,13.3541016 1.11796875,13.1677734 1.11796875,12.9023438 C1.12148437,11.615625 1.11972656,10.3289063 1.11972656,9.04042969 L1.11972656,9.04042969 Z M8.92089844,8.72753906 C8.94199219,8.71699219 8.96132812,8.70820313 8.97890625,8.69765625 C9.31816406,8.50078125 9.65566406,8.30214844 9.99316406,8.10351563 C11.3132812,7.33007813 12.6351562,6.55664063 13.9552734,5.78320313 C14.2927734,5.58457031 14.6302734,5.3859375 14.9712891,5.19082031 C15.0275391,5.15917969 15.0205078,5.13984375 14.9712891,5.11347656 C14.9589844,5.10820313 14.9484375,5.09941406 14.9378906,5.09414063 C14.0220703,4.55449219 13.1080078,4.01660156 12.1921875,3.47695313 C11.1375,2.85644531 10.0828125,2.2359375 9.02988281,1.61367188 C8.97890625,1.58378906 8.94199219,1.58730469 8.89277344,1.6171875 C8.67128906,1.75078125 8.44628906,1.88261719 8.22304687,2.01445313 C6.4828125,3.03925781 4.74082031,4.06582031 3.00058594,5.090625 C2.88984375,5.15566406 2.88984375,5.15742188 3.00058594,5.22246094 C4.26445312,5.97128906 5.53007812,6.72011719 6.79394531,7.47070313 C7.46542969,7.86972656 8.13691406,8.26699219 8.81015625,8.66601563 C8.8453125,8.68710938 8.88222656,8.70644531 8.92089844,8.72753906 L8.92089844,8.72753906 Z M9.56425781,12.9796875 L9.56425781,16.1419922 C9.56425781,16.1701172 9.55019531,16.2052734 9.58183594,16.2228516 C9.60820312,16.2369141 9.62929687,16.2087891 9.65214844,16.1947266 C10.4677734,15.7025391 11.2833984,15.2085938 12.0990234,14.7164063 C13.2873047,13.9992188 14.4738281,13.2820313 15.6621094,12.5666016 C15.721875,12.5314453 15.7464844,12.4927734 15.7429687,12.4207031 C15.7341797,12.2220703 15.7324219,12.0234375 15.7289062,11.8248047 C15.7183594,11.2394531 15.7078125,10.6541016 15.6972656,10.0705078 C15.6867187,9.44121094 15.6744141,8.81015625 15.665625,8.18085938 C15.6585937,7.73613281 15.6533203,7.29140625 15.6462891,6.84667969 C15.6427734,6.65683594 15.6392578,6.46523438 15.6339844,6.27539063 C15.6322266,6.19980469 15.6234375,6.19628906 15.5566406,6.23320313 L15.5302734,6.24902344 L13.8375,7.24042969 C12.4488281,8.05429688 11.0583984,8.86640625 9.66796875,9.67851563 C9.59238281,9.72246094 9.5625,9.77167969 9.56425781,9.85957031 C9.56601562,10.8984375 9.56425781,11.9390625 9.56425781,12.9796875 L9.56425781,12.9796875 Z M8.3671875,12.9146484 C8.3671875,11.9109375 8.36542969,10.9072266 8.36894531,9.90351562 C8.36894531,9.81738281 8.34082031,9.77167969 8.26875,9.72949219 C7.64296875,9.36210938 7.01894531,8.99296875 6.39492187,8.62207031 C5.06074219,7.83105469 3.72480469,7.04003906 2.390625,6.24902344 C2.36953125,6.23671875 2.34667969,6.20683594 2.32207031,6.21914063 C2.29570312,6.23320313 2.30976562,6.26660156 2.30976562,6.29296875 C2.30976562,8.36191406 2.30976562,10.4308594 2.30800781,12.4980469 C2.30800781,12.5648437 2.32734375,12.6035156 2.38535156,12.6369141 C3.19570312,13.0974609 4.00605469,13.5580078 4.81640625,14.0203125 C5.97128906,14.6777344 7.12617187,15.3369141 8.28105469,15.9943359 C8.30566406,16.0083984 8.33027344,16.0400391 8.35839844,16.0242187 C8.38476562,16.0083984 8.37070312,15.9697266 8.37070312,15.9433594 C8.3671875,14.9326172 8.3671875,13.9236328 8.3671875,12.9146484 L8.3671875,12.9146484 Z" id="" fill="url(#linearGradient-1)"></path>
                </g>
            </g>
        </g>
    </g>
</svg>
