<?xml version="1.0" encoding="UTF-8"?>
<svg width="18px" height="18px" viewBox="0 0 18 18" version="1.1" xmlns="http://www.w3.org/2000/svg" xmlns:xlink="http://www.w3.org/1999/xlink">
    <title></title>
    <defs>
        <linearGradient x1="4.58512215%" y1="0.702832271%" x2="50%" y2="99.2971677%" id="linearGradient-1">
            <stop stop-color="#887BFF" offset="0%"></stop>
            <stop stop-color="#5670FB" offset="100%"></stop>
        </linearGradient>
    </defs>
    <g id="nexusAI" stroke="none" stroke-width="1" fill="none" fill-rule="evenodd">
        <g id="-" transform="translate(-591.000000, -587.000000)">
            <g id="-26" transform="translate(570.000000, 559.386333)">
                <g id="" transform="translate(21.000000, 27.613667)">
                    <rect id="" fill="#000000" fill-rule="nonzero" opacity="0" x="0" y="0" width="18" height="18"></rect>
                    <path d="M14.5125,8.6625 L9.3375,8.6625 L9.3375,7.3125 C10.6875,7.0875 11.7,5.85 11.7,4.5 C11.7,3.0375 10.4625,1.8 9,1.8 C7.425,1.8 6.075,3.0375 6.075,4.6125 C6.075,5.9625 7.0875,7.0875 8.4375,7.425 L8.4375,8.775 L3.375,8.775 L3.375,12.0375 C2.475,12.2625 1.6875,13.05 1.6875,14.0625 L1.6875,14.2875 C1.6875,15.4125 2.7,16.425 3.825,16.425 C5.0625,16.425 6.075,15.4125 6.075,14.175 C6.075,13.1625 5.4,12.2625 4.3875,12.0375 L4.3875,9.7875 L8.55,9.7875 L8.55,12.0375 C7.5375,12.2625 6.8625,13.1625 6.8625,14.2875 C6.8625,15.4125 7.875,16.3125 9,16.425 C10.2375,16.425 11.25,15.525 11.25,14.2875 C11.25,13.275 10.575,12.375 9.5625,12.15 L9.5625,9.9 L13.725,9.9 L13.725,12.15 C12.7125,12.375 12.0375,13.275 12.0375,14.2875 C12.0375,15.525 13.05,16.5375 14.2875,16.425 C15.4125,16.425 16.3125,15.4125 16.425,14.2875 C16.425,13.1625 15.75,12.2625 14.7375,12.0375 L14.7375,8.6625 L14.5125,8.6625 Z M4.95,14.0625 C4.95,14.7375 4.5,15.3 3.825,15.1875 C3.2625,15.1875 2.8125,14.7375 2.8125,14.175 C2.8125,13.5 3.2625,12.9375 3.9375,13.05 C4.5,13.05 4.8375,13.5 4.95,14.0625 Z M10.0125,14.0625 C10.0125,14.7375 9.5625,15.3 8.8875,15.1875 C8.325,15.1875 7.875,14.7375 7.875,14.175 C7.875,13.5 8.325,12.9375 9,13.05 C9.5625,13.05 10.0125,13.5 10.0125,14.0625 Z M7.2,4.6125 C7.2,3.6 7.9875,2.8125 9,2.8125 C9.9,2.8125 10.575,3.6 10.575,4.3875 C10.575,5.4 9.7875,6.1875 8.775,6.1875 C7.9875,6.1875 7.3125,5.5125 7.2,4.6125 Z M15.1875,14.175 C15.1875,14.7375 14.7375,15.1875 14.175,15.1875 C13.5,15.1875 12.9375,14.7375 13.05,14.0625 C13.05,13.5 13.5,13.05 14.0625,13.05 C14.625,13.05 15.1875,13.5 15.1875,14.175 Z" id="" fill="url(#linearGradient-1)"></path>
                </g>
            </g>
        </g>
    </g>
</svg>
