<?xml version="1.0" encoding="UTF-8"?>
<svg width="18px" height="18px" viewBox="0 0 18 18" version="1.1" xmlns="http://www.w3.org/2000/svg" xmlns:xlink="http://www.w3.org/1999/xlink">
    <title></title>
    <defs>
        <linearGradient x1="4.62023984%" y1="0%" x2="50%" y2="100%" id="linearGradient-1">
            <stop stop-color="#887BFF" offset="0%"></stop>
            <stop stop-color="#5670FB" offset="100%"></stop>
        </linearGradient>
    </defs>
    <g id="nexusAI" stroke="none" stroke-width="1" fill="none" fill-rule="evenodd">
        <g id="-" transform="translate(-711.000000, -587.000000)">
            <g id="-26" transform="translate(570.000000, 559.386333)">
                <g id="" transform="translate(141.000000, 27.613667)">
                    <rect id="" fill="#000000" fill-rule="nonzero" opacity="0" x="0" y="0" width="18" height="18"></rect>
                    <path d="M6.62268683,8.77460626 C5.44772345,8.77067348 4.49239117,7.81043052 4.4976399,6.638651 C4.50289605,5.46791476 5.45707712,4.5203532 6.62853287,4.52245428 C7.81198648,4.52467028 8.75607639,5.47856353 8.75063174,6.6665141 C8.74528371,7.82786071 7.78570629,8.77840824 6.62268683,8.77460626 L6.62268683,8.77460626 Z M6.62234505,7.70781519 C7.20964686,7.7096089 7.68902186,7.23321988 7.68963406,6.64735709 C7.69026301,6.06689065 7.2141798,5.58773151 6.63443286,5.58520331 C6.04533227,5.58271292 5.56737833,6.05300407 5.56156826,6.64084552 C5.55588411,7.22384822 6.03524111,7.70593938 6.62234505,7.70781519 L6.62234505,7.70781519 Z M16.3268734,9.21812012 C14.0409472,6.93163635 11.7556147,4.64457698 9.46702635,2.36073742 C9.17690105,2.07133165 8.89609344,1.77491062 8.55781479,1.53112191 C8.20555963,1.27734996 7.83983159,1.12997587 7.40762063,1.13199052 C6.63968529,1.13567803 5.87178592,1.1330518 5.10386857,1.1330518 C5.10386857,1.13326766 5.10386857,1.13359143 5.10376064,1.13387924 C4.30287165,1.13387924 3.50182076,1.126864 2.70100371,1.13578594 C1.80400588,1.14576917 1.11768121,1.8468978 1.11661993,2.74380571 C1.11496505,4.33092364 1.11525286,5.91816749 1.11787907,7.50535738 C1.11811291,7.62911348 1.13284492,7.75499212 1.15876535,7.87608603 C1.25253577,8.31372931 1.51996045,8.66062412 1.81987112,8.96245947 C4.28232957,11.4408551 6.75518498,13.9089977 9.22762666,16.377554 C9.87961261,17.0283708 10.9585751,17.0240357 11.6114424,16.3724095 C13.1925525,14.7944294 14.7724213,13.2151361 16.348081,11.6315618 C16.4728804,11.5062768 16.5814548,11.3545676 16.6611408,11.1966707 C16.9946166,10.5364283 16.8562904,9.74748321 16.3268734,9.21812012 Z M15.377585,10.7516884 C14.2207533,11.8959465 13.0519957,13.066323 11.9216961,14.1981517 C11.5212876,14.5990818 11.120879,15.00003 10.7202007,15.4006723 C10.6256568,15.4952162 10.5204641,15.5451684 10.415937,15.5451684 C10.3125971,15.5451684 10.2089333,15.4961156 10.1161522,15.4033346 L8.80160351,14.0889837 C6.8315612,12.1193191 4.79444237,10.082632 2.79419854,8.07630826 C2.6663772,7.94812716 2.55740708,7.77823235 2.46128026,7.62833997 C2.44834703,7.60815765 2.43510799,7.5588351 2.43500008,7.50388235 C2.43165435,6.11015129 2.43100679,4.5976108 2.43298545,2.74376971 C2.43316533,2.5601502 2.54627263,2.45447184 2.74329306,2.4538063 C3.00071653,2.45288892 3.28127231,2.4524752 3.6262784,2.4524752 C3.81687717,2.4524752 4.00751193,2.45260111 4.19814668,2.45272702 C4.38887137,2.45285293 4.57957807,2.45297885 4.7702308,2.45297885 L5.10081066,2.45297885 C5.31069237,2.45297885 5.52055607,2.45314074 5.73041979,2.45330263 C5.94040943,2.45346453 6.15041703,2.45364441 6.36040666,2.45364441 C6.77063653,2.45364441 7.1026734,2.45296086 7.4053362,2.45153983 L7.40799838,2.45153983 C7.52346209,2.45153983 7.61766423,2.48843282 7.75552277,2.58767153 C8.16647214,2.88330108 8.51027305,3.24325505 8.87425627,3.62432668 C9.00983036,3.76626844 9.15000931,3.91304893 9.29272454,4.05472087 L12.3235616,7.07825494 C13.3234857,8.0783049 14.3574427,9.11236982 15.3784304,10.1257308 C15.4573609,10.2040676 15.5024745,10.3180743 15.5024745,10.4385387 C15.5024745,10.5591109 15.4568573,10.6732435 15.377585,10.7516884 Z" id="" fill="url(#linearGradient-1)"></path>
                </g>
            </g>
        </g>
    </g>
</svg>
