<?xml version="1.0" encoding="UTF-8"?>
<svg width="16px" height="16px" viewBox="0 0 16 16" version="1.1" xmlns="http://www.w3.org/2000/svg" xmlns:xlink="http://www.w3.org/1999/xlink">
    <title> </title>
    <g id="nexusAI" stroke="none" stroke-width="1" fill="none" fill-rule="evenodd">
        <g id="" transform="translate(-1874.000000, -22.000000)" fill-rule="nonzero">
            <g id="-5" transform="translate(1777.000000, 18.000000)">
                <g id="-" transform="translate(97.000000, 4.000000)">
                    <rect id="" fill="#000000" opacity="0" x="0" y="0" width="16" height="16"></rect>
                    <path d="M8.33258185,11.240792 L12.9282228,6.63791273 C13.1637217,6.40012922 13.1637217,6.01702333 12.9282228,5.77923982 C12.8145827,5.66478555 12.659997,5.60036648 12.4987089,5.60025242 C12.3374208,5.60013835 12.1827441,5.66433871 12.0689422,5.77863212 L8.01524303,9.84007129 L3.83620679,5.77863212 C3.72258978,5.66429488 3.56805913,5.6 3.40687033,5.6 C3.24568153,5.6 3.09115088,5.66429488 2.97753387,5.77863212 C2.74129669,6.01615345 2.74075416,6.39972408 2.97631849,6.63791273 L7.69153834,11.2447699 C7.87020678,11.4193323 8.15609355,11.4175582 8.33258185,11.240792 Z" id="" fill="#3D3D3D"></path>
                </g>
            </g>
        </g>
    </g>
</svg>
