<?xml version="1.0" encoding="UTF-8"?>
<svg width="14px" height="14px" viewBox="0 0 14 14" version="1.1" xmlns="http://www.w3.org/2000/svg" xmlns:xlink="http://www.w3.org/1999/xlink">
    <title></title>
    <g id="nexusAI" stroke="none" stroke-width="1" fill="none" fill-rule="evenodd">
        <g id="" transform="translate(-825.000000, -23.000000)" fill-rule="nonzero">
            <g id="-4" transform="translate(810.000000, 14.000000)">
                <g id="-13" transform="translate(15.000000, 6.000000)">
                    <g id="" transform="translate(0.000000, 3.000000)">
                        <rect id="" fill="#000000" opacity="0" x="0" y="0" width="14" height="14"></rect>
                        <path d="M6.30293333,0.511733328 C6.70666405,0.155695632 7.31240882,0.156267417 7.71546667,0.513066672 L12.7736,4.98986667 C13.0023326,5.19230291 13.1333333,5.48308446 13.1333333,5.78853333 L13.1333333,12.8666667 C13.1333333,13.4557704 12.6557704,13.9333333 12.0666667,13.9333333 L1.93333333,13.9333333 C1.3442296,13.9333333 0.866666672,13.4557704 0.866666672,12.8666667 L0.866666672,5.78933333 C0.866666672,5.48320982 0.998157483,5.19183403 1.22773333,4.98933333 Z M7.00853333,1.31146667 L1.93333333,5.78933333 L1.93333333,12.8666667 L12.0666667,12.8666667 L12.0666667,5.78853333 L7.00853333,1.31146667 Z M7.26666667,7.8714531 C7.43168058,7.96672393 7.53333333,8.14279168 7.53333333,8.33333333 L7.53333333,11.8 L6.46666667,11.8 L6.46666667,8.33333333 C6.46666667,8.14279168 6.56831942,7.96672393 6.73333333,7.8714531 C6.89834724,7.77618227 7.10165276,7.77618227 7.26666667,7.8714531 Z" id="" fill="#1B64F3"></path>
                    </g>
                </g>
            </g>
        </g>
    </g>
</svg>
