<?xml version="1.0" encoding="UTF-8"?>
<svg width="16px" height="16px" viewBox="0 0 16 16" version="1.1" xmlns="http://www.w3.org/2000/svg" xmlns:xlink="http://www.w3.org/1999/xlink">
    <title></title>
    <g id="nexusAI" stroke="none" stroke-width="1" fill="none" fill-rule="evenodd">
        <g id="" transform="translate(-46.000000, -39.000000)" fill-rule="nonzero">
            <g id="-2" transform="translate(31.000000, 31.000000)">
                <g id="-13" transform="translate(15.000000, 6.000000)">
                    <g id="" transform="translate(0.000000, 2.000000)">
                        <rect id="" fill="#000000" opacity="0" x="0" y="0" width="16" height="16"></rect>
                        <path d="M3,4 C2.44773333,4 2,3.55226667 2,3 C2,2.44773333 2.44773333,2 3,2 C3.55226667,2 4,2.44773333 4,3 C4,3.55226667 3.55226667,4 3,4 Z M8,4 C7.44773333,4 7,3.55226667 7,3 C7,2.44773333 7.44773333,2 8,2 C8.55226667,2 9,2.44773333 9,3 C9,3.55226667 8.55226667,4 8,4 Z M13,4 C12.4477333,4 12,3.55226667 12,3 C12,2.44773333 12.4477333,2 13,2 C13.5522667,2 14,2.44773333 14,3 C14,3.55226667 13.5522667,4 13,4 Z M3,9 C2.44773333,9 2,8.55226667 2,8 C2,7.44773333 2.44773333,7 3,7 C3.55226667,7 4,7.44773333 4,8 C4,8.55226667 3.55226667,9 3,9 Z M3,14 C2.44773333,14 2,13.5522667 2,13 C2,12.4477333 2.44773333,12 3,12 C3.55226667,12 4,12.4477333 4,13 C4,13.5522667 3.55226667,14 3,14 Z M8,14 C7.44773333,14 7,13.5522667 7,13 C7,12.4477333 7.44773333,12 8,12 C8.55226667,12 9,12.4477333 9,13 C9,13.5522667 8.55226667,14 8,14 Z M13,14 C12.4477333,14 12,13.5522667 12,13 C12,12.4477333 12.4477333,12 13,12 C13.5522667,12 14,12.4477333 14,13 C14,13.5522667 13.5522667,14 13,14 Z M8,9 C7.44773333,9 7,8.55226667 7,8 C7,7.44773333 7.44773333,7 8,7 C8.55226667,7 9,7.44773333 9,8 C9,8.55226667 8.55226667,9 8,9 Z M13,9 C12.4477333,9 12,8.55226667 12,8 C12,7.44773333 12.4477333,7 13,7 C13.5522667,7 14,7.44773333 14,8 C14,8.55226667 13.5522667,9 13,9 Z" id="" fill="#9097A1"></path>
                    </g>
                </g>
            </g>
        </g>
    </g>
</svg>
