<?xml version="1.0" encoding="UTF-8"?>
<svg width="12px" height="12px" viewBox="0 0 12 12" version="1.1" xmlns="http://www.w3.org/2000/svg" xmlns:xlink="http://www.w3.org/1999/xlink">
    <title></title>
    <g id="nexusAI" stroke="none" stroke-width="1" fill="none" fill-rule="evenodd">
        <g id="" transform="translate(-548.000000, -181.000000)" fill-rule="nonzero">
            <g id="-19" transform="translate(500.000000, 133.000000)">
                <g id="-22" transform="translate(46.000000, 46.000000)">
                    <g id="" transform="translate(2.000000, 2.000000)">
                        <rect id="" fill="#000000" opacity="0" x="0" y="0" width="12" height="12"></rect>
                        <path d="M4.74285714,11.1428571 L4.63279237,11.1376255 C4.05324806,11.0822466 3.6,10.5940542 3.6,10 L3.59999404,5.35599607 C3.21269677,5.25603888 2.85035889,5.05427562 2.55518448,4.75910122 C1.90147478,4.10539151 1.70591877,3.12226504 2.05970392,2.26815215 C2.41348906,1.41403926 3.24694344,0.857142857 4.17142858,0.857142857 C5.43379372,0.857142857 6.45714285,1.88049201 6.45714285,3.14285715 C6.45714285,4.06734228 5.90024644,4.90079666 5.04613355,5.2545818 C4.94649172,5.29585479 4.84509404,5.32965135 4.74266838,5.35611624 L4.74285714,6.57142858 L7.75323782,6.57083452 C7.95092761,6.22956137 8.32008391,6 8.74285714,6 C9.37403971,6 9.88571428,6.51167457 9.88571428,7.14285714 C9.88571428,7.55116068 9.66788696,7.92844871 9.31428572,8.13260048 C8.96068449,8.33675225 8.5250298,8.33675225 8.17142856,8.13260048 C7.99462795,8.0305246 7.85177081,7.88516464 7.75311382,7.71428572 L4.74285714,7.71428571 L4.74285714,10 L7.75323782,9.99940595 C7.95092761,9.65813279 8.32008391,9.42857143 8.74285714,9.42857143 C9.37403971,9.42857143 9.88571428,9.940246 9.88571428,10.5714286 C9.88571428,10.9797321 9.66788696,11.3570201 9.31428572,11.5611719 C8.96068449,11.7653237 8.5250298,11.7653237 8.17142856,11.5611719 C7.99462795,11.459096 7.85177081,11.3137361 7.75311382,11.1428572 L4.74285714,11.1428571 Z M4.17142858,2 C3.86832401,2 3.57763382,2.12040781 3.36330653,2.3347351 C3.14897924,2.54906239 3.02857142,2.83975258 3.02857142,3.14285715 C3.02857142,3.77403971 3.540246,4.28571427 4.17142857,4.28571427 C4.80261113,4.28571427 5.3142857,3.7740397 5.3142857,3.14285714 C5.3142857,2.51167457 4.80261114,2 4.17142858,2 Z" id="" fill="#EE9D49"></path>
                    </g>
                </g>
            </g>
        </g>
    </g>
</svg>
