<?xml version="1.0" encoding="UTF-8"?>
<svg width="18px" height="18px" viewBox="0 0 18 18" version="1.1" xmlns="http://www.w3.org/2000/svg" xmlns:xlink="http://www.w3.org/1999/xlink">
    <title></title>
    <defs>
        <linearGradient x1="4.58512215%" y1="6.58504249%" x2="50%" y2="93.4149575%" id="linearGradient-1">
            <stop stop-color="#887BFF" offset="0%"></stop>
            <stop stop-color="#5670FB" offset="100%"></stop>
        </linearGradient>
    </defs>
    <g id="nexusAI" stroke="none" stroke-width="1" fill="none" fill-rule="evenodd">
        <g id="-" transform="translate(-591.000000, -627.000000)">
            <g id="-26" transform="translate(570.000000, 559.386333)">
                <g id="" transform="translate(21.000000, 67.613667)">
                    <rect id="" fill="#000000" fill-rule="nonzero" opacity="0" x="7.11879693e-08" y="0" width="17.9868314" height="18"></rect>
                    <path d="M16.9177285,2.62867643 C16.9262223,2.63717643 17.7246377,3.37667643 17.5717497,3.92067643 L17.5462683,4.01417643 L17.4868119,4.09067643 C17.2404922,4.42217643 16.8752596,4.33717643 16.3571389,4.22667643 C16.1787695,4.19267643 15.9749188,4.14167643 15.771068,4.11617643 C15.6011924,4.09067643 15.3378851,4.04817643 15.1000593,4.02267643 C15.3548727,4.51567643 15.694624,5.22117643 15.8305245,5.90967643 C15.9494374,6.54717643 15.7965493,7.49067643 15.5842048,7.76267643 C15.4907732,7.89017643 15.3463789,7.96667643 15.1849971,7.97517643 C14.9716039,7.98973661 14.7692876,7.92115994 14.4784337,7.61754202 C14.5746209,8.86547592 14.6159137,10.2554808 14.6159137,11.0351764 C14.6187554,11.3394639 14.614942,11.6427998 14.6041552,11.9442294 C14.6059578,11.9663888 14.6074199,11.9893497 14.6074199,12.0126764 C14.6074199,12.0482313 14.604023,12.0829363 14.5975337,12.1164868 C14.5793631,12.5157043 14.5490414,12.9118355 14.505534,13.3020292 C15.3585137,13.6367168 16.6531713,14.2664854 16.6459577,15.3531764 C16.6459577,16.1181764 16.0938317,16.7471764 15.3548727,16.8236764 C15.3463789,16.8151764 15.3293914,16.8236764 15.3124038,16.8236764 L1.95168551,16.8236764 C1.19573896,16.7896764 0.626655601,16.2116764 0.592680475,15.4381764 C0.56719913,14.9281764 0.872975264,14.3756764 1.3146519,14.0781764 C1.3961922,14.0248226 1.48252521,13.9712434 1.57352424,13.9176687 L1.64590938,14.0866764 C1.43356484,13.6276764 1.32314568,13.1346764 1.32314568,12.6246764 C1.32314568,10.7291764 2.86052013,9.19067643 4.75463341,9.19067643 C6.53544116,9.19067643 8.00091364,10.5506162 8.16986978,12.2885964 L8.54285995,12.2846764 C9.20537491,12.2846764 9.86788986,12.3186764 10.5134173,12.3781764 C10.5983551,12.0126764 10.6747991,11.6386764 10.7342556,11.2731764 C10.8255817,10.7536797 10.9386684,9.95653193 11.0150225,9.15284709 C10.9626901,9.25846235 10.8794049,9.34537643 10.7767245,9.40317643 C10.717268,9.42017643 10.6238364,9.47117643 10.4709483,9.47117643 C10.2840852,9.47117643 10.0122841,9.39467643 9.6215702,9.11417643 C8.33051541,8.17067643 7.58306264,6.75967643 7.42168079,5.00017643 C6.92054769,5.43367643 6.42790836,6.06267643 6.20707004,6.70867643 C6.07116954,7.08267643 5.79936853,7.86467643 5.18781626,7.67767643 C4.80559609,7.57567643 4.72065828,7.14217643 4.67818937,6.95517643 C4.64421425,6.77667643 4.6187329,6.56417643 4.6187329,6.44517643 C4.6187329,3.43617643 7.03096685,0.988176428 9.99529659,0.988176428 C10.4794421,0.988176428 10.9635877,1.05617643 11.4392394,1.18367643 C13.3418465,0.656676428 15.3208976,1.17517643 16.9177285,2.62867643 Z M12.8322196,5.60367643 L12.8322196,6.35167643 C12.8492072,7.66067643 12.8407134,8.08567643 12.5349373,8.33217643 C12.4151035,8.4238811 12.2718695,8.46875112 12.1246554,8.45221085 C12.1029339,8.81421028 12.0699208,9.1880352 12.0316875,9.54865522 L12.5264435,9.54767643 C12.8237258,9.54767643 13.0615517,9.78567643 13.0615517,10.0831764 C13.0615517,10.3806764 12.8237258,10.6186764 12.5264435,10.6186764 L11.8997573,10.6196161 C11.8534131,10.9506971 11.807954,11.237794 11.7704969,11.4516764 C11.6770653,11.9956764 11.5581524,12.5481764 11.4222519,13.0921764 C11.3543016,13.3556764 11.107982,13.5256764 10.8446747,13.4916764 C10.097222,13.3981764 9.31579407,13.3471764 8.53436617,13.3471764 C5.45112349,13.3471764 3.03039576,14.2226764 1.89222904,14.9706764 C1.75632854,15.0556764 1.6374156,15.2596764 1.64590938,15.3956764 C1.65440316,15.5656764 1.73934098,15.7441764 1.96867308,15.7611764 L15.2699349,15.7611764 C15.4567981,15.7271764 15.5842048,15.5571764 15.5842048,15.3446764 C15.5842048,15.1746764 15.4058354,14.8346764 14.3101376,14.3671764 L14.3016438,14.4096764 C14.2082122,14.8686764 13.8090045,15.2086764 13.3418465,15.2086764 L11.9063974,15.2256764 C11.6091151,15.2256764 11.3712892,14.9961764 11.3712892,14.6986764 C11.3712892,14.4011764 11.6006213,14.1631764 11.8979036,14.1631764 L13.2738962,14.1461764 L13.4031991,13.5616394 L13.4604876,13.0789844 C13.4788074,12.9032432 13.4945648,12.7264462 13.5078392,12.5486727 L13.1040206,12.5481764 C12.8067383,12.5481764 12.5689124,12.3101764 12.5689124,12.0126764 C12.5689124,11.7151764 12.8067383,11.4771764 13.1040206,11.4771764 L13.5581899,11.4775261 C13.5612006,11.3305995 13.5626848,11.1831355 13.5626848,11.0351764 C13.5626848,9.64159106 13.4441833,7.08584089 13.2147994,5.94503507 C13.0836838,5.81246128 12.9522936,5.69580053 12.8322196,5.60367643 Z M4.75463341,10.2531764 C3.44659106,10.2531764 2.38486837,11.3156764 2.38486837,12.6246764 C2.38486837,12.908834 2.43329962,13.176836 2.52587885,13.4372552 C3.68137608,12.9338233 5.24789434,12.49738 7.1059498,12.3436239 C6.96896155,11.1670231 5.96772614,10.2531764 4.75463341,10.2531764 Z M10.4624546,5.64617643 C10.3605292,6.36867643 10.3945043,7.26967643 10.8446747,8.07717643 C10.8937319,8.16445295 11.0092507,8.39175137 11.0587885,8.63776402 C11.0888678,8.22134999 11.105705,7.81873689 11.100508,7.46953804 C10.899092,7.06697127 10.6826018,6.48557932 10.4624546,5.64617643 Z M11.5836337,2.24617643 L11.4222519,2.29717643 L11.26087,2.24617643 C10.8446747,2.11867643 10.4199857,2.05067643 9.97830902,2.05067643 C8.05871441,2.05067643 6.42790836,3.33417643 5.86731878,5.11067643 C6.42790836,4.37967643 7.13289222,3.80167643 7.70197558,3.54667643 L8.4749097,3.19817643 L8.44942835,4.04817643 C8.41545323,5.09367643 8.60231642,6.46217643 9.49416348,7.54167643 C9.05248684,5.84167643 9.63006398,4.13317643 10.0377655,3.58917643 C10.2755914,3.26617643 10.5473924,3.27467643 10.6917867,3.30867643 C10.912625,3.35967643 11.0825006,3.53817643 11.1249695,3.77617643 C11.3373141,4.87267643 11.5581524,5.69717643 11.7620031,6.28367643 C11.7535094,5.93517643 11.7535094,5.57817643 11.7620031,5.29767643 C11.7789907,4.95767643 11.7959783,4.43917643 12.2546425,4.31167643 C12.9851077,4.10767643 14.097793,5.25517643 14.5054946,5.88417643 C14.6159137,6.04567643 14.7093453,6.19017643 14.7857893,6.30917643 C14.7857893,6.24117643 14.7772956,6.17317643 14.760308,6.10517643 C14.6498888,5.51017643 14.3186314,4.87267643 14.0808055,4.39667643 C13.7920169,3.83567643 13.6051537,3.47017643 13.9533988,3.14717643 C14.2676687,2.85817643 14.7688018,2.88367643 15.7285991,3.02817643 C14.4715194,2.09317643 12.9851077,1.80417643 11.5836337,2.24617643 Z" id="" fill="url(#linearGradient-1)"></path>
                </g>
            </g>
        </g>
    </g>
</svg>
