<?xml version="1.0" encoding="UTF-8"?>
<svg width="42px" height="42px" viewBox="0 0 42 42" version="1.1" xmlns="http://www.w3.org/2000/svg" xmlns:xlink="http://www.w3.org/1999/xlink">
    <title>add</title>
    <g id="-1" stroke="none" stroke-width="1" fill="none" fill-rule="evenodd">
        <g id="creation" transform="translate(-332.000000, -216.000000)" fill-rule="nonzero">
            <g id="-10" transform="translate(325.000000, 216.000000)">
                <g id="" transform="translate(7.000000, 0.000000)">
                    <rect id="" fill="#000000" opacity="0" x="0" y="0" width="42" height="42"></rect>
                    <path d="M27.3246094,4.16308594 C28.0464844,4.16308594 28.6330078,4.74960938 28.6330078,5.47148438 C28.6330078,6.19335938 28.0464844,6.77988281 27.3246094,6.77988281 L6.63632813,6.77988281 L6.63632813,35.5810547 L35.4457031,35.5810547 L35.4457031,14.240625 C35.4457031,13.51875 36.0322266,12.9322266 36.7541016,12.9322266 C37.4759766,12.9322266 38.0625,13.51875 38.0584198,14.240625 L38.0584198,35.5851562 C38.0584198,37.0289062 36.8853516,38.2019531 35.4416016,38.2019531 L6.63632813,38.2019531 C5.19257813,38.2019531 4.01953125,37.0289062 4.01953125,35.5851562 L4.01953125,6.77988281 C4.01953125,5.33613281 5.19257812,4.16308594 6.63632813,4.16308594 Z M29.943457,27.7747061 C30.3482769,27.5409833 30.8470356,27.5409833 31.2518555,27.7747061 C31.6566754,28.008429 31.9060547,28.4403667 31.9060547,28.9078125 C31.9060547,29.3752583 31.6566754,29.807196 31.2518555,30.0409189 C30.8470356,30.2746417 30.3482769,30.2746417 29.943457,30.0409189 C29.5386371,29.807196 29.2892578,29.3752583 29.2892578,28.9078125 C29.2892578,28.4403667 29.5386371,28.008429 29.943457,27.7747061 Z M26.0203125,27.5953125 C26.7421875,27.5953125 27.3287109,28.1818359 27.3287109,28.9037109 C27.3287109,29.6255859 26.7421875,30.2121094 26.0203125,30.2121094 L11.615625,30.2121094 C10.89375,30.2121094 10.3072266,29.6255859 10.3072266,28.9037109 C10.3072266,28.1818359 10.89375,27.5953125 11.615625,27.5953125 Z M33.0873047,4.02773438 C33.8091797,4.02773438 34.3957031,4.61425781 34.3957031,5.33613281 L34.3957031,7.69453125 L36.7541016,7.69453125 C37.4759766,7.69453125 38.0625,8.28105469 38.0625,9.00292969 C38.0625,9.72480469 37.4759766,10.3113281 36.7541016,10.3113281 L34.3957031,10.3113281 L34.3957031,13.584375 C34.3957031,14.30625 33.8091797,14.8927734 33.0873047,14.8927734 C32.3654297,14.8927734 31.7789063,14.30625 31.7789063,13.584375 L31.7789063,10.3113281 L29.5517578,10.3113281 C28.8298828,10.3113281 28.2433594,9.72480469 28.2433594,9.00292969 C28.2433594,8.28105469 28.8298828,7.69453125 29.5517578,7.69453125 L31.7789063,7.69453125 L31.7789063,5.33613281 C31.7789063,4.61425781 32.3654297,4.02773438 33.0873047,4.02773438 Z" id="" fill="#213044" opacity="0.5"></path>
                </g>
            </g>
        </g>
    </g>
</svg>
