<?xml version="1.0" encoding="UTF-8"?>
<svg width="12px" height="12px" viewBox="0 0 12 12" version="1.1" xmlns="http://www.w3.org/2000/svg" xmlns:xlink="http://www.w3.org/1999/xlink">
    <title> 19</title>
    <g id="nexusAI" stroke="none" stroke-width="1" fill="none" fill-rule="evenodd">
        <g id="" transform="translate(-1018.000000, -168.000000)">
            <g id="" transform="translate(970.000000, 120.000000)">
                <g id="-10" transform="translate(20.000000, 20.000000)">
                    <g id="-22" transform="translate(26.000000, 26.000000)">
                        <g id="-19" transform="translate(2.000000, 2.000000)">
                            <rect id="" fill="#D8D8D8" opacity="0" x="0" y="0" width="12" height="12"></rect>
                            <path d="M5.99605505,0 C6.52624841,0 6.95605505,0.438507953 6.95605505,0.979434926 C6.95605505,1.3403944 6.76466792,1.65574806 6.4797771,1.82563083 L6.4792,2.37594589 L8.8,2.37633964 C9.6836556,2.37633964 10.4,3.10718623 10.4,4.00873119 L10.4,8.90590582 C10.4,9.80745077 9.6836556,10.5382974 8.8,10.5382974 L7.68297051,10.5382974 L4.47326457,11.9792015 C4.35194165,12.0336659 4.210314,11.9774752 4.15693034,11.8536962 C4.14352661,11.8226173 4.1366049,11.7890341 4.1366049,11.7550797 L4.1366049,10.5382974 L3.2,10.5382974 C2.3163444,10.5382974 1.6,9.80745077 1.6,8.90590582 L1.6,4.00873119 C1.6,3.10718623 2.3163444,2.37633964 3.2,2.37633964 L5.5192,2.37594589 L5.5188177,1.8294631 C5.2571655,1.67622368 5.07299129,1.4008518 5.04101143,1.07957646 L5.03605505,0.979434926 C5.03605505,0.438507953 5.46586169,0 5.99605505,0 Z M8.64,3.35577457 L3.36,3.35577457 C2.9181722,3.35577457 2.56,3.72119786 2.56,4.17197034 L2.56,8.74266666 C2.56,9.19343914 2.9181722,9.55886243 3.36,9.55886243 L4.70764859,9.55886243 C4.88437972,9.55886243 5.0276486,9.70503175 5.0276486,9.88534075 L5.0276486,10.7699981 L7.5851252,9.55886243 L8.64,9.55886243 C9.0818278,9.55886243 9.44,9.19343914 9.44,8.74266666 L9.44,4.17197034 C9.44,3.72119786 9.0818278,3.35577457 8.64,3.35577457 Z M7.22519221,7.39143691 C7.44610611,7.39143691 7.62519221,7.57414856 7.62519221,7.7995348 C7.62519221,8.02492104 7.03213762,8.66612859 6.02519221,8.66612859 C5.0182468,8.66612859 4.42519221,8.02492104 4.42519221,7.7995348 C4.42519221,7.57414856 4.60427831,7.39143691 4.82519221,7.39143691 L7.22519221,7.39143691 Z M1.03374483,4.53695505 C1.03812624,4.55246862 1.04022767,4.5685595 1.04,4.58470257 L1.04,8.25120702 C1.03816055,8.34134199 0.965076989,8.41291766 0.876729886,8.41114336 C0.862846761,8.41078551 0.849059648,8.40865331 0.835831604,8.40432301 C0.278610535,8.23969116 0,7.90271829 0,7.39340439 L0,5.43453454 C0,4.93213294 0.278610535,4.5958756 0.835831604,4.42576252 C0.920610487,4.40033322 1.00927837,4.45032513 1.03374483,4.53695505 Z M11.1232701,4.41679557 L11.1641684,4.42361592 C11.7213895,4.58824777 12,4.92522064 12,5.43453454 L12,7.39340439 C12,7.89580599 11.7213895,8.23206333 11.1641684,8.40217641 C11.0793895,8.42760571 10.9907216,8.3776138 10.9662552,8.29098388 L10.9613992,8.26734618 L10.96,4.57673191 C10.9618395,4.48659694 11.034923,4.41502127 11.1232701,4.41679557 Z M4.45239055,4.53760861 C4.71748723,4.53760861 4.93239055,4.75686259 4.93239055,5.02732607 L4.93239055,6.006761 C4.93239055,6.27722449 4.71748723,6.49647846 4.45239055,6.49647846 C4.18729387,6.49647846 3.97239055,6.27722449 3.97239055,6.006761 L3.97239055,5.02732607 C3.97239055,4.75686259 4.18729387,4.53760861 4.45239055,4.53760861 Z M7.49239055,4.53760861 C7.75748723,4.53760861 7.97239055,4.75686259 7.97239055,5.02732607 L7.97239055,6.006761 C7.97239055,6.27722449 7.75748723,6.49647846 7.49239055,6.49647846 C7.22729387,6.49647846 7.01239055,6.27722449 7.01239055,6.006761 L7.01239055,5.02732607 C7.01239055,4.75686259 7.22729387,4.53760861 7.49239055,4.53760861 Z" id="" fill="#59C229"></path>
                        </g>
                    </g>
                </g>
            </g>
        </g>
    </g>
</svg>
