<?xml version="1.0" encoding="UTF-8"?>
<svg width="16px" height="16px" viewBox="0 0 16 16" version="1.1" xmlns="http://www.w3.org/2000/svg" xmlns:xlink="http://www.w3.org/1999/xlink">
    <title></title>
    <g id="nexusAI" stroke="none" stroke-width="1" fill="none" fill-rule="evenodd">
        <g id="" transform="translate(-272.000000, -89.000000)" fill-rule="nonzero">
            <g id="-2" transform="translate(30.000000, 81.000000)">
                <g id="-14" transform="translate(227.000000, 0.000000)">
                    <g id="-13" transform="translate(15.000000, 6.000000)">
                        <g id="" transform="translate(0.000000, 2.000000)">
                            <rect id="" fill="#000000" opacity="0" x="0" y="0" width="16" height="16"></rect>
                            <path d="M6.32380952,14.8571429 L6.17705649,14.8501673 C5.40433075,14.7763288 4.8,14.1254056 4.8,13.3333333 L4.79999206,7.14132809 C4.2835957,7.00805184 3.80047851,6.73903416 3.40691264,6.34546829 C2.5352997,5.47385534 2.27455836,4.16302005 2.74627189,3.02420286 C3.21798542,1.88538567 4.32925792,1.14285714 5.56190477,1.14285714 C7.24505829,1.14285714 8.6095238,2.50732268 8.6095238,4.1904762 C8.6095238,5.42312304 7.86699526,6.53439554 6.72817807,7.00610906 C6.5953223,7.06113973 6.46012539,7.1062018 6.32355784,7.14148832 L6.32380952,8.76190477 L10.3376504,8.7611127 C10.6012368,8.30608182 11.0934452,8 11.6571429,8 C12.4987196,8 13.1809524,8.68223276 13.1809524,9.52380952 C13.1809524,10.0682142 12.8905159,10.5712649 12.4190476,10.8434673 C11.9475793,11.1156697 11.3667064,11.1156697 10.8952381,10.8434673 C10.6595039,10.7073661 10.4690277,10.5135529 10.3374851,10.2857143 L6.32380952,10.2857143 L6.32380952,13.3333333 L10.3376504,13.3325413 C10.6012368,12.8775104 11.0934452,12.5714286 11.6571429,12.5714286 C12.4987196,12.5714286 13.1809524,13.2536613 13.1809524,14.0952381 C13.1809524,14.6396428 12.8905159,15.1426935 12.4190476,15.4148959 C11.9475793,15.6870982 11.3667064,15.6870982 10.8952381,15.4148959 C10.6595039,15.2787947 10.4690277,15.0849814 10.3374851,14.8571429 L6.32380952,14.8571429 Z M5.56190477,2.66666666 C5.15776535,2.66666666 4.77017843,2.82721041 4.48440871,3.11298014 C4.19863898,3.39874986 4.03809523,3.78633678 4.03809523,4.1904762 C4.03809523,5.03205295 4.720328,5.7142857 5.56190476,5.7142857 C6.40348151,5.7142857 7.08571427,5.03205294 7.08571427,4.19047618 C7.08571427,3.34889943 6.40348152,2.66666666 5.56190477,2.66666666 Z" id="" fill="#9097A1"></path>
                        </g>
                    </g>
                </g>
            </g>
        </g>
    </g>
</svg>
