<?xml version="1.0" encoding="UTF-8"?>
<svg width="12px" height="12px" viewBox="0 0 12 12" version="1.1" xmlns="http://www.w3.org/2000/svg" xmlns:xlink="http://www.w3.org/1999/xlink">
    <title></title>
    <g id="nexusAI" stroke="none" stroke-width="1" fill="none" fill-rule="evenodd">
        <g id="" transform="translate(-78.000000, -391.000000)" fill-rule="nonzero">
            <g id="" transform="translate(30.000000, 343.000000)">
                <g id="-10" transform="translate(20.000000, 20.000000)">
                    <g id="-22" transform="translate(26.000000, 26.000000)">
                        <g id="" transform="translate(2.000000, 2.000000)">
                            <rect id="" fill="#000000" opacity="0" x="0" y="0" width="12" height="12"></rect>
                            <path d="M11.025,1.95 L11.025,4.05 L11.4,4.05 C11.625,4.05 11.85,4.275 11.85,4.5 C11.85,4.725 11.625,4.95 11.4,4.95 L10.275,4.95 C10.65,5.55 10.65,6.375 10.275,7.05 L11.4,7.05 C11.625,7.05 11.85,7.275 11.85,7.5 C11.85,7.725 11.625,7.95 11.4,7.95 L11.025,7.95 L11.025,10.05 L11.4,10.05 C11.625,10.05 11.85,10.275 11.85,10.5 C11.85,10.725 11.625,10.95 11.4,10.95 L3.3,10.95 C1.8,10.95 0.975,9.15 1.725,7.95 L0.6,7.95 C0.375,7.95 0.15,7.725 0.15,7.5 C0.15,7.275 0.375,7.05 0.6,7.05 L0.975,7.05 L0.975,4.95 L0.6,4.95 C0.375,4.95 0.15,4.725 0.15,4.5 C0.15,4.275 0.375,4.05 0.6,4.05 L1.725,4.05 C0.975,2.85 1.8,1.05 3.3,1.05 L11.4,1.05 C11.625,1.05 11.85,1.275 11.85,1.5 C11.85,1.725 11.625,1.95 11.4,1.95 L11.025,1.95 Z M8.7,4.95 L1.5,4.95 L1.5,7.05 L8.7,7.05 C8.925,7.05 9.225,6.9 9.375,6.75 C9.75,6.3 9.75,5.625 9.375,5.25 C9.15,5.1 8.925,4.95 8.7,4.95 L8.7,4.95 Z M10.5,7.95 L3.3,7.95 C3.075,7.95 2.775,8.1 2.625,8.25 C2.025,8.85 2.4,10.05 3.3,10.05 L10.5,10.05 L10.5,7.95 L10.5,7.95 Z M10.5,4.05 L10.5,1.95 L3.3,1.95 C2.4,1.95 2.1,3.15 2.625,3.75 C2.775,3.9 3,4.05 3.3,4.05 L10.5,4.05 L10.5,4.05 Z" id="" fill="#FF1DB0"></path>
                        </g>
                    </g>
                </g>
            </g>
        </g>
    </g>
</svg>
