<?xml version="1.0" encoding="UTF-8"?>
<svg width="12px" height="12px" viewBox="0 0 12 12" version="1.1" xmlns="http://www.w3.org/2000/svg" xmlns:xlink="http://www.w3.org/1999/xlink">
    <title></title>
    <g id="nexusAI" stroke="none" stroke-width="1" fill="none" fill-rule="evenodd">
        <g id="" transform="translate(-1488.000000, -181.000000)" fill-rule="nonzero">
            <g id="" transform="translate(1440.000000, 133.000000)">
                <g id="-10" transform="translate(20.000000, 20.000000)">
                    <g id="-22" transform="translate(26.000000, 26.000000)">
                        <g id="" transform="translate(2.000000, 2.000000)">
                            <rect id="" fill="#000000" opacity="0" x="0" y="0" width="12" height="12"></rect>
                            <path d="M6.6525,0.846999996 L10.411,2.847 C10.7732599,3.03981454 10.9997292,3.41662259 11,3.827 L11,8.182 C11,8.59399999 10.7725,8.97199999 10.409,9.164 L6.65,11.1555 C6.2435,11.371 5.75650001,11.371 5.35,11.1555 L1.591,9.165 C1.22733196,8.97238606 0.999999977,8.59452711 0.999999977,8.183 L0.999999977,3.828 C0.999999977,3.417 1.2265,3.0395 1.589,2.8465 L5.3475,0.846999996 C5.7554205,0.629932411 6.2445795,0.629932411 6.6525,0.846999996 Z M5.553,1.7475 L5.469,1.789 L2.464,3.424 C2.20346316,3.56595286 2.03091589,3.82852481 2.004,4.124 L2,4.205 L2,7.804 C2,8.10499999 2.15200001,8.38399999 2.4015,8.547 L2.4655,8.5855 L5.4705,10.2135 C5.77178271,10.3768084 6.13157052,10.3919379 6.4455,10.2545 L6.529,10.2135 L9.5345,8.5855 C9.7995,8.442 9.972,8.17549999 9.997,7.8785 L10,7.8035 L10,4.205 C10,3.9065 9.85,3.63 9.605,3.466 L9.536,3.424 L6.531,1.789 C6.22899038,1.62455672 5.86785471,1.60923246 5.553,1.7475 Z M8.098,4.294 C8.25278521,4.20325773 8.44432479,4.20240821 8.59990882,4.29177394 C8.75549284,4.38113967 8.85126568,4.54701822 8.85087243,4.72644082 C8.85047675,4.90586341 8.75397546,5.07131924 8.598,5.16 L6.5,6.371 L6.5,8.5 C6.5,8.77614237 6.27614238,9 6,9 C5.72385762,9 5.5,8.77614237 5.5,8.5 L5.5,6.3715 L3.402,5.16 C3.16489331,5.02099706 3.08443589,4.71667651 3.22186289,4.47865294 C3.3592899,4.24062937 3.66307003,4.15815497 3.902,4.294 L5.992,5.5 L6.007,5.5 L8.098,4.294 Z" id="" fill="#6A2CCB"></path>
                        </g>
                    </g>
                </g>
            </g>
        </g>
    </g>
</svg>
