<?xml version="1.0" encoding="UTF-8"?>
<svg width="16px" height="16px" viewBox="0 0 16 16" version="1.1" xmlns="http://www.w3.org/2000/svg" xmlns:xlink="http://www.w3.org/1999/xlink">
    <title></title>
    <g id="nexusAI" stroke="none" stroke-width="1" fill="none" fill-rule="evenodd">
        <g id="" transform="translate(-390.000000, -89.000000)" fill-rule="nonzero">
            <g id="-2" transform="translate(30.000000, 81.000000)">
                <g id="-14" transform="translate(345.000000, 0.000000)">
                    <g id="-13" transform="translate(15.000000, 6.000000)">
                        <g id="" transform="translate(0.000000, 2.000000)">
                            <rect id="" fill="#000000" opacity="0" x="0" y="0" width="16" height="16"></rect>
                            <path d="M8.87,1.12933333 L13.8813333,3.796 C14.3643466,4.05308605 14.6663057,4.55549679 14.6666667,5.10266667 L14.6666667,10.9093333 C14.6666667,11.4586667 14.3633333,11.9626667 13.8786667,12.2186667 L8.86666667,14.874 C8.32466667,15.1613333 7.67533334,15.1613333 7.13333333,14.874 L2.12133333,12.22 C1.63644262,11.9631814 1.3333333,11.4593695 1.3333333,10.9106667 L1.3333333,5.104 C1.3333333,4.556 1.63533333,4.05266667 2.11866667,3.79533333 L7.13,1.12933333 C7.67389399,0.839909881 8.32610601,0.839909881 8.87,1.12933333 Z M7.404,2.33 L7.292,2.38533333 L3.28533333,4.56533333 C2.93795089,4.75460381 2.70788785,5.10469975 2.672,5.49866667 L2.66666667,5.60666667 L2.66666667,10.4053333 C2.66666667,10.8066667 2.86933334,11.1786667 3.202,11.396 L3.28733333,11.4473333 L7.294,13.618 C7.69571028,13.8357445 8.17542736,13.8559172 8.594,13.6726667 L8.70533333,13.618 L12.7126667,11.4473333 C13.066,11.256 13.296,10.9006667 13.3293333,10.5046667 L13.3333333,10.4046667 L13.3333333,5.60666667 C13.3333333,5.20866667 13.1333333,4.84 12.8066667,4.62133333 L12.7146667,4.56533333 L8.708,2.38533333 C8.30532051,2.16607563 7.82380628,2.14564328 7.404,2.33 Z M10.7973333,5.72533333 C11.0037136,5.60434364 11.2590997,5.60321095 11.4665451,5.72236525 C11.6739905,5.84151955 11.8016876,6.06269096 11.8011632,6.30192109 C11.8006357,6.54115121 11.6719673,6.76175899 11.464,6.88 L8.66666667,8.49466667 L8.66666667,11.3333333 C8.66666667,11.7015232 8.36818984,12 8,12 C7.63181016,12 7.33333333,11.7015232 7.33333333,11.3333333 L7.33333333,8.49533333 L4.536,6.88 C4.21985774,6.69466275 4.11258119,6.28890201 4.29581719,5.97153725 C4.4790532,5.65417249 4.88409338,5.54420663 5.20266667,5.72533333 L7.98933333,7.33333333 L8.00933333,7.33333333 L10.7973333,5.72533333 Z" id="" fill="#9097A1"></path>
                        </g>
                    </g>
                </g>
            </g>
        </g>
    </g>
</svg>
