<?xml version="1.0" encoding="UTF-8"?>
<svg width="18px" height="18px" viewBox="0 0 18 18" version="1.1" xmlns="http://www.w3.org/2000/svg" xmlns:xlink="http://www.w3.org/1999/xlink">
    <title>SQL</title>
    <defs>
        <linearGradient x1="4.58512215%" y1="0.00124286579%" x2="50%" y2="99.9987571%" id="linearGradient-1">
            <stop stop-color="#887BFF" offset="0%"></stop>
            <stop stop-color="#5670FB" offset="100%"></stop>
        </linearGradient>
    </defs>
    <g id="nexusAI" stroke="none" stroke-width="1" fill="none" fill-rule="evenodd">
        <g id="-" transform="translate(-591.000000, -667.000000)">
            <g id="-26" transform="translate(570.000000, 559.386333)">
                <g id="SQL" transform="translate(21.000000, 107.613667)">
                    <rect id="" fill="#000000" fill-rule="nonzero" opacity="0" x="0" y="0" width="18" height="18"></rect>
                    <path d="M5.61314532,16.8084391 L0.478282038,16.8084391 L0.478282038,16.3220133 L4.90591876,16.3220133 C5.22964923,16.3518961 5.37740313,16.2190836 5.34918048,15.9235758 L5.34918048,13.8865641 C5.37906329,13.5628336 5.24459063,13.4150797 4.95074298,13.4433024 L1.8495711,13.4433024 C0.904942194,13.4433024 0.433457819,12.9419352 0.433457819,11.9392008 L0.433457819,10.9646891 C0.433457819,9.9901774 0.904942194,9.50375162 1.8495711,9.50375162 L3.49810626,9.50375162 L3.49810626,9.9901774 L2.55845782,9.9901774 C2.26295001,9.96195474 2.13013751,10.1080485 2.16002032,10.4334391 L2.16002032,12.5136149 C2.13013751,12.8390055 2.26295001,12.9867594 2.55845782,12.9568766 L5.61314532,12.9568766 C6.58765704,12.9568766 7.07408282,13.4433024 7.07408282,14.4178141 L7.07408282,15.3475016 C7.07408282,16.3220133 6.58765704,16.8084391 5.61314532,16.8084391 Z M11.5897078,16.9860758 L11.4568953,16.8084391 L9.19908282,16.8084391 C8.2245711,16.8084391 7.73814532,16.3070719 7.73814532,15.3026774 L7.73814532,10.9646891 C7.73814532,9.9901774 8.2245711,9.50375162 9.19908282,9.50375162 L13.4490828,9.50375162 C14.4235945,9.50375162 14.9100203,9.9901774 14.9100203,10.9646891 L14.9100203,15.3026774 C14.9100203,16.3070719 14.4235945,16.8084391 13.4490828,16.8084391 L12.5193953,16.8084391 L12.962657,17.5604899 C12.2238875,17.6501383 11.7673445,17.4575602 11.5897078,16.9860758 Z M11.7225203,15.2595133 L12.2985945,16.3220133 L12.7418563,16.3220133 C13.0373641,16.3518961 13.1685164,16.2041422 13.1402938,15.8787516 L13.1402938,10.4334391 C13.1685164,10.1097086 13.0357039,9.96195474 12.7418563,9.9901774 L9.90796954,9.9901774 C9.61246173,9.96195474 9.47964923,10.1080485 9.50953204,10.4334391 L9.50953204,15.8787516 C9.47964923,16.2041422 9.61246173,16.3518961 9.90796954,16.3220133 L11.2360945,16.3220133 L10.6168563,15.2595133 L11.7225203,15.2595133 Z M17.4334578,16.8084391 L15.7068953,16.8084391 L15.7068953,9.4589274 L17.4334578,9.4589274 L17.4334578,16.8084391 L17.4334578,16.8084391 Z M3.93306719,11.1074626 L5.07359454,7.91000162 L6.93296954,9.86234537 L3.93306719,11.1074626 Z M7.31314532,9.49379068 L5.43882891,7.52650552 L10.5371688,2.21898599 L12.4131453,4.18627115 L7.31314532,9.49379068 Z M12.7617781,3.77787271 L10.8858016,1.81058755 L11.8237899,0.826114898 C12.1342391,0.500724273 12.6372664,0.500724273 12.9493758,0.826114898 L13.6997664,1.61302896 C14.0102156,1.93841959 14.0102156,2.46800943 13.6997664,2.79340005 L12.7617781,3.77787271 Z" id="" fill="url(#linearGradient-1)"></path>
                </g>
            </g>
        </g>
    </g>
</svg>
