<?xml version="1.0" encoding="UTF-8"?>
<svg width="18px" height="18px" viewBox="0 0 18 18" version="1.1" xmlns="http://www.w3.org/2000/svg" xmlns:xlink="http://www.w3.org/1999/xlink">
    <title></title>
    <defs>
        <linearGradient x1="16.3243074%" y1="0%" x2="50%" y2="100%" id="linearGradient-1">
            <stop stop-color="#887BFF" offset="0%"></stop>
            <stop stop-color="#5670FB" offset="100%"></stop>
        </linearGradient>
    </defs>
    <g id="nexusAI" stroke="none" stroke-width="1" fill="none" fill-rule="evenodd">
        <g id="-" transform="translate(-711.000000, -627.000000)">
            <g id="-26" transform="translate(570.000000, 559.386333)">
                <g id="1" transform="translate(141.000000, 67.613667)">
                    <rect id="" fill="#000000" fill-rule="nonzero" opacity="0" x="0" y="0" width="18" height="18"></rect>
                    <path d="M8.82,1 C9.99111111,1 10.68,1.64 11.0933333,2.20888889 C11.3,2.42222222 11.3688889,2.56444445 11.4377778,2.77777778 L13.7111111,2.77777778 C14.8822222,2.77777778 15.7777778,3.70222222 15.7777778,4.91111111 L15.7777778,14.8666667 C15.7777778,16.0755556 14.8822222,17 13.7111111,17 L4.06666667,17 C2.89555556,17 2,16.0755556 2,14.8666667 L2,4.91111111 C2,3.70222222 2.89555556,2.77777778 4.06666667,2.77777778 L6.34,2.77777778 C6.40888889,2.56444445 6.47777778,2.42222222 6.54666667,2.20888889 C6.96,1.64 7.64888889,1 8.82,1 Z M8.88888889,2.42222222 C8.33777778,2.42222222 7.99333334,2.70666667 7.78666667,2.99111111 C7.64888889,3.13333333 7.51111111,3.63111111 7.51111111,3.63111111 C7.44222223,3.98666667 7.16666667,4.2 6.82222223,4.2 L4.06666667,4.2 C3.65333334,4.2 3.37777778,4.48444444 3.37777778,4.91111111 L3.37777778,14.8666667 C3.37777778,15.2933333 3.65333334,15.5777778 4.06666667,15.5777778 L13.7111111,15.5777778 C14.1244444,15.5777778 14.4,15.2933333 14.4,14.8666667 L14.4,4.91111111 C14.4,4.48444444 14.1244444,4.2 13.7111111,4.2 L10.9555556,4.2 C10.6111111,4.2 10.3355556,3.98666667 10.2666667,3.63111111 C10.2666667,3.63111111 10.1288889,3.13333333 9.99111111,2.99111111 C9.78444445,2.70666666 9.44,2.42222222 8.88888889,2.42222222 Z M12.4075556,10.7035556 C12.8297778,10.7035556 13.1111111,10.9853333 13.1111111,11.4075556 C13.1111111,11.8297778 12.8297778,12.1111111 12.4075556,12.1111111 L5.37022223,12.1111111 C4.948,12.1111111 4.66666667,11.8297778 4.66666667,11.4075556 C4.66666667,10.9853333 4.948,10.7035556 5.37022223,10.7035556 L12.4075556,10.7035556 Z M8.88888889,7.88888889 C9.31111111,7.88888889 9.59244445,8.17022222 9.59244445,8.59244444 C9.59244445,9.01466666 9.31111112,9.29644444 8.88888889,9.29644444 L5.37022223,9.29644444 C4.94800002,9.29644444 4.66666667,9.01466666 4.66666667,8.59244444 C4.66666667,8.17022222 4.948,7.88888889 5.37022223,7.88888889 L8.88888889,7.88888889 Z M8.88888889,3.66666667 C9.31111111,3.66666667 9.59244445,3.948 9.59244445,4.37022222 L9.59244445,4.72222222 C9.59244445,5.14444444 9.31111112,5.42577778 8.88888889,5.42577778 C8.46666667,5.42577778 8.18533334,5.14444445 8.18533334,4.72222222 L8.18533334,4.37022222 C8.18533334,3.948 8.46666667,3.66666667 8.88888889,3.66666667 Z" id="" fill="url(#linearGradient-1)"></path>
                </g>
            </g>
        </g>
    </g>
</svg>
