<?xml version="1.0" encoding="UTF-8"?>
<svg width="18px" height="18px" viewBox="0 0 18 18" version="1.1" xmlns="http://www.w3.org/2000/svg" xmlns:xlink="http://www.w3.org/1999/xlink">
    <title>_</title>
    <defs>
        <linearGradient x1="4.58512215%" y1="3.50902658%" x2="50%" y2="96.4909734%" id="linearGradient-1">
            <stop stop-color="#887BFF" offset="0%"></stop>
            <stop stop-color="#5670FB" offset="100%"></stop>
        </linearGradient>
    </defs>
    <g id="nexusAI" stroke="none" stroke-width="1" fill="none" fill-rule="evenodd">
        <g id="-" transform="translate(-711.000000, -667.000000)">
            <g id="-26" transform="translate(570.000000, 559.386333)">
                <g id="_" transform="translate(141.000000, 107.613667)">
                    <rect id="" fill="#000000" fill-rule="nonzero" opacity="0" x="0" y="0" width="18" height="18"></rect>
                    <path d="M2.926125,7.887375 L6.6639375,10.1503125 C6.84138841,10.2517236 6.94986874,10.4414079 6.9472928,10.6457762 C6.94471685,10.8501445 6.83149,11.0370343 6.65153942,11.1339406 C6.47158883,11.2308468 6.2532341,11.2225188 6.0811875,11.1121875 L1.396125,8.276625 C1.21473208,8.16697658 1.11037638,7.96467129 1.12617849,7.75330322 C1.1419806,7.54193515 1.27525725,7.35739551 1.4709375,7.2759375 L16.0959375,1.1683125 C16.2869453,1.08872327 16.5062281,1.12043171 16.6668659,1.25086912 C16.8275036,1.38130654 16.9035552,1.58940873 16.864875,1.7926875 L14.3026875,15.2926875 C14.2679309,15.4757742 14.144753,15.6297624 13.9737686,15.7038781 C13.8027843,15.7779939 13.6061917,15.7626151 13.4488125,15.6628125 L8.6990625,12.6511875 C8.43655466,12.4849843 8.35848432,12.1374453 8.52468751,11.8749375 C8.6908907,11.6124297 9.03842966,11.5343593 9.3009375,11.7005625 L13.3520625,14.2689375 L15.564375,2.61 L2.926125,7.887375 Z M7.3125,11.1110625 L7.3125,15.75 C7.3125,16.0606602 7.06066017,16.3125 6.75,16.3125 C6.43933983,16.3125 6.1875,16.0606602 6.1875,15.75 L6.1875,10.8523125 C6.1875,10.6878871 6.25942252,10.531689 6.384375,10.4248125 L13.222125,4.5703125 C13.374856,4.43968727 13.5856731,4.40046562 13.7751634,4.46742196 C13.9646536,4.53437831 14.1040291,4.69734039 14.1407884,4.89492196 C14.1775476,5.09250354 14.106106,5.29468727 13.953375,5.4253125 L7.3125,11.1105 L7.3125,11.1110625 Z" id="" fill="url(#linearGradient-1)"></path>
                </g>
            </g>
        </g>
    </g>
</svg>
