<?xml version="1.0" encoding="UTF-8"?>
<svg width="18px" height="18px" viewBox="0 0 18 18" version="1.1" xmlns="http://www.w3.org/2000/svg" xmlns:xlink="http://www.w3.org/1999/xlink">
    <title></title>
    <defs>
        <linearGradient x1="4.58512215%" y1="15.3297748%" x2="50%" y2="84.6702252%" id="linearGradient-1">
            <stop stop-color="#887BFF" offset="0%"></stop>
            <stop stop-color="#5670FB" offset="100%"></stop>
        </linearGradient>
    </defs>
    <g id="nexusAI" stroke="none" stroke-width="1" fill="none" fill-rule="evenodd">
        <g id="-" transform="translate(-671.000000, -627.000000)">
            <g id="-26" transform="translate(570.000000, 559.386333)">
                <g id="" transform="translate(101.000000, 67.613667)">
                    <rect id="" fill="#000000" fill-rule="nonzero" opacity="0" x="0" y="0" width="18" height="18"></rect>
                    <path d="M3.87,14.265 C3.26580074,14.2658921 2.68490653,14.0319209 2.25,13.6125 C1.81332258,13.2049662 1.56489391,12.634802 1.56375,12.0375 C1.57220062,11.4384751 1.81919482,10.8675541 2.25,10.45125 C2.69373635,10.0314329 3.28164193,9.79788138 3.8925,9.79875 L5.0175,9.79875 C5.32816017,9.79875 5.58,9.54691017 5.58,9.23625 C5.58,8.92558983 5.32816017,8.67375 5.0175,8.67375 L3.8925,8.67375 C2.97615129,8.64012773 2.08556674,8.98080809 1.4256081,9.61742414 C0.765649454,10.2540402 0.393133381,11.1317849 0.393749236,12.04875 C0.430692477,13.9456763 1.99547325,15.4551111 3.8925,15.42375 L3.8925,16.54875 L5.625,14.8275 L3.87,13.15125 L3.87,14.265 Z M10.29375,13.15125 L7.95375,13.15125 C7.02176948,13.15125 6.26625,13.9067695 6.26625,14.83875 C6.26625,15.7707305 7.02176948,16.52625 7.95375,16.52625 L10.29375,16.52625 C11.2257305,16.52625 11.98125,15.7707305 11.98125,14.83875 C11.98125,13.9067695 11.2257305,13.15125 10.29375,13.15125 L10.29375,13.15125 Z M10.29375,15.40125 L7.95375,15.40125 C7.64308983,15.40125 7.39125,15.1494102 7.39125,14.83875 C7.39125,14.5280898 7.64308983,14.27625 7.95375,14.27625 L10.29375,14.27625 C10.6044102,14.27625 10.85625,14.5280898 10.85625,14.83875 C10.85625,15.1494102 10.6044102,15.40125 10.29375,15.40125 Z M10.29375,1.99125 L7.95375,1.99125 C7.50020447,1.98221007 7.06165272,2.15375644 6.73461663,2.46813307 C6.40758054,2.7825097 6.21886325,3.21395098 6.21,3.6675 C6.21886325,4.12104902 6.40758054,4.5524903 6.73461663,4.86686693 C7.06165272,5.18124356 7.50020447,5.35278993 7.95375,5.34375 L10.29375,5.34375 C10.7472955,5.35278993 11.1858473,5.18124356 11.5128834,4.86686693 C11.8399195,4.5524903 12.0286367,4.12104902 12.0375,3.6675 C12.0286367,3.21395098 11.8399195,2.7825097 11.5128834,2.46813307 C11.1858473,2.15375644 10.7472955,1.98221007 10.29375,1.99125 L10.29375,1.99125 Z M10.29375,4.24125 L7.95375,4.24125 C7.64111176,4.24761944 7.38094799,4.00246512 7.36875,3.69 C7.37170461,3.5378225 7.43500552,3.39305502 7.54472076,3.28755959 C7.65443601,3.18206416 7.80157365,3.12448689 7.95375,3.1275 L10.29375,3.1275 C10.6044102,3.1275 10.85625,3.37933983 10.85625,3.69 C10.85625,4.00066017 10.6044102,4.2525 10.29375,4.2525 L10.29375,4.24125 Z M10.29375,7.57125 L7.95375,7.57125 C7.02176948,7.57125 6.26625,8.32676948 6.26625,9.25875 C6.26625,10.1907305 7.02176948,10.94625 7.95375,10.94625 L10.29375,10.94625 C11.2257305,10.94625 11.98125,10.1907305 11.98125,9.25875 C11.98125,8.32676948 11.2257305,7.57125 10.29375,7.57125 L10.29375,7.57125 Z M10.29375,9.82125 L7.95375,9.82125 C7.64111176,9.82761944 7.38094799,9.58246512 7.36875,9.27 C7.38084607,8.95573269 7.63925008,8.7072673 7.95375,8.70749984 L10.29375,8.70749984 C10.6062815,8.70743992 10.8613719,8.95752861 10.8675,9.27 C10.8494312,9.57180279 10.5960214,9.80533727 10.29375,9.79875 L10.29375,9.82125 Z M14.3775,3.105 L13.185,3.105 C12.8743398,3.105 12.6225,3.35683983 12.6225,3.6675 C12.6225,3.97816017 12.8743398,4.23 13.185,4.23 L14.3775,4.23 C14.9883581,4.22913138 15.5762636,4.46268292 16.02,4.8825 C16.4586969,5.29108999 16.7078503,5.86362455 16.7078503,6.463125 C16.7078503,7.06262545 16.4586969,7.63516001 16.02,8.04375 C15.5795105,8.46862883 14.9894698,8.70302854 14.3775,8.69625 L14.3775,7.57125 L12.6225,9.2475 L14.3775,10.92375 L14.3775,9.79875 C15.2938487,9.83237227 16.1844333,9.49169191 16.8443919,8.85507586 C17.5043505,8.2184598 17.8768666,7.34071512 17.8762508,6.42375 C17.861743,5.51658371 17.4826025,4.65346242 16.8243479,4.02907305 C16.1660934,3.40468368 15.2841679,3.071617 14.3775,3.105 L14.3775,3.105 Z" id="" fill="url(#linearGradient-1)"></path>
                </g>
            </g>
        </g>
    </g>
</svg>
